<?xml version="1.0" standalone="no"?>
<!DOCTYPE svg PUBLIC "-//W3C//DTD SVG 1.1//EN" "http://www.w3.org/Graphics/SVG/1.1/DTD/svg11.dtd" >
<svg xmlns="http://www.w3.org/2000/svg" xmlns:xlink="http://www.w3.org/1999/xlink" version="1.1">
<metadata>
Created by FontForge 20170910 at Tue Mar 13 17:35:20 2018
 By Jimmy Wärting
Copyright \(c\) 2018 by MadeType. All rights reserved.
</metadata>
<defs>
<font id="MADEEvolveSansEVO-Thin" horiz-adv-x="545" >
  <font-face 
    font-family="MADE Evolve Sans EVO"
    font-weight="250"
    font-stretch="normal"
    units-per-em="1000"
    panose-1="2 0 5 3 0 0 0 2 0 4"
    ascent="800"
    descent="-200"
    x-height="482"
    cap-height="700"
    bbox="-55 -225 1070 950"
    underline-thickness="50"
    underline-position="-100"
    unicode-range="U+0020-F6C3"
  />
<missing-glyph horiz-adv-x="280" 
 />
    <glyph glyph-name=".notdef" horiz-adv-x="280" 
 />
    <glyph glyph-name="A" unicode="A" horiz-adv-x="652" 
d="M342 700l270 -700h-37l-249 645l-249 -645h-37l270 700h32z" />
    <glyph glyph-name="B" unicode="B" horiz-adv-x="653" 
d="M436 377c82 -20 142 -80 142 -183c0 -131 -97 -194 -211 -194h-267v390h250c87 0 152 48 152 138s-60 138 -152 138h-250v34h250c111 0 190 -67 190 -172c0 -74 -41 -127 -104 -151zM367 35c92 0 174 49 174 159s-79 162 -174 162h-232v-321h232z" />
    <glyph glyph-name="C" unicode="C" horiz-adv-x="757" 
d="M405 29c111 0 203 58 256 145l31 -16c-58 -98 -162 -164 -287 -164c-196 0 -340 160 -340 356c0 197 144 357 340 357c125 0 229 -66 287 -164l-31 -16c-53 87 -145 145 -256 145c-177 0 -302 -144 -302 -322c0 -177 125 -321 302 -321zM365 350c0 22 18 40 40 40
s40 -18 40 -40s-18 -40 -40 -40s-40 18 -40 40z" />
    <glyph glyph-name="D" unicode="D" horiz-adv-x="738" 
d="M295 700c210 0 368 -124 368 -350c0 -225 -157 -350 -368 -350h-195v310h35v-275h160c183 0 327 113 327 315c0 203 -140 316 -327 316h-195v34h195z" />
    <glyph glyph-name="E" unicode="E" horiz-adv-x="639" 
d="M559 700v-35h-459v35h459zM528 367v-34h-428v34h428zM100 35h465v-35h-465v35z" />
    <glyph glyph-name="F" unicode="F" horiz-adv-x="614" 
d="M100 700h459v-35h-459v35zM100 367h392v-34h-357v-333h-35v367z" />
    <glyph glyph-name="G" unicode="G" horiz-adv-x="787" 
d="M667 374h35v-280c-42 -47 -148 -112 -299 -100c-195 16 -328 160 -328 356c0 197 133 341 328 357c127 10 223 -34 275 -77l-18 -26c-43 36 -129 78 -257 68c-176 -14 -290 -144 -291 -322c1 -177 115 -307 291 -321c136 -11 225 38 264 75v270z" />
    <glyph glyph-name="I" unicode="I" horiz-adv-x="234" 
d="M100 0v501h34v-501h-34zM100 700h34v-106h-34v106z" />
    <glyph glyph-name="J" unicode="J" horiz-adv-x="444" 
d="M319 501h35v-315c0 -116 -56 -193 -165 -193c-79 0 -136 34 -164 74l31 20c20 -29 69 -60 129 -60c90 0 134 66 134 160v314zM319 700h35v-106h-35v106z" />
    <glyph glyph-name="K" unicode="K" horiz-adv-x="642" 
d="M553 0l-256 333h-162v-333h-35v700h35v-332h161l230 332h43l-242 -349l270 -351h-44z" />
    <glyph glyph-name="L" unicode="L" horiz-adv-x="560" 
d="M100 594v106h35v-106h-35zM100 81v420h35v-385zM196 35h324v-35h-359z" />
    <glyph glyph-name="M" unicode="M" horiz-adv-x="886" 
d="M778 707h8v-707h-35v608l-303 -423h-8l-305 423v-608h-35v707h9l335 -466z" />
    <glyph glyph-name="N" unicode="N" horiz-adv-x="733" 
d="M598 84v616h35v-707h-9l-489 622v-615h-35v707h8z" />
    <glyph glyph-name="O" unicode="O" horiz-adv-x="789" 
d="M394 706c196 0 340 -160 340 -357c0 -196 -144 -356 -340 -356c-195 0 -339 160 -339 356c0 197 144 357 339 357zM394 27c177 0 302 145 302 322c0 178 -125 322 -302 322c-176 0 -301 -144 -301 -322c0 -177 125 -322 301 -322zM394 389c22 0 40 -18 40 -40
s-18 -40 -40 -40s-40 18 -40 40s18 40 40 40z" />
    <glyph glyph-name="P" unicode="P" horiz-adv-x="619" 
d="M350 700c128 0 229 -85 229 -214c0 -128 -98 -214 -229 -214h-216v-272h-34v307h250c106 0 191 68 191 179c0 112 -82 180 -191 180h-250v34h250z" />
    <glyph glyph-name="Q" unicode="Q" horiz-adv-x="809" 
d="M744 350c0 -191 -134 -347 -322 -356v-144h-34v144c-187 9 -323 165 -323 356c0 196 144 356 340 356s339 -160 339 -356zM405 28c177 0 302 145 302 322s-125 322 -302 322s-302 -145 -302 -322s125 -322 302 -322z" />
    <glyph glyph-name="R" unicode="R" horiz-adv-x="658" 
d="M593 0h-40l-156 276c-15 -2 -31 -4 -47 -4h-216v-272h-34v307h250c106 0 192 68 192 179c0 112 -83 179 -192 179h-250v35h250c128 0 229 -85 229 -214c0 -100 -59 -174 -147 -201z" />
    <glyph glyph-name="S" unicode="S" horiz-adv-x="626" 
d="M83 163c13 -44 47 -83 99 -108l-15 -31c-60 28 -101 76 -117 128zM319 370c202 -46 247 -105 247 -185c0 -75 -53 -193 -246 -193h-20l17 35h3c107 0 211 48 211 158c0 96 -106 126 -220 151c-162 34 -244 86 -244 179c0 115 98 192 228 192c21 0 41 -2 61 -5l-21 -32
c-13 2 -26 2 -40 2c-114 0 -194 -63 -194 -157c0 -92 106 -119 218 -145z" />
    <glyph glyph-name="T" unicode="T" horiz-adv-x="536" 
d="M256 0v513h34v-513h-34zM20 700h506v-35h-506v35z" />
    <glyph glyph-name="U" unicode="U" horiz-adv-x="715" 
d="M358 27c130 0 212 85 221 227l34 -15c-14 -151 -105 -246 -255 -246c-164 0 -258 110 -258 290v218h35v-218c0 -161 84 -256 223 -256zM135 700v-106h-35v106h35zM615 700v-352l-35 15v337h35z" />
    <glyph glyph-name="V" unicode="V" horiz-adv-x="626" 
d="M30 700h37l163 -427l-19 -48zM559 700h37l-267 -700h-32l-3 8z" />
    <glyph glyph-name="W" unicode="W" horiz-adv-x="1031" 
d="M986 700l-282 -700h-31l-159 371l-159 -371h-31l-279 700h37l258 -644l155 359l-123 285h37l105 -241l105 241h37l-123 -285l156 -359l260 644h37z" />
    <glyph glyph-name="X" unicode="X" horiz-adv-x="601" 
d="M327 360l254 -360h-43l-254 360l241 340h43zM43 700h43l148 -208l-22 -30zM30 0l169 239l21 -30l-147 -209h-43z" />
    <glyph glyph-name="Y" unicode="Y" horiz-adv-x="599" 
d="M317 232h-34l-262 468h39l240 -427l239 427h40zM283 0v122h34v-122h-34z" />
    <glyph glyph-name="Z" unicode="Z" horiz-adv-x="673" 
d="M114 35h489v-35h-533v35l481 630h44zM364 700l-27 -35h-237v35h264z" />
    <glyph glyph-name="a" unicode="a" horiz-adv-x="500" 
d="M252 489c71 0 168 -35 168 -168v-321h-34v99c-28 -43 -88 -106 -197 -106c-66 0 -149 27 -149 119c0 94 84 128 178 150c80 18 167 27 167 73c0 65 -38 120 -133 120c-90 0 -138 -48 -153 -110l-34 8c15 59 59 136 187 136zM386 201v64c-43 -9 -93 -24 -160 -37
c-111 -23 -149 -56 -149 -116c0 -58 53 -85 117 -85c109 0 192 79 192 174z" />
    <glyph glyph-name="b" unicode="b" horiz-adv-x="586" 
d="M306 489c137 0 225 -111 225 -248s-88 -248 -225 -248c-90 0 -156 47 -191 118v-111h-35v700h35v-329c35 71 101 118 191 118zM306 27c118 0 188 96 188 214s-70 214 -188 214s-188 -96 -188 -214s70 -214 188 -214z" />
    <glyph glyph-name="c" unicode="c" horiz-adv-x="533" 
d="M281 27c74 0 131 38 164 96l33 -16c-40 -69 -110 -114 -197 -114c-137 0 -231 111 -231 248s94 248 231 248c87 0 157 -45 197 -114l-33 -15c-33 57 -90 95 -164 95c-118 0 -194 -96 -194 -214s76 -214 194 -214z" />
    <glyph glyph-name="d" unicode="d" horiz-adv-x="582" 
d="M467 700h35v-700h-35v111c-35 -71 -102 -118 -191 -118c-137 0 -226 111 -226 248s89 248 226 248c89 0 156 -47 191 -118v329zM276 27c118 0 188 96 188 214s-70 214 -188 214s-188 -96 -188 -214s70 -214 188 -214z" />
    <glyph glyph-name="e" unicode="e" 
d="M485 241c0 -9 0 -17 -1 -26h-405c11 -106 84 -188 193 -188c74 0 131 38 164 96l32 -16c-39 -69 -109 -114 -196 -114c-137 0 -232 111 -232 248s95 248 232 248s213 -111 213 -248zM272 455c-115 0 -190 -91 -194 -205h369c-3 114 -60 205 -175 205z" />
    <glyph glyph-name="f" unicode="f" horiz-adv-x="313" 
d="M223 671c-53 0 -71 -43 -71 -98v-91h117v-35h-117v-447h-35v447h-72v35h72v85c0 85 27 139 106 139c33 0 67 -16 90 -32l-19 -29c-17 13 -44 26 -71 26z" />
    <glyph glyph-name="g" unicode="g" horiz-adv-x="538" 
d="M498 479c-50 0 -85 -31 -103 -54c21 -27 35 -61 35 -104c0 -110 -91 -168 -186 -168c-16 0 -33 2 -48 5c-27 -22 -33 -49 -29 -62c6 -20 29 -26 97 -27c129 -2 211 -30 211 -121c0 -85 -82 -150 -230 -144c-121 5 -186 55 -215 82l22 25c39 -34 100 -68 193 -73
c103 -6 192 34 192 107s-79 86 -174 89c-75 3 -124 11 -132 55c-4 23 9 56 33 79c-60 23 -106 75 -106 153c0 111 91 169 186 169c48 0 95 -15 130 -44c30 44 74 73 124 73v-40zM244 188c77 0 148 42 148 133c0 92 -71 134 -148 134s-148 -42 -148 -134
c0 -91 71 -133 148 -133z" />
    <glyph glyph-name="h" unicode="h" horiz-adv-x="541" 
d="M273 489c120 0 188 -84 188 -215v-274h-35v274c0 105 -54 181 -153 181c-90 0 -158 -77 -158 -193v-262h-35v700h35v-316c29 61 83 105 158 105z" />
    <glyph glyph-name="i" unicode="i" horiz-adv-x="220" 
d="M90 0v482h35v-482h-35zM107 630c16 0 28 -13 28 -28s-12 -28 -28 -28c-15 0 -27 13 -27 28s12 28 27 28z" />
    <glyph glyph-name="j" unicode="j" horiz-adv-x="231" 
d="M123 630c15 0 28 -13 28 -28s-13 -28 -28 -28s-28 13 -28 28s13 28 28 28zM105 -89v571h34v-571c0 -72 -32 -136 -109 -136c-39 0 -65 13 -85 30l21 27c14 -11 33 -22 64 -22c49 0 75 38 75 101z" />
    <glyph glyph-name="k" unicode="k" horiz-adv-x="502" 
d="M427 0l-188 224h-124v-224h-35v700h35v-441h113l169 223h43l-176 -233l208 -249h-45z" />
    <glyph glyph-name="l" unicode="l" horiz-adv-x="289" 
d="M236 44l13 -29c-13 -9 -42 -22 -69 -22c-79 0 -100 39 -100 136v621h35v-624c0 -67 13 -98 65 -98c20 0 44 9 56 16z" />
    <glyph glyph-name="m" unicode="m" horiz-adv-x="846" 
d="M593 489c119 0 173 -84 173 -215v-274h-35v274c0 105 -46 181 -144 181c-91 0 -147 -77 -147 -193v-262h-35v274c0 105 -45 181 -143 181c-91 0 -147 -77 -147 -193v-262h-35v482h35v-94c28 58 79 101 152 101c87 0 138 -44 161 -118c27 68 83 118 165 118z" />
    <glyph glyph-name="n" unicode="n" horiz-adv-x="540" 
d="M273 489c119 0 187 -84 187 -215v-274h-35v274c0 105 -54 181 -152 181c-91 0 -159 -77 -159 -193v-262h-34v482h34v-98c30 61 84 105 159 105z" />
    <glyph glyph-name="o" unicode="o" horiz-adv-x="568" 
d="M282 489c137 0 231 -111 231 -248s-94 -248 -231 -248s-232 111 -232 248s95 248 232 248zM282 27c118 0 193 96 193 214s-75 214 -193 214s-194 -96 -194 -214s76 -214 194 -214z" />
    <glyph glyph-name="p" unicode="p" horiz-adv-x="586" 
d="M306 490c137 0 225 -112 225 -249s-88 -248 -225 -248c-90 0 -156 47 -191 119v-330h-35v700h35v-111c35 71 101 119 191 119zM306 28c118 0 188 95 188 213s-70 214 -188 214s-188 -96 -188 -214s70 -213 188 -213z" />
    <glyph glyph-name="q" unicode="q" horiz-adv-x="582" 
d="M467 482h35v-700h-35v330c-35 -72 -102 -119 -191 -119c-137 0 -226 111 -226 248s89 249 226 249c89 0 156 -48 191 -119v111zM276 28c118 0 188 95 188 213s-70 214 -188 214s-188 -96 -188 -214s70 -213 188 -213z" />
    <glyph glyph-name="r" unicode="r" horiz-adv-x="325" 
d="M279 490c7 0 14 -1 21 -1l-6 -35c-5 1 -10 1 -15 1c-91 0 -164 -76 -164 -193v-262h-35v482h35v-101c30 62 87 109 164 109z" />
    <glyph glyph-name="s" unicode="s" horiz-adv-x="441" 
d="M223 259c79 -21 168 -47 168 -132c0 -90 -77 -135 -162 -135c-99 0 -168 49 -189 111l33 15c15 -46 65 -92 156 -92c65 0 127 31 127 101c0 54 -56 76 -141 98c-78 20 -151 47 -160 122s49 143 156 143c84 0 140 -46 161 -109l-32 -13c-19 52 -62 87 -129 87
c-87 0 -127 -49 -121 -104c6 -51 64 -74 133 -92z" />
    <glyph glyph-name="t" unicode="t" horiz-adv-x="308" 
d="M272 50l17 -30c-23 -17 -55 -27 -88 -27c-79 0 -107 53 -107 139v315h-74v35h74v131l35 10v-141h120v-35h-120v-321c0 -55 19 -98 72 -98c27 0 52 9 71 22z" />
    <glyph glyph-name="u" unicode="u" horiz-adv-x="521" 
d="M407 482h34v-273c0 -131 -67 -215 -185 -216c-119 1 -186 85 -186 216v273h34v-273c0 -104 54 -180 152 -181c97 1 151 77 151 181v273z" />
    <glyph glyph-name="v" unicode="v" horiz-adv-x="455" 
d="M396 482h37l-182 -482h-37l-182 482h37l164 -433z" />
    <glyph glyph-name="w" unicode="w" horiz-adv-x="710" 
d="M653 482h37l-156 -482h-34l-140 426l-141 -426h-34l-155 482h36l138 -425l140 425h31l140 -425z" />
    <glyph glyph-name="x" unicode="x" horiz-adv-x="443" 
d="M413 0h-43l-154 218l-153 -218h-43l175 248l-165 234h43l143 -203l144 203h42l-164 -234z" />
    <glyph glyph-name="y" unicode="y" horiz-adv-x="445" 
d="M386 482h37l-182 -482c-29 -77 -45 -118 -75 -152c-46 -54 -93 -44 -131 -37l6 34c84 -17 110 20 163 155l-182 482h37l164 -433z" />
    <glyph glyph-name="z" unicode="z" horiz-adv-x="472" 
d="M94 35h328v-35h-372v35l319 412h-306v35h350v-35z" />
    <glyph glyph-name="space" unicode=" " horiz-adv-x="280" 
 />
    <glyph glyph-name="uni0410" unicode="&#x410;" horiz-adv-x="652" 
d="M342 700l270 -700h-37l-249 645l-249 -645h-37l270 700h32z" />
    <glyph glyph-name="uni0412" unicode="&#x412;" horiz-adv-x="653" 
d="M436 377c82 -20 142 -80 142 -183c0 -131 -97 -194 -211 -194h-267v390h250c87 0 152 48 152 138s-60 138 -152 138h-250v34h250c111 0 190 -67 190 -172c0 -74 -41 -127 -104 -151zM367 35c92 0 174 49 174 159s-79 162 -174 162h-232v-321h232z" />
    <glyph glyph-name="uni0415" unicode="&#x415;" horiz-adv-x="639" 
d="M559 700v-35h-459v35h459zM528 367v-34h-428v34h428zM100 35h465v-35h-465v35z" />
    <glyph glyph-name="uni041A" unicode="&#x41a;" horiz-adv-x="642" 
d="M553 0l-256 333h-162v-333h-35v700h35v-332h161l230 332h43l-242 -349l270 -351h-44z" />
    <glyph glyph-name="uni0421" unicode="&#x421;" horiz-adv-x="757" 
d="M405 29c111 0 203 58 256 145l31 -16c-58 -98 -162 -164 -287 -164c-196 0 -340 160 -340 356c0 197 144 357 340 357c125 0 229 -66 287 -164l-31 -16c-53 87 -145 145 -256 145c-177 0 -302 -144 -302 -322c0 -177 125 -321 302 -321zM365 350c0 22 18 40 40 40
s40 -18 40 -40s-18 -40 -40 -40s-40 18 -40 40z" />
    <glyph glyph-name="uni041D" unicode="&#x41d;" horiz-adv-x="731" 
d="M100 0v188h35v-188h-35zM135 367h496v-367h-35v332h-496v368h35v-333zM596 700h35v-187h-35v187z" />
    <glyph glyph-name="uni041E" unicode="&#x41e;" horiz-adv-x="789" 
d="M394 706c196 0 340 -160 340 -357c0 -196 -144 -356 -340 -356c-195 0 -339 160 -339 356c0 197 144 357 339 357zM394 27c177 0 302 145 302 322c0 178 -125 322 -302 322c-176 0 -301 -144 -301 -322c0 -177 125 -322 301 -322zM394 389c22 0 40 -18 40 -40
s-18 -40 -40 -40s-40 18 -40 40s18 40 40 40z" />
    <glyph glyph-name="uni041C" unicode="&#x41c;" horiz-adv-x="886" 
d="M778 707h8v-707h-35v608l-303 -423h-8l-305 423v-608h-35v707h9l335 -466z" />
    <glyph glyph-name="uni0420" unicode="&#x420;" horiz-adv-x="619" 
d="M350 700c128 0 229 -85 229 -214c0 -128 -98 -214 -229 -214h-216v-272h-34v307h250c106 0 191 68 191 179c0 112 -82 180 -191 180h-250v34h250z" />
    <glyph glyph-name="uni0422" unicode="&#x422;" horiz-adv-x="536" 
d="M256 0v513h34v-513h-34zM20 700h506v-35h-506v35z" />
    <glyph glyph-name="uni0425" unicode="&#x425;" horiz-adv-x="601" 
d="M327 360l254 -360h-43l-254 360l241 340h43zM43 700h43l148 -208l-22 -30zM30 0l169 239l21 -30l-147 -209h-43z" />
    <glyph glyph-name="uni0401" unicode="&#x401;" horiz-adv-x="639" 
d="M250 863v-44h-45v44h45zM448 863v-44h-45v44h45zM559 700v-35h-459v35h459zM528 367v-34h-428v34h428zM100 35h465v-35h-465v35z" />
    <glyph glyph-name="uni0411" unicode="&#x411;" horiz-adv-x="643" 
d="M367 390c116 0 211 -66 211 -196c0 -131 -97 -194 -211 -194h-267v390h267zM367 35c92 0 173 49 173 159s-79 162 -173 162h-232v-321h232zM508 700v-34h-408v34h408z" />
    <glyph glyph-name="uni0413" unicode="&#x413;" horiz-adv-x="455" 
d="M90 200v394l35 -34v-360h-35zM90 0v107h35v-107h-35zM126 700h339v-34h-304z" />
    <glyph glyph-name="uni0414" unicode="&#x414;" horiz-adv-x="706" 
d="M655 666h-70v-631h71v-162h-35v127h-576v-127h-35v162h37c55 33 94 126 116 277c10 70 15 142 18 207h36c-7 -171 -30 -389 -117 -484h450v631h-365v34h470v-34z" />
    <glyph glyph-name="uni0416" unicode="&#x416;" horiz-adv-x="972" 
d="M867 700h47l-416 -479v-221h-35v221l-415 479h47l386 -447zM697 345l245 -345h-42l-227 319zM20 0l245 345l24 -26l-227 -319h-42zM498 701v-226h-35v226h35z" />
    <glyph glyph-name="uni0417" unicode="&#x417;" horiz-adv-x="619" 
d="M403 373c73 -23 141 -72 141 -172c0 -98 -80 -208 -248 -208c-161 0 -231 84 -246 109l31 17c11 -21 73 -91 215 -91c123 0 210 71 210 173c0 146 -151 152 -213 152h-95v34h98c131 0 174 77 174 147c0 84 -72 138 -176 138h-146v-95h-35v130h184c150 0 211 -90 211 -173
c0 -60 -29 -129 -105 -161z" />
    <glyph glyph-name="uni0418" unicode="&#x418;" horiz-adv-x="733" 
d="M134 700v-616l490 623h9v-707h-35v615l-490 -622h-8v707h34z" />
    <glyph glyph-name="uni0419" unicode="&#x419;" horiz-adv-x="733" 
d="M501 863v-35h-252v35h252zM134 84v616h-34v-707h8l490 622v-615h35v707h-9z" />
    <glyph glyph-name="uni041B" unicode="&#x41b;" horiz-adv-x="685" 
d="M540 0v188h34v-188h-34zM172 700h473v-34h-71v-333h-34v333h-333c0 -280 -9 -564 -111 -645c-32 -25 -64 -28 -96 -21l8 34c28 -7 47 -2 67 14c92 73 97 372 97 638v14z" />
    <glyph glyph-name="uni041F" unicode="&#x41f;" horiz-adv-x="742" 
d="M100 0v307h34v-307h-34zM702 700v-34h-71v-666h-35v666h-496v34h602z" />
    <glyph glyph-name="uni0423" unicode="&#x423;" horiz-adv-x="569" 
d="M59 700l261 -474l211 474h38l-312 -700h-38l84 186l-283 514h39z" />
    <glyph glyph-name="uni0424" unicode="&#x424;" horiz-adv-x="867" 
d="M802 350c0 -191 -162 -290 -351 -295v-83h-35v83c-189 5 -351 104 -351 295c0 190 162 290 351 296v83h35v-83c189 -6 351 -106 351 -296zM451 90c169 5 314 88 314 260c0 177 -155 262 -331 262c-177 0 -331 -85 -331 -262c0 -172 144 -255 313 -260v221h35v-221z" />
    <glyph glyph-name="uni0426" unicode="&#x426;" horiz-adv-x="716" 
d="M599 700v-517h-34v517h34zM135 35h551v-162h-35v127h-551v501h35v-466zM135 700v-106h-35v106h35z" />
    <glyph glyph-name="uni0427" unicode="&#x427;" horiz-adv-x="661" 
d="M526 700h35v-700h-35v278h-461v422h35v-387h426v387z" />
    <glyph glyph-name="uni0428" unicode="&#x428;" horiz-adv-x="1030" 
d="M532 700v-517h-34v517h34zM895 700h35v-700h-830v700h34v-665h761v665z" />
    <glyph glyph-name="uni0429" unicode="&#x429;" horiz-adv-x="1047" 
d="M533 700v-517h-35v517h35zM930 35h87v-162h-35v127h-882v501h35v-466h760v665h35v-665zM135 700v-106h-35v106h35z" />
    <glyph glyph-name="uni042A" unicode="&#x42a;" horiz-adv-x="692" 
d="M182 428h217c131 0 228 -85 228 -213c0 -129 -101 -215 -228 -215h-252v115h35v-80h217c108 0 190 68 190 180c0 111 -84 179 -190 179h-252v272h-127v34h162v-272z" />
    <glyph glyph-name="uni042B" unicode="&#x42b;" horiz-adv-x="833" 
d="M699 0v501h34v-501h-34zM699 700h34v-106h-34v106zM351 428c131 0 229 -85 229 -213c0 -129 -101 -215 -229 -215h-251v115h35v-80h216c109 0 191 68 191 180c0 111 -85 179 -191 179h-251v306h35v-272h216z" />
    <glyph glyph-name="uni042C" unicode="&#x42c;" horiz-adv-x="645" 
d="M351 428c131 0 229 -85 229 -213c0 -129 -101 -215 -229 -215h-251v115h35v-80h216c109 0 191 68 191 180c0 111 -85 179 -191 179h-251v306h35v-272h216z" />
    <glyph glyph-name="uni042D" unicode="&#x42d;" horiz-adv-x="757" 
d="M353 705c195 0 339 -160 339 -356s-144 -356 -339 -356c-126 0 -229 65 -288 164l31 15c53 -87 145 -144 257 -144c176 0 301 144 302 321c-1 177 -126 322 -302 322c-112 0 -204 -58 -257 -145l-31 16c59 98 162 163 288 163zM483 368v-35h-216v35h216z" />
    <glyph glyph-name="uni042E" unicode="&#x42e;" horiz-adv-x="1056" 
d="M662 706c196 0 339 -160 339 -356c0 -197 -143 -357 -339 -357c-191 0 -332 151 -340 340h-187v-333h-35v700h35v-332h188c8 188 149 338 339 338zM662 28c177 0 302 145 302 322s-125 322 -302 322s-302 -145 -302 -322s125 -322 302 -322zM662 390c22 0 40 -18 40 -40
s-18 -40 -40 -40s-40 18 -40 40s18 40 40 40z" />
    <glyph glyph-name="uni042F" unicode="&#x42f;" horiz-adv-x="661" 
d="M310 700h251v-114h-35v80h-216c-109 0 -191 -68 -191 -180c0 -111 85 -179 191 -179h251v-307h-35v272h-216c-16 0 -34 2 -49 4l-157 -276h-39l161 285c-88 27 -145 101 -145 201c0 129 101 214 229 214z" />
    <glyph glyph-name="uni0430" unicode="&#x430;" horiz-adv-x="500" 
d="M252 489c71 0 168 -35 168 -168v-321h-34v99c-28 -43 -88 -106 -197 -106c-66 0 -149 27 -149 119c0 94 84 128 178 150c80 18 167 27 167 73c0 65 -38 120 -133 120c-90 0 -138 -48 -153 -110l-34 8c15 59 59 136 187 136zM386 201v64c-43 -9 -93 -24 -160 -37
c-111 -23 -149 -56 -149 -116c0 -58 53 -85 117 -85c109 0 192 79 192 174z" />
    <glyph glyph-name="uni0441" unicode="&#x441;" horiz-adv-x="533" 
d="M281 27c74 0 131 38 164 96l33 -16c-40 -69 -110 -114 -197 -114c-137 0 -231 111 -231 248s94 248 231 248c87 0 157 -45 197 -114l-33 -15c-33 57 -90 95 -164 95c-118 0 -194 -96 -194 -214s76 -214 194 -214z" />
    <glyph glyph-name="uni0435" unicode="&#x435;" 
d="M485 241c0 -9 0 -17 -1 -26h-405c11 -106 84 -188 193 -188c74 0 131 38 164 96l32 -16c-39 -69 -109 -114 -196 -114c-137 0 -232 111 -232 248s95 248 232 248s213 -111 213 -248zM272 455c-115 0 -190 -91 -194 -205h369c-3 114 -60 205 -175 205z" />
    <glyph glyph-name="uni043E" unicode="&#x43e;" horiz-adv-x="568" 
d="M282 489c137 0 231 -111 231 -248s-94 -248 -231 -248s-232 111 -232 248s95 248 232 248zM282 27c118 0 193 96 193 214s-75 214 -193 214s-194 -96 -194 -214s76 -214 194 -214z" />
    <glyph glyph-name="uni0440" unicode="&#x440;" horiz-adv-x="586" 
d="M306 490c137 0 225 -112 225 -249s-88 -248 -225 -248c-90 0 -156 47 -191 119v-330h-35v700h35v-111c35 71 101 119 191 119zM306 28c118 0 188 95 188 213s-70 214 -188 214s-188 -96 -188 -214s70 -213 188 -213z" />
    <glyph glyph-name="uni0445" unicode="&#x445;" horiz-adv-x="463" 
d="M423 0h-43l-154 218l-153 -218h-43l175 248l-165 234h43l143 -203l144 203h42l-164 -234z" />
    <glyph glyph-name="uni0443" unicode="&#x443;" horiz-adv-x="445" 
d="M386 482h37l-182 -482c-29 -77 -45 -118 -75 -152c-46 -54 -93 -44 -131 -37l6 34c84 -17 110 20 163 155l-182 482h37l164 -433z" />
    <glyph glyph-name="uni0431" unicode="&#x431;" horiz-adv-x="553" 
d="M278 481c137 0 220 -103 220 -240s-86 -248 -223 -248c-124 0 -206 95 -220 212c-15 118 -4 377 181 475c39 20 72 31 102 40c39 13 74 23 101 49l25 -24c-33 -32 -74 -44 -116 -58c-28 -9 -60 -19 -95 -38c-113 -60 -154 -177 -167 -281c40 68 111 113 192 113zM275 28
c118 0 185 95 185 213s-64 205 -182 205s-188 -87 -188 -205s67 -213 185 -213z" />
    <glyph glyph-name="uni0432" unicode="&#x432;" horiz-adv-x="505" 
d="M366 245c52 -15 89 -55 89 -116c0 -80 -60 -129 -141 -129h-234v482h210c77 0 141 -49 141 -129c0 -52 -25 -88 -65 -108zM290 447h-175v-188h175c60 0 106 32 106 94s-48 94 -106 94zM314 35c60 0 106 33 106 94c0 62 -48 95 -106 95h-199v-189h199z" />
    <glyph glyph-name="uni0433" unicode="&#x433;" horiz-adv-x="407" 
d="M387 482v-35h-272v-447h-35v482h307z" />
    <glyph glyph-name="uni0434" unicode="&#x434;" horiz-adv-x="530" 
d="M490 35v-153h-34v118h-432v-118h-34v153h39c76 82 88 258 90 413v34h300v-447h71zM73 35h312v412h-232c-1 -155 -12 -317 -80 -412z" />
    <glyph glyph-name="uni0451" unicode="&#x451;" 
d="M173 558c-16 0 -28 13 -28 28s12 28 28 28c15 0 27 -13 27 -28s-12 -28 -27 -28zM355 558c-15 0 -27 13 -27 28s12 28 27 28c16 0 28 -13 28 -28s-12 -28 -28 -28zM485 241c0 -9 0 -17 -1 -26h-405c11 -106 84 -188 193 -188c74 0 131 38 164 96l32 -16
c-39 -69 -109 -114 -196 -114c-137 0 -232 111 -232 248s95 248 232 248s213 -111 213 -248zM272 455c-115 0 -190 -91 -194 -205h369c-3 114 -60 205 -175 205z" />
    <glyph glyph-name="uni0436" unicode="&#x436;" horiz-adv-x="731" 
d="M666 0l-182 224h-111v-224h-35v224h-110l-182 -224h-46l203 249l-171 233h43l163 -223h100v223h35v-223h101l163 223h43l-171 -233l202 -249h-45z" />
    <glyph glyph-name="uni0437" unicode="&#x437;" horiz-adv-x="429" 
d="M292 247c42 -11 97 -51 97 -115c0 -75 -64 -139 -181 -139c-90 0 -163 50 -188 91l30 18c22 -30 70 -74 157 -74c83 0 145 37 145 103s-56 96 -146 96h-60v34h67c66 0 119 34 119 97s-48 97 -122 97c-68 0 -110 -33 -136 -62l-24 21c29 33 86 76 162 76
c96 0 155 -52 155 -131c0 -50 -30 -92 -75 -112z" />
    <glyph glyph-name="uni0438" unicode="&#x438;" horiz-adv-x="543" 
d="M431 482h32v-482h-35v425l-327 -425h-31v482h34v-424z" />
    <glyph glyph-name="uni0439" unicode="&#x439;" horiz-adv-x="543" 
d="M272 541c-62 0 -109 42 -114 101h29c5 -43 39 -73 85 -73s81 30 86 73h29c-5 -59 -52 -101 -115 -101zM431 482h32v-482h-35v425l-327 -425h-31v482h34v-424z" />
    <glyph glyph-name="uni043A" unicode="&#x43a;" horiz-adv-x="501" 
d="M426 0l-187 224h-125v-224h-34v482h34v-223h114l169 223h43l-176 -233l207 -249h-45z" />
    <glyph glyph-name="uni043B" unicode="&#x43b;" horiz-adv-x="499" 
d="M385 482h34v-482h-34v447h-229c0 -226 -13 -377 -76 -429c-25 -21 -55 -23 -80 -18l7 34c21 -4 37 0 51 11c56 46 63 222 63 405v32h264z" />
    <glyph glyph-name="uni043C" unicode="&#x43c;" horiz-adv-x="651" 
d="M540 482h31v-482h-34v419l-205 -297h-23l-204 297v-419h-35v482h32l219 -319z" />
    <glyph glyph-name="uni043D" unicode="&#x43d;" horiz-adv-x="554" 
d="M439 482h35v-482h-35v224h-324v-224h-35v482h35v-223h324v223z" />
    <glyph glyph-name="uni043F" unicode="&#x43f;" horiz-adv-x="553" 
d="M80 482h393v-482h-34v447h-325v-447h-34v482z" />
    <glyph glyph-name="uni0442" unicode="&#x442;" horiz-adv-x="423" 
d="M403 482v-35h-174v-447h-35v447h-174v35h383z" />
    <glyph glyph-name="uni0444" unicode="&#x444;" horiz-adv-x="680" 
d="M625 241c0 -133 -89 -241 -270 -248v-211h-35v211c-182 7 -270 115 -270 248s87 242 270 248v211h35v-211c183 -6 270 -115 270 -248zM87 241c0 -114 62 -207 233 -213v427c-166 -7 -233 -100 -233 -214zM355 28c170 6 232 99 232 213s-66 207 -232 214v-427z" />
    <glyph glyph-name="uni0446" unicode="&#x446;" horiz-adv-x="566" 
d="M536 35v-153h-35v118h-421v482h35v-447h315v447h35v-447h71z" />
    <glyph glyph-name="uni0447" unicode="&#x447;" horiz-adv-x="498" 
d="M383 482h35v-482h-35v201c-31 -22 -94 -51 -163 -51c-147 0 -170 103 -170 199v133h34v-133c0 -112 39 -164 136 -164c77 0 134 31 163 54v243z" />
    <glyph glyph-name="uni0448" unicode="&#x448;" horiz-adv-x="774" 
d="M659 482h35v-482h-614v482h35v-447h255v447h34v-447h255v447z" />
    <glyph glyph-name="uni0449" unicode="&#x449;" horiz-adv-x="794" 
d="M764 35v-153h-35v118h-649v482h34v-447h255v447h35v-447h254v447h35v-447h71z" />
    <glyph glyph-name="uni044A" unicode="&#x44a;" 
d="M319 313c93 0 171 -56 171 -157c0 -100 -79 -156 -171 -156h-191v447h-118v35h153v-169h156zM319 35c71 0 133 40 133 121c0 82 -61 122 -133 122h-156v-243h156z" />
    <glyph glyph-name="uni044B" unicode="&#x44b;" horiz-adv-x="653" 
d="M539 482h34v-482h-34v482zM271 313c93 0 171 -56 171 -157c0 -100 -79 -156 -171 -156h-191v482h34v-169h157zM271 35c70 0 133 40 133 121c0 82 -61 122 -133 122h-157v-243h157z" />
    <glyph glyph-name="uni044C" unicode="&#x44c;" horiz-adv-x="497" 
d="M271 313c93 0 171 -56 171 -157c0 -100 -79 -156 -171 -156h-191v482h35v-169h156zM271 35c70 0 133 40 133 121c0 82 -61 122 -133 122h-156v-243h156z" />
    <glyph glyph-name="uni044D" unicode="&#x44d;" horiz-adv-x="533" 
d="M247 490c137 0 231 -112 231 -249s-94 -248 -231 -248c-88 0 -158 45 -197 114l33 16c32 -58 90 -95 164 -95c112 0 186 86 193 196h-257v35h257c-7 109 -81 196 -193 196c-74 0 -132 -38 -164 -95l-33 16c39 68 109 114 197 114z" />
    <glyph glyph-name="uni044E" unicode="&#x44e;" horiz-adv-x="766" 
d="M480 490c137 0 231 -112 231 -249s-94 -248 -231 -248c-131 0 -223 102 -231 231h-134v-224h-35v482h35v-223h134c8 129 100 231 231 231zM480 28c118 0 194 95 194 213s-76 214 -194 214s-194 -96 -194 -214s76 -213 194 -213z" />
    <glyph glyph-name="uni044F" unicode="&#x44f;" horiz-adv-x="491" 
d="M222 482h189v-482h-35v170h-154c-15 0 -30 1 -44 4l-98 -174h-40l104 185c-54 22 -93 71 -93 141c0 100 79 156 171 156zM222 205h154v242h-154c-70 0 -133 -39 -133 -121s61 -121 133 -121z" />
    <glyph glyph-name="one" unicode="1" horiz-adv-x="364" 
d="M314 35v-35h-262v35h114v615l-133 -114l-22 23l155 141h35v-665h113z" />
    <glyph glyph-name="two" unicode="2" horiz-adv-x="518" 
d="M96 35h347v-35h-393v35l204 233c119 130 139 208 139 268c0 79 -50 135 -134 136c-110 1 -139 -85 -151 -121l-34 12c14 44 57 143 185 143c107 0 169 -71 169 -166s-41 -174 -147 -295z" />
    <glyph glyph-name="three" unicode="3" horiz-adv-x="546" 
d="M224 415c162 18 257 -70 257 -202c0 -110 -73 -220 -228 -220c-129 0 -205 80 -223 110l30 18c19 -29 83 -93 193 -93c107 0 190 75 191 180c0 130 -96 194 -248 175l-21 23l217 260h-310v34h355v-34z" />
    <glyph glyph-name="four" unicode="4" horiz-adv-x="578" 
d="M518 210v-34h-93v-176h-35v176h-330v34l301 490h41l-299 -490h287v211h35v-211h93z" />
    <glyph glyph-name="five" unicode="5" horiz-adv-x="548" 
d="M265 417c135 -7 213 -85 213 -209c0 -111 -74 -217 -225 -215c-132 2 -205 80 -223 110l30 18c16 -24 80 -93 192 -93c107 0 189 72 189 177c0 117 -77 174 -182 178c-91 3 -147 -26 -148 -27l-35 5l68 339h319v-34h-291l-54 -274c28 13 79 29 147 25z" />
    <glyph glyph-name="six" unicode="6" horiz-adv-x="567" 
d="M283 449c132 0 229 -96 229 -228s-97 -228 -229 -228s-228 96 -228 228c0 40 17 103 50 156c45 73 224 323 224 323h41l-191 -273c31 14 66 22 104 22zM283 28c111 0 191 80 191 193s-80 194 -191 194s-190 -81 -190 -194s79 -193 190 -193z" />
    <glyph glyph-name="seven" unicode="7" horiz-adv-x="514" 
d="M50 700h404v-34l-304 -666h-39l305 666h-366v34z" />
    <glyph glyph-name="eight" unicode="8" horiz-adv-x="576" 
d="M363 381c101 -29 143 -114 143 -184c0 -112 -82 -203 -223 -203s-223 91 -223 203c0 70 41 155 143 184c-65 27 -108 86 -108 152c0 84 63 173 188 173s187 -89 187 -173c0 -66 -42 -125 -107 -152zM130 533c0 -72 54 -136 153 -136c98 0 152 64 152 136
c0 79 -57 139 -152 139s-153 -60 -153 -139zM283 29c111 0 188 69 188 168c0 97 -77 166 -188 166c-112 0 -188 -69 -188 -166c0 -99 77 -168 188 -168z" />
    <glyph glyph-name="nine" unicode="9" horiz-adv-x="566" 
d="M283 252c-132 0 -228 96 -228 228s96 228 228 228s228 -96 228 -228c0 -40 -16 -103 -50 -156c-45 -73 -224 -324 -224 -324h-41l191 274c-31 -14 -66 -22 -104 -22zM283 673c-111 0 -191 -80 -191 -193s80 -194 191 -194s191 81 191 194s-80 193 -191 193z" />
    <glyph glyph-name="zero" unicode="0" horiz-adv-x="564" 
d="M282 706c134 0 221 -136 221 -356s-87 -357 -221 -357s-221 137 -221 357s87 356 221 356zM282 28c134 0 183 166 183 322c0 155 -49 322 -183 322s-183 -167 -183 -322c0 -156 49 -322 183 -322z" />
    <glyph glyph-name="period" unicode="." horiz-adv-x="175" 
d="M87 56c16 0 28 -13 28 -28s-12 -28 -28 -28c-15 0 -27 13 -27 28s12 28 27 28z" />
    <glyph glyph-name="comma" unicode="," horiz-adv-x="170" 
d="M76 52h44l-70 -168h-20z" />
    <glyph glyph-name="exclam" unicode="!" horiz-adv-x="256" 
d="M128 56c15 0 28 -13 28 -28s-13 -28 -28 -28s-28 13 -28 28s13 28 28 28zM142 174h-29l-2 526h34z" />
    <glyph glyph-name="question" unicode="?" horiz-adv-x="470" 
d="M204 56c16 0 28 -13 28 -28s-12 -28 -28 -28c-15 0 -27 13 -27 28s12 28 27 28zM223 706c123 0 188 -87 175 -194c-10 -82 -58 -140 -100 -191c-41 -49 -76 -91 -77 -147h-35c1 68 42 118 85 169c41 50 83 102 93 173c12 97 -57 155 -141 155c-73 0 -133 -48 -148 -144
l-35 8c19 120 104 171 183 171z" />
    <glyph glyph-name="colon" unicode=":" horiz-adv-x="196" 
d="M78 56c15 0 28 -13 28 -28s-13 -28 -28 -28s-28 13 -28 28s13 28 28 28zM78 423c-15 0 -28 12 -28 27c0 16 13 28 28 28s28 -12 28 -28c0 -15 -13 -27 -28 -27z" />
    <glyph glyph-name="semicolon" unicode=";" horiz-adv-x="196" 
d="M78 423c-15 0 -27 12 -27 27c0 16 12 28 27 28c16 0 28 -12 28 -28c0 -15 -12 -27 -28 -27zM17 -116l46 168h43l-69 -168h-20z" />
    <glyph glyph-name="numbersign" unicode="#" horiz-adv-x="783" 
d="M725 446h-149l-43 -204h149l-7 -34h-149l-44 -208h-35l43 208h-248l-44 -208h-35l43 208h-156l7 34h157l42 204h-156l8 34h156l46 220h35l-46 -220h249l46 220h35l-46 -220h150zM497 242l43 204h-248l-43 -204h248z" />
    <glyph glyph-name="dollar" unicode="$" horiz-adv-x="626" 
d="M555 184c0 -74 -51 -189 -240 -191v-94h-35v95c-129 9 -215 75 -241 158l33 11c23 -75 106 -135 237 -135c107 0 212 46 212 156c0 96 -107 128 -221 152c-161 35 -244 86 -244 179c0 113 96 189 224 191v96h35v-98c101 -8 192 -60 212 -153l-33 -11
c-16 79 -95 131 -210 131c-114 0 -193 -63 -193 -156s105 -120 217 -145c202 -46 247 -105 247 -186z" />
    <glyph glyph-name="cent" unicode="&#xa2;" horiz-adv-x="533" 
d="M282 28c74 0 131 38 164 95l32 -16c-39 -68 -110 -114 -197 -114v-94h-34v97c-118 17 -197 120 -197 246c0 125 79 228 197 245v97h34v-94c87 0 158 -46 197 -114l-32 -16c-33 57 -90 95 -164 95c-118 0 -194 -96 -194 -213c0 -118 76 -214 194 -214z" />
    <glyph glyph-name="Euro" unicode="&#x20ac;" horiz-adv-x="814" 
d="M602 428l-19 -35h-533l20 35h65c32 158 162 277 331 277c125 0 229 -65 288 -163l-31 -16c-53 87 -145 145 -257 145c-149 0 -262 -104 -293 -243h429zM466 28c112 0 204 57 257 144l31 -15c-59 -99 -163 -164 -288 -164c-169 0 -299 118 -331 277h-85l20 35h465l-20 -34
h-342c31 -140 144 -243 293 -243z" />
    <glyph glyph-name="yen" unicode="&#xa5;" horiz-adv-x="659" 
d="M609 700l-243 -432h169v-35h-411v35h168l-242 432h40l239 -427l240 427h40zM124 137v35h411v-35h-188v-137h-35v137h-188z" />
    <glyph glyph-name="sterling" unicode="&#xa3;" horiz-adv-x="595" 
d="M50 35h495v-35h-495v35zM420 290h-347v34h77v137c0 229 144 245 190 245c72 0 143 -45 182 -126l-31 -15c-33 68 -93 107 -151 107c-49 0 -155 -17 -155 -211v-137h235v-34z" />
    <glyph glyph-name="currency" unicode="&#xa4;" horiz-adv-x="663" 
d="M546 357c0 -52 -19 -100 -50 -138l87 -86l-24 -25l-88 87c-37 -33 -86 -52 -140 -52c-53 0 -102 19 -140 52l-87 -87l-24 25l87 86c-32 38 -51 86 -51 138c0 53 19 101 51 138l-87 87l24 24l87 -86c38 33 87 52 140 52c54 0 103 -19 140 -52l88 86l24 -24l-87 -87
c31 -37 50 -85 50 -138zM331 179c99 0 176 80 176 178c0 99 -77 179 -176 179c-98 0 -176 -80 -176 -179c0 -98 78 -178 176 -178z" />
    <glyph glyph-name="percent" unicode="%" horiz-adv-x="732" 
d="M306 563c0 -81 -62 -143 -143 -143s-143 62 -143 143s62 143 143 143s143 -62 143 -143zM52 563c0 -63 48 -111 111 -111s112 48 112 111s-49 111 -112 111s-111 -48 -111 -111zM528 279c81 0 144 -62 144 -143s-63 -143 -144 -143c-80 0 -143 62 -143 143
s63 143 143 143zM528 25c64 0 112 48 112 111s-48 112 -112 112c-63 0 -111 -49 -111 -112s48 -111 111 -111zM545 700h41l-437 -700h-41z" />
    <glyph glyph-name="asciicircum" unicode="^" horiz-adv-x="438" 
d="M378 422h-39l-130 242l-129 -242h-40l150 278h39z" />
    <glyph glyph-name="ampersand" unicode="&#x26;" horiz-adv-x="698" 
d="M541 137l117 -106l-23 -26l-113 103c-53 -76 -135 -137 -255 -137c-119 0 -209 73 -224 170c-14 97 39 203 160 298c-45 65 -55 132 -30 187c22 48 72 80 121 80c100 0 137 -79 138 -146l-35 -1c-1 54 -28 112 -103 112c-36 0 -73 -24 -90 -59c-24 -52 -5 -120 52 -186
c79 -92 173 -185 259 -264c28 48 45 99 56 140l30 -8c-11 -46 -28 -103 -60 -157zM267 5c108 0 182 57 229 127c-87 81 -226 218 -273 279c-83 -66 -160 -162 -145 -265c12 -84 92 -140 189 -141v0z" />
    <glyph glyph-name="asterisk" unicode="*" horiz-adv-x="345" 
d="M305 611l-118 -60l118 -59l-17 -31l-111 73l8 -132h-35l8 132l-111 -73l-17 31l118 59l-118 60l17 30l111 -73l-8 132h35l-8 -132l111 73z" />
    <glyph glyph-name="parenleft" unicode="(" horiz-adv-x="306" 
d="M266 730c-193 -231 -202 -648 -19 -875l-27 -22c-96 119 -145 285 -139 467c6 174 64 339 158 452z" />
    <glyph glyph-name="parenright" unicode=")" horiz-adv-x="306" 
d="M85 752c97 -119 146 -285 140 -467c-6 -174 -64 -339 -159 -452l-26 22c193 231 202 648 18 875z" />
    <glyph glyph-name="hyphen" unicode="-" horiz-adv-x="450" 
d="M60 324h330v-35h-330v35z" />
    <glyph glyph-name="endash" unicode="&#x2013;" horiz-adv-x="508" 
d="M60 324h388v-35h-388v35z" />
    <glyph glyph-name="emdash" unicode="&#x2014;" horiz-adv-x="594" 
d="M60 324h474v-35h-474v35z" />
    <glyph glyph-name="underscore" unicode="_" horiz-adv-x="533" 
d="M10 -55l513 1v-35h-513v34z" />
    <glyph glyph-name="slash" unicode="/" horiz-adv-x="437" 
d="M350 751h37l-300 -905h-37z" />
    <glyph glyph-name="backslash" unicode="\" horiz-adv-x="437" 
d="M87 751l300 -905h-36l-301 905h37z" />
    <glyph glyph-name="guillemotleft" unicode="&#xab;" horiz-adv-x="446" 
d="M224 425l-112 -157l112 -157h-43l-111 157l111 157h43zM376 425l-111 -157l111 -157h-42l-112 157l112 157h42z" />
    <glyph glyph-name="guillemotright" unicode="&#xbb;" horiz-adv-x="447" 
d="M265 425l112 -157l-112 -157h-42l111 157l-111 157h42zM113 425l111 -157l-111 -157h-43l112 157l-112 157h43z" />
    <glyph glyph-name="bracketleft" unicode="[" horiz-adv-x="314" 
d="M274 716h-159v-835h159v-35h-194v905h194v-35z" />
    <glyph glyph-name="bracketright" unicode="]" horiz-adv-x="314" 
d="M200 716h-160v35h194v-905h-194v35h160v835z" />
    <glyph glyph-name="bar" unicode="|" horiz-adv-x="234" 
d="M100 751h34v-905h-34v905z" />
    <glyph glyph-name="brokenbar" unicode="&#xa6;" horiz-adv-x="235" 
d="M100 -154v345h35v-345h-35zM100 751h35v-345h-35v345z" />
    <glyph glyph-name="plus" unicode="+" horiz-adv-x="508" 
d="M448 324v-35h-177v-176h-34v176h-177v35h177v177h34v-177h177z" />
    <glyph glyph-name="equal" unicode="=" horiz-adv-x="538" 
d="M70 401h388v-35h-388v35zM70 203v35h388v-35h-388z" />
    <glyph glyph-name="less" unicode="&#x3c;" horiz-adv-x="482" 
d="M412 487v-39l-303 -147l303 -147v-39l-342 166v40z" />
    <glyph glyph-name="greater" unicode="&#x3e;" horiz-adv-x="483" 
d="M70 487l343 -166v-40l-343 -166v39l303 147l-303 147v39z" />
    <glyph glyph-name="divide" unicode="&#xf7;" horiz-adv-x="508" 
d="M60 324h388v-35h-388v35zM254 449c-15 0 -27 13 -27 28s12 28 27 28c16 0 28 -13 28 -28s-12 -28 -28 -28zM254 164c16 0 28 -12 28 -28c0 -15 -12 -28 -28 -28c-15 0 -27 13 -27 28c0 16 12 28 27 28z" />
    <glyph glyph-name="multiply" unicode="&#xd7;" horiz-adv-x="448" 
d="M388 445l-139 -138l138 -140l-24 -24l-139 139l-139 -139l-25 25l139 139l-138 139l24 24l139 -139l139 139z" />
    <glyph glyph-name="asciitilde" unicode="~" horiz-adv-x="514" 
d="M431 343l33 -12c-18 -36 -51 -74 -116 -74c-37 0 -70 19 -99 35c-26 15 -51 29 -80 28c-48 -1 -68 -22 -85 -51l-34 12c22 37 50 72 118 74c39 1 69 -16 99 -33c25 -15 50 -29 78 -30c51 -2 72 23 86 51z" />
    <glyph glyph-name="approxequal" unicode="&#x2248;" horiz-adv-x="533" 
d="M178 388c-48 -1 -67 -23 -85 -51l-33 12c21 36 49 72 117 74c39 1 70 -16 99 -33c26 -15 50 -29 79 -30c51 -2 72 23 85 50l33 -11c-18 -36 -50 -74 -115 -74c-38 0 -71 18 -99 35c-27 15 -52 29 -81 28zM355 222c51 -2 72 23 85 50l33 -11c-18 -36 -50 -74 -115 -74
c-38 0 -71 18 -99 35c-27 15 -52 29 -81 28c-48 -1 -67 -23 -85 -51l-33 11c21 37 49 73 117 75c39 1 70 -16 99 -33c26 -15 50 -29 79 -30z" />
    <glyph glyph-name="lessequal" unicode="&#x2264;" horiz-adv-x="483" 
d="M70 59v35h343v-35h-343zM413 530v-38l-304 -148l304 -147v-38l-343 166v39z" />
    <glyph glyph-name="greaterequal" unicode="&#x2265;" horiz-adv-x="482" 
d="M70 59v35h342v-35h-342zM70 530l342 -166v-39l-342 -166v38l303 147l-303 148v38z" />
    <glyph glyph-name="degree" unicode="&#xb0;" horiz-adv-x="407" 
d="M203 706c81 0 144 -62 144 -143s-63 -143 -144 -143c-80 0 -143 62 -143 143s63 143 143 143zM203 452c64 0 112 48 112 111s-48 111 -112 111c-63 0 -111 -48 -111 -111s48 -111 111 -111z" />
    <glyph glyph-name="notequal" unicode="&#x2260;" horiz-adv-x="538" 
d="M458 366h-139l-71 -128h210v-35h-229l-69 -127h-40l70 127h-120v35h139l70 128h-209v35h228l70 127h39l-69 -127h120v-35z" />
    <glyph glyph-name="dagger" unicode="&#x2020;" horiz-adv-x="439" 
d="M399 509v-35h-162v-474h-35v474h-162v35h162v191h35v-191h162z" />
    <glyph glyph-name="daggerdbl" unicode="&#x2021;" horiz-adv-x="439" 
d="M399 474h-163v-248h163v-35h-163v-191h-34v191h-162v35h162v248h-162v35h162v191h34v-191h163v-35z" />
    <glyph glyph-name="braceleft" unicode="{" horiz-adv-x="319" 
d="M145 545c0 -159 -16 -224 -57 -246c41 -23 57 -88 57 -247c0 -138 37 -168 134 -168v-35c-108 0 -169 25 -169 203s-7 231 -70 231v32c63 0 70 53 70 230c0 178 61 203 169 203v-35c-97 0 -134 -30 -134 -168z" />
    <glyph glyph-name="braceright" unicode="}" horiz-adv-x="319" 
d="M209 545c0 -177 7 -230 70 -230v-32c-63 0 -70 -53 -70 -231s-61 -203 -169 -203v35c97 0 134 30 134 168c0 159 16 224 57 247c-41 22 -57 87 -57 246c0 138 -37 168 -134 168v35c108 0 169 -25 169 -203z" />
    <glyph glyph-name="section" unicode="&#xa7;" horiz-adv-x="590" 
d="M405 107c36 -30 60 -69 58 -126c-3 -78 -60 -158 -167 -158c-84 0 -157 57 -172 137l34 9c10 -53 59 -111 138 -111c85 0 130 63 132 125c4 89 -79 124 -166 160c-83 35 -168 71 -180 158c-10 73 28 149 103 185c-36 30 -60 69 -58 125c3 78 60 158 168 158
c83 0 156 -57 171 -136l-33 -10c-11 54 -60 111 -138 111c-86 0 -131 -63 -133 -124c-4 -90 79 -124 166 -161c83 -35 168 -71 180 -157c10 -73 -28 -150 -103 -185zM117 305c8 -67 81 -97 158 -130c32 -13 66 -27 96 -45c51 17 113 69 103 158c-9 66 -82 97 -159 129
c-32 14 -66 28 -96 46c-51 -18 -113 -69 -102 -158z" />
    <glyph glyph-name="paragraph" unicode="&#xb6;" horiz-adv-x="549" 
d="M489 700v-35h-72v-819h-35v819h-136v-819h-34v529c-73 0 -152 60 -152 162c0 103 83 163 152 163h277z" />
    <glyph glyph-name="copyright" unicode="&#xa9;" horiz-adv-x="824" 
d="M417 520c-92 0 -151 -75 -151 -167c0 -93 59 -167 151 -167c58 0 103 29 129 74l25 -13c-31 -53 -85 -89 -154 -89c-107 0 -180 87 -180 195c0 107 73 194 180 194c69 0 123 -36 154 -89l-25 -13c-26 45 -71 75 -129 75zM414 706c196 0 355 -162 355 -358
s-160 -355 -356 -355s-358 159 -358 355s163 358 359 358zM413 25c178 0 324 145 324 323s-145 326 -323 326s-327 -147 -327 -326c0 -178 148 -323 326 -323z" />
    <glyph glyph-name="registered" unicode="&#xae;" horiz-adv-x="824" 
d="M414 706c196 0 355 -162 355 -358s-160 -355 -356 -355s-358 159 -358 355s163 358 359 358zM413 25c178 0 324 145 324 323s-145 326 -323 326s-327 -147 -327 -326c0 -178 148 -323 326 -323zM565 421c0 -55 -31 -93 -75 -110l80 -141h-31l-75 134
c-10 -2 -21 -3 -31 -3h-118v-131h-27v372h145c71 0 132 -44 132 -121zM315 328h118c55 0 102 30 102 93s-48 94 -102 94h-118v-187z" />
    <glyph glyph-name="exclamdown" unicode="&#xa1;" horiz-adv-x="236" 
d="M128 490c15 0 28 -13 28 -28s-13 -28 -28 -28s-28 13 -28 28s13 28 28 28zM113 316h29l3 -526h-34z" />
    <glyph glyph-name="questiondown" unicode="&#xbf;" horiz-adv-x="425" 
d="M251 434c-16 0 -28 13 -28 28s12 28 28 28c15 0 27 -13 27 -28s-12 -28 -27 -28zM381 -37l34 -8c-19 -120 -104 -171 -183 -171c-123 0 -188 87 -175 194c10 82 58 140 100 191c41 49 76 91 77 147h35c-1 -68 -42 -117 -85 -169c-41 -50 -83 -101 -92 -173
c-13 -96 56 -155 140 -155c73 0 133 48 149 144z" />
    <glyph glyph-name="quotedblright" unicode="&#x201d;" horiz-adv-x="272" 
d="M50 538l46 168h44l-70 -168h-20zM199 706h43l-69 -168h-21z" />
    <glyph glyph-name="quotedblleft" unicode="&#x201c;" horiz-adv-x="272" 
d="M222 706h20l-46 -168h-44zM50 538l70 168h20l-47 -168h-43z" />
    <glyph glyph-name="plusminus" unicode="&#xb1;" horiz-adv-x="508" 
d="M60 56v35h388v-35h-388zM272 369h176v-35h-176v-176h-35v176h-177v35h177v177h35v-177z" />
    <glyph glyph-name="quotedbl" unicode="&#x22;" horiz-adv-x="250" 
d="M61 538l-11 168h43l-12 -168h-20zM157 706h43l-12 -168h-20z" />
    <glyph glyph-name="at" unicode="@" horiz-adv-x="936" 
d="M874 259c8 -120 -24 -278 -133 -278c-70 0 -98 57 -108 131c-33 -65 -96 -109 -178 -109c-125 0 -208 101 -208 226c0 124 83 224 208 224c78 0 139 -39 174 -100v80h31v-205c0 -111 9 -215 81 -215s111 113 101 243c-19 238 -198 344 -368 344
c-205 0 -350 -120 -377 -316c-19 -139 26 -266 125 -342c109 -84 266 -99 412 -38l12 -30c-124 -55 -315 -56 -444 43c-108 83 -157 220 -137 371c30 214 187 344 409 344c268 0 388 -199 400 -373zM455 35c107 0 171 86 171 194c0 107 -64 193 -171 193s-174 -86 -174 -193
c0 -108 67 -194 174 -194z" />
    <glyph glyph-name="quotesingle" unicode="'" horiz-adv-x="123" 
d="M30 706h43l-12 -168h-20z" />
    <glyph glyph-name="quoteleft" unicode="&#x2018;" horiz-adv-x="150" 
d="M50 538l70 168h20l-47 -168h-43z" />
    <glyph glyph-name="quoteright" unicode="&#x2019;" horiz-adv-x="150" 
d="M50 538l46 168h44l-70 -168h-20z" />
    <glyph glyph-name="germandbls" unicode="&#xdf;" horiz-adv-x="532" 
d="M339 381c102 -30 143 -109 143 -178c0 -112 -82 -210 -223 -210h-11v34h11c111 0 189 77 189 176c0 97 -77 159 -189 159h-11v35h11c99 0 142 66 142 139c0 75 -45 135 -136 135c-90 0 -150 -65 -150 -211v-460h-35v463c0 150 64 243 185 243s171 -91 171 -170
c0 -67 -31 -128 -97 -155z" />
    <glyph glyph-name="Germandbl" unicode="&#x1e9e;" horiz-adv-x="624" 
d="M332 443c122 -13 227 -82 227 -221c0 -156 -123 -229 -268 -229v34c77 0 233 27 233 195c0 166 -159 188 -233 188v35l154 220h-161c-102 0 -149 -81 -149 -194v-471h-35v471c0 144 67 229 184 229h203v-35z" />
    <glyph glyph-name="oe" unicode="&#x153;" horiz-adv-x="980" 
d="M920 241c0 -9 0 -18 -1 -26h-405c11 -106 84 -188 193 -188c74 0 131 38 164 95l33 -16c-40 -68 -110 -113 -197 -113c-101 0 -179 60 -213 147c-34 -87 -111 -147 -212 -147c-138 0 -232 111 -232 248s94 248 232 248c101 0 178 -60 212 -147c34 87 112 147 213 147
c137 0 213 -111 213 -248zM707 454c-115 0 -190 -91 -194 -204h369c-2 113 -60 204 -175 204zM282 27c117 0 193 96 193 214s-76 213 -193 213c-118 0 -194 -95 -194 -213s76 -214 194 -214z" />
    <glyph glyph-name="ae" unicode="&#xe6;" horiz-adv-x="897" 
d="M837 241c0 -9 0 -18 -1 -26h-405c11 -106 84 -188 193 -188c74 0 131 38 164 95l32 -16c-39 -68 -109 -113 -196 -113c-101 0 -179 60 -213 147c-5 -15 -11 -27 -19 -41c-26 -41 -94 -106 -203 -106c-65 0 -149 27 -149 118c0 95 84 129 179 150c79 19 172 28 172 74
c0 65 -41 119 -136 119c-90 0 -144 -48 -159 -109l-34 8c16 59 65 136 193 136c62 0 147 -27 167 -123c38 74 110 123 202 123c137 0 213 -111 213 -248zM624 454c-115 0 -190 -91 -194 -204h369c-3 113 -60 204 -175 204zM392 201v64c-43 -9 -99 -24 -166 -37
c-111 -23 -149 -56 -149 -117c0 -57 53 -84 117 -84c110 0 198 79 198 174z" />
    <glyph glyph-name="AE" unicode="&#xc6;" horiz-adv-x="1029" 
d="M524 35h431v-35h-465v224h-304l-117 -224h-39l367 700h552v-35h-425v-298h394v-34h-394v-298zM205 258h285v407h-72z" />
    <glyph glyph-name="OE" unicode="&#x152;" horiz-adv-x="1094" 
d="M589 35h430v-35h-465v33c-47 -26 -101 -40 -160 -40c-196 0 -339 160 -339 356c0 197 143 357 339 357c59 0 113 -15 160 -40v34h459v-35h-424v-298h393v-34h-393v-298zM394 27c61 0 115 17 160 46v552c-45 29 -99 46 -160 46c-177 0 -302 -144 -302 -322
c0 -177 125 -322 302 -322z" />
    <glyph glyph-name="dcroat" unicode="&#x111;" horiz-adv-x="599" 
d="M599 607v-35h-97v-572h-35v111c-35 -71 -102 -118 -191 -118c-137 0 -226 111 -226 248s89 248 226 248c89 0 156 -47 191 -118v201h-144v35h144v93h35v-93h97zM276 27c118 0 188 96 188 214s-70 213 -188 213s-188 -95 -188 -213s70 -214 188 -214z" />
    <glyph glyph-name="eth" unicode="&#xf0;" horiz-adv-x="588" 
d="M332 693c223 -156 238 -452 132 -605c-36 -52 -98 -95 -177 -95c-138 0 -237 111 -237 248s94 248 231 248c111 0 191 -74 216 -172c-8 191 -117 306 -189 351l-109 -110l-24 24l102 104c-43 23 -91 40 -143 48l6 35c60 -11 114 -30 162 -57l88 90l25 -25zM287 27
c118 0 186 96 186 214c0 129 -74 213 -192 213s-194 -95 -194 -213s82 -214 200 -214z" />
    <glyph glyph-name="Oslash" unicode="&#xd8;" horiz-adv-x="789" 
d="M641 597c59 -64 93 -152 93 -248c0 -196 -144 -356 -339 -356c-88 0 -165 32 -223 84l-81 -89l-25 24l81 90c-58 64 -92 151 -92 247c0 197 144 357 340 357c87 0 163 -32 222 -84l81 89l26 -23zM93 349c0 -85 29 -163 78 -220l422 466c-52 48 -120 76 -198 76
c-177 0 -302 -144 -302 -322zM395 27c176 0 302 145 302 322c0 86 -30 164 -80 222l-422 -467c52 -48 121 -77 200 -77z" />
    <glyph glyph-name="oslash" unicode="&#xf8;" horiz-adv-x="567" 
d="M455 408c36 -44 57 -103 57 -167c0 -137 -94 -248 -231 -248c-60 0 -111 21 -150 56l-55 -61l-26 24l57 62c-37 44 -57 103 -57 167c0 137 94 248 231 248c59 0 111 -21 150 -56l55 60l25 -23zM87 241c0 -54 16 -103 44 -140l276 306c-32 30 -75 47 -126 47
c-118 0 -194 -95 -194 -213zM281 27c118 0 193 96 193 214c0 53 -15 102 -43 140l-277 -306c33 -30 76 -48 127 -48z" />
    <glyph glyph-name="Thorn" unicode="&#xde;" horiz-adv-x="619" 
d="M351 564c128 0 228 -86 228 -214c0 -129 -97 -214 -228 -214h-217v-136h-34v700h34v-136h217zM351 171c106 0 191 67 191 179s-82 179 -191 179h-217v-358h217z" />
    <glyph glyph-name="thorn" unicode="&#xfe;" horiz-adv-x="586" 
d="M306 489c137 0 225 -111 225 -248s-88 -248 -225 -248c-90 0 -156 47 -191 118v-329h-35v918h35v-329c35 71 101 118 191 118zM306 27c118 0 188 96 188 214s-70 213 -188 213s-188 -95 -188 -213s70 -214 188 -214z" />
    <glyph glyph-name="Lslash" unicode="&#x141;" horiz-adv-x="605" 
d="M179 35h386v-35h-421v260l-124 -85v42l124 85v398h35v-374l253 173v-42l-253 -173v-249z" />
    <glyph glyph-name="lslash" unicode="&#x142;" horiz-adv-x="309" 
d="M304 44l13 -29c-13 -9 -43 -22 -69 -22c-79 0 -101 39 -101 136v217l-117 -80v42l117 80v362h35v-338l117 80v-42l-117 -80v-244c0 -67 13 -98 66 -98c20 0 44 9 56 16z" />
    <glyph glyph-name="Hbar" unicode="&#x126;" horiz-adv-x="745" 
d="M705 555v-34h-67v-521h-35v333h-462v-333h-34v521h-67v34h67v145h34v-145h462v145h35v-145h67zM603 367v154h-462v-154h462z" />
    <glyph glyph-name="hbar" unicode="&#x127;" horiz-adv-x="552" 
d="M285 489c119 0 187 -84 187 -215v-274h-35v274c0 105 -54 181 -152 181c-91 0 -159 -77 -159 -193v-262h-34v573h-72v34h72v93h34v-93h132v-34h-132v-189c30 61 84 105 159 105z" />
    <glyph glyph-name="Eng" unicode="&#x14a;" horiz-adv-x="733" 
d="M598 700h35v-700v-58c0 -71 -35 -136 -109 -136c-39 0 -65 14 -86 30l22 28c14 -11 33 -23 64 -23c49 0 74 45 74 96v67l-463 636v-640h-35v700h32l466 -642v642z" />
    <glyph glyph-name="eng" unicode="&#x14b;" horiz-adv-x="540" 
d="M273 489c119 0 187 -84 187 -215v-332c0 -71 -34 -136 -109 -136c-39 0 -65 14 -85 30l21 28c14 -11 33 -23 64 -23c49 0 75 45 75 96v337c0 104 -54 180 -153 180c-91 0 -158 -76 -158 -192v-262h-35v482h35v-98c29 60 83 105 158 105z" />
    <glyph glyph-name="Tbar" unicode="&#x166;" horiz-adv-x="537" 
d="M527 665h-236v-263h178v-35h-178v-367h-35v367h-178v35h178v263h-236v35h507v-35z" />
    <glyph glyph-name="tbar" unicode="&#x167;" horiz-adv-x="307" 
d="M273 51l16 -30c-22 -17 -54 -28 -88 -28c-78 0 -107 53 -107 138v136h-48v35h48v145h-74v35h74v130l35 10v-140h120v-35h-120v-145h94v-35h-94v-142c0 -55 20 -97 72 -97c28 0 53 10 72 23z" />
    <glyph glyph-name="Dcroat" unicode="&#x110;" horiz-adv-x="757" 
d="M29 368h330v-35h-205v-298h160c183 0 327 113 327 315c0 203 -140 316 -327 316h-195v34h195c210 0 368 -124 368 -350c0 -225 -157 -350 -368 -350h-195v333h-90v35z" />
    <glyph glyph-name="Eth" unicode="&#xd0;" horiz-adv-x="757" 
d="M30 368h330v-35h-205v-298h160c183 0 327 113 327 315c0 203 -140 316 -327 316h-195v34h195c210 0 368 -124 368 -350c0 -225 -157 -350 -368 -350h-195v333h-90v35z" />
    <glyph glyph-name="ruble" unicode="&#x20bd;" horiz-adv-x="672" 
d="M162 665v-358h217c106 0 190 67 190 179s-82 179 -190 179h-217zM379 700c128 0 228 -85 228 -214c0 -128 -97 -214 -228 -214h-339v35h87v393h252zM40 152v35h402v-35h-280v-152h-35v152h-87z" />
    <glyph glyph-name="uni0409" unicode="&#x409;" horiz-adv-x="1084" 
d="M791 428c131 0 228 -85 228 -214c0 -128 -100 -214 -228 -214h-251v665h-334c0 -280 -8 -564 -110 -644c-32 -25 -64 -28 -96 -21l8 34c28 -7 46 -2 66 14c92 73 97 371 97 637v15h403v-272h217zM791 35c108 0 191 68 191 179c0 112 -85 180 -191 180h-217v-359h217z" />
    <glyph glyph-name="uni040A" unicode="&#x40a;" horiz-adv-x="1135" 
d="M841 368c131 0 229 -54 229 -183c0 -128 -101 -185 -229 -185h-245v333h-461v-333h-35v700h35v-332h461v332h35v-332h210zM841 35c109 0 191 39 191 150c0 112 -85 148 -191 148h-210v-298h210z" />
    <glyph glyph-name="uni040B" unicode="&#x40b;" horiz-adv-x="727" 
d="M459 458c119 0 188 -82 188 -213v-245h-34v245c0 105 -56 178 -154 178c-76 0 -147 -46 -169 -73v-350h-35v665h-235v35h506v-35h-236v-272c28 27 100 65 169 65z" />
    <glyph glyph-name="uni0402" unicode="&#x402;" horiz-adv-x="726" 
d="M458 458c119 0 188 -82 188 -213v-117c0 -71 -34 -136 -109 -136c-39 0 -65 14 -85 30l21 28c14 -11 33 -23 64 -23c49 0 75 45 75 95v123c0 105 -56 178 -154 178c-75 0 -143 -44 -167 -71v-352h-35v665h-236v35h507v-35h-236v-271c29 28 100 64 167 64z" />
    <glyph glyph-name="uni040F" unicode="&#x40f;" horiz-adv-x="699" 
d="M565 700h34v-700h-232v-127h-35v127h-232v700h35v-665h430v665z" />
    <glyph glyph-name="uni0490" unicode="&#x490;" horiz-adv-x="455" 
d="M430 827h35v-162h-340v-665h-35v700h340v127z" />
    <glyph glyph-name="uni0404" unicode="&#x404;" horiz-adv-x="757" 
d="M404 705c126 0 229 -65 288 -163l-31 -16c-53 87 -145 145 -257 145c-176 0 -301 -145 -302 -322c1 -177 126 -321 302 -321c112 0 204 57 257 144l31 -15c-59 -99 -162 -164 -288 -164c-195 0 -339 160 -339 356s144 356 339 356zM274 333v35h215v-35h-215z" />
    <glyph glyph-name="uni0454" unicode="&#x454;" horiz-adv-x="532" 
d="M281 28c74 0 131 37 164 95l32 -16c-39 -69 -109 -114 -196 -114c-137 0 -231 111 -231 248s94 248 231 248c87 0 157 -45 196 -113l-32 -16c-33 57 -90 95 -164 95c-112 0 -186 -87 -193 -196h256v-35h-256c7 -110 81 -196 193 -196z" />
    <glyph glyph-name="uni2116" unicode="&#x2116;" horiz-adv-x="1073" 
d="M869 404c81 0 144 62 144 143s-63 143 -144 143c-80 0 -143 -62 -143 -143s63 -143 143 -143zM869 658c64 0 112 -48 112 -111s-48 -112 -112 -112c-63 0 -111 49 -111 112s48 111 111 111zM1013 312v35h-283v-35h283zM598 84v616h35v-707h-9l-489 622v-615h-35v707h8z
" />
    <glyph glyph-name="uni0491" unicode="&#x491;" horiz-adv-x="406" 
d="M386 601v-154h-272v-447h-34v482h272v119h34z" />
    <glyph glyph-name="uni0459" unicode="&#x459;" horiz-adv-x="787" 
d="M561 313c93 0 171 -56 171 -157c0 -100 -79 -156 -171 -156h-177v447h-228c0 -226 -14 -377 -77 -429c-24 -21 -55 -23 -79 -18l7 34c21 -4 37 0 50 11c56 46 64 222 64 405v32h298v-169h142zM561 35c70 0 133 40 133 121c0 82 -61 122 -133 122h-142v-243h142z" />
    <glyph glyph-name="uni045A" unicode="&#x45a;" horiz-adv-x="830" 
d="M607 259c99 0 168 -32 168 -126s-70 -133 -168 -133h-168v224h-324v-224h-35v482h35v-223h324v223h35v-223h133zM607 35c70 0 130 22 130 98s-58 91 -130 91h-133v-189h133z" />
    <glyph glyph-name="uni045B" unicode="&#x45b;" horiz-adv-x="552" 
d="M285 489c119 0 187 -84 187 -215v-274h-35v274c0 105 -54 181 -152 181c-91 0 -159 -77 -159 -193v-262h-34v573h-72v34h72v93h34v-93h132v-34h-132v-189c30 61 84 105 159 105z" />
    <glyph glyph-name="uni0452" unicode="&#x452;" horiz-adv-x="552" 
d="M285 489c119 0 187 -84 187 -215v-334c0 -72 -35 -136 -109 -136c-39 0 -65 13 -86 30l22 27c14 -11 33 -22 64 -22c49 0 75 45 75 95v340c0 105 -55 181 -153 181c-91 0 -158 -77 -158 -193v-262h-35v573h-72v34h72v93h35v-93h131v-34h-131v-189c29 61 83 105 158 105z
" />
    <glyph glyph-name="uni045F" unicode="&#x45f;" 
d="M430 482h35v-482h-175v-118h-35v118h-175v35v447h35v-447h315v447z" />
    <glyph glyph-name="ring" unicode="&#x2da;" horiz-adv-x="332" 
d="M166 733c51 0 91 -41 91 -91s-40 -91 -91 -91c-50 0 -91 41 -91 91s41 91 91 91zM166 580c35 0 63 28 63 62s-28 62 -63 62c-34 0 -62 -28 -62 -62s28 -62 62 -62z" />
    <glyph glyph-name="dotaccent" unicode="&#x2d9;" horiz-adv-x="205" 
d="M102 656c16 0 28 -13 28 -28s-12 -28 -28 -28c-15 0 -27 13 -27 28s12 28 27 28z" />
    <glyph glyph-name="breve" unicode="&#x2d8;" horiz-adv-x="355" 
d="M251 679h29c0 -64 -38 -112 -102 -112c-65 0 -103 48 -103 112h29c0 -48 31 -83 74 -83c45 0 73 35 73 83z" />
    <glyph glyph-name="dieresis" unicode="&#xa8;" horiz-adv-x="340" 
d="M237 656c15 0 28 -13 28 -28s-13 -28 -28 -28s-28 13 -28 28s13 28 28 28zM103 656c15 0 28 -13 28 -28s-13 -28 -28 -28s-28 13 -28 28s13 28 28 28z" />
    <glyph glyph-name="circumflex" unicode="&#x2c6;" horiz-adv-x="403" 
d="M328 564h-45l-82 109l-81 -109h-45l106 136h41z" />
    <glyph glyph-name="caron" unicode="&#x2c7;" horiz-adv-x="403" 
d="M283 700h45l-106 -136h-41l-106 136h45l81 -109z" />
    <glyph glyph-name="acute" unicode="&#xb4;" horiz-adv-x="270" 
d="M152 700h43l-99 -136h-21z" />
    <glyph glyph-name="grave" unicode="`" horiz-adv-x="160" 
d="M52 700l78 -136h-21l-99 136h42z" />
    <glyph glyph-name="tilde" unicode="&#x2dc;" horiz-adv-x="447" 
d="M341 644l31 -6c-15 -60 -45 -77 -82 -77c-62 0 -88 68 -133 68c-25 0 -40 -17 -54 -44l-28 14c14 25 38 61 88 61c58 0 83 -67 129 -67c27 0 43 21 49 51z" />
    <glyph glyph-name="macron" unicode="&#xaf;" horiz-adv-x="400" 
d="M75 668h250v-34h-250v34z" />
    <glyph glyph-name="cedilla" unicode="&#xb8;" horiz-adv-x="318" 
d="M154 -55c62 7 89 -30 89 -69c0 -28 -15 -55 -39 -69c-37 -21 -85 -16 -129 12l13 22c43 -29 100 -30 123 6c20 31 5 70 -28 77c-12 3 -34 3 -47 -6l-16 12l34 70h28z" />
    <glyph glyph-name="ogonek" unicode="&#x2db;" horiz-adv-x="285" 
d="M210 -153v-41c-15 -5 -31 -8 -46 -8c-49 0 -93 33 -88 89c4 54 58 99 81 113h32c-41 -22 -89 -75 -85 -119c5 -49 59 -62 106 -34z" />
    <glyph glyph-name="Aogonek" unicode="&#x104;" horiz-adv-x="642" 
d="M631 -153v-40c-16 -6 -31 -9 -46 -9c-49 0 -94 33 -89 89c5 55 59 99 82 113h-3l-249 645l-248 -645h-38l271 700h31l271 -700h-3c-41 -21 -90 -74 -85 -118c4 -49 59 -63 106 -35z" />
    <glyph glyph-name="Ccedilla" unicode="&#xc7;" horiz-adv-x="757" 
d="M405 29c111 0 203 58 256 145l31 -16c-57 -96 -157 -160 -278 -163l-24 -50c62 7 88 -30 88 -69c0 -28 -15 -55 -39 -69c-37 -21 -84 -16 -128 12l12 22c44 -29 100 -30 123 6c20 31 5 70 -28 77c-12 3 -34 4 -47 -6l-16 12l32 65c-187 9 -322 165 -322 355
c1 197 144 357 340 357c125 0 229 -66 287 -164l-31 -16c-53 87 -145 145 -256 145c-177 0 -302 -144 -302 -322c0 -177 125 -321 302 -321zM365 350c0 22 18 40 40 40s40 -18 40 -40s-18 -40 -40 -40s-40 18 -40 40z" />
    <glyph glyph-name="Eogonek" unicode="&#x118;" horiz-adv-x="639" 
d="M559 700v-35h-459v35h459zM528 367v-34h-428v34h428zM586 -153v-40c-16 -6 -31 -9 -47 -9c-48 0 -93 33 -88 89c5 55 58 99 82 113h-433v35h465v-35c-40 -21 -90 -74 -86 -118c5 -49 60 -63 107 -35z" />
    <glyph glyph-name="Iogonek" unicode="&#x12e;" horiz-adv-x="235" 
d="M136 700v-106h-35v106h35zM155 -153v-40c-16 -6 -30 -9 -46 -9c-48 0 -93 33 -88 89c5 55 58 99 82 113h-2v501h35v-501h-2c-40 -21 -89 -74 -85 -118c5 -49 59 -63 106 -35z" />
    <glyph glyph-name="Scedilla" unicode="&#x15e;" horiz-adv-x="627" 
d="M84 163c13 -44 46 -84 98 -109l-15 -30c-60 28 -100 76 -116 128zM567 185c0 -74 -52 -191 -240 -193l-24 -47c62 7 89 -30 89 -69c0 -28 -14 -55 -38 -69c-37 -21 -85 -16 -129 12l12 22c44 -29 101 -30 123 6c20 31 5 70 -27 77c-12 3 -34 4 -48 -6l-16 12l48 97h4
c106 0 211 48 211 158c0 96 -106 126 -221 151c-161 34 -244 86 -244 179c0 115 98 192 229 192c20 0 41 -3 61 -6l-21 -32c-13 2 -27 3 -40 3c-114 0 -194 -63 -194 -157c0 -92 105 -119 218 -145c202 -46 247 -105 247 -185z" />
    <glyph glyph-name="Uogonek" unicode="&#x172;" horiz-adv-x="715" 
d="M580 700h35v-352l-35 15v337zM357 28c131 0 213 84 222 226l34 -15c-9 -96 -50 -169 -116 -210c-67 -42 -117 -103 -112 -147c4 -49 59 -63 106 -35v-40c-16 -6 -31 -9 -47 -9c-48 0 -93 33 -88 89c4 40 34 82 69 113c-21 -4 -43 -7 -68 -7c-163 0 -257 110 -257 290v218
h34v-218c0 -161 84 -255 223 -255zM134 700v-106h-34v106h34z" />
    <glyph glyph-name="aogonek" unicode="&#x105;" horiz-adv-x="500" 
d="M440 -153v-41c-15 -5 -31 -8 -46 -8c-49 0 -93 33 -88 89c4 54 58 99 81 113h-1v100c-28 -44 -88 -107 -197 -107c-66 0 -149 27 -149 119c0 94 84 128 178 150c80 18 167 27 167 73c0 65 -38 120 -133 120c-90 0 -138 -48 -153 -110l-34 8c15 59 59 137 187 137
c71 0 168 -36 168 -169v-321h-1c-41 -22 -89 -75 -85 -119c5 -49 59 -62 106 -34zM386 201v65c-43 -10 -93 -25 -160 -38c-111 -22 -149 -56 -149 -116c0 -58 53 -84 117 -84c109 0 192 75 192 173z" />
    <glyph glyph-name="ccedilla" unicode="&#xe7;" horiz-adv-x="533" 
d="M282 28c74 0 131 37 164 95l32 -16c-37 -65 -101 -109 -182 -114l-24 -48c62 7 89 -30 89 -69c0 -28 -15 -55 -40 -69c-37 -21 -84 -16 -128 12l12 22c44 -29 100 -30 123 6c20 31 5 70 -28 77c-12 3 -34 3 -47 -6l-16 12l31 63c-130 7 -218 116 -218 248
c0 137 95 249 232 249c87 0 157 -46 196 -114l-32 -16c-33 57 -90 95 -164 95c-118 0 -194 -96 -194 -214s76 -213 194 -213z" />
    <glyph glyph-name="eogonek" unicode="&#x119;" horiz-adv-x="544" 
d="M484 241c0 -9 0 -17 -1 -26h-404c10 -105 83 -187 192 -187c74 0 131 37 164 95l33 -16c-21 -37 -51 -67 -88 -87c-60 -40 -101 -98 -98 -139c5 -49 60 -62 107 -34v-41c-16 -5 -31 -8 -47 -8c-48 0 -93 33 -88 89c4 39 32 80 67 111c-16 -3 -33 -5 -50 -5
c-137 0 -231 111 -231 248s94 249 231 249s213 -112 213 -249zM271 455c-115 0 -190 -91 -194 -205h369c-2 114 -60 205 -175 205z" />
    <glyph glyph-name="iogonek" unicode="&#x12f;" horiz-adv-x="220" 
d="M109 574c-16 0 -28 13 -28 28s12 28 28 28c15 0 27 -13 27 -28s-12 -28 -27 -28zM146 -153v-41c-15 -5 -31 -8 -46 -8c-49 0 -93 33 -89 89c5 54 59 99 82 113h-2v482h35v-482h-1c-41 -22 -89 -75 -85 -119c4 -49 59 -62 106 -34z" />
    <glyph glyph-name="scedilla" unicode="&#x15f;" horiz-adv-x="441" 
d="M391 127c0 -87 -72 -132 -153 -135l-23 -47c62 7 89 -30 89 -69c0 -28 -15 -55 -40 -69c-37 -21 -84 -16 -128 12l12 22c44 -29 100 -30 123 6c20 31 5 70 -27 77c-13 3 -35 3 -48 -6l-16 12l31 62c-89 6 -151 53 -171 111l33 15c15 -46 65 -92 156 -92
c65 0 127 31 127 101c0 54 -56 76 -142 98c-77 20 -150 47 -159 122s49 143 156 143c76 0 140 -46 161 -109l-32 -13c-19 52 -68 87 -129 87c-87 0 -128 -49 -121 -104c6 -51 63 -74 133 -92c79 -21 168 -47 168 -132z" />
    <glyph glyph-name="uogonek" unicode="&#x173;" horiz-adv-x="522" 
d="M407 482h35v-273c0 -110 -48 -187 -133 -209c-41 -22 -88 -75 -84 -118c5 -49 60 -63 106 -35v-40c-15 -6 -31 -9 -46 -9c-49 0 -93 33 -88 89c4 48 45 88 71 107c-4 -1 -8 -1 -12 -1c-118 1 -186 85 -186 216v273h35v-273c0 -104 54 -180 151 -181c98 1 151 77 151 181
v273z" />
    <glyph glyph-name="hungarumlaut" unicode="&#x2dd;" horiz-adv-x="392" 
d="M152 700h43l-99 -136h-21zM274 700h43l-99 -136h-21z" />
    <glyph glyph-name="Aacute" unicode="&#xc1;" horiz-adv-x="652" 
d="M342 700l270 -700h-37l-249 645l-249 -645h-37l270 700h32zM404 900h43l-99 -136h-21z" />
    <glyph glyph-name="Agrave" unicode="&#xc0;" horiz-adv-x="652" 
d="M342 700l270 -700h-37l-249 645l-249 -645h-37l270 700h32zM248 900l78 -136h-21l-99 136h42z" />
    <glyph glyph-name="Abreve" unicode="&#x102;" horiz-adv-x="652" 
d="M342 700l270 -700h-37l-249 645l-249 -645h-37l270 700h32zM400 879h29c0 -64 -38 -112 -102 -112c-65 0 -103 48 -103 112h29c0 -48 31 -83 74 -83c45 0 73 35 73 83z" />
    <glyph glyph-name="Acircumflex" unicode="&#xc2;" horiz-adv-x="652" 
d="M342 700l270 -700h-37l-249 645l-249 -645h-37l270 700h32zM453 764h-45l-82 109l-81 -109h-45l106 136h41z" />
    <glyph glyph-name="Adieresis" unicode="&#xc4;" horiz-adv-x="652" 
d="M342 700l270 -700h-37l-249 645l-249 -645h-37l270 700h32zM393 856c15 0 28 -13 28 -28s-13 -28 -28 -28s-28 13 -28 28s13 28 28 28zM259 856c15 0 28 -13 28 -28s-13 -28 -28 -28s-28 13 -28 28s13 28 28 28z" />
    <glyph glyph-name="Amacron" unicode="&#x100;" horiz-adv-x="652" 
d="M342 700l270 -700h-37l-249 645l-249 -645h-37l270 700h32zM201 868h250v-34h-250v34z" />
    <glyph glyph-name="Aring" unicode="&#xc5;" horiz-adv-x="652" 
d="M342 700l270 -700h-37l-249 645l-249 -645h-37l270 700h32zM326 933c51 0 91 -41 91 -91s-40 -91 -91 -91c-50 0 -91 41 -91 91s41 91 91 91zM326 780c35 0 63 28 63 62s-28 62 -63 62c-34 0 -62 -28 -62 -62s28 -62 62 -62z" />
    <glyph glyph-name="Atilde" unicode="&#xc3;" horiz-adv-x="652" 
d="M342 700l270 -700h-37l-249 645l-249 -645h-37l270 700h32zM445 844l31 -6c-15 -60 -45 -77 -82 -77c-62 0 -88 68 -133 68c-25 0 -40 -17 -54 -44l-28 14c14 25 38 61 88 61c58 0 83 -67 129 -67c27 0 43 21 49 51z" />
    <glyph glyph-name="AEacute" unicode="&#x1fc;" horiz-adv-x="1029" 
d="M524 35h431v-35h-465v224h-304l-117 -224h-39l367 700h552v-35h-425v-298h394v-34h-394v-298zM205 258h285v407h-72zM570 900h43l-99 -136h-21z" />
    <glyph glyph-name="Cacute" unicode="&#x106;" horiz-adv-x="757" 
d="M405 29c111 0 203 58 256 145l31 -16c-58 -98 -162 -164 -287 -164c-196 0 -340 160 -340 356c0 197 144 357 340 357c125 0 229 -66 287 -164l-31 -16c-53 87 -145 145 -256 145c-177 0 -302 -144 -302 -322c0 -177 125 -321 302 -321zM365 350c0 22 18 40 40 40
s40 -18 40 -40s-18 -40 -40 -40s-40 18 -40 40zM455 900h43l-99 -136h-21z" />
    <glyph glyph-name="Ccaron" unicode="&#x10c;" horiz-adv-x="757" 
d="M405 29c111 0 203 58 256 145l31 -16c-58 -98 -162 -164 -287 -164c-196 0 -340 160 -340 356c0 197 144 357 340 357c125 0 229 -66 287 -164l-31 -16c-53 87 -145 145 -256 145c-177 0 -302 -144 -302 -322c0 -177 125 -321 302 -321zM365 350c0 22 18 40 40 40
s40 -18 40 -40s-18 -40 -40 -40s-40 18 -40 40zM480 900h45l-106 -136h-41l-106 136h45l81 -109z" />
    <glyph glyph-name="Ccircumflex" unicode="&#x108;" horiz-adv-x="757" 
d="M405 29c111 0 203 58 256 145l31 -16c-58 -98 -162 -164 -287 -164c-196 0 -340 160 -340 356c0 197 144 357 340 357c125 0 229 -66 287 -164l-31 -16c-53 87 -145 145 -256 145c-177 0 -302 -144 -302 -322c0 -177 125 -321 302 -321zM365 350c0 22 18 40 40 40
s40 -18 40 -40s-18 -40 -40 -40s-40 18 -40 40zM531 764h-45l-82 109l-81 -109h-45l106 136h41z" />
    <glyph glyph-name="Cdotaccent" unicode="&#x10a;" horiz-adv-x="757" 
d="M405 29c111 0 203 58 256 145l31 -16c-58 -98 -162 -164 -287 -164c-196 0 -340 160 -340 356c0 197 144 357 340 357c125 0 229 -66 287 -164l-31 -16c-53 87 -145 145 -256 145c-177 0 -302 -144 -302 -322c0 -177 125 -321 302 -321zM365 350c0 22 18 40 40 40
s40 -18 40 -40s-18 -40 -40 -40s-40 18 -40 40zM410 856c16 0 28 -13 28 -28s-12 -28 -28 -28c-15 0 -27 13 -27 28s12 28 27 28z" />
    <glyph glyph-name="Dcaron" unicode="&#x10e;" horiz-adv-x="738" 
d="M295 700c210 0 368 -124 368 -350c0 -225 -157 -350 -368 -350h-195v310h35v-275h160c183 0 327 113 327 315c0 203 -140 316 -327 316h-195v34h195zM420 900h45l-106 -136h-41l-106 136h45l81 -109z" />
    <glyph glyph-name="Eacute" unicode="&#xc9;" horiz-adv-x="639" 
d="M559 700v-35h-459v35h459zM528 367v-34h-428v34h428zM100 35h465v-35h-465v35zM379 900h43l-99 -136h-21z" />
    <glyph glyph-name="Ebreve" unicode="&#x114;" horiz-adv-x="639" 
d="M559 700v-35h-459v35h459zM528 367v-34h-428v34h428zM100 35h465v-35h-465v35zM406 879h29c0 -64 -38 -112 -102 -112c-65 0 -103 48 -103 112h29c0 -48 31 -83 74 -83c45 0 73 35 73 83z" />
    <glyph glyph-name="Ecaron" unicode="&#x11a;" horiz-adv-x="639" 
d="M559 700v-35h-459v35h459zM528 367v-34h-428v34h428zM100 35h465v-35h-465v35zM414 900h45l-106 -136h-41l-106 136h45l81 -109z" />
    <glyph glyph-name="Ecircumflex" unicode="&#xca;" horiz-adv-x="639" 
d="M559 700v-35h-459v35h459zM528 367v-34h-428v34h428zM100 35h465v-35h-465v35zM459 764h-45l-82 109l-81 -109h-45l106 136h41z" />
    <glyph glyph-name="Edieresis" unicode="&#xcb;" horiz-adv-x="639" 
d="M559 700v-35h-459v35h459zM528 367v-34h-428v34h428zM100 35h465v-35h-465v35zM399 856c15 0 28 -13 28 -28s-13 -28 -28 -28s-28 13 -28 28s13 28 28 28zM265 856c15 0 28 -13 28 -28s-13 -28 -28 -28s-28 13 -28 28s13 28 28 28z" />
    <glyph glyph-name="Edotaccent" unicode="&#x116;" horiz-adv-x="639" 
d="M559 700v-35h-459v35h459zM528 367v-34h-428v34h428zM100 35h465v-35h-465v35zM333 856c16 0 28 -13 28 -28s-12 -28 -28 -28c-15 0 -27 13 -27 28s12 28 27 28z" />
    <glyph glyph-name="Egrave" unicode="&#xc8;" horiz-adv-x="639" 
d="M559 700v-35h-459v35h459zM528 367v-34h-428v34h428zM100 35h465v-35h-465v35zM294 900l78 -136h-21l-99 136h42z" />
    <glyph glyph-name="Emacron" unicode="&#x112;" horiz-adv-x="639" 
d="M559 700v-35h-459v35h459zM528 367v-34h-428v34h428zM100 35h465v-35h-465v35zM207 868h250v-34h-250v34z" />
    <glyph glyph-name="Gbreve" unicode="&#x11e;" horiz-adv-x="787" 
d="M667 374h35v-280c-42 -47 -148 -112 -299 -100c-195 16 -328 160 -328 356c0 197 133 341 328 357c127 10 223 -34 275 -77l-18 -26c-43 36 -129 78 -257 68c-176 -14 -290 -144 -291 -322c1 -177 115 -307 291 -321c136 -11 225 38 264 75v270zM482 879h29
c0 -64 -38 -112 -102 -112c-65 0 -103 48 -103 112h29c0 -48 31 -83 74 -83c45 0 73 35 73 83z" />
    <glyph glyph-name="Gcircumflex" unicode="&#x11c;" horiz-adv-x="787" 
d="M667 374h35v-280c-42 -47 -148 -112 -299 -100c-195 16 -328 160 -328 356c0 197 133 341 328 357c127 10 223 -34 275 -77l-18 -26c-43 36 -129 78 -257 68c-176 -14 -290 -144 -291 -322c1 -177 115 -307 291 -321c136 -11 225 38 264 75v270zM535 764h-45l-82 109
l-81 -109h-45l106 136h41z" />
    <glyph glyph-name="Gcommaaccent" unicode="&#x122;" horiz-adv-x="787" 
d="M378 -77h40l-54 -132h-20zM667 374h35v-280c-42 -47 -148 -112 -299 -100c-195 16 -328 160 -328 356c0 197 133 341 328 357c127 10 223 -34 275 -77l-18 -26c-43 36 -129 78 -257 68c-176 -14 -290 -144 -291 -322c1 -177 115 -307 291 -321c136 -11 225 38 264 75v270
z" />
    <glyph glyph-name="Gdotaccent" unicode="&#x120;" horiz-adv-x="787" 
d="M667 374h35v-280c-42 -47 -148 -112 -299 -100c-195 16 -328 160 -328 356c0 197 133 341 328 357c127 10 223 -34 275 -77l-18 -26c-43 36 -129 78 -257 68c-176 -14 -290 -144 -291 -322c1 -177 115 -307 291 -321c136 -11 225 38 264 75v270zM408 856
c16 0 28 -13 28 -28s-12 -28 -28 -28c-15 0 -27 13 -27 28s12 28 27 28z" />
    <glyph glyph-name="Hcircumflex" unicode="&#x124;" horiz-adv-x="731" 
d="M100 0v188h35v-188h-35zM135 367h496v-367h-35v332h-496v368h35v-333zM596 700h35v-187h-35v187zM492 764h-45l-82 109l-81 -109h-45l106 136h41z" />
    <glyph glyph-name="Iacute" unicode="&#xcd;" horiz-adv-x="234" 
d="M100 0v501h34v-501h-34zM100 700h34v-106h-34v106zM191 900h43l-99 -136h-21z" />
    <glyph glyph-name="Ibreve" unicode="&#x12c;" horiz-adv-x="233" 
d="M99 0v501h34v-501h-34zM99 700h34v-106h-34v106zM190 879h29c0 -64 -38 -112 -102 -112c-65 0 -103 48 -103 112h29c0 -48 31 -83 74 -83c45 0 73 35 73 83z" />
    <glyph glyph-name="Icircumflex" unicode="&#xce;" horiz-adv-x="233" 
d="M99 0v501h34v-501h-34zM99 700h34v-106h-34v106zM243 764h-45l-82 109l-81 -109h-45l106 136h41z" />
    <glyph glyph-name="Idieresis" unicode="&#xcf;" horiz-adv-x="234" 
d="M100 0v501h34v-501h-34zM100 700h34v-106h-34v106zM184 856c15 0 28 -13 28 -28s-13 -28 -28 -28s-28 13 -28 28s13 28 28 28zM50 856c15 0 28 -13 28 -28s-13 -28 -28 -28s-28 13 -28 28s13 28 28 28z" />
    <glyph glyph-name="Idotaccent" unicode="&#x130;" horiz-adv-x="235" 
d="M100 0v501h34v-501h-34zM100 700h34v-106h-34v106zM117 856c16 0 28 -13 28 -28s-12 -28 -28 -28c-15 0 -27 13 -27 28s12 28 27 28z" />
    <glyph glyph-name="Igrave" unicode="&#xcc;" horiz-adv-x="234" 
d="M100 0v501h34v-501h-34zM100 700h34v-106h-34v106zM44 900l78 -136h-21l-99 136h42z" />
    <glyph glyph-name="Imacron" unicode="&#x12a;" horiz-adv-x="234" 
d="M100 0v501h34v-501h-34zM100 700h34v-106h-34v106zM-8 868h250v-34h-250v34z" />
    <glyph glyph-name="Itilde" unicode="&#x128;" horiz-adv-x="235" 
d="M100 0v501h34v-501h-34zM100 700h34v-106h-34v106zM237 844l31 -6c-15 -60 -45 -77 -82 -77c-62 0 -88 68 -133 68c-25 0 -40 -17 -54 -44l-28 14c14 25 38 61 88 61c58 0 83 -67 129 -67c27 0 43 21 49 51z" />
    <glyph glyph-name="Jcircumflex" unicode="&#x134;" horiz-adv-x="444" 
d="M319 501h35v-315c0 -116 -56 -193 -165 -193c-79 0 -136 34 -164 74l31 20c20 -29 69 -60 129 -60c90 0 134 66 134 160v314zM319 700h35v-106h-35v106zM463 764h-45l-82 109l-81 -109h-45l106 136h41z" />
    <glyph glyph-name="Kcommaaccent" unicode="&#x136;" horiz-adv-x="642" 
d="M284 -77h40l-54 -132h-20zM553 0l-256 333h-162v-333h-35v700h35v-332h161l230 332h43l-242 -349l270 -351h-44z" />
    <glyph glyph-name="Lacute" unicode="&#x139;" horiz-adv-x="560" 
d="M100 594v106h35v-106h-35zM100 81v420h35v-385zM196 35h324v-35h-359zM193 900h43l-99 -136h-21z" />
    <glyph glyph-name="Lcaron" unicode="&#x13d;" horiz-adv-x="560" 
d="M100 594v106h35v-106h-35zM100 81v420h35v-385zM196 35h324v-35h-359zM255 532l46 168h44l-70 -168h-20z" />
    <glyph glyph-name="Lcommaaccent" unicode="&#x13b;" horiz-adv-x="560" 
d="M294 -77h40l-54 -132h-20zM100 594v106h35v-106h-35zM100 81v420h35v-385zM196 35h324v-35h-359z" />
    <glyph glyph-name="Ldot" unicode="&#x13f;" horiz-adv-x="560" 
d="M323 377c16 0 28 -13 28 -28s-12 -28 -28 -28c-15 0 -27 13 -27 28s12 28 27 28zM100 594v106h35v-106h-35zM100 81v420h35v-385zM196 35h324v-35h-359z" />
    <glyph glyph-name="Nacute" unicode="&#x143;" horiz-adv-x="733" 
d="M598 84v616h35v-707h-9l-489 622v-615h-35v707h8zM444 900h43l-99 -136h-21z" />
    <glyph glyph-name="Ncaron" unicode="&#x147;" horiz-adv-x="733" 
d="M598 84v616h35v-707h-9l-489 622v-615h-35v707h8zM461 900h45l-106 -136h-41l-106 136h45l81 -109z" />
    <glyph glyph-name="commaaccent" unicode="&#xf6c3;" horiz-adv-x="224" 
d="M109 -77h40l-54 -132h-20z" />
    <glyph glyph-name="Ncommaaccent" unicode="&#x145;" horiz-adv-x="733" 
d="M324 -77h40l-54 -132h-20zM598 84v616h35v-707h-9l-489 622v-615h-35v707h8z" />
    <glyph glyph-name="Ntilde" unicode="&#xd1;" horiz-adv-x="733" 
d="M598 84v616h35v-707h-9l-489 622v-615h-35v707h8zM506 844l31 -6c-15 -60 -45 -77 -82 -77c-62 0 -88 68 -133 68c-25 0 -40 -17 -54 -44l-28 14c14 25 38 61 88 61c58 0 83 -67 129 -67c27 0 43 21 49 51z" />
    <glyph glyph-name="Oacute" unicode="&#xd3;" horiz-adv-x="789" 
d="M394 706c196 0 340 -160 340 -357c0 -196 -144 -356 -340 -356c-195 0 -339 160 -339 356c0 197 144 357 339 357zM394 27c177 0 302 145 302 322c0 178 -125 322 -302 322c-176 0 -301 -144 -301 -322c0 -177 125 -322 301 -322zM394 389c22 0 40 -18 40 -40
s-18 -40 -40 -40s-40 18 -40 40s18 40 40 40zM462 900h43l-99 -136h-21z" />
    <glyph glyph-name="Obreve" unicode="&#x14e;" horiz-adv-x="789" 
d="M394 706c196 0 340 -160 340 -357c0 -196 -144 -356 -340 -356c-195 0 -339 160 -339 356c0 197 144 357 339 357zM394 27c177 0 302 145 302 322c0 178 -125 322 -302 322c-176 0 -301 -144 -301 -322c0 -177 125 -322 301 -322zM394 389c22 0 40 -18 40 -40
s-18 -40 -40 -40s-40 18 -40 40s18 40 40 40zM468 879h29c0 -64 -38 -112 -102 -112c-65 0 -103 48 -103 112h29c0 -48 31 -83 74 -83c45 0 73 35 73 83z" />
    <glyph glyph-name="Ocircumflex" unicode="&#xd4;" horiz-adv-x="789" 
d="M394 706c196 0 340 -160 340 -357c0 -196 -144 -356 -340 -356c-195 0 -339 160 -339 356c0 197 144 357 339 357zM394 27c177 0 302 145 302 322c0 178 -125 322 -302 322c-176 0 -301 -144 -301 -322c0 -177 125 -322 301 -322zM394 389c22 0 40 -18 40 -40
s-18 -40 -40 -40s-40 18 -40 40s18 40 40 40zM521 764h-45l-82 109l-81 -109h-45l106 136h41z" />
    <glyph glyph-name="Odieresis" unicode="&#xd6;" horiz-adv-x="789" 
d="M394 706c196 0 340 -160 340 -357c0 -196 -144 -356 -340 -356c-195 0 -339 160 -339 356c0 197 144 357 339 357zM394 27c177 0 302 145 302 322c0 178 -125 322 -302 322c-176 0 -301 -144 -301 -322c0 -177 125 -322 301 -322zM394 389c22 0 40 -18 40 -40
s-18 -40 -40 -40s-40 18 -40 40s18 40 40 40zM462 856c15 0 28 -13 28 -28s-13 -28 -28 -28s-28 13 -28 28s13 28 28 28zM328 856c15 0 28 -13 28 -28s-13 -28 -28 -28s-28 13 -28 28s13 28 28 28z" />
    <glyph glyph-name="Ograve" unicode="&#xd2;" horiz-adv-x="789" 
d="M394 706c196 0 340 -160 340 -357c0 -196 -144 -356 -340 -356c-195 0 -339 160 -339 356c0 197 144 357 339 357zM394 27c177 0 302 145 302 322c0 178 -125 322 -302 322c-176 0 -301 -144 -301 -322c0 -177 125 -322 301 -322zM394 389c22 0 40 -18 40 -40
s-18 -40 -40 -40s-40 18 -40 40s18 40 40 40zM337 900l78 -136h-21l-99 136h42z" />
    <glyph glyph-name="Ohungarumlaut" unicode="&#x150;" horiz-adv-x="789" 
d="M394 706c196 0 340 -160 340 -357c0 -196 -144 -356 -340 -356c-195 0 -339 160 -339 356c0 197 144 357 339 357zM394 27c177 0 302 145 302 322c0 178 -125 322 -302 322c-176 0 -301 -144 -301 -322c0 -177 125 -322 301 -322zM394 389c22 0 40 -18 40 -40
s-18 -40 -40 -40s-40 18 -40 40s18 40 40 40zM401 900h43l-99 -136h-21zM523 900h43l-99 -136h-21z" />
    <glyph glyph-name="Omacron" unicode="&#x14c;" horiz-adv-x="789" 
d="M394 706c196 0 340 -160 340 -357c0 -196 -144 -356 -340 -356c-195 0 -339 160 -339 356c0 197 144 357 339 357zM394 27c177 0 302 145 302 322c0 178 -125 322 -302 322c-176 0 -301 -144 -301 -322c0 -177 125 -322 301 -322zM394 389c22 0 40 -18 40 -40
s-18 -40 -40 -40s-40 18 -40 40s18 40 40 40zM270 868h250v-34h-250v34z" />
    <glyph glyph-name="Oslashacute" unicode="&#x1fe;" horiz-adv-x="789" 
d="M641 597c59 -64 93 -152 93 -248c0 -196 -144 -356 -339 -356c-88 0 -165 32 -223 84l-81 -89l-25 24l81 90c-58 64 -92 151 -92 247c0 197 144 357 340 357c87 0 163 -32 222 -84l81 89l26 -23zM93 349c0 -85 29 -163 78 -220l422 466c-52 48 -120 76 -198 76
c-177 0 -302 -144 -302 -322zM395 27c176 0 302 145 302 322c0 86 -30 164 -80 222l-422 -467c52 -48 121 -77 200 -77zM455 900h43l-99 -136h-21z" />
    <glyph glyph-name="Otilde" unicode="&#xd5;" horiz-adv-x="789" 
d="M394 706c196 0 340 -160 340 -357c0 -196 -144 -356 -340 -356c-195 0 -339 160 -339 356c0 197 144 357 339 357zM394 27c177 0 302 145 302 322c0 178 -125 322 -302 322c-176 0 -301 -144 -301 -322c0 -177 125 -322 301 -322zM394 389c22 0 40 -18 40 -40
s-18 -40 -40 -40s-40 18 -40 40s18 40 40 40zM524 844l31 -6c-15 -60 -45 -77 -82 -77c-62 0 -88 68 -133 68c-25 0 -40 -17 -54 -44l-28 14c14 25 38 61 88 61c58 0 83 -67 129 -67c27 0 43 21 49 51z" />
    <glyph glyph-name="Racute" unicode="&#x154;" horiz-adv-x="658" 
d="M593 0h-40l-156 276c-15 -2 -31 -4 -47 -4h-216v-272h-34v307h250c106 0 192 68 192 179c0 112 -83 179 -192 179h-250v35h250c128 0 229 -85 229 -214c0 -100 -59 -174 -147 -201zM384 900h43l-99 -136h-21z" />
    <glyph glyph-name="Rcaron" unicode="&#x158;" horiz-adv-x="658" 
d="M593 0h-40l-156 276c-15 -2 -31 -4 -47 -4h-216v-272h-34v307h250c106 0 192 68 192 179c0 112 -83 179 -192 179h-250v35h250c128 0 229 -85 229 -214c0 -100 -59 -174 -147 -201zM408 900h45l-106 -136h-41l-106 136h45l81 -109z" />
    <glyph glyph-name="Rcommaaccent" unicode="&#x156;" horiz-adv-x="658" 
d="M593 0h-40l-156 276c-15 -2 -31 -4 -47 -4h-216v-272h-34v307h250c106 0 192 68 192 179c0 112 -83 179 -192 179h-250v35h250c128 0 229 -85 229 -214c0 -100 -59 -174 -147 -201zM308 -77h40l-54 -132h-20z" />
    <glyph glyph-name="Sacute" unicode="&#x15a;" horiz-adv-x="626" 
d="M83 163c13 -44 47 -83 99 -108l-15 -31c-60 28 -101 76 -117 128zM319 370c202 -46 247 -105 247 -185c0 -75 -53 -193 -246 -193h-20l17 35h3c107 0 211 48 211 158c0 96 -106 126 -220 151c-162 34 -244 86 -244 179c0 115 98 192 228 192c21 0 41 -2 61 -5l-21 -32
c-13 2 -26 2 -40 2c-114 0 -194 -63 -194 -157c0 -92 106 -119 218 -145zM375 900h43l-99 -136h-21z" />
    <glyph glyph-name="Scaron" unicode="&#x160;" horiz-adv-x="626" 
d="M83 163c13 -44 47 -83 99 -108l-15 -31c-60 28 -101 76 -117 128zM319 370c202 -46 247 -105 247 -185c0 -75 -53 -193 -246 -193h-20l17 35h3c107 0 211 48 211 158c0 96 -106 126 -220 151c-162 34 -244 86 -244 179c0 115 98 192 228 192c21 0 41 -2 61 -5l-21 -32
c-13 2 -26 2 -40 2c-114 0 -194 -63 -194 -157c0 -92 106 -119 218 -145zM400 900h45l-106 -136h-41l-106 136h45l81 -109z" />
    <glyph glyph-name="Scircumflex" unicode="&#x15c;" horiz-adv-x="626" 
d="M83 163c13 -44 47 -83 99 -108l-15 -31c-60 28 -101 76 -117 128zM319 370c202 -46 247 -105 247 -185c0 -75 -53 -193 -246 -193h-20l17 35h3c107 0 211 48 211 158c0 96 -106 126 -220 151c-162 34 -244 86 -244 179c0 115 98 192 228 192c21 0 41 -2 61 -5l-21 -32
c-13 2 -26 2 -40 2c-114 0 -194 -63 -194 -157c0 -92 106 -119 218 -145zM445 764h-45l-82 109l-81 -109h-45l106 136h41z" />
    <glyph glyph-name="Scommaaccent" unicode="&#x218;" horiz-adv-x="626" 
d="M83 163c13 -44 47 -83 99 -108l-15 -31c-60 28 -101 76 -117 128zM319 370c202 -46 247 -105 247 -185c0 -75 -53 -193 -246 -193h-20l17 35h3c107 0 211 48 211 158c0 96 -106 126 -220 151c-162 34 -244 86 -244 179c0 115 98 192 228 192c21 0 41 -2 61 -5l-21 -32
c-13 2 -26 2 -40 2c-114 0 -194 -63 -194 -157c0 -92 106 -119 218 -145zM268 -77h40l-54 -132h-20z" />
    <glyph glyph-name="Tcaron" unicode="&#x164;" horiz-adv-x="536" 
d="M256 0v513h34v-513h-34zM20 700h506v-35h-506v35zM355 900h45l-106 -136h-41l-106 136h45l81 -109z" />
    <glyph glyph-name="Tcommaaccent" unicode="&#x162;" horiz-adv-x="536" 
d="M256 0v513h34v-513h-34zM20 700h506v-35h-506v35zM249 -77h40l-54 -132h-20z" />
    <glyph glyph-name="Uacute" unicode="&#xda;" horiz-adv-x="715" 
d="M358 27c130 0 212 85 221 227l34 -15c-14 -151 -105 -246 -255 -246c-164 0 -258 110 -258 290v218h35v-218c0 -161 84 -256 223 -256zM135 700v-106h-35v106h35zM615 700v-352l-35 15v337h35zM425 900h43l-99 -136h-21z" />
    <glyph glyph-name="Ubreve" unicode="&#x16c;" horiz-adv-x="715" 
d="M358 27c130 0 212 85 221 227l34 -15c-14 -151 -105 -246 -255 -246c-164 0 -258 110 -258 290v218h35v-218c0 -161 84 -256 223 -256zM135 700v-106h-35v106h35zM615 700v-352l-35 15v337h35zM431 879h29c0 -64 -38 -112 -102 -112c-65 0 -103 48 -103 112h29
c0 -48 31 -83 74 -83c45 0 73 35 73 83z" />
    <glyph glyph-name="Ucircumflex" unicode="&#xdb;" horiz-adv-x="715" 
d="M358 27c130 0 212 85 221 227l34 -15c-14 -151 -105 -246 -255 -246c-164 0 -258 110 -258 290v218h35v-218c0 -161 84 -256 223 -256zM135 700v-106h-35v106h35zM615 700v-352l-35 15v337h35zM484 764h-45l-82 109l-81 -109h-45l106 136h41z" />
    <glyph glyph-name="Udieresis" unicode="&#xdc;" horiz-adv-x="715" 
d="M358 27c130 0 212 85 221 227l34 -15c-14 -151 -105 -246 -255 -246c-164 0 -258 110 -258 290v218h35v-218c0 -161 84 -256 223 -256zM135 700v-106h-35v106h35zM615 700v-352l-35 15v337h35zM425 856c15 0 28 -13 28 -28s-13 -28 -28 -28s-28 13 -28 28s13 28 28 28z
M291 856c15 0 28 -13 28 -28s-13 -28 -28 -28s-28 13 -28 28s13 28 28 28z" />
    <glyph glyph-name="Ugrave" unicode="&#xd9;" horiz-adv-x="715" 
d="M358 27c130 0 212 85 221 227l34 -15c-14 -151 -105 -246 -255 -246c-164 0 -258 110 -258 290v218h35v-218c0 -161 84 -256 223 -256zM135 700v-106h-35v106h35zM615 700v-352l-35 15v337h35zM300 900l78 -136h-21l-99 136h42z" />
    <glyph glyph-name="Uhungarumlaut" unicode="&#x170;" horiz-adv-x="715" 
d="M358 27c130 0 212 85 221 227l34 -15c-14 -151 -105 -246 -255 -246c-164 0 -258 110 -258 290v218h35v-218c0 -161 84 -256 223 -256zM135 700v-106h-35v106h35zM615 700v-352l-35 15v337h35zM354 900h43l-99 -136h-21zM476 900h43l-99 -136h-21z" />
    <glyph glyph-name="Umacron" unicode="&#x16a;" horiz-adv-x="715" 
d="M358 27c130 0 212 85 221 227l34 -15c-14 -151 -105 -246 -255 -246c-164 0 -258 110 -258 290v218h35v-218c0 -161 84 -256 223 -256zM135 700v-106h-35v106h35zM615 700v-352l-35 15v337h35zM233 868h250v-34h-250v34z" />
    <glyph glyph-name="Uring" unicode="&#x16e;" horiz-adv-x="715" 
d="M358 27c130 0 212 85 221 227l34 -15c-14 -151 -105 -246 -255 -246c-164 0 -258 110 -258 290v218h35v-218c0 -161 84 -256 223 -256zM135 700v-106h-35v106h35zM615 700v-352l-35 15v337h35zM358 933c51 0 91 -41 91 -91s-40 -91 -91 -91c-50 0 -91 41 -91 91
s41 91 91 91zM358 780c35 0 63 28 63 62s-28 62 -63 62c-34 0 -62 -28 -62 -62s28 -62 62 -62z" />
    <glyph glyph-name="Utilde" unicode="&#x168;" horiz-adv-x="715" 
d="M358 27c130 0 212 85 221 227l34 -15c-14 -151 -105 -246 -255 -246c-164 0 -258 110 -258 290v218h35v-218c0 -161 84 -256 223 -256zM135 700v-106h-35v106h35zM615 700v-352l-35 15v337h35zM487 844l31 -6c-15 -60 -45 -77 -82 -77c-62 0 -88 68 -133 68
c-25 0 -40 -17 -54 -44l-28 14c14 25 38 61 88 61c58 0 83 -67 129 -67c27 0 43 21 49 51z" />
    <glyph glyph-name="Wacute" unicode="&#x1e82;" horiz-adv-x="1031" 
d="M704 0l282 700h-37l-260 -644l-156 359l123 285h-37l-105 -241l-105 241h-37l123 -285l-155 -359l-258 644h-37l279 -700h31l159 371l159 -371h31zM591 900h43l-99 -136h-21z" />
    <glyph glyph-name="Wcircumflex" unicode="&#x174;" horiz-adv-x="1031" 
d="M704 0l282 700h-37l-260 -644l-156 359l123 285h-37l-105 -241l-105 241h-37l123 -285l-155 -359l-258 644h-37l279 -700h31l159 371l159 -371h31zM641 764h-45l-82 109l-81 -109h-45l106 136h41z" />
    <glyph glyph-name="Wdieresis" unicode="&#x1e84;" horiz-adv-x="1031" 
d="M704 0l282 700h-37l-260 -644l-156 359l123 285h-37l-105 -241l-105 241h-37l123 -285l-155 -359l-258 644h-37l279 -700h31l159 371l159 -371h31zM581 856c15 0 28 -13 28 -28s-13 -28 -28 -28s-28 13 -28 28s13 28 28 28zM447 856c15 0 28 -13 28 -28s-13 -28 -28 -28
s-28 13 -28 28s13 28 28 28z" />
    <glyph glyph-name="Wgrave" unicode="&#x1e80;" horiz-adv-x="1031" 
d="M704 0l282 700h-37l-260 -644l-156 359l123 285h-37l-105 -241l-105 241h-37l123 -285l-155 -359l-258 644h-37l279 -700h31l159 371l159 -371h31zM447 900l78 -136h-21l-99 136h42z" />
    <glyph glyph-name="Yacute" unicode="&#xdd;" horiz-adv-x="599" 
d="M317 232h-34l-262 468h39l240 -427l239 427h40zM283 0v122h34v-122h-34zM377 900h43l-99 -136h-21z" />
    <glyph glyph-name="Ycircumflex" unicode="&#x176;" horiz-adv-x="599" 
d="M317 232h-34l-262 468h39l240 -427l239 427h40zM283 0v122h34v-122h-34zM426 764h-45l-82 109l-81 -109h-45l106 136h41z" />
    <glyph glyph-name="Ydieresis" unicode="&#x178;" horiz-adv-x="599" 
d="M317 232h-34l-262 468h39l240 -427l239 427h40zM283 0v122h34v-122h-34zM367 856c15 0 28 -13 28 -28s-13 -28 -28 -28s-28 13 -28 28s13 28 28 28zM233 856c15 0 28 -13 28 -28s-13 -28 -28 -28s-28 13 -28 28s13 28 28 28z" />
    <glyph glyph-name="Ygrave" unicode="&#x1ef2;" horiz-adv-x="599" 
d="M317 232h-34l-262 468h39l240 -427l239 427h40zM283 0v122h34v-122h-34zM232 900l78 -136h-21l-99 136h42z" />
    <glyph glyph-name="Zacute" unicode="&#x179;" horiz-adv-x="673" 
d="M114 35h489v-35h-533v35l481 630h44zM364 700l-27 -35h-237v35h264zM414 900h43l-99 -136h-21z" />
    <glyph glyph-name="Zcaron" unicode="&#x17d;" horiz-adv-x="673" 
d="M114 35h489v-35h-533v35l481 630h44zM364 700l-27 -35h-237v35h264zM448 900h45l-106 -136h-41l-106 136h45l81 -109z" />
    <glyph glyph-name="Zdotaccent" unicode="&#x17b;" horiz-adv-x="673" 
d="M114 35h489v-35h-533v35l481 630h44zM364 700l-27 -35h-237v35h264zM356 856c16 0 28 -13 28 -28s-12 -28 -28 -28c-15 0 -27 13 -27 28s12 28 27 28z" />
    <glyph glyph-name="aacute" unicode="&#xe1;" horiz-adv-x="500" 
d="M252 489c71 0 168 -35 168 -168v-321h-34v99c-28 -43 -88 -106 -197 -106c-66 0 -149 27 -149 119c0 94 84 128 178 150c80 18 167 27 167 73c0 65 -38 120 -133 120c-90 0 -138 -48 -153 -110l-34 8c15 59 59 136 187 136zM386 201v64c-43 -9 -93 -24 -160 -37
c-111 -23 -149 -56 -149 -116c0 -58 53 -85 117 -85c109 0 192 79 192 174zM307 700h43l-99 -136h-21z" />
    <glyph glyph-name="abreve" unicode="&#x103;" horiz-adv-x="500" 
d="M252 489c71 0 168 -35 168 -168v-321h-34v99c-28 -43 -88 -106 -197 -106c-66 0 -149 27 -149 119c0 94 84 128 178 150c80 18 167 27 167 73c0 65 -38 120 -133 120c-90 0 -138 -48 -153 -110l-34 8c15 59 59 136 187 136zM386 201v64c-43 -9 -93 -24 -160 -37
c-111 -23 -149 -56 -149 -116c0 -58 53 -85 117 -85c109 0 192 79 192 174zM328 679h29c0 -64 -38 -112 -102 -112c-65 0 -103 48 -103 112h29c0 -48 31 -83 74 -83c45 0 73 35 73 83z" />
    <glyph glyph-name="acircumflex" unicode="&#xe2;" horiz-adv-x="500" 
d="M252 489c71 0 168 -35 168 -168v-321h-34v99c-28 -43 -88 -106 -197 -106c-66 0 -149 27 -149 119c0 94 84 128 178 150c80 18 167 27 167 73c0 65 -38 120 -133 120c-90 0 -138 -48 -153 -110l-34 8c15 59 59 136 187 136zM386 201v64c-43 -9 -93 -24 -160 -37
c-111 -23 -149 -56 -149 -116c0 -58 53 -85 117 -85c109 0 192 79 192 174zM378 564h-45l-82 109l-81 -109h-45l106 136h41z" />
    <glyph glyph-name="adieresis" unicode="&#xe4;" horiz-adv-x="500" 
d="M252 489c71 0 168 -35 168 -168v-321h-34v99c-28 -43 -88 -106 -197 -106c-66 0 -149 27 -149 119c0 94 84 128 178 150c80 18 167 27 167 73c0 65 -38 120 -133 120c-90 0 -138 -48 -153 -110l-34 8c15 59 59 136 187 136zM386 201v64c-43 -9 -93 -24 -160 -37
c-111 -23 -149 -56 -149 -116c0 -58 53 -85 117 -85c109 0 192 79 192 174zM314 656c15 0 28 -13 28 -28s-13 -28 -28 -28s-28 13 -28 28s13 28 28 28zM180 656c15 0 28 -13 28 -28s-13 -28 -28 -28s-28 13 -28 28s13 28 28 28z" />
    <glyph glyph-name="agrave" unicode="&#xe0;" horiz-adv-x="500" 
d="M252 489c71 0 168 -35 168 -168v-321h-34v99c-28 -43 -88 -106 -197 -106c-66 0 -149 27 -149 119c0 94 84 128 178 150c80 18 167 27 167 73c0 65 -38 120 -133 120c-90 0 -138 -48 -153 -110l-34 8c15 59 59 136 187 136zM386 201v64c-43 -9 -93 -24 -160 -37
c-111 -23 -149 -56 -149 -116c0 -58 53 -85 117 -85c109 0 192 79 192 174zM186 700l78 -136h-21l-99 136h42z" />
    <glyph glyph-name="amacron" unicode="&#x101;" horiz-adv-x="500" 
d="M252 489c71 0 168 -35 168 -168v-321h-34v99c-28 -43 -88 -106 -197 -106c-66 0 -149 27 -149 119c0 94 84 128 178 150c80 18 167 27 167 73c0 65 -38 120 -133 120c-90 0 -138 -48 -153 -110l-34 8c15 59 59 136 187 136zM386 201v64c-43 -9 -93 -24 -160 -37
c-111 -23 -149 -56 -149 -116c0 -58 53 -85 117 -85c109 0 192 79 192 174zM125 668h250v-34h-250v34z" />
    <glyph glyph-name="aring" unicode="&#xe5;" horiz-adv-x="500" 
d="M252 489c71 0 168 -35 168 -168v-321h-34v99c-28 -43 -88 -106 -197 -106c-66 0 -149 27 -149 119c0 94 84 128 178 150c80 18 167 27 167 73c0 65 -38 120 -133 120c-90 0 -138 -48 -153 -110l-34 8c15 59 59 136 187 136zM386 201v64c-43 -9 -93 -24 -160 -37
c-111 -23 -149 -56 -149 -116c0 -58 53 -85 117 -85c109 0 192 79 192 174zM250 733c51 0 91 -41 91 -91s-40 -91 -91 -91c-50 0 -91 41 -91 91s41 91 91 91zM250 580c35 0 63 28 63 62s-28 62 -63 62c-34 0 -62 -28 -62 -62s28 -62 62 -62z" />
    <glyph glyph-name="atilde" unicode="&#xe3;" horiz-adv-x="500" 
d="M252 489c71 0 168 -35 168 -168v-321h-34v99c-28 -43 -88 -106 -197 -106c-66 0 -149 27 -149 119c0 94 84 128 178 150c80 18 167 27 167 73c0 65 -38 120 -133 120c-90 0 -138 -48 -153 -110l-34 8c15 59 59 136 187 136zM386 201v64c-43 -9 -93 -24 -160 -37
c-111 -23 -149 -56 -149 -116c0 -58 53 -85 117 -85c109 0 192 79 192 174zM364 644l31 -6c-15 -60 -45 -77 -82 -77c-62 0 -88 68 -133 68c-25 0 -40 -17 -54 -44l-28 14c14 25 38 61 88 61c58 0 83 -67 129 -67c27 0 43 21 49 51z" />
    <glyph glyph-name="aeacute" unicode="&#x1fd;" horiz-adv-x="897" 
d="M837 241c0 -9 0 -18 -1 -26h-405c11 -106 84 -188 193 -188c74 0 131 38 164 95l32 -16c-39 -68 -109 -113 -196 -113c-101 0 -179 60 -213 147c-5 -15 -11 -27 -19 -41c-26 -41 -94 -106 -203 -106c-65 0 -149 27 -149 118c0 95 84 129 179 150c79 19 172 28 172 74
c0 65 -41 119 -136 119c-90 0 -144 -48 -159 -109l-34 8c16 59 65 136 193 136c62 0 147 -27 167 -123c38 74 110 123 202 123c137 0 213 -111 213 -248zM624 454c-115 0 -190 -91 -194 -204h369c-3 113 -60 204 -175 204zM392 201v64c-43 -9 -99 -24 -166 -37
c-111 -23 -149 -56 -149 -117c0 -57 53 -84 117 -84c110 0 198 79 198 174zM507 700h43l-99 -136h-21z" />
    <glyph glyph-name="cacute" unicode="&#x107;" horiz-adv-x="533" 
d="M281 27c74 0 131 38 164 96l33 -16c-40 -69 -110 -114 -197 -114c-137 0 -231 111 -231 248s94 248 231 248c87 0 157 -45 197 -114l-33 -15c-33 57 -90 95 -164 95c-118 0 -194 -96 -194 -214s76 -214 194 -214zM341 700h43l-99 -136h-21z" />
    <glyph glyph-name="ccaron" unicode="&#x10d;" horiz-adv-x="533" 
d="M281 27c74 0 131 38 164 96l33 -16c-40 -69 -110 -114 -197 -114c-137 0 -231 111 -231 248s94 248 231 248c87 0 157 -45 197 -114l-33 -15c-33 57 -90 95 -164 95c-118 0 -194 -96 -194 -214s76 -214 194 -214zM366 700h45l-106 -136h-41l-106 136h45l81 -109z" />
    <glyph glyph-name="ccircumflex" unicode="&#x109;" horiz-adv-x="533" 
d="M281 27c74 0 131 38 164 96l33 -16c-40 -69 -110 -114 -197 -114c-137 0 -231 111 -231 248s94 248 231 248c87 0 157 -45 197 -114l-33 -15c-33 57 -90 95 -164 95c-118 0 -194 -96 -194 -214s76 -214 194 -214zM411 564h-45l-82 109l-81 -109h-45l106 136h41z" />
    <glyph glyph-name="cdotaccent" unicode="&#x10b;" horiz-adv-x="533" 
d="M281 27c74 0 131 38 164 96l33 -16c-40 -69 -110 -114 -197 -114c-137 0 -231 111 -231 248s94 248 231 248c87 0 157 -45 197 -114l-33 -15c-33 57 -90 95 -164 95c-118 0 -194 -96 -194 -214s76 -214 194 -214zM284 656c16 0 28 -13 28 -28s-12 -28 -28 -28
c-15 0 -27 13 -27 28s12 28 27 28z" />
    <glyph glyph-name="dcaron" unicode="&#x10f;" horiz-adv-x="609" 
d="M467 700h35v-700h-35v111c-35 -71 -102 -118 -191 -118c-137 0 -226 111 -226 248s89 248 226 248c89 0 156 -47 191 -118v329zM276 27c118 0 188 96 188 214s-70 214 -188 214s-188 -96 -188 -214s70 -214 188 -214zM579 532l46 168h44l-70 -168h-20z" />
    <glyph glyph-name="eacute" unicode="&#xe9;" 
d="M485 241c0 -9 0 -17 -1 -26h-405c11 -106 84 -188 193 -188c74 0 131 38 164 96l32 -16c-39 -69 -109 -114 -196 -114c-137 0 -232 111 -232 248s95 248 232 248s213 -111 213 -248zM272 455c-115 0 -190 -91 -194 -205h369c-3 114 -60 205 -175 205zM340 700h43
l-99 -136h-21z" />
    <glyph glyph-name="ebreve" unicode="&#x115;" 
d="M485 241c0 -9 0 -17 -1 -26h-405c11 -106 84 -188 193 -188c74 0 131 38 164 96l32 -16c-39 -69 -109 -114 -196 -114c-137 0 -232 111 -232 248s95 248 232 248s213 -111 213 -248zM272 455c-115 0 -190 -91 -194 -205h369c-3 114 -60 205 -175 205zM346 679h29
c0 -64 -38 -112 -102 -112c-65 0 -103 48 -103 112h29c0 -48 31 -83 74 -83c45 0 73 35 73 83z" />
    <glyph glyph-name="ecaron" unicode="&#x11b;" 
d="M485 241c0 -9 0 -17 -1 -26h-405c11 -106 84 -188 193 -188c74 0 131 38 164 96l32 -16c-39 -69 -109 -114 -196 -114c-137 0 -232 111 -232 248s95 248 232 248s213 -111 213 -248zM272 455c-115 0 -190 -91 -194 -205h369c-3 114 -60 205 -175 205zM354 700h45
l-106 -136h-41l-106 136h45l81 -109z" />
    <glyph glyph-name="ecircumflex" unicode="&#xea;" 
d="M485 241c0 -9 0 -17 -1 -26h-405c11 -106 84 -188 193 -188c74 0 131 38 164 96l32 -16c-39 -69 -109 -114 -196 -114c-137 0 -232 111 -232 248s95 248 232 248s213 -111 213 -248zM272 455c-115 0 -190 -91 -194 -205h369c-3 114 -60 205 -175 205zM399 564h-45
l-82 109l-81 -109h-45l106 136h41z" />
    <glyph glyph-name="edieresis" unicode="&#xeb;" 
d="M485 241c0 -9 0 -17 -1 -26h-405c11 -106 84 -188 193 -188c74 0 131 38 164 96l32 -16c-39 -69 -109 -114 -196 -114c-137 0 -232 111 -232 248s95 248 232 248s213 -111 213 -248zM272 455c-115 0 -190 -91 -194 -205h369c-3 114 -60 205 -175 205zM340 656
c15 0 28 -13 28 -28s-13 -28 -28 -28s-28 13 -28 28s13 28 28 28zM206 656c15 0 28 -13 28 -28s-13 -28 -28 -28s-28 13 -28 28s13 28 28 28z" />
    <glyph glyph-name="edotaccent" unicode="&#x117;" 
d="M485 241c0 -9 0 -17 -1 -26h-405c11 -106 84 -188 193 -188c74 0 131 38 164 96l32 -16c-39 -69 -109 -114 -196 -114c-137 0 -232 111 -232 248s95 248 232 248s213 -111 213 -248zM272 455c-115 0 -190 -91 -194 -205h369c-3 114 -60 205 -175 205zM272 656
c16 0 28 -13 28 -28s-12 -28 -28 -28c-15 0 -27 13 -27 28s12 28 27 28z" />
    <glyph glyph-name="egrave" unicode="&#xe8;" 
d="M485 241c0 -9 0 -17 -1 -26h-405c11 -106 84 -188 193 -188c74 0 131 38 164 96l32 -16c-39 -69 -109 -114 -196 -114c-137 0 -232 111 -232 248s95 248 232 248s213 -111 213 -248zM272 455c-115 0 -190 -91 -194 -205h369c-3 114 -60 205 -175 205zM205 700l78 -136
h-21l-99 136h42z" />
    <glyph glyph-name="emacron" unicode="&#x113;" 
d="M485 241c0 -9 0 -17 -1 -26h-405c11 -106 84 -188 193 -188c74 0 131 38 164 96l32 -16c-39 -69 -109 -114 -196 -114c-137 0 -232 111 -232 248s95 248 232 248s213 -111 213 -248zM272 455c-115 0 -190 -91 -194 -205h369c-3 114 -60 205 -175 205zM148 668h250v-34
h-250v34z" />
    <glyph glyph-name="gbreve" unicode="&#x11f;" horiz-adv-x="538" 
d="M498 479c-50 0 -85 -31 -103 -54c21 -27 35 -61 35 -104c0 -110 -91 -168 -186 -168c-16 0 -33 2 -48 5c-27 -22 -33 -49 -29 -62c6 -20 29 -26 97 -27c129 -2 211 -30 211 -121c0 -85 -82 -150 -230 -144c-121 5 -186 55 -215 82l22 25c39 -34 100 -68 193 -73
c103 -6 192 34 192 107s-79 86 -174 89c-75 3 -124 11 -132 55c-4 23 9 56 33 79c-60 23 -106 75 -106 153c0 111 91 169 186 169c48 0 95 -15 130 -44c30 44 74 73 124 73v-40zM244 188c77 0 148 42 148 133c0 92 -71 134 -148 134s-148 -42 -148 -134
c0 -91 71 -133 148 -133zM336 679h29c0 -64 -38 -112 -102 -112c-65 0 -103 48 -103 112h29c0 -48 31 -83 74 -83c45 0 73 35 73 83z" />
    <glyph glyph-name="gcircumflex" unicode="&#x11d;" horiz-adv-x="538" 
d="M498 479c-50 0 -85 -31 -103 -54c21 -27 35 -61 35 -104c0 -110 -91 -168 -186 -168c-16 0 -33 2 -48 5c-27 -22 -33 -49 -29 -62c6 -20 29 -26 97 -27c129 -2 211 -30 211 -121c0 -85 -82 -150 -230 -144c-121 5 -186 55 -215 82l22 25c39 -34 100 -68 193 -73
c103 -6 192 34 192 107s-79 86 -174 89c-75 3 -124 11 -132 55c-4 23 9 56 33 79c-60 23 -106 75 -106 153c0 111 91 169 186 169c48 0 95 -15 130 -44c30 44 74 73 124 73v-40zM244 188c77 0 148 42 148 133c0 92 -71 134 -148 134s-148 -42 -148 -134
c0 -91 71 -133 148 -133zM379 564h-45l-82 109l-81 -109h-45l106 136h41z" />
    <glyph glyph-name="gcommaaccent" unicode="&#x123;" horiz-adv-x="538" 
d="M498 479c-50 0 -85 -31 -103 -54c21 -27 35 -61 35 -104c0 -110 -91 -168 -186 -168c-16 0 -33 2 -48 5c-27 -22 -33 -49 -29 -62c6 -20 29 -26 97 -27c129 -2 211 -30 211 -121c0 -85 -82 -150 -230 -144c-121 5 -186 55 -215 82l22 25c39 -34 100 -68 193 -73
c103 -6 192 34 192 107s-79 86 -174 89c-75 3 -124 11 -132 55c-4 23 9 56 33 79c-60 23 -106 75 -106 153c0 111 91 169 186 169c48 0 95 -15 130 -44c30 44 74 73 124 73v-40zM244 188c77 0 148 42 148 133c0 92 -71 134 -148 134s-148 -42 -148 -134
c0 -91 71 -133 148 -133zM258 578l70 168h20l-47 -168h-43z" />
    <glyph glyph-name="gdotaccent" unicode="&#x121;" horiz-adv-x="538" 
d="M498 479c-50 0 -85 -31 -103 -54c21 -27 35 -61 35 -104c0 -110 -91 -168 -186 -168c-16 0 -33 2 -48 5c-27 -22 -33 -49 -29 -62c6 -20 29 -26 97 -27c129 -2 211 -30 211 -121c0 -85 -82 -150 -230 -144c-121 5 -186 55 -215 82l22 25c39 -34 100 -68 193 -73
c103 -6 192 34 192 107s-79 86 -174 89c-75 3 -124 11 -132 55c-4 23 9 56 33 79c-60 23 -106 75 -106 153c0 111 91 169 186 169c48 0 95 -15 130 -44c30 44 74 73 124 73v-40zM244 188c77 0 148 42 148 133c0 92 -71 134 -148 134s-148 -42 -148 -134
c0 -91 71 -133 148 -133zM262 656c16 0 28 -13 28 -28s-12 -28 -28 -28c-15 0 -27 13 -27 28s12 28 27 28z" />
    <glyph glyph-name="hcircumflex" unicode="&#x125;" horiz-adv-x="541" 
d="M273 489c120 0 188 -84 188 -215v-274h-35v274c0 105 -54 181 -153 181c-90 0 -158 -77 -158 -193v-262h-35v700h35v-316c29 61 83 105 158 105zM417 765h-45l-82 109l-81 -109h-45l106 136h41z" />
    <glyph glyph-name="iacute" unicode="&#xed;" horiz-adv-x="220" 
d="M90 0v482h35v-482h-35zM175 700h43l-99 -136h-21z" />
    <glyph glyph-name="ibreve" unicode="&#x12d;" horiz-adv-x="220" 
d="M90 0v482h35v-482h-35zM181 679h29c0 -64 -38 -112 -102 -112c-65 0 -103 48 -103 112h29c0 -48 31 -83 74 -83c45 0 73 35 73 83z" />
    <glyph glyph-name="icircumflex" unicode="&#xee;" horiz-adv-x="220" 
d="M91 0v482h35v-482h-35zM235 564h-45l-82 109l-81 -109h-45l106 136h41z" />
    <glyph glyph-name="idieresis" unicode="&#xef;" horiz-adv-x="220" 
d="M92 0v482h35v-482h-35zM177 646c15 0 28 -13 28 -28s-13 -28 -28 -28s-28 13 -28 28s13 28 28 28zM43 646c15 0 28 -13 28 -28s-13 -28 -28 -28s-28 13 -28 28s13 28 28 28z" />
    <glyph glyph-name="igrave" unicode="&#xec;" horiz-adv-x="220" 
d="M90 0v482h35v-482h-35zM30 700l78 -136h-21l-99 136h42z" />
    <glyph glyph-name="imacron" unicode="&#x12b;" horiz-adv-x="220" 
d="M92 0v482h35v-482h-35zM-15 638h250v-34h-250v34z" />
    <glyph glyph-name="itilde" unicode="&#x129;" horiz-adv-x="220" 
d="M93 0v482h35v-482h-35zM230 634l31 -6c-15 -60 -45 -77 -82 -77c-62 0 -88 68 -133 68c-25 0 -40 -17 -54 -44l-28 14c14 25 38 61 88 61c58 0 83 -67 129 -67c27 0 43 21 49 51z" />
    <glyph glyph-name="dotlessi" unicode="&#x131;" horiz-adv-x="220" 
d="M93 0v482h35v-482h-35z" />
    <glyph glyph-name="jcircumflex" unicode="&#x135;" horiz-adv-x="231" 
d="M105 -89v571h34v-571c0 -72 -32 -136 -109 -136c-39 0 -65 13 -85 30l21 27c14 -11 33 -22 64 -22c49 0 75 38 75 101zM247 564h-45l-82 109l-81 -109h-45l106 136h41z" />
    <glyph glyph-name="kcommaaccent" unicode="&#x137;" horiz-adv-x="502" 
d="M427 0l-188 224h-124v-224h-35v700h35v-441h113l169 223h43l-176 -233l208 -249h-45zM238 -77h40l-54 -132h-20z" />
    <glyph glyph-name="lacute" unicode="&#x13a;" horiz-adv-x="289" 
d="M236 44l13 -29c-13 -9 -42 -22 -69 -22c-79 0 -100 39 -100 136v621h35v-624c0 -67 13 -98 65 -98c20 0 44 9 56 16zM165 950h43l-99 -136h-21z" />
    <glyph glyph-name="lcaron" unicode="&#x13e;" horiz-adv-x="289" 
d="M236 44l13 -29c-13 -9 -42 -22 -69 -22c-79 0 -100 39 -100 136v621h35v-624c0 -67 13 -98 65 -98c20 0 44 9 56 16zM206 532l46 168h44l-70 -168h-20z" />
    <glyph glyph-name="lcommaaccent" unicode="&#x13c;" horiz-adv-x="289" 
d="M236 44l13 -29c-13 -9 -42 -22 -69 -22c-79 0 -100 39 -100 136v621h35v-624c0 -67 13 -98 65 -98c20 0 44 9 56 16zM123 -77h40l-54 -132h-20z" />
    <glyph glyph-name="ldot" unicode="&#x140;" horiz-adv-x="289" 
d="M236 44l13 -29c-13 -9 -42 -22 -69 -22c-79 0 -100 39 -100 136v621h35v-624c0 -67 13 -98 65 -98c20 0 44 9 56 16zM249 261c16 0 28 -13 28 -28s-12 -28 -28 -28c-15 0 -27 13 -27 28s12 28 27 28z" />
    <glyph glyph-name="nacute" unicode="&#x144;" horiz-adv-x="540" 
d="M273 489c119 0 187 -84 187 -215v-274h-35v274c0 105 -54 181 -152 181c-91 0 -159 -77 -159 -193v-262h-34v482h34v-98c30 61 84 105 159 105zM347 700h43l-99 -136h-21z" />
    <glyph glyph-name="ncaron" unicode="&#x148;" horiz-adv-x="540" 
d="M273 489c119 0 187 -84 187 -215v-274h-35v274c0 105 -54 181 -152 181c-91 0 -159 -77 -159 -193v-262h-34v482h34v-98c30 61 84 105 159 105zM362 700h45l-106 -136h-41l-106 136h45l81 -109z" />
    <glyph glyph-name="ncommaaccent" unicode="&#x146;" horiz-adv-x="540" 
d="M273 489c119 0 187 -84 187 -215v-274h-35v274c0 105 -54 181 -152 181c-91 0 -159 -77 -159 -193v-262h-34v482h34v-98c30 61 84 105 159 105zM252 -77h40l-54 -132h-20z" />
    <glyph glyph-name="ntilde" unicode="&#xf1;" horiz-adv-x="540" 
d="M273 489c119 0 187 -84 187 -215v-274h-35v274c0 105 -54 181 -152 181c-91 0 -159 -77 -159 -193v-262h-34v482h34v-98c30 61 84 105 159 105zM390 644l31 -6c-15 -60 -45 -77 -82 -77c-62 0 -88 68 -133 68c-25 0 -40 -17 -54 -44l-28 14c14 25 38 61 88 61
c58 0 83 -67 129 -67c27 0 43 21 49 51z" />
    <glyph glyph-name="oacute" unicode="&#xf3;" horiz-adv-x="568" 
d="M282 489c137 0 231 -111 231 -248s-94 -248 -231 -248s-232 111 -232 248s95 248 232 248zM282 27c118 0 193 96 193 214s-75 214 -193 214s-194 -96 -194 -214s76 -214 194 -214zM349 700h43l-99 -136h-21z" />
    <glyph glyph-name="obreve" unicode="&#x14f;" horiz-adv-x="568" 
d="M282 489c137 0 231 -111 231 -248s-94 -248 -231 -248s-232 111 -232 248s95 248 232 248zM282 27c118 0 193 96 193 214s-75 214 -193 214s-194 -96 -194 -214s76 -214 194 -214zM355 679h29c0 -64 -38 -112 -102 -112c-65 0 -103 48 -103 112h29c0 -48 31 -83 74 -83
c45 0 73 35 73 83z" />
    <glyph glyph-name="ocircumflex" unicode="&#xf4;" horiz-adv-x="568" 
d="M282 489c137 0 231 -111 231 -248s-94 -248 -231 -248s-232 111 -232 248s95 248 232 248zM282 27c118 0 193 96 193 214s-75 214 -193 214s-194 -96 -194 -214s76 -214 194 -214zM408 564h-45l-82 109l-81 -109h-45l106 136h41z" />
    <glyph glyph-name="odieresis" unicode="&#xf6;" horiz-adv-x="568" 
d="M282 489c137 0 231 -111 231 -248s-94 -248 -231 -248s-232 111 -232 248s95 248 232 248zM282 27c118 0 193 96 193 214s-75 214 -193 214s-194 -96 -194 -214s76 -214 194 -214zM349 656c15 0 28 -13 28 -28s-13 -28 -28 -28s-28 13 -28 28s13 28 28 28zM215 656
c15 0 28 -13 28 -28s-13 -28 -28 -28s-28 13 -28 28s13 28 28 28z" />
    <glyph glyph-name="ograve" unicode="&#xf2;" horiz-adv-x="568" 
d="M282 489c137 0 231 -111 231 -248s-94 -248 -231 -248s-232 111 -232 248s95 248 232 248zM282 27c118 0 193 96 193 214s-75 214 -193 214s-194 -96 -194 -214s76 -214 194 -214zM214 700l78 -136h-21l-99 136h42z" />
    <glyph glyph-name="ohungarumlaut" unicode="&#x151;" horiz-adv-x="568" 
d="M282 489c137 0 231 -111 231 -248s-94 -248 -231 -248s-232 111 -232 248s95 248 232 248zM282 27c118 0 193 96 193 214s-75 214 -193 214s-194 -96 -194 -214s76 -214 194 -214zM288 700h43l-99 -136h-21zM410 700h43l-99 -136h-21z" />
    <glyph glyph-name="omacron" unicode="&#x14d;" horiz-adv-x="568" 
d="M282 489c137 0 231 -111 231 -248s-94 -248 -231 -248s-232 111 -232 248s95 248 232 248zM282 27c118 0 193 96 193 214s-75 214 -193 214s-194 -96 -194 -214s76 -214 194 -214zM157 668h250v-34h-250v34z" />
    <glyph glyph-name="oslashacute" unicode="&#x1ff;" horiz-adv-x="568" 
d="M455 408c36 -44 57 -103 57 -167c0 -137 -94 -248 -231 -248c-60 0 -111 21 -150 56l-55 -61l-26 24l57 62c-37 44 -57 103 -57 167c0 137 94 248 231 248c59 0 111 -21 150 -56l55 60l25 -23zM87 241c0 -54 16 -103 44 -140l276 306c-32 30 -75 47 -126 47
c-118 0 -194 -95 -194 -213zM281 27c118 0 193 96 193 214c0 53 -15 102 -43 140l-277 -306c33 -30 76 -48 127 -48zM356 700h43l-99 -136h-21z" />
    <glyph glyph-name="otilde" unicode="&#xf5;" horiz-adv-x="568" 
d="M282 489c137 0 231 -111 231 -248s-94 -248 -231 -248s-232 111 -232 248s95 248 232 248zM282 27c118 0 193 96 193 214s-75 214 -193 214s-194 -96 -194 -214s76 -214 194 -214zM401 644l31 -6c-15 -60 -45 -77 -82 -77c-62 0 -88 68 -133 68c-25 0 -40 -17 -54 -44
l-28 14c14 25 38 61 88 61c58 0 83 -67 129 -67c27 0 43 21 49 51z" />
    <glyph glyph-name="racute" unicode="&#x155;" horiz-adv-x="325" 
d="M279 490c7 0 14 -1 21 -1l-6 -35c-5 1 -10 1 -15 1c-91 0 -164 -76 -164 -193v-262h-35v482h35v-101c30 62 87 109 164 109zM267 700h43l-99 -136h-21z" />
    <glyph glyph-name="rcaron" unicode="&#x159;" horiz-adv-x="325" 
d="M280 490c7 0 14 -1 21 -1l-6 -35c-5 1 -10 1 -15 1c-91 0 -164 -76 -164 -193v-262h-35v482h35v-101c30 62 87 109 164 109zM273 700h45l-106 -136h-41l-106 136h45l81 -109z" />
    <glyph glyph-name="rcommaaccent" unicode="&#x157;" horiz-adv-x="325" 
d="M279 490c7 0 14 -1 21 -1l-6 -35c-5 1 -10 1 -15 1c-91 0 -164 -76 -164 -193v-262h-35v482h35v-101c30 62 87 109 164 109zM72 -77h40l-54 -132h-20z" />
    <glyph glyph-name="sacute" unicode="&#x15b;" horiz-adv-x="441" 
d="M223 259c79 -21 168 -47 168 -132c0 -90 -77 -135 -162 -135c-99 0 -168 49 -189 111l33 15c15 -46 65 -92 156 -92c65 0 127 31 127 101c0 54 -56 76 -141 98c-78 20 -151 47 -160 122s49 143 156 143c84 0 140 -46 161 -109l-32 -13c-19 52 -62 87 -129 87
c-87 0 -127 -49 -121 -104c6 -51 64 -74 133 -92zM283 700h43l-99 -136h-21z" />
    <glyph glyph-name="scaron" unicode="&#x161;" horiz-adv-x="441" 
d="M223 259c79 -21 168 -47 168 -132c0 -90 -77 -135 -162 -135c-99 0 -168 49 -189 111l33 15c15 -46 65 -92 156 -92c65 0 127 31 127 101c0 54 -56 76 -141 98c-78 20 -151 47 -160 122s49 143 156 143c84 0 140 -46 161 -109l-32 -13c-19 52 -62 87 -129 87
c-87 0 -127 -49 -121 -104c6 -51 64 -74 133 -92zM307 700h45l-106 -136h-41l-106 136h45l81 -109z" />
    <glyph glyph-name="scircumflex" unicode="&#x15d;" horiz-adv-x="441" 
d="M223 259c79 -21 168 -47 168 -132c0 -90 -77 -135 -162 -135c-99 0 -168 49 -189 111l33 15c15 -46 65 -92 156 -92c65 0 127 31 127 101c0 54 -56 76 -141 98c-78 20 -151 47 -160 122s49 143 156 143c84 0 140 -46 161 -109l-32 -13c-19 52 -62 87 -129 87
c-87 0 -127 -49 -121 -104c6 -51 64 -74 133 -92zM352 564h-45l-82 109l-81 -109h-45l106 136h41z" />
    <glyph glyph-name="scommaaccent" unicode="&#x219;" horiz-adv-x="441" 
d="M223 259c79 -21 168 -47 168 -132c0 -90 -77 -135 -162 -135c-99 0 -168 49 -189 111l33 15c15 -46 65 -92 156 -92c65 0 127 31 127 101c0 54 -56 76 -141 98c-78 20 -151 47 -160 122s49 143 156 143c84 0 140 -46 161 -109l-32 -13c-19 52 -62 87 -129 87
c-87 0 -127 -49 -121 -104c6 -51 64 -74 133 -92zM187 -77h40l-54 -132h-20z" />
    <glyph glyph-name="tcaron" unicode="&#x165;" horiz-adv-x="322" 
d="M272 50l17 -30c-23 -17 -55 -27 -88 -27c-79 0 -107 53 -107 139v315h-74v35h74v131l35 10v-141h120v-35h-120v-321c0 -55 19 -98 72 -98c27 0 52 9 71 22zM292 528l46 168h44l-70 -168h-20z" />
    <glyph glyph-name="tcommaaccent" unicode="&#x163;" horiz-adv-x="308" 
d="M272 50l17 -30c-23 -17 -55 -27 -88 -27c-79 0 -107 53 -107 139v315h-74v35h74v131l35 10v-141h120v-35h-120v-321c0 -55 19 -98 72 -98c27 0 52 9 71 22zM156 -77h40l-54 -132h-20z" />
    <glyph glyph-name="uacute" unicode="&#xfa;" horiz-adv-x="521" 
d="M407 482h34v-273c0 -131 -67 -215 -185 -216c-119 1 -186 85 -186 216v273h34v-273c0 -104 54 -180 152 -181c97 1 151 77 151 181v273zM323 700h43l-99 -136h-21z" />
    <glyph glyph-name="ubreve" unicode="&#x16d;" horiz-adv-x="521" 
d="M407 482h34v-273c0 -131 -67 -215 -185 -216c-119 1 -186 85 -186 216v273h34v-273c0 -104 54 -180 152 -181c97 1 151 77 151 181v273zM339 679h29c0 -64 -38 -112 -102 -112c-65 0 -103 48 -103 112h29c0 -48 31 -83 74 -83c45 0 73 35 73 83z" />
    <glyph glyph-name="ucircumflex" unicode="&#xfb;" horiz-adv-x="521" 
d="M407 482h34v-273c0 -131 -67 -215 -185 -216c-119 1 -186 85 -186 216v273h34v-273c0 -104 54 -180 152 -181c97 1 151 77 151 181v273zM392 564h-45l-82 109l-81 -109h-45l106 136h41z" />
    <glyph glyph-name="udieresis" unicode="&#xfc;" horiz-adv-x="521" 
d="M407 482h34v-273c0 -131 -67 -215 -185 -216c-119 1 -186 85 -186 216v273h34v-273c0 -104 54 -180 152 -181c97 1 151 77 151 181v273zM333 656c15 0 28 -13 28 -28s-13 -28 -28 -28s-28 13 -28 28s13 28 28 28zM199 656c15 0 28 -13 28 -28s-13 -28 -28 -28
s-28 13 -28 28s13 28 28 28z" />
    <glyph glyph-name="uhungarumlaut" unicode="&#x171;" horiz-adv-x="521" 
d="M407 482h34v-273c0 -131 -67 -215 -185 -216c-119 1 -186 85 -186 216v273h34v-273c0 -104 54 -180 152 -181c97 1 151 77 151 181v273zM252 700h43l-99 -136h-21zM374 700h43l-99 -136h-21z" />
    <glyph glyph-name="ugrave" unicode="&#xf9;" horiz-adv-x="521" 
d="M407 482h34v-273c0 -131 -67 -215 -185 -216c-119 1 -186 85 -186 216v273h34v-273c0 -104 54 -180 152 -181c97 1 151 77 151 181v273zM198 700l78 -136h-21l-99 136h42z" />
    <glyph glyph-name="umacron" unicode="&#x16b;" horiz-adv-x="521" 
d="M407 482h34v-273c0 -131 -67 -215 -185 -216c-119 1 -186 85 -186 216v273h34v-273c0 -104 54 -180 152 -181c97 1 151 77 151 181v273zM141 668h250v-34h-250v34z" />
    <glyph glyph-name="uring" unicode="&#x16f;" horiz-adv-x="521" 
d="M407 482h34v-273c0 -131 -67 -215 -185 -216c-119 1 -186 85 -186 216v273h34v-273c0 -104 54 -180 152 -181c97 1 151 77 151 181v273zM266 733c51 0 91 -41 91 -91s-40 -91 -91 -91c-50 0 -91 41 -91 91s41 91 91 91zM266 580c35 0 63 28 63 62s-28 62 -63 62
c-34 0 -62 -28 -62 -62s28 -62 62 -62z" />
    <glyph glyph-name="utilde" unicode="&#x169;" horiz-adv-x="521" 
d="M407 482h34v-273c0 -131 -67 -215 -185 -216c-119 1 -186 85 -186 216v273h34v-273c0 -104 54 -180 152 -181c97 1 151 77 151 181v273zM385 644l31 -6c-15 -60 -45 -77 -82 -77c-62 0 -88 68 -133 68c-25 0 -40 -17 -54 -44l-28 14c14 25 38 61 88 61
c58 0 83 -67 129 -67c27 0 43 21 49 51z" />
    <glyph glyph-name="wacute" unicode="&#x1e83;" horiz-adv-x="710" 
d="M653 482h37l-156 -482h-34l-140 426l-141 -426h-34l-155 482h36l138 -425l140 425h31l140 -425zM437 700h43l-99 -136h-21z" />
    <glyph glyph-name="wcircumflex" unicode="&#x175;" horiz-adv-x="710" 
d="M653 482h37l-156 -482h-34l-140 426l-141 -426h-34l-155 482h36l138 -425l140 425h31l140 -425zM487 564h-45l-82 109l-81 -109h-45l106 136h41z" />
    <glyph glyph-name="wdieresis" unicode="&#x1e85;" horiz-adv-x="710" 
d="M653 482h37l-156 -482h-34l-140 426l-141 -426h-34l-155 482h36l138 -425l140 425h31l140 -425zM427 656c15 0 28 -13 28 -28s-13 -28 -28 -28s-28 13 -28 28s13 28 28 28zM293 656c15 0 28 -13 28 -28s-13 -28 -28 -28s-28 13 -28 28s13 28 28 28z" />
    <glyph glyph-name="wgrave" unicode="&#x1e81;" horiz-adv-x="710" 
d="M653 482h37l-156 -482h-34l-140 426l-141 -426h-34l-155 482h36l138 -425l140 425h31l140 -425zM282 700l78 -136h-21l-99 136h42z" />
    <glyph glyph-name="yacute" unicode="&#xfd;" horiz-adv-x="445" 
d="M386 482h37l-182 -482c-29 -77 -45 -118 -75 -152c-46 -54 -93 -44 -131 -37l6 34c84 -17 110 20 163 155l-182 482h37l164 -433zM300 700h43l-99 -136h-21z" />
    <glyph glyph-name="ycircumflex" unicode="&#x177;" horiz-adv-x="445" 
d="M386 482h37l-182 -482c-29 -77 -45 -118 -75 -152c-46 -54 -93 -44 -131 -37l6 34c84 -17 110 20 163 155l-182 482h37l164 -433zM359 564h-45l-82 109l-81 -109h-45l106 136h41z" />
    <glyph glyph-name="ydieresis" unicode="&#xff;" horiz-adv-x="445" 
d="M386 482h37l-182 -482c-29 -77 -45 -118 -75 -152c-46 -54 -93 -44 -131 -37l6 34c84 -17 110 20 163 155l-182 482h37l164 -433zM300 656c15 0 28 -13 28 -28s-13 -28 -28 -28s-28 13 -28 28s13 28 28 28zM166 656c15 0 28 -13 28 -28s-13 -28 -28 -28s-28 13 -28 28
s13 28 28 28z" />
    <glyph glyph-name="ygrave" unicode="&#x1ef3;" horiz-adv-x="445" 
d="M386 482h37l-182 -482c-29 -77 -45 -118 -75 -152c-46 -54 -93 -44 -131 -37l6 34c84 -17 110 20 163 155l-182 482h37l164 -433zM155 700l78 -136h-21l-99 136h42z" />
    <glyph glyph-name="zacute" unicode="&#x17a;" horiz-adv-x="472" 
d="M94 35h328v-35h-372v35l319 412h-306v35h350v-35zM303 700h43l-99 -136h-21z" />
    <glyph glyph-name="zcaron" unicode="&#x17e;" horiz-adv-x="472" 
d="M94 35h328v-35h-372v35l319 412h-306v35h350v-35zM328 700h45l-106 -136h-41l-106 136h45l81 -109z" />
    <glyph glyph-name="zdotaccent" unicode="&#x17c;" horiz-adv-x="472" 
d="M94 35h328v-35h-372v35l319 412h-306v35h350v-35zM246 656c16 0 28 -13 28 -28s-12 -28 -28 -28c-15 0 -27 13 -27 28s12 28 27 28z" />
    <glyph glyph-name="perthousand" unicode="&#x2030;" horiz-adv-x="1067" 
d="M306 563c0 -81 -62 -143 -143 -143s-143 62 -143 143s62 143 143 143s143 -62 143 -143zM52 563c0 -63 48 -111 111 -111s112 48 112 111s-49 111 -112 111s-111 -48 -111 -111zM528 279c81 0 144 -62 144 -143s-63 -143 -144 -143c-80 0 -143 62 -143 143
s63 143 143 143zM528 25c64 0 112 48 112 111s-48 112 -112 112c-63 0 -111 -49 -111 -112s48 -111 111 -111zM545 700h41l-437 -700h-41zM863 279c81 0 144 -62 144 -143s-63 -143 -144 -143c-80 0 -143 62 -143 143s63 143 143 143zM863 25c64 0 112 48 112 111
s-48 112 -112 112c-63 0 -111 -49 -111 -112s48 -111 111 -111z" />
    <glyph glyph-name="uni0408" unicode="&#x408;" horiz-adv-x="444" 
d="M319 501h35v-315c0 -116 -56 -193 -165 -193c-79 0 -136 34 -164 74l31 20c20 -29 69 -60 129 -60c90 0 134 66 134 160v314zM319 700h35v-106h-35v106z" />
    <glyph glyph-name="uni040E" unicode="&#x40e;" horiz-adv-x="569" 
d="M59 700l261 -474l211 474h38l-312 -700h-38l84 186l-283 514h39zM380 879h29c0 -64 -38 -112 -102 -112c-65 0 -103 48 -103 112h29c0 -48 31 -83 74 -83c45 0 73 35 73 83z" />
    <glyph glyph-name="uni045E" unicode="&#x45e;" horiz-adv-x="445" 
d="M386 482h37l-182 -482c-29 -77 -45 -118 -75 -152c-46 -54 -93 -44 -131 -37l6 34c84 -17 110 20 163 155l-182 482h37l164 -433zM308 679h29c0 -64 -38 -112 -102 -112c-65 0 -103 48 -103 112h29c0 -48 31 -83 74 -83c45 0 73 35 73 83z" />
    <glyph glyph-name="uni0403" unicode="&#x403;" horiz-adv-x="515" 
d="M100 200v394l35 -34v-360h-35zM100 0v107h35v-107h-35zM136 700h339v-34h-304zM354 900h43l-99 -136h-21z" />
    <glyph glyph-name="uni0453" unicode="&#x453;" horiz-adv-x="407" 
d="M387 482v-35h-272v-447h-35v482h307zM307 700h43l-99 -136h-21z" />
    <glyph glyph-name="uni0458" unicode="&#x458;" horiz-adv-x="231" 
d="M123 630c15 0 28 -13 28 -28s-13 -28 -28 -28s-28 13 -28 28s13 28 28 28zM105 -89v571h34v-571c0 -72 -32 -136 -109 -136c-39 0 -65 13 -85 30l21 27c14 -11 33 -22 64 -22c49 0 75 38 75 101z" />
    <glyph glyph-name="uni0405" unicode="&#x405;" horiz-adv-x="626" 
d="M83 163c13 -44 47 -83 99 -108l-15 -31c-60 28 -101 76 -117 128zM319 370c202 -46 247 -105 247 -185c0 -75 -53 -193 -246 -193h-20l17 35h3c107 0 211 48 211 158c0 96 -106 126 -220 151c-162 34 -244 86 -244 179c0 115 98 192 228 192c21 0 41 -2 61 -5l-21 -32
c-13 2 -26 2 -40 2c-114 0 -194 -63 -194 -157c0 -92 106 -119 218 -145z" />
    <glyph glyph-name="uni0455" unicode="&#x455;" horiz-adv-x="441" 
d="M223 259c79 -21 168 -47 168 -132c0 -90 -77 -135 -162 -135c-99 0 -168 49 -189 111l33 15c15 -46 65 -92 156 -92c65 0 127 31 127 101c0 54 -56 76 -141 98c-78 20 -151 47 -160 122s49 143 156 143c84 0 140 -46 161 -109l-32 -13c-19 52 -62 87 -129 87
c-87 0 -127 -49 -121 -104c6 -51 64 -74 133 -92z" />
    <glyph glyph-name="uni0457" unicode="&#x457;" horiz-adv-x="220" 
d="M92 0v482h35v-482h-35zM177 646c15 0 28 -13 28 -28s-13 -28 -28 -28s-28 13 -28 28s13 28 28 28zM43 646c15 0 28 -13 28 -28s-13 -28 -28 -28s-28 13 -28 28s13 28 28 28z" />
    <glyph glyph-name="uni0456" unicode="&#x456;" horiz-adv-x="220" 
d="M90 0v482h35v-482h-35zM107 630c16 0 28 -13 28 -28s-12 -28 -28 -28c-15 0 -27 13 -27 28s12 28 27 28z" />
    <glyph glyph-name="uni0406" unicode="&#x406;" horiz-adv-x="234" 
d="M100 0v501h34v-501h-34zM100 700h34v-106h-34v106z" />
    <glyph glyph-name="uni0407" unicode="&#x407;" horiz-adv-x="235" 
d="M98 0v501h34v-501h-34zM98 700h34v-106h-34v106zM182 856c15 0 28 -13 28 -28s-13 -28 -28 -28s-28 13 -28 28s13 28 28 28zM48 856c15 0 28 -13 28 -28s-13 -28 -28 -28s-28 13 -28 28s13 28 28 28z" />
    <glyph glyph-name="uni040C" unicode="&#x40c;" horiz-adv-x="642" 
d="M553 0l-256 333h-162v-333h-35v700h35v-332h161l230 332h43l-242 -349l270 -351h-44zM384 900h43l-99 -136h-21z" />
    <glyph glyph-name="uni045C" unicode="&#x45c;" horiz-adv-x="501" 
d="M426 0l-187 224h-125v-224h-34v482h34v-223h114l169 223h43l-176 -233l207 -249h-45zM327 700h43l-99 -136h-21z" />
    <glyph glyph-name="ellipsis" unicode="&#x2026;" horiz-adv-x="415" 
d="M67 56c16 0 28 -13 28 -28s-12 -28 -28 -28c-15 0 -27 13 -27 28s12 28 27 28zM197 56c16 0 28 -13 28 -28s-12 -28 -28 -28c-15 0 -27 13 -27 28s12 28 27 28zM327 56c16 0 28 -13 28 -28s-12 -28 -28 -28c-15 0 -27 13 -27 28s12 28 27 28z" />
    <glyph glyph-name="uni021A" unicode="&#x21a;" horiz-adv-x="536" 
d="M256 0v513h34v-513h-34zM20 700h506v-35h-506v35zM249 -77h40l-54 -132h-20z" />
    <glyph glyph-name="uni021B" unicode="&#x21b;" horiz-adv-x="308" 
d="M272 50l17 -30c-23 -17 -55 -27 -88 -27c-79 0 -107 53 -107 139v315h-74v35h74v131l35 10v-141h120v-35h-120v-321c0 -55 19 -98 72 -98c27 0 52 9 71 22zM146 -77h40l-54 -132h-20z" />
    <glyph glyph-name="minus" unicode="&#x2212;" horiz-adv-x="508" 
d="M60 324h388v-35h-388v35z" />
    <glyph glyph-name="napostrophe" unicode="&#x149;" horiz-adv-x="573" 
d="M306 489c119 0 187 -84 187 -215v-274h-35v274c0 105 -54 181 -152 181c-91 0 -159 -77 -159 -193v-262h-34v482h34v-98c30 61 84 105 159 105zM44 580h40l-54 -132h-20z" />
    <glyph glyph-name="guilsinglleft" unicode="&#x2039;" horiz-adv-x="294" 
d="M224 425l-112 -157l112 -157h-43l-111 157l111 157h43z" />
    <glyph glyph-name="guilsinglright" unicode="&#x203a;" horiz-adv-x="294" 
d="M112 425l112 -157l-112 -157h-42l111 157l-111 157h42z" />
    <glyph glyph-name="quotesinglbase" unicode="&#x201a;" horiz-adv-x="150" 
d="M50 -158l46 168h44l-70 -168h-20z" />
    <glyph glyph-name="quotedblbase" unicode="&#x201e;" horiz-adv-x="252" 
d="M50 -158l46 168h44l-70 -168h-20zM199 10h43l-69 -168h-21z" />
    <glyph glyph-name="H" unicode="H" horiz-adv-x="731" 
d="M100 0v188h35v-188h-35zM135 367h496v-367h-35v332h-496v368h35v-333zM596 700h35v-187h-35v187z" />
    </font>
</defs>
</svg>
