<?xml version="1.0" standalone="no"?>
<!DOCTYPE svg PUBLIC "-//W3C//DTD SVG 1.1//EN" "http://www.w3.org/Graphics/SVG/1.1/DTD/svg11.dtd" >
<svg xmlns="http://www.w3.org/2000/svg" xmlns:xlink="http://www.w3.org/1999/xlink" version="1.1">
<metadata>
Created by FontForge 20170910 at Tue Mar 13 17:37:42 2018
 By Jimmy Wärting
Copyright \(c\) 2018 by MadeType. All rights reserved.
</metadata>
<defs>
<font id="MADEEvolveSansEVO-Medium" horiz-adv-x="759" >
  <font-face 
    font-family="MADE Evolve Sans EVO"
    font-weight="500"
    font-stretch="normal"
    units-per-em="1000"
    panose-1="2 0 6 3 0 0 0 2 0 4"
    ascent="800"
    descent="-200"
    x-height="482"
    cap-height="700"
    bbox="-65 -225.16 1023 975"
    underline-thickness="50"
    underline-position="-100"
    unicode-range="U+0020-F6C3"
  />
<missing-glyph horiz-adv-x="280" 
 />
    <glyph glyph-name=".notdef" horiz-adv-x="280" 
 />
    <glyph glyph-name="A" unicode="A" horiz-adv-x="636" 
d="M364 700l252 -700h-105l-193 557l-193 -557h-105l251 700h93z" />
    <glyph glyph-name="B" unicode="B" horiz-adv-x="592" 
d="M331 95c81 0 128 47 128 117c0 69 -46 113 -128 113h-171v-230h171zM447 381c66 -29 110 -87 110 -169c0 -126 -93 -212 -226 -212h-266v415h247c69 0 105 44 105 96s-27 94 -90 94h-262v95h262c123 0 189 -87 189 -189c0 -54 -29 -98 -69 -130z" />
    <glyph glyph-name="C" unicode="C" horiz-adv-x="703" 
d="M380 88c89 0 160 44 201 112l88 -44c-59 -98 -163 -163 -289 -163c-197 0 -340 159 -340 356c0 198 143 357 340 357c126 0 230 -65 289 -164l-88 -43c-41 67 -112 111 -201 111c-145 0 -242 -116 -242 -261c0 -144 97 -261 242 -261zM322 348c0 33 27 61 60 61
c34 0 61 -28 61 -61s-27 -60 -61 -60c-33 0 -60 27 -60 60z" />
    <glyph glyph-name="D" unicode="D" horiz-adv-x="674" 
d="M272 700c227 0 367 -146 367 -350s-142 -350 -367 -350h-207v338h95v-242h111c164 0 270 98 270 254s-102 255 -269 255h-207v95h207z" />
    <glyph glyph-name="E" unicode="E" horiz-adv-x="574" 
d="M65 96h465v-96h-465v96zM493 397v-93h-428v93h428zM524 700v-95h-459v95h459z" />
    <glyph glyph-name="F" unicode="F" horiz-adv-x="559" 
d="M65 700h459v-95h-459v95zM65 397h393v-93h-297v-304h-96v397z" />
    <glyph glyph-name="G" unicode="G" horiz-adv-x="722" 
d="M572 393h95v-291c-47 -64 -156 -124 -298 -109c-196 20 -329 159 -329 356c0 198 134 344 331 357c110 7 211 -28 276 -80l-49 -72c-41 33 -124 63 -218 56c-136 -9 -242 -116 -242 -261c0 -144 104 -244 240 -261c89 -11 157 15 194 48v257z" />
    <glyph glyph-name="I" unicode="I" horiz-adv-x="225" 
d="M65 489h95v-489h-95v489zM65 700h95v-113h-95v113z" />
    <glyph glyph-name="J" unicode="J" horiz-adv-x="420" 
d="M260 489h95v-289c0 -136 -62 -207 -177 -207c-72 0 -135 34 -163 71l66 64c19 -19 50 -40 92 -40c54 0 87 36 87 107v294zM260 700h95v-113h-95v113z" />
    <glyph glyph-name="K" unicode="K" horiz-adv-x="611" 
d="M475 0l-214 305h-100v-305h-96v700h96v-303h84l208 303h122l-237 -337l258 -363h-121z" />
    <glyph glyph-name="L" unicode="L" horiz-adv-x="516" 
d="M161 700v-113h-96v113h96zM161 489v-308l-96 -95v403h96zM223 96h263v-96h-360z" />
    <glyph glyph-name="M" unicode="M" horiz-adv-x="816" 
d="M742 706h9v-706h-95v453l-244 -292h-9l-243 292v-453h-95v706h8l335 -396z" />
    <glyph glyph-name="N" unicode="N" horiz-adv-x="660" 
d="M499 700h96v-707h-9l-426 467v-460h-95v706h8l426 -471v465z" />
    <glyph glyph-name="O" unicode="O" 
d="M379 706c198 0 340 -159 340 -357c0 -197 -142 -356 -340 -356c-197 0 -339 160 -339 357s142 356 339 356zM379 88c145 0 242 117 242 261c0 145 -97 262 -242 262c-144 0 -241 -116 -241 -261s97 -262 241 -262zM379 410c34 0 61 -27 61 -61c0 -33 -27 -60 -61 -60
c-33 0 -60 27 -60 60c0 34 27 61 60 61z" />
    <glyph glyph-name="P" unicode="P" horiz-adv-x="591" 
d="M327 700c143 0 229 -101 229 -226c0 -124 -88 -225 -229 -225h-167v-249h-95v344h262c84 0 130 62 130 130c0 69 -45 131 -130 131h-262v95h262z" />
    <glyph glyph-name="Q" unicode="Q" horiz-adv-x="760" 
d="M720 349c0 -182 -122 -332 -296 -354v-145h-96v146c-170 25 -288 174 -288 354c0 197 142 356 340 356c197 0 340 -159 340 -357zM380 88c144 0 241 117 241 261c0 145 -97 262 -241 262c-145 0 -241 -116 -241 -261s96 -262 241 -262z" />
    <glyph glyph-name="R" unicode="R" horiz-adv-x="606" 
d="M467 0l-141 249h-165v-249h-96v344h262c84 0 131 62 131 130c0 69 -47 131 -131 131h-262v95h262c142 0 229 -101 229 -226c0 -92 -48 -171 -131 -206l151 -268h-109z" />
    <glyph glyph-name="S" unicode="S" horiz-adv-x="605" 
d="M35 149l91 38c12 -27 44 -59 77 -75l-42 -88c-60 28 -105 76 -126 125zM316 403c142 -40 249 -84 249 -210c0 -109 -87 -203 -248 -203c-17 0 -33 1 -48 3l45 94c84 -1 150 40 150 103s-63 87 -182 121c-140 40 -232 83 -228 204c3 114 96 192 241 192c33 0 62 -4 89 -12
l-54 -86c-9 1 -22 2 -32 2c-103 0 -142 -50 -142 -99c0 -54 49 -78 160 -109z" />
    <glyph glyph-name="T" unicode="T" horiz-adv-x="567" 
d="M236 0v469h95v-469h-95zM30 700h507v-95h-507v95z" />
    <glyph glyph-name="U" unicode="U" horiz-adv-x="650" 
d="M495 700h95v-344l-95 41v303zM325 88c97 0 168 53 170 191l93 -41c-16 -161 -123 -245 -263 -245c-152 0 -265 100 -265 289v207h96v-204c0 -142 71 -197 169 -197zM156 700v-113h-96v113h96z" />
    <glyph glyph-name="V" unicode="V" horiz-adv-x="648" 
d="M526 700h102l-258 -700h-93l-3 8zM20 700h102l134 -370l-50 -137z" />
    <glyph glyph-name="W" unicode="W" horiz-adv-x="1022" 
d="M584 700h101l-122 -291l114 -266l224 557h101l-279 -700h-93l-119 284l-119 -284h-93l-279 700h102l223 -557l114 265l-122 292h102l72 -170z" />
    <glyph glyph-name="X" unicode="X" horiz-adv-x="631" 
d="M40 700h117l100 -161l-56 -92zM379 364l232 -364h-117l-227 364l207 336h118zM20 0l176 276l58 -90l-117 -186h-117z" />
    <glyph glyph-name="Y" unicode="Y" horiz-adv-x="610" 
d="M257 0v145h96v-145h-96zM481 700h109l-236 -440h-98l-236 440h109l176 -332z" />
    <glyph glyph-name="Z" unicode="Z" horiz-adv-x="604" 
d="M304 700l-76 -95h-163v95h239zM153 96h416v-96h-534v96l408 509h117z" />
    <glyph glyph-name="a" unicode="a" horiz-adv-x="464" 
d="M241 490c101 0 178 -49 178 -177v-313h-94v57c-18 -21 -59 -57 -134 -64c-113 -10 -174 65 -165 144c11 95 77 123 176 149c62 16 115 20 120 54c7 47 -47 68 -88 65c-48 -2 -88 -25 -102 -76l-86 18c12 61 70 143 195 143zM325 206v21s-43 -12 -107 -28
c-86 -22 -91 -63 -88 -82c3 -22 21 -42 74 -38c49 4 121 51 121 127z" />
    <glyph glyph-name="b" unicode="b" horiz-adv-x="541" 
d="M287 489c141 0 224 -112 224 -248s-84 -248 -224 -248c-62 0 -111 22 -147 59v-52h-95v700h95v-270c36 37 85 59 147 59zM276 88c87 0 131 70 131 153s-44 153 -131 153c-88 0 -131 -70 -131 -153s44 -153 131 -153z" />
    <glyph glyph-name="c" unicode="c" horiz-adv-x="483" 
d="M265 88c51 0 88 24 110 60l88 -42c-39 -68 -109 -113 -198 -113c-140 0 -235 112 -235 248s95 248 235 248c89 0 159 -45 198 -113l-88 -42c-22 36 -59 60 -110 60c-87 0 -134 -70 -134 -153s47 -153 134 -153z" />
    <glyph glyph-name="d" unicode="d" horiz-adv-x="542" 
d="M396 700h96v-700h-96v52c-35 -37 -85 -59 -147 -59c-140 0 -224 112 -224 248s84 248 224 248c62 0 112 -22 147 -59v270zM261 88c86 0 131 70 131 153s-44 153 -131 153c-88 0 -132 -70 -132 -153s45 -153 132 -153z" />
    <glyph glyph-name="e" unicode="e" horiz-adv-x="507" 
d="M473 193h-336c14 -60 58 -105 128 -105c51 0 88 24 110 60l87 -42c-39 -68 -108 -113 -197 -113c-140 0 -235 112 -235 248s92 248 232 248s215 -112 215 -248c0 -16 -1 -32 -4 -48zM262 394c-72 0 -114 -48 -127 -111h244c-10 63 -45 111 -117 111z" />
    <glyph glyph-name="f" unicode="f" horiz-adv-x="291" 
d="M161 700c50 15 123 -2 160 -38l-54 -70c-19 17 -53 24 -71 17c-21 -9 -29 -30 -29 -66v-61h87v-87h-87v-395h-96v395h-56v87h56v62c0 88 30 137 90 156z" />
    <glyph glyph-name="g" unicode="g" horiz-adv-x="491" 
d="M481 442c-44 1 -72 -17 -89 -36c15 -24 23 -53 23 -85c0 -101 -80 -168 -188 -168c-10 0 -19 0 -28 1c-17 -10 -31 -28 -20 -40c10 -12 47 -14 76 -14c157 0 221 -37 224 -122c3 -104 -98 -176 -233 -173c-116 3 -199 43 -246 91l53 64c41 -39 108 -64 188 -67
c81 -3 140 29 142 71c1 41 -46 45 -137 49c-58 3 -112 12 -140 36c-31 26 -39 79 18 128c-52 28 -85 79 -85 144c0 101 80 168 188 168c50 0 94 -15 127 -40c30 43 74 71 127 71v-78zM227 237c53 0 95 31 95 84s-42 84 -95 84s-96 -31 -96 -84s43 -84 96 -84z" />
    <glyph glyph-name="h" unicode="h" horiz-adv-x="488" 
d="M264 489c114 0 179 -78 179 -217v-272h-95v263c0 94 -45 131 -101 131c-59 0 -106 -35 -106 -125v-269h-96v700h96v-264c31 33 73 53 123 53z" />
    <glyph glyph-name="i" unicode="i" horiz-adv-x="206" 
d="M53 0v482h95v-482h-95zM101 556c-31 0 -56 25 -56 56c0 30 25 55 56 55c30 0 55 -25 55 -55c0 -31 -25 -56 -55 -56z" />
    <glyph glyph-name="j" unicode="j" horiz-adv-x="219" 
d="M65 482h96v-542c0 -88 -28 -140 -88 -159c-42 -13 -90 -5 -128 20l34 76c19 -8 41 -11 57 -5c21 9 29 30 29 66v544zM118 556c-30 0 -55 25 -55 56c0 30 25 55 55 55c31 0 56 -25 56 -55c0 -31 -25 -56 -56 -56z" />
    <glyph glyph-name="k" unicode="k" horiz-adv-x="469" 
d="M341 0l-131 196h-69v-196h-96v700h96v-414h58l134 196h113l-162 -231l170 -251h-113z" />
    <glyph glyph-name="l" unicode="l" horiz-adv-x="280" 
d="M226 100l49 -67c-37 -36 -94 -49 -144 -35c-61 17 -86 69 -86 157v595h96v-594c0 -36 8 -57 29 -66c17 -7 39 -5 56 10z" />
    <glyph glyph-name="m" unicode="m" horiz-adv-x="783" 
d="M554 489c114 0 179 -78 179 -217v-272h-96v263c0 94 -42 131 -97 131c-59 0 -101 -35 -101 -125v-269h-95v263c0 94 -45 131 -101 131c-59 0 -98 -35 -98 -125v-269h-95v482h95v-38c29 28 66 45 113 45c67 0 118 -27 149 -79c33 50 83 79 147 79z" />
    <glyph glyph-name="n" unicode="n" horiz-adv-x="497" 
d="M269 489c113 0 178 -78 178 -217v-272h-95v263c0 94 -45 131 -101 131c-59 0 -106 -35 -106 -125v-269h-95v482h95v-46c32 33 74 53 124 53z" />
    <glyph glyph-name="o" unicode="o" horiz-adv-x="530" 
d="M265 489c140 0 235 -112 235 -248s-95 -248 -235 -248c-139 0 -235 112 -235 248s95 248 235 248zM265 88c87 0 134 70 134 153s-46 153 -134 153c-87 0 -134 -70 -134 -153s47 -153 134 -153z" />
    <glyph glyph-name="p" unicode="p" horiz-adv-x="542" 
d="M288 489c140 0 224 -112 224 -248s-84 -248 -224 -248c-62 0 -112 22 -147 59v-270h-96v700h96v-52c35 37 85 59 147 59zM277 88c87 0 131 70 131 153s-45 153 -131 153c-87 0 -132 -70 -132 -153s44 -153 132 -153z" />
    <glyph glyph-name="q" unicode="q" horiz-adv-x="542" 
d="M396 482h96v-700h-96v270c-35 -37 -85 -59 -147 -59c-140 0 -224 113 -224 248c0 136 84 249 224 249c62 0 112 -23 147 -60v52zM260 88c88 0 132 70 132 153s-45 153 -132 153c-86 0 -131 -70 -131 -153s44 -153 131 -153z" />
    <glyph glyph-name="r" unicode="r" horiz-adv-x="307" 
d="M264 490c13 0 26 -2 38 -4l-18 -99c-12 5 -24 7 -38 7c-58 0 -106 -35 -106 -125v-269h-95v482h95v-45c32 33 74 53 124 53z" />
    <glyph glyph-name="s" unicode="s" horiz-adv-x="420" 
d="M394 154c8 -94 -67 -163 -177 -163s-179 57 -202 123l90 32c11 -30 43 -60 108 -60c64 0 89 31 85 58c-3 23 -32 37 -107 52c-93 19 -150 48 -162 121c-13 76 38 172 171 172c124 0 170 -86 178 -116l-90 -31c-11 33 -50 54 -88 54c-64 0 -76 -33 -76 -51
c0 -26 20 -48 98 -62c110 -20 166 -53 172 -129z" />
    <glyph glyph-name="t" unicode="t" horiz-adv-x="338" 
d="M271 107l52 -73c-37 -36 -107 -50 -156 -35c-60 19 -87 68 -87 156v241h-65v86h65v101l95 26v-127h99v-86h-99v-237c0 -43 9 -61 30 -69c20 -8 50 1 66 17z" />
    <glyph glyph-name="u" unicode="u" horiz-adv-x="487" 
d="M341 482h96v-272c0 -139 -82 -217 -196 -217s-196 78 -196 217v272h95v-263c0 -94 45 -131 101 -131c55 0 100 37 100 131v263z" />
    <glyph glyph-name="v" unicode="v" horiz-adv-x="487" 
d="M370 482h102l-183 -482h-91l-183 482h102l126 -333z" />
    <glyph glyph-name="w" unicode="w" horiz-adv-x="721" 
d="M611 482h100l-155 -482h-84l-111 327l-112 -327h-83l-156 482h100l102 -314l107 314h83l108 -314z" />
    <glyph glyph-name="x" unicode="x" horiz-adv-x="479" 
d="M464 0h-117l-108 174l-107 -174h-117l159 251l-146 231h117l94 -154l95 154h117l-147 -231z" />
    <glyph glyph-name="y" unicode="y" horiz-adv-x="467" 
d="M452 482l-166 -464c-54 -143 -104 -245 -243 -216l16 95c55 -11 79 3 124 118l-168 467h102l117 -333l116 333h102z" />
    <glyph glyph-name="z" unicode="z" horiz-adv-x="432" 
d="M156 96h246v-96h-372v96l238 291h-224v95h349v-95z" />
    <glyph glyph-name="uni0410" unicode="&#x410;" horiz-adv-x="636" 
d="M364 700l252 -700h-105l-193 557l-193 -557h-105l251 700h93z" />
    <glyph glyph-name="uni0412" unicode="&#x412;" horiz-adv-x="592" 
d="M331 95c81 0 128 47 128 117c0 69 -46 113 -128 113h-171v-230h171zM447 381c66 -29 110 -87 110 -169c0 -126 -93 -212 -226 -212h-266v415h247c69 0 105 44 105 96s-27 94 -90 94h-262v95h262c123 0 189 -87 189 -189c0 -54 -29 -98 -69 -130z" />
    <glyph glyph-name="uni0421" unicode="&#x421;" horiz-adv-x="703" 
d="M380 88c89 0 160 44 201 112l88 -44c-59 -98 -163 -163 -289 -163c-197 0 -340 159 -340 356c0 198 143 357 340 357c126 0 230 -65 289 -164l-88 -43c-41 67 -112 111 -201 111c-145 0 -242 -116 -242 -261c0 -144 97 -261 242 -261zM322 348c0 33 27 61 60 61
c34 0 61 -28 61 -61s-27 -60 -61 -60c-33 0 -60 27 -60 60z" />
    <glyph glyph-name="uni0415" unicode="&#x415;" horiz-adv-x="574" 
d="M65 96h465v-96h-465v96zM493 397v-93h-428v93h428zM524 700v-95h-459v95h459z" />
    <glyph glyph-name="uni041D" unicode="&#x41d;" horiz-adv-x="667" 
d="M65 0v188h95v-188h-95zM506 700h96v-188h-96v188zM160 397h442v-397h-96v304h-441v396h95v-303z" />
    <glyph glyph-name="uni041A" unicode="&#x41a;" horiz-adv-x="611" 
d="M475 0l-214 305h-100v-305h-96v700h96v-303h84l208 303h122l-237 -337l258 -363h-121z" />
    <glyph glyph-name="uni041C" unicode="&#x41c;" horiz-adv-x="816" 
d="M742 706h9v-706h-95v453l-244 -292h-9l-243 292v-453h-95v706h8l335 -396z" />
    <glyph glyph-name="uni041E" unicode="&#x41e;" 
d="M379 706c198 0 340 -159 340 -357c0 -197 -142 -356 -340 -356c-197 0 -339 160 -339 357s142 356 339 356zM379 88c145 0 242 117 242 261c0 145 -97 262 -242 262c-144 0 -241 -116 -241 -261s97 -262 241 -262zM379 410c34 0 61 -27 61 -61c0 -33 -27 -60 -61 -60
c-33 0 -60 27 -60 60c0 34 27 61 60 61z" />
    <glyph glyph-name="uni0420" unicode="&#x420;" horiz-adv-x="591" 
d="M327 700c143 0 229 -101 229 -226c0 -124 -88 -225 -229 -225h-167v-249h-95v344h262c84 0 130 62 130 130c0 69 -45 131 -130 131h-262v95h262z" />
    <glyph glyph-name="uni0422" unicode="&#x422;" horiz-adv-x="567" 
d="M236 0v469h95v-469h-95zM30 700h507v-95h-507v95z" />
    <glyph glyph-name="uni0425" unicode="&#x425;" horiz-adv-x="631" 
d="M40 700h117l100 -161l-56 -92zM379 364l232 -364h-117l-227 364l207 336h118zM20 0l176 276l58 -90l-117 -186h-117z" />
    <glyph glyph-name="uni0430" unicode="&#x430;" horiz-adv-x="464" 
d="M241 490c101 0 178 -49 178 -177v-313h-94v57c-18 -21 -59 -57 -134 -64c-113 -10 -174 65 -165 144c11 95 77 123 176 149c62 16 115 20 120 54c7 47 -47 68 -88 65c-48 -2 -88 -25 -102 -76l-86 18c12 61 70 143 195 143zM325 206v21s-43 -12 -107 -28
c-86 -22 -91 -63 -88 -82c3 -22 21 -42 74 -38c49 4 121 51 121 127z" />
    <glyph glyph-name="uni0441" unicode="&#x441;" horiz-adv-x="483" 
d="M265 88c51 0 88 24 110 60l88 -42c-39 -68 -109 -113 -198 -113c-140 0 -235 112 -235 248s95 248 235 248c89 0 159 -45 198 -113l-88 -42c-22 36 -59 60 -110 60c-87 0 -134 -70 -134 -153s47 -153 134 -153z" />
    <glyph glyph-name="uni0435" unicode="&#x435;" horiz-adv-x="507" 
d="M473 193h-336c14 -60 58 -105 128 -105c51 0 88 24 110 60l87 -42c-39 -68 -108 -113 -197 -113c-140 0 -235 112 -235 248s92 248 232 248s215 -112 215 -248c0 -16 -1 -32 -4 -48zM262 394c-72 0 -114 -48 -127 -111h244c-10 63 -45 111 -117 111z" />
    <glyph glyph-name="uni043E" unicode="&#x43e;" horiz-adv-x="530" 
d="M265 489c140 0 235 -112 235 -248s-95 -248 -235 -248c-139 0 -235 112 -235 248s95 248 235 248zM265 88c87 0 134 70 134 153s-46 153 -134 153c-87 0 -134 -70 -134 -153s47 -153 134 -153z" />
    <glyph glyph-name="uni0440" unicode="&#x440;" horiz-adv-x="542" 
d="M288 489c140 0 224 -112 224 -248s-84 -248 -224 -248c-62 0 -112 22 -147 59v-270h-96v700h96v-52c35 37 85 59 147 59zM277 88c87 0 131 70 131 153s-45 153 -131 153c-87 0 -132 -70 -132 -153s44 -153 132 -153z" />
    <glyph glyph-name="uni0445" unicode="&#x445;" horiz-adv-x="479" 
d="M464 0h-117l-108 174l-107 -174h-117l159 251l-146 231h117l94 -154l95 154h117l-147 -231z" />
    <glyph glyph-name="uni0443" unicode="&#x443;" horiz-adv-x="467" 
d="M452 482l-166 -464c-54 -143 -104 -245 -243 -216l16 95c55 -11 79 3 124 118l-168 467h102l117 -333l116 333h102z" />
    <glyph glyph-name="space" unicode=" " horiz-adv-x="280" 
 />
    <glyph glyph-name="uni0411" unicode="&#x411;" horiz-adv-x="587" 
d="M329 423c139 0 223 -86 223 -211c0 -126 -91 -212 -223 -212h-264v423h264zM329 95c81 0 124 47 124 117c0 69 -42 116 -124 116h-168v-233h168zM483 700v-95h-418v95h418z" />
    <glyph glyph-name="uni0413" unicode="&#x413;" horiz-adv-x="473" 
d="M65 0v113h96v-113h-96zM127 700h316v-95h-220zM65 614l96 -94v-309h-96v403z" />
    <glyph glyph-name="uni0414" unicode="&#x414;" horiz-adv-x="695" 
d="M665 605h-71v-510h71v-222h-95v127h-449v-127h-96v222h61c66 74 93 227 104 362h96c-11 -135 -34 -267 -85 -362h298v510h-302v95h468v-95z" />
    <glyph glyph-name="uni0401" unicode="&#x401;" horiz-adv-x="574" 
d="M236 890v-90h-90v90h90zM442 890v-90h-90v90h90zM65 96h465v-96h-465v96zM493 397v-93h-428v93h428zM524 700v-95h-459v95h459z" />
    <glyph glyph-name="uni0416" unicode="&#x416;" horiz-adv-x="970" 
d="M937 700l-404 -479v-221h-96v221l-405 479h126l327 -388l326 388h126zM533 700v-202h-96v202h96zM737 306l218 -306h-118l-164 231zM15 0l218 306l65 -75l-165 -231h-118z" />
    <glyph glyph-name="uni0417" unicode="&#x417;" horiz-adv-x="578" 
d="M424 370c72 -23 119 -85 119 -166c1 -125 -100 -211 -256 -211c-128 0 -224 70 -258 122l76 50c26 -35 89 -80 180 -80c103 0 161 54 161 121c0 78 -64 110 -159 110h-97v90h85c94 0 134 48 136 103c3 56 -45 109 -129 109h-96v-80h-90v162h188c130 0 221 -74 221 -182
c0 -66 -36 -122 -81 -148z" />
    <glyph glyph-name="uni0418" unicode="&#x418;" horiz-adv-x="661" 
d="M65 700h96v-465l426 471h9v-706h-96v460l-426 -467h-9v707z" />
    <glyph glyph-name="uni0419" unicode="&#x419;" horiz-adv-x="661" 
d="M456 890v-89h-255v89h255zM161 700h-96v-707h9l426 467v-460h96v706h-9l-426 -471v465z" />
    <glyph glyph-name="uni041B" unicode="&#x41b;" horiz-adv-x="692" 
d="M662 700v-95h-71v-290h-95v290h-215c0 -258 -20 -487 -124 -574c-38 -33 -81 -44 -142 -34l17 94c33 -5 53 5 63 14c91 75 91 406 91 595h476zM496 0v188h95v-188h-95z" />
    <glyph glyph-name="uni041F" unicode="&#x41f;" horiz-adv-x="688" 
d="M65 0v344h95v-344h-95zM658 700v-95h-71v-605h-95v605h-427v95h593z" />
    <glyph glyph-name="uni0423" unicode="&#x423;" horiz-adv-x="575" 
d="M456 700h104l-292 -700h-104l91 212l-235 488h107l178 -373z" />
    <glyph glyph-name="uni0424" unicode="&#x424;" horiz-adv-x="817" 
d="M777 349c0 -181 -139 -279 -321 -293v-85h-95v85c-182 14 -321 112 -321 293c0 182 140 280 321 295v85h95v-85c181 -15 321 -113 321 -295zM456 151c128 11 223 69 223 198c0 145 -118 201 -271 201c-152 0 -270 -56 -270 -201c0 -129 95 -187 223 -198v189h95v-189z
" />
    <glyph glyph-name="uni0426" unicode="&#x426;" horiz-adv-x="686" 
d="M570 700v-480h-96v480h96zM160 95h496v-222h-95v127h-496v489h95v-394zM160 700v-113h-95v113h95z" />
    <glyph glyph-name="uni0427" unicode="&#x427;" horiz-adv-x="614" 
d="M454 700h95v-700h-95v256h-404v444h96v-349h308v349z" />
    <glyph glyph-name="uni0428" unicode="&#x428;" horiz-adv-x="966" 
d="M531 700v-480h-95v480h95zM806 700h95v-700h-836v700h96v-605h645v605z" />
    <glyph glyph-name="uni0429" unicode="&#x429;" horiz-adv-x="1017" 
d="M901 95h86v-222h-95v127h-827v489h95v-394h645v605h96v-605zM531 700v-480h-96v480h96zM160 700v-113h-95v113h95z" />
    <glyph glyph-name="uni042A" unicode="&#x42a;" horiz-adv-x="681" 
d="M417 451c141 0 229 -101 229 -225c0 -125 -86 -226 -229 -226h-265v159h96v-64h169c85 0 130 62 130 131c0 68 -46 130 -130 130h-265v249h-127v95h223v-249h169z" />
    <glyph glyph-name="uni042B" unicode="&#x42b;" horiz-adv-x="794" 
d="M633 489h96v-489h-96v489zM330 451c140 0 228 -101 228 -225c0 -125 -86 -226 -228 -226h-265v159h95v-64h170c85 0 130 62 130 131c0 68 -46 130 -130 130h-265v344h95v-249h170zM633 700h96v-113h-96v113z" />
    <glyph glyph-name="uni042C" unicode="&#x42c;" horiz-adv-x="594" 
d="M330 451c141 0 229 -101 229 -225c0 -125 -86 -226 -229 -226h-265v159h96v-64h169c85 0 131 62 131 131c0 68 -47 130 -131 130h-265v344h96v-249h169z" />
    <glyph glyph-name="uni042D" unicode="&#x42d;" horiz-adv-x="698" 
d="M319 705c197 0 339 -159 339 -356s-142 -356 -339 -356c-126 0 -229 65 -288 163l87 44c42 -68 112 -112 201 -112c145 0 241 116 241 261c0 144 -96 260 -241 260c-89 0 -159 -44 -201 -111l-87 43c59 99 162 164 288 164zM416 398v-96h-182v96h182z" />
    <glyph glyph-name="uni042E" unicode="&#x42e;" horiz-adv-x="1007" 
d="M627 706c197 0 340 -159 340 -357c0 -197 -143 -356 -340 -356c-182 0 -317 135 -337 311h-129v-304h-96v700h96v-304h129c20 175 155 310 337 310zM627 88c144 0 241 117 241 261c0 145 -97 262 -241 262c-145 0 -241 -116 -241 -261s96 -262 241 -262zM627 411
c33 0 60 -27 60 -61c0 -33 -27 -60 -60 -60c-34 0 -61 27 -61 60c0 34 27 61 61 61z" />
    <glyph glyph-name="uni042F" unicode="&#x42f;" horiz-adv-x="606" 
d="M541 541h-95v64h-167c-85 0 -130 -62 -130 -131c0 -68 46 -130 130 -130h262v-344h-95v249h-165l-141 -249h-110l152 267c-83 35 -131 115 -131 207c0 125 85 226 228 226h262v-159z" />
    <glyph glyph-name="uni0431" unicode="&#x431;" horiz-adv-x="512" 
d="M266 475c141 0 216 -101 216 -237s-87 -245 -226 -245c-130 0 -220 97 -225 252c-4 121 4 352 187 449c85 45 138 41 187 85l65 -67c-61 -64 -141 -64 -213 -102c-83 -44 -120 -117 -135 -195c39 36 88 60 144 60zM255 88c87 0 125 67 125 150s-38 147 -125 147
c-88 0 -126 -64 -126 -147s39 -150 126 -150z" />
    <glyph glyph-name="uni0432" unicode="&#x432;" horiz-adv-x="469" 
d="M365 262c41 -21 74 -62 74 -112c0 -80 -54 -150 -153 -150h-241v482h213c105 0 153 -61 153 -133c0 -34 -20 -66 -46 -87zM258 386h-117v-92h117c36 0 58 22 58 49c0 28 -18 43 -58 43zM286 95c37 0 57 29 57 58s-17 58 -57 58h-145v-116h145z" />
    <glyph glyph-name="uni0433" unicode="&#x433;" horiz-adv-x="382" 
d="M352 482v-96h-211v-386h-96v482h307z" />
    <glyph glyph-name="uni0434" unicode="&#x434;" horiz-adv-x="552" 
d="M456 95h71v-210h-95v115h-322v-115h-95v210h55c58 94 71 220 71 387h315v-387zM178 95h183v291h-126c-5 -114 -21 -210 -57 -291z" />
    <glyph glyph-name="uni0451" unicode="&#x451;" horiz-adv-x="507" 
d="M165 558c-27 0 -49 22 -49 50c0 27 22 49 49 49c28 0 50 -22 50 -49c0 -28 -22 -50 -50 -50zM348 558c-27 0 -50 22 -50 50c0 27 23 49 50 49s49 -22 49 -49c0 -28 -22 -50 -49 -50zM473 193h-336c14 -60 58 -105 128 -105c51 0 88 24 110 60l87 -42
c-39 -68 -108 -113 -197 -113c-140 0 -235 112 -235 248s92 248 232 248s215 -112 215 -248c0 -16 -1 -32 -4 -48zM262 394c-72 0 -114 -48 -127 -111h244c-10 63 -45 111 -117 111z" />
    <glyph glyph-name="uni0436" unicode="&#x436;" horiz-adv-x="742" 
d="M614 0l-135 196h-60v-196h-96v196h-61l-134 -196h-113l173 251l-165 231h112l138 -196h50v196h96v-196h49l138 196h113l-165 -231l173 -251h-113z" />
    <glyph glyph-name="uni0437" unicode="&#x437;" horiz-adv-x="426" 
d="M300 248c47 -9 96 -47 96 -113c0 -76 -66 -144 -193 -144c-89 0 -162 48 -188 89l68 56c20 -27 68 -55 122 -56c70 -1 94 36 94 64s-22 64 -101 64h-54v71h53c62 0 82 33 82 62c0 30 -18 59 -78 59c-54 0 -88 -26 -107 -42l-59 58c31 34 92 73 169 73
c95 0 171 -51 171 -133c0 -49 -29 -88 -75 -108z" />
    <glyph glyph-name="uni0438" unicode="&#x438;" horiz-adv-x="494" 
d="M354 482h90v-482h-96v314l-214 -314h-89v482h95v-314z" />
    <glyph glyph-name="uni0439" unicode="&#x439;" horiz-adv-x="494" 
d="M250 532c-78 0 -133 55 -133 133h75c0 -32 23 -58 58 -58c36 0 58 26 58 58h76c0 -78 -56 -133 -134 -133zM354 482h90v-482h-96v314l-214 -314h-89v482h95v-314z" />
    <glyph glyph-name="uni043A" unicode="&#x43a;" horiz-adv-x="469" 
d="M341 0l-131 196h-70v-196h-95v482h95v-196h59l133 196h113l-160 -231l169 -251h-113z" />
    <glyph glyph-name="uni043B" unicode="&#x43b;" horiz-adv-x="496" 
d="M130 482h316v-482h-96v386h-120c-5 -183 -16 -310 -84 -366c-33 -26 -82 -30 -131 -26l20 93c25 -5 38 1 45 7c60 49 50 258 50 388z" />
    <glyph glyph-name="uni043C" unicode="&#x43c;" horiz-adv-x="608" 
d="M474 482h84v-482h-95v314l-134 -204h-54l-134 204v-314h-96v482h84l173 -257z" />
    <glyph glyph-name="uni043D" unicode="&#x43d;" horiz-adv-x="492" 
d="M347 482h95v-482h-95v196h-206v-196h-96v482h96v-196h206v196z" />
    <glyph glyph-name="uni043F" unicode="&#x43f;" horiz-adv-x="486" 
d="M45 482h391v-482h-96v386h-200v-386h-95v482z" />
    <glyph glyph-name="uni0442" unicode="&#x442;" horiz-adv-x="433" 
d="M408 482v-96h-144v-386h-95v386h-144v96h383z" />
    <glyph glyph-name="uni0444" unicode="&#x444;" horiz-adv-x="652" 
d="M622 241c0 -149 -106 -231 -248 -246v-213h-95v213c-142 15 -249 97 -249 246s107 231 249 246v213h95v-213c142 -15 248 -97 248 -246zM129 241c0 -96 59 -140 150 -150v300c-93 -10 -150 -53 -150 -150zM374 91c90 10 150 54 150 150c0 97 -57 140 -150 150v-300z" />
    <glyph glyph-name="uni0446" unicode="&#x446;" horiz-adv-x="525" 
d="M429 95h71v-209h-95v114h-360v482h95v-387h194v387h95v-387z" />
    <glyph glyph-name="uni0447" unicode="&#x447;" horiz-adv-x="458" 
d="M313 482h95v-482h-95v175c-37 -16 -94 -27 -144 -22c-109 10 -139 79 -139 197v132h95v-132c0 -52 6 -93 55 -106c57 -14 114 7 133 18v220z" />
    <glyph glyph-name="uni0448" unicode="&#x448;" horiz-adv-x="714" 
d="M569 482h95v-482h-619v482h95v-387h167v387h95v-387h167v387z" />
    <glyph glyph-name="uni0449" unicode="&#x449;" horiz-adv-x="760" 
d="M664 95h71v-209h-95v114h-595v482h95v-387h167v387h95v-387h167v387h95v-387z" />
    <glyph glyph-name="uni044A" unicode="&#x44a;" horiz-adv-x="550" 
d="M349 312c105 0 171 -66 171 -156c0 -89 -72 -156 -168 -156h-209v386h-118v96h214v-170h110zM352 95c40 0 69 24 69 61s-27 61 -72 61h-110v-122h113z" />
    <glyph glyph-name="uni044B" unicode="&#x44b;" horiz-adv-x="630" 
d="M485 482h95v-482h-95v482zM251 312c104 0 170 -66 170 -156c0 -89 -72 -156 -168 -156h-208v482h95v-170h111zM253 95c40 0 70 24 70 61s-28 61 -72 61h-111v-122h113z" />
    <glyph glyph-name="uni044C" unicode="&#x44c;" horiz-adv-x="452" 
d="M251 312c105 0 171 -66 171 -156c0 -89 -72 -156 -168 -156h-209v482h96v-170h110zM254 95c40 0 69 24 69 61s-27 61 -72 61h-110v-122h113z" />
    <glyph glyph-name="uni044D" unicode="&#x44d;" horiz-adv-x="485" 
d="M223 489c140 0 232 -112 232 -248s-92 -248 -232 -248c-89 0 -159 45 -198 113l88 42c22 -36 59 -60 110 -60c71 0 115 46 129 108h-192v90h192c-14 62 -58 108 -129 108c-51 0 -88 -24 -110 -60l-88 42c39 68 109 113 198 113z" />
    <glyph glyph-name="uni044E" unicode="&#x44e;" horiz-adv-x="710" 
d="M445 489c140 0 235 -112 235 -248s-96 -248 -235 -248c-124 0 -213 88 -232 203h-72v-196h-96v482h96v-196h72c19 115 107 203 232 203zM445 88c87 0 134 70 134 153s-47 153 -134 153c-88 0 -134 -70 -134 -153s47 -153 134 -153z" />
    <glyph glyph-name="uni044F" unicode="&#x44f;" horiz-adv-x="451" 
d="M192 482h209v-482h-96v170h-84l-96 -170h-110l104 183c-60 24 -95 77 -95 143c0 89 72 156 168 156zM195 265h110v121h-113c-40 0 -70 -24 -70 -60c0 -37 28 -61 73 -61z" />
    <glyph glyph-name="one" unicode="1" horiz-adv-x="444" 
d="M283 90h111v-90h-316v90h110v482l-110 -81l-48 52l158 157h95v-610z" />
    <glyph glyph-name="two" unicode="2" horiz-adv-x="499" 
d="M168 95h291v-95h-424v95s105 112 217 247c58 71 80 127 80 170c0 51 -27 85 -81 89c-59 4 -92 -35 -110 -88l-97 36c32 90 94 161 220 156c113 -5 174 -87 174 -183c0 -74 -33 -156 -98 -234c-53 -64 -122 -139 -172 -193z" />
    <glyph glyph-name="three" unicode="3" horiz-adv-x="533" 
d="M279 421c147 0 228 -90 218 -218c-11 -130 -112 -214 -238 -210c-91 2 -185 49 -224 128l85 45c27 -44 74 -76 136 -78c85 -2 137 50 143 118c7 78 -41 135 -123 140c-45 3 -70 -5 -78 -8l-53 61l178 206h-236v95h363v-95l-173 -184h2z" />
    <glyph glyph-name="four" unicode="4" horiz-adv-x="535" 
d="M505 249v-95h-80v-154h-95v154h-300v95l271 451h109l-271 -451h191v157h95v-157h80z" />
    <glyph glyph-name="five" unicode="5" horiz-adv-x="519" 
d="M265 433c147 -4 229 -102 218 -230c-11 -130 -105 -214 -232 -210c-91 2 -182 49 -221 128l82 42c27 -44 74 -73 136 -75c85 -2 131 50 137 118c7 78 -46 132 -128 137c-50 3 -85 -14 -93 -16l-88 18l70 355h315v-95h-245l-34 -185c21 6 53 14 83 13z" />
    <glyph glyph-name="six" unicode="6" horiz-adv-x="514" 
d="M257 447c129 1 228 -102 228 -227s-97 -227 -228 -227c-130 0 -228 96 -228 221c0 63 28 135 83 216l180 270h108l-167 -256c7 2 20 3 24 3zM257 88c73 0 128 59 128 132c0 72 -55 132 -128 132c-72 0 -125 -60 -125 -132c0 -73 53 -132 125 -132z" />
    <glyph glyph-name="seven" unicode="7" horiz-adv-x="452" 
d="M30 700h402v-96l-272 -604h-101l271 604h-300v96z" />
    <glyph glyph-name="eight" unicode="8" horiz-adv-x="537" 
d="M385 387c64 -32 112 -99 112 -182c0 -129 -106 -212 -228 -212s-229 83 -229 212c0 83 49 150 112 182c-42 28 -73 77 -73 135c0 106 79 184 190 184c110 0 190 -78 190 -184c0 -58 -31 -107 -74 -135zM269 611c-58 0 -97 -40 -97 -92s45 -89 97 -89s97 37 97 89
s-39 92 -97 92zM269 88c77 0 133 48 133 123s-59 124 -133 125c-74 -1 -133 -50 -133 -125s56 -123 133 -123z" />
    <glyph glyph-name="nine" unicode="9" horiz-adv-x="514" 
d="M257 253c-128 -1 -228 102 -228 227s98 227 228 227c131 0 228 -96 228 -221c0 -63 -26 -132 -82 -216c-36 -55 -180 -270 -180 -270h-109l168 256c-7 -2 -21 -3 -25 -3zM257 612c-72 0 -127 -60 -127 -132c0 -73 55 -132 127 -132c73 0 125 59 125 132
c0 72 -52 132 -125 132z" />
    <glyph glyph-name="zero" unicode="0" horiz-adv-x="533" 
d="M266 706c153 0 227 -158 227 -357c0 -198 -74 -356 -227 -356c-152 0 -226 158 -226 356c0 199 74 357 226 357zM266 88c96 0 131 139 131 261c0 123 -35 262 -131 262c-95 0 -131 -139 -131 -262c0 -122 36 -261 131 -261z" />
    <glyph glyph-name="period" unicode="." horiz-adv-x="231" 
d="M116 -18c-31 0 -56 25 -56 56c0 30 25 55 56 55c30 0 55 -25 55 -55c0 -31 -25 -56 -55 -56z" />
    <glyph glyph-name="comma" unicode="," horiz-adv-x="196" 
d="M62 52h94l-70 -168h-56z" />
    <glyph glyph-name="exclam" unicode="!" horiz-adv-x="231" 
d="M149 174h-67l-16 526h99zM115 -18c-30 0 -55 25 -55 56c0 30 25 55 55 55c31 0 56 -25 56 -55c0 -31 -25 -56 -56 -56z" />
    <glyph glyph-name="question" unicode="?" horiz-adv-x="435" 
d="M220 706c110 0 218 -79 175 -243c-16 -60 -56 -109 -92 -150c-39 -45 -76 -87 -78 -139h-90c2 87 51 146 96 199c32 36 59 72 69 112c21 85 -23 124 -79 125c-60 1 -91 -53 -100 -101l-91 22c17 85 71 175 190 175zM182 -18c-31 0 -56 25 -56 56c0 30 25 55 56 55
c30 0 55 -25 55 -55c0 -31 -25 -56 -55 -56z" />
    <glyph glyph-name="colon" unicode=":" horiz-adv-x="251" 
d="M115 -18c-30 0 -55 25 -55 56c0 30 25 55 55 55c31 0 56 -25 56 -55c0 -31 -25 -56 -56 -56zM115 386c-30 0 -55 24 -55 55c0 30 25 55 55 55c31 0 56 -25 56 -55c0 -31 -25 -55 -56 -55z" />
    <glyph glyph-name="semicolon" unicode=";" horiz-adv-x="251" 
d="M40 -116l31 168h94l-69 -168h-56zM116 386c-31 0 -56 24 -56 55c0 30 25 55 56 55c30 0 55 -25 55 -55c0 -31 -25 -55 -55 -55z" />
    <glyph glyph-name="numbersign" unicode="#" horiz-adv-x="742" 
d="M692 417h-136l-31 -146h150l-20 -93h-149l-38 -178h-94l37 178h-143l-37 -178h-95l38 178h-144l20 93h143l31 146h-157l20 92h156l40 191h95l-40 -191h142l41 191h94l-40 -191h137zM430 271l31 146h-143l-30 -146h142z" />
    <glyph glyph-name="dollar" unicode="$" horiz-adv-x="596" 
d="M561 195c0 -101 -75 -187 -212 -201v-95h-95v98c-113 16 -192 80 -224 154l90 31c25 -51 89 -94 189 -94c84 0 150 40 150 104c0 63 -62 86 -181 121c-141 40 -232 82 -228 204c4 104 80 177 204 189v95h95v-98c97 -17 160 -78 188 -151l-91 -31c-18 47 -58 91 -153 91
c-103 0 -142 -50 -142 -98c0 -54 49 -78 160 -109c143 -41 250 -84 250 -210z" />
    <glyph glyph-name="cent" unicode="&#xa2;" horiz-adv-x="513" 
d="M275 88c51 0 88 24 110 60l88 -42c-34 -59 -89 -100 -161 -111v-96h-96v101c-107 27 -176 125 -176 241s69 214 176 241v101h96v-96c72 -11 127 -52 161 -111l-88 -42c-22 36 -59 60 -110 60c-87 0 -133 -70 -133 -153s46 -153 133 -153z" />
    <glyph glyph-name="Euro" unicode="&#x20ac;" horiz-adv-x="804" 
d="M563 377h-533l48 85h64c43 142 166 244 324 244c126 0 230 -65 289 -164l-88 -43c-41 67 -112 111 -201 111c-104 0 -184 -60 -220 -148h365zM466 88c89 0 160 44 201 112l88 -44c-59 -98 -163 -163 -289 -163c-158 0 -281 102 -324 244h-112l48 85h465l-47 -85h-250
c36 -88 116 -149 220 -149z" />
    <glyph glyph-name="sterling" unicode="&#xa3;" horiz-adv-x="575" 
d="M40 95h495v-95h-495v95zM411 349v-84h-348v84h77v111c0 195 102 246 194 246c93 0 153 -73 177 -130l-85 -38c-18 40 -46 73 -92 73c-65 0 -98 -51 -98 -159v-103h175z" />
    <glyph glyph-name="yen" unicode="&#xa5;" horiz-adv-x="651" 
d="M611 700l-205 -384h126v-84h-411v84h125l-206 384h110l176 -332l176 332h109zM121 190h411v-84h-158v-106h-96v106h-157v84z" />
    <glyph glyph-name="currency" unicode="&#xa4;" horiz-adv-x="638" 
d="M535 357c0 -44 -14 -85 -36 -119l89 -88l-59 -59l-89 88c-35 -24 -76 -38 -121 -38s-87 14 -121 38l-89 -88l-59 59l89 88c-23 34 -36 75 -36 119s13 85 36 119l-89 88l59 60l89 -88c34 23 76 37 121 37s86 -14 121 -37l89 88l59 -60l-89 -88c22 -34 36 -75 36 -119z
M190 357c0 -71 58 -129 129 -129s129 58 129 129s-58 129 -129 129s-129 -58 -129 -129z" />
    <glyph glyph-name="percent" unicode="%" horiz-adv-x="713" 
d="M523 700h107l-438 -700h-107zM317 563c0 -79 -64 -144 -143 -144s-144 65 -144 144s65 143 144 143s143 -64 143 -143zM108 563c0 -36 30 -66 66 -66s65 30 65 66s-29 65 -65 65s-66 -29 -66 -65zM539 280c79 0 144 -65 144 -144s-65 -143 -144 -143s-144 64 -144 143
s65 144 144 144zM539 71c36 0 65 29 65 65s-29 66 -65 66s-66 -30 -66 -66s30 -65 66 -65z" />
    <glyph glyph-name="asciicircum" unicode="^" horiz-adv-x="454" 
d="M424 422h-95l-102 189l-102 -189h-95l149 278h95z" />
    <glyph glyph-name="ampersand" unicode="&#x26;" horiz-adv-x="691" 
d="M582 137l94 -84l-60 -66l-87 77c-66 -70 -156 -123 -271 -119c-163 7 -250 127 -229 264c16 105 93 188 140 230c-31 57 -42 118 -15 180c25 57 82 93 142 93c110 0 163 -91 165 -175l-89 -3c-1 15 -7 88 -76 88c-21 0 -47 -12 -60 -40c-18 -40 -1 -96 48 -153
c72 -83 153 -161 229 -230c16 31 28 68 35 106l87 -5c-7 -53 -25 -116 -53 -163zM265 35c73 -4 142 31 195 90c-79 71 -165 151 -239 240c-49 -43 -96 -102 -103 -166c-8 -82 38 -159 147 -164z" />
    <glyph glyph-name="asterisk" unicode="*" horiz-adv-x="342" 
d="M322 588l-91 -37l91 -37l-44 -75l-77 59l13 -96h-87l14 96l-78 -59l-43 75l90 37l-90 37l43 75l78 -60l-14 97h87l-13 -97l77 60z" />
    <glyph glyph-name="parenleft" unicode="(" horiz-adv-x="299" 
d="M289 700c-186 -223 -194 -597 -17 -816l-65 -53c-100 124 -152 290 -146 469c6 171 66 336 164 454z" />
    <glyph glyph-name="parenright" unicode=")" horiz-adv-x="299" 
d="M92 754c100 -124 152 -291 146 -469c-6 -171 -66 -337 -164 -454l-64 54c186 223 194 596 17 816z" />
    <glyph glyph-name="hyphen" unicode="-" horiz-adv-x="450" 
d="M60 348h330v-84h-330v84z" />
    <glyph glyph-name="endash" unicode="&#x2013;" horiz-adv-x="508" 
d="M60 348h388v-84h-388v84z" />
    <glyph glyph-name="emdash" unicode="&#x2014;" horiz-adv-x="595" 
d="M60 348h475v-84h-475v84z" />
    <glyph glyph-name="underscore" unicode="_" horiz-adv-x="573" 
d="M20 -22h533v-84h-533v84z" />
    <glyph glyph-name="slash" unicode="/" horiz-adv-x="401" 
d="M300 751h91l-300 -905h-91z" />
    <glyph glyph-name="backslash" unicode="\" horiz-adv-x="402" 
d="M101 751l301 -905h-92l-300 905h91z" />
    <glyph glyph-name="guillemotleft" unicode="&#xab;" horiz-adv-x="496" 
d="M265 425l-112 -157l112 -157h-103l-112 157l112 157h103zM446 425l-111 -157l111 -157h-103l-111 157l111 157h103z" />
    <glyph glyph-name="guillemotright" unicode="&#xbb;" horiz-adv-x="497" 
d="M335 425l112 -157l-112 -157h-103l112 157l-112 157h103zM153 425l112 -157l-112 -157h-103l112 157l-112 157h103z" />
    <glyph glyph-name="bracketleft" unicode="[" horiz-adv-x="346" 
d="M296 667h-120v-737h120v-84h-216v905h216v-84z" />
    <glyph glyph-name="bracketright" unicode="]" horiz-adv-x="346" 
d="M50 751h216v-905h-216v84h121v737h-121v84z" />
    <glyph glyph-name="bar" unicode="|" horiz-adv-x="256" 
d="M80 751h96v-905h-96v905z" />
    <glyph glyph-name="brokenbar" unicode="&#xa6;" horiz-adv-x="255" 
d="M80 751h95v-345h-95v345zM80 -154v345h95v-345h-95z" />
    <glyph glyph-name="plus" unicode="+" horiz-adv-x="508" 
d="M448 348v-84h-152v-152h-84v152h-152v84h152v152h84v-152h152z" />
    <glyph glyph-name="equal" unicode="=" horiz-adv-x="509" 
d="M60 425h389v-83h-389v83zM60 178v84h389v-84h-389z" />
    <glyph glyph-name="less" unicode="&#x3c;" horiz-adv-x="462" 
d="M402 536v-106l-227 -105l227 -104v-106l-342 157v106z" />
    <glyph glyph-name="greater" unicode="&#x3e;" horiz-adv-x="463" 
d="M60 536l343 -158v-106l-343 -157v106l227 104l-227 105v106z" />
    <glyph glyph-name="divide" unicode="&#xf7;" horiz-adv-x="508" 
d="M60 348h388v-84h-388v84zM254 183c27 0 49 -22 49 -49c0 -28 -22 -50 -49 -50c-28 0 -50 22 -50 50c0 27 22 49 50 49zM254 430c-28 0 -50 22 -50 49s22 50 50 50c27 0 49 -23 49 -50s-22 -49 -49 -49z" />
    <glyph glyph-name="multiply" unicode="&#xd7;" horiz-adv-x="481" 
d="M421 428l-121 -122l121 -121l-59 -60l-121 122l-122 -122l-59 60l121 121l-121 122l59 59l122 -121l121 121z" />
    <glyph glyph-name="asciitilde" unicode="~" horiz-adv-x="525" 
d="M406 359l79 -28c-37 -90 -116 -122 -247 -62c-81 37 -102 19 -132 -21l-76 38c59 83 117 114 247 57c83 -37 112 -20 129 16z" />
    <glyph glyph-name="approxequal" unicode="&#x2248;" horiz-adv-x="576" 
d="M269 343c-81 37 -102 19 -133 -21l-76 38c60 83 118 115 248 57c83 -36 112 -19 128 17l80 -28c-37 -90 -116 -123 -247 -63zM308 262c83 -36 112 -19 128 16l80 -27c-37 -90 -116 -123 -247 -63c-81 37 -102 19 -133 -21l-76 38c60 83 118 115 248 57z" />
    <glyph glyph-name="lessequal" unicode="&#x2264;" horiz-adv-x="463" 
d="M60 9v84h343v-84h-343zM403 564v-106l-228 -104l228 -105v-106l-343 157v107z" />
    <glyph glyph-name="greaterequal" unicode="&#x2265;" horiz-adv-x="463" 
d="M60 9v84h343v-84h-343zM60 564l343 -157v-107l-343 -157v106l227 105l-227 104v106z" />
    <glyph glyph-name="degree" unicode="&#xb0;" horiz-adv-x="367" 
d="M184 707c79 0 143 -65 143 -144s-64 -143 -143 -143c-80 0 -144 64 -144 143s64 144 144 144zM184 498c36 0 65 29 65 65s-29 66 -65 66s-66 -30 -66 -66s30 -65 66 -65z" />
    <glyph glyph-name="notequal" unicode="&#x2260;" horiz-adv-x="508" 
d="M448 342h-124l-44 -80h168v-84h-214l-56 -102h-95l56 102h-79v84h125l43 80h-168v83h214l56 103h96l-56 -103h78v-83z" />
    <glyph glyph-name="dagger" unicode="&#x2020;" horiz-adv-x="440" 
d="M400 534v-84h-132v-450h-96v450h-132v84h132v166h96v-166h132z" />
    <glyph glyph-name="daggerdbl" unicode="&#x2021;" horiz-adv-x="440" 
d="M399 450h-132v-200h132v-83h-132v-167h-95v167h-132v83h132v200h-132v84h132v166h95v-166h132v-84z" />
    <glyph glyph-name="braceleft" unicode="{" horiz-adv-x="347" 
d="M199 555c0 -121 -14 -206 -61 -247c47 -40 61 -126 61 -247c0 -107 39 -120 108 -120v-92c-104 0 -195 29 -195 204c0 138 6 226 -52 226v58c58 0 52 89 52 227c0 175 91 204 195 204v-92c-69 0 -108 -13 -108 -121z" />
    <glyph glyph-name="braceright" unicode="}" horiz-adv-x="347" 
d="M148 555c0 108 -39 121 -108 121v92c104 0 194 -29 194 -204c0 -138 -6 -227 53 -227v-58c-59 0 -53 -88 -53 -226c0 -175 -90 -204 -194 -204v92c69 0 108 13 108 120c0 121 14 207 61 247c-47 41 -61 126 -61 247z" />
    <glyph glyph-name="section" unicode="&#xa7;" horiz-adv-x="557" 
d="M504 236c-8 -58 -42 -99 -86 -124c36 -38 48 -79 44 -128c-6 -99 -80 -171 -182 -171c-101 0 -166 68 -185 145l83 23c10 -43 44 -81 102 -81c62 0 94 47 96 87c2 68 -50 93 -139 134c-168 78 -195 152 -185 227c8 58 43 99 86 124c-35 37 -47 79 -44 128
c7 99 81 171 182 171c102 0 167 -69 186 -145l-83 -23c-10 42 -44 81 -103 81c-62 0 -94 -47 -95 -88c-3 -67 50 -93 138 -134c169 -78 196 -152 185 -226zM415 234c17 58 -28 107 -128 148c-28 11 -53 23 -74 35c-37 -14 -63 -38 -72 -67c-16 -58 29 -107 129 -148
c28 -12 53 -23 74 -35c37 14 63 37 71 67z" />
    <glyph glyph-name="paragraph" unicode="&#xb6;" horiz-adv-x="583" 
d="M533 700v-84h-48v-770h-95v770h-81v-770h-96v528c-96 1 -173 56 -173 163s89 162 173 163h320z" />
    <glyph glyph-name="copyright" unicode="&#xa9;" horiz-adv-x="826" 
d="M419 470c-68 0 -104 -54 -104 -119c0 -64 36 -118 104 -118c40 0 68 18 86 46l67 -33c-30 -52 -84 -87 -153 -87c-109 0 -183 87 -183 192c0 106 74 193 183 193c69 0 123 -35 153 -88l-67 -32c-18 28 -46 46 -86 46zM413 712c200 0 363 -162 363 -363
c0 -200 -163 -363 -363 -363s-363 163 -363 363c0 201 163 363 363 363zM413 64c157 0 285 128 285 285s-128 285 -285 285s-285 -128 -285 -285s128 -285 285 -285z" />
    <glyph glyph-name="registered" unicode="&#xae;" horiz-adv-x="826" 
d="M574 419c0 -50 -28 -91 -74 -109l80 -140h-84l-74 130h-64v-130h-73v368h160c73 0 129 -51 129 -119zM358 465v-93h85c34 0 55 19 55 47s-23 46 -53 46h-87zM413 712c200 0 363 -162 363 -363c0 -200 -163 -363 -363 -363s-363 163 -363 363c0 201 163 363 363 363z
M413 64c157 0 285 128 285 285s-128 285 -285 285s-285 -128 -285 -285s128 -285 285 -285z" />
    <glyph glyph-name="guilsinglleft" unicode="&#x2039;" horiz-adv-x="335" 
d="M275 425l-112 -157l112 -157h-103l-112 157l112 157h103z" />
    <glyph glyph-name="guilsinglright" unicode="&#x203a;" horiz-adv-x="335" 
d="M163 425l112 -157l-112 -157h-103l112 157l-112 157h103z" />
    <glyph glyph-name="exclamdown" unicode="&#xa1;" horiz-adv-x="211" 
d="M72 316h66l21 -526h-107zM105 396c-30 0 -55 25 -55 56c0 30 25 55 55 55c31 0 56 -25 56 -55c0 -31 -25 -56 -56 -56z" />
    <glyph glyph-name="questiondown" unicode="&#xbf;" horiz-adv-x="434" 
d="M324 -20l90 -21c-16 -86 -70 -175 -189 -175c-110 0 -219 79 -175 242c16 61 56 110 92 151c39 45 76 87 78 139h90c-2 -88 -51 -147 -96 -199c-32 -36 -59 -73 -69 -112c-21 -86 23 -125 79 -126c60 -1 91 54 100 101zM263 396c-31 0 -55 25 -55 56c0 30 24 55 55 55
s55 -25 55 -55c0 -31 -24 -56 -55 -56z" />
    <glyph glyph-name="quotedblright" unicode="&#x201d;" horiz-adv-x="343" 
d="M50 538l29 168h90l-69 -168h-50zM213 706h90l-69 -168h-50z" />
    <glyph glyph-name="quotedblleft" unicode="&#x201c;" horiz-adv-x="344" 
d="M254 706h50l-29 -168h-91zM50 538l70 168h50l-29 -168h-91z" />
    <glyph glyph-name="plusminus" unicode="&#xb1;" horiz-adv-x="508" 
d="M296 423h152v-83h-152v-152h-84v152h-152v83h152v152h84v-152zM60 45v84h388v-84h-388z" />
    <glyph glyph-name="quotedbl" unicode="&#x22;" horiz-adv-x="307" 
d="M72 538l-22 168h91l-22 -168h-47zM176 706h91l-22 -168h-47z" />
    <glyph glyph-name="at" unicode="@" horiz-adv-x="950" 
d="M908 266c12 -191 -70 -321 -188 -307c-40 5 -89 31 -114 108c-30 -43 -78 -70 -143 -70c-129 0 -213 104 -213 230c0 125 83 229 213 229c54 0 95 -18 125 -48v28h89v-216c0 -102 5 -164 55 -172c41 -6 98 37 89 206c-11 219 -185 310 -346 310
c-159 0 -310 -74 -341 -281c-19 -124 29 -245 115 -314c97 -78 226 -95 367 -40l32 -84c-156 -66 -324 -46 -455 55c-113 85 -169 241 -148 397c20 147 144 357 430 357c295 0 422 -212 433 -388zM463 85c80 0 121 65 121 142s-40 141 -121 141s-119 -64 -119 -141
s39 -142 119 -142z" />
    <glyph glyph-name="germandbls" unicode="&#xdf;" horiz-adv-x="502" 
d="M348 378c60 -16 124 -84 124 -173c0 -129 -103 -212 -258 -212v87c105 0 162 56 162 131s-53 116 -162 116v89c95 1 127 54 127 106s-35 91 -98 91c-50 0 -102 -29 -102 -143v-470h-96v476c0 179 111 230 201 230c108 0 184 -71 184 -176c0 -70 -36 -128 -82 -152z" />
    <glyph glyph-name="Germandbl" unicode="&#x1e9e;" horiz-adv-x="555" 
d="M348 441c109 -28 172 -108 172 -210c0 -133 -91 -238 -268 -238v95c103 0 173 64 173 146c0 86 -62 135 -173 135v84l97 154h-72c-80 0 -120 -39 -120 -146v-461h-92v461c0 171 70 239 215 239h171v-93z" />
    <glyph glyph-name="oe" unicode="&#x153;" horiz-adv-x="881" 
d="M847 193h-336c15 -60 58 -105 128 -105c51 0 88 24 110 60l88 -42c-39 -68 -109 -113 -198 -113c-81 0 -147 38 -187 96c-40 -58 -106 -96 -187 -96c-140 0 -235 112 -235 248s95 248 235 248c81 0 146 -37 187 -96c39 59 103 96 184 96c141 0 215 -112 215 -248
c0 -16 -1 -32 -4 -48zM636 394c-72 0 -114 -48 -127 -111h244c-10 63 -44 111 -117 111zM265 88c87 0 134 70 134 153s-47 153 -134 153c-88 0 -134 -70 -134 -153s47 -153 134 -153z" />
    <glyph glyph-name="ae" unicode="&#xe6;" horiz-adv-x="835" 
d="M801 193h-336c14 -60 58 -105 128 -105c51 0 88 24 110 60l87 -42c-39 -68 -108 -113 -197 -113c-88 0 -173 50 -202 123c-32 -75 -110 -120 -200 -123c-111 -4 -174 65 -165 144c11 95 77 123 176 149c62 16 115 20 120 54c7 47 -47 68 -88 65c-48 -2 -88 -25 -102 -76
l-86 18c12 61 70 143 195 143c75 0 137 -28 164 -95c40 57 105 94 185 94c140 0 215 -112 215 -248c0 -16 -1 -32 -4 -48zM590 394c-72 0 -114 -48 -127 -111h244c-10 63 -45 111 -117 111zM325 206v21s-43 -12 -107 -28c-86 -22 -91 -63 -88 -82c3 -22 21 -42 74 -38
c49 4 121 51 121 127z" />
    <glyph glyph-name="AE" unicode="&#xc6;" horiz-adv-x="989" 
d="M575 96h370v-96h-465v193h-251l-101 -193h-108l367 700h552v-95h-364v-208h333v-93h-333v-208zM277 285h203v320h-36z" />
    <glyph glyph-name="OE" unicode="&#x152;" horiz-adv-x="1050" 
d="M636 96h369v-96h-465v32c-47 -25 -101 -39 -160 -39c-197 0 -340 160 -340 357s143 356 340 356c59 0 113 -14 160 -40v34h459v-95h-363v-208h332v-93h-332v-208zM139 350c0 -145 97 -262 241 -262c64 0 119 23 160 62v399c-41 38 -96 61 -160 61
c-144 0 -241 -116 -241 -260z" />
    <glyph glyph-name="Dcroat" unicode="&#x110;" horiz-adv-x="714" 
d="M15 392h331v-84h-146v-212h111c164 0 270 98 270 254s-102 255 -269 255h-207v95h207c227 0 367 -146 367 -350s-142 -350 -367 -350h-207v308h-90v84z" />
    <glyph glyph-name="dcroat" unicode="&#x111;" horiz-adv-x="542" 
d="M565 620v-84h-74v-536h-95v52c-36 -37 -85 -59 -147 -59c-140 0 -224 112 -224 248s83 248 224 248c62 0 111 -22 147 -59v106h-107v84h107v80h95v-80h74zM260 88c87 0 131 70 131 153s-43 153 -131 153c-87 0 -131 -70 -131 -153s44 -153 131 -153z" />
    <glyph glyph-name="eth" unicode="&#xf0;" horiz-adv-x="546" 
d="M365 681c192 -174 185 -498 66 -617c-41 -44 -98 -71 -167 -71c-140 0 -239 112 -239 248s93 248 233 248c59 0 115 -27 151 -66c-11 70 -50 140 -107 193l-81 -82l-66 65l70 71c-35 18 -73 30 -113 34l13 86c63 -9 118 -28 164 -54l81 82l66 -65zM264 88
c86 0 134 70 134 153s-47 153 -134 153c-88 0 -134 -70 -134 -153s47 -153 134 -153z" />
    <glyph glyph-name="Oslash" unicode="&#xd8;" 
d="M726 672l-84 -93c49 -62 77 -142 77 -230c0 -197 -143 -356 -340 -356c-79 0 -149 25 -204 68l-81 -89l-62 56l83 93c-48 62 -76 142 -76 229c0 197 143 356 340 356c78 0 148 -25 204 -68l81 90zM138 350c0 -58 16 -112 44 -156l336 372c-38 28 -85 44 -139 44
c-144 0 -241 -116 -241 -260zM620 349c0 59 -16 113 -44 156l-337 -372c39 -28 86 -45 140 -45c145 0 241 117 241 261z" />
    <glyph glyph-name="oslash" unicode="&#xf8;" horiz-adv-x="540" 
d="M519 454l-58 -64c28 -42 44 -93 44 -149c0 -136 -96 -248 -235 -248c-51 0 -96 14 -132 40l-55 -61l-62 56l58 64c-29 42 -45 94 -45 149c0 136 95 248 236 248c50 0 95 -14 132 -39l54 60zM135 241c0 -26 5 -50 14 -71l187 207c-18 11 -41 17 -66 17
c-88 0 -135 -70 -135 -153zM404 241c0 26 -5 50 -13 71l-188 -207c19 -11 41 -17 67 -17c86 0 134 70 134 153z" />
    <glyph glyph-name="Thorn" unicode="&#xde;" horiz-adv-x="591" 
d="M327 567c143 0 229 -92 229 -217s-88 -217 -229 -217h-166v-133h-96v700h96v-133h166zM327 229c84 0 130 52 130 121s-45 121 -130 121h-166v-242h166z" />
    <glyph glyph-name="thorn" unicode="&#xfe;" horiz-adv-x="541" 
d="M287 489c140 0 224 -112 224 -248s-83 -248 -224 -248c-62 0 -111 22 -147 59v-270h-95v924h95v-276c36 37 85 59 147 59zM276 88c87 0 131 70 131 153s-44 153 -131 153s-131 -70 -131 -153s43 -153 131 -153z" />
    <glyph glyph-name="Lslash" unicode="&#x141;" horiz-adv-x="589" 
d="M234 95h325v-95h-420v230l-124 -84v101l124 85v368h95v-303l193 132v-102l-193 -131v-201z" />
    <glyph glyph-name="lslash" unicode="&#x142;" horiz-adv-x="337" 
d="M283 100l49 -67c-38 -36 -96 -50 -145 -35c-60 18 -85 69 -85 157v140l-87 -59v102l87 59v353h96v-288l86 60v-102l-86 -59v-205c0 -36 7 -58 28 -66c18 -7 38 -7 57 10z" />
    <glyph glyph-name="Hbar" unicode="&#x126;" horiz-adv-x="731" 
d="M701 580v-84h-67v-496h-96v304h-346v-304h-95v496h-67v84h67v120h95v-120h346v120h96v-120h67zM538 396v100h-346v-100h346z" />
    <glyph glyph-name="hbar" unicode="&#x127;" horiz-adv-x="522" 
d="M299 489c113 0 178 -78 178 -217v-272h-95v263c0 94 -45 131 -101 131c-59 0 -106 -36 -106 -125v-269h-95v536h-75v84h75v80h95v-80h106v-84h-106v-100c32 33 74 53 124 53z" />
    <glyph glyph-name="Eng" unicode="&#x14a;" horiz-adv-x="659" 
d="M499 700h95v-728c0 -88 -27 -140 -87 -159c-42 -13 -90 -5 -128 19l34 77c19 -8 41 -11 57 -5c21 8 29 30 29 66v35l-339 524v-529h-95v700h92l342 -529v529z" />
    <glyph glyph-name="eng" unicode="&#x14b;" horiz-adv-x="497" 
d="M268 489c114 0 179 -78 179 -217v-300c0 -88 -27 -140 -87 -159c-42 -13 -91 -5 -128 19l33 77c19 -8 42 -11 57 -5c21 8 30 30 30 66v293c0 94 -45 131 -101 131c-59 0 -106 -36 -106 -125v-269h-96v482h96v-46c31 33 73 53 123 53z" />
    <glyph glyph-name="Tbar" unicode="&#x166;" horiz-adv-x="567" 
d="M537 604h-206v-177h148v-84h-148v-343h-95v343h-148v84h148v177h-206v96h507v-96z" />
    <glyph glyph-name="tbar" unicode="&#x167;" horiz-adv-x="338" 
d="M44 318h36v78h-65v86h65v101l95 26v-127h99v-86h-99v-78h68v-84h-68v-75c0 -43 9 -61 30 -69c20 -8 50 1 66 17l52 -73c-37 -36 -107 -50 -156 -35c-60 19 -87 68 -87 156v79h-36v84z" />
    <glyph glyph-name="Eth" unicode="&#xd0;" horiz-adv-x="714" 
d="M15 392h331v-84h-146v-212h111c164 0 270 98 270 254s-102 255 -269 255h-207v95h207c227 0 367 -146 367 -350s-142 -350 -367 -350h-207v308h-90v84z" />
    <glyph glyph-name="ruble" unicode="&#x20bd;" horiz-adv-x="659" 
d="M390 700c142 0 229 -98 229 -223c0 -124 -89 -225 -229 -225h-350v95h88v353h262zM390 347c84 0 130 61 130 130s-45 128 -130 128h-167v-258h167zM40 200h403v-84h-220v-116h-95v116h-88v84z" />
    <glyph glyph-name="quotesingle" unicode="'" horiz-adv-x="181" 
d="M50 706h91l-22 -168h-47z" />
    <glyph glyph-name="uni2116" unicode="&#x2116;" horiz-adv-x="1044" 
d="M835 419c-79 0 -143 64 -143 144c0 79 64 143 143 143c80 0 144 -64 144 -143c0 -80 -64 -144 -144 -144zM835 628c-36 0 -65 -29 -65 -65c0 -37 29 -66 65 -66c37 0 66 29 66 66c0 36 -29 65 -66 65zM696 278v84h283v-84h-283zM499 700h96v-707h-9l-426 467v-460h-95
v706h8l426 -471v465z" />
    <glyph glyph-name="uni0404" unicode="&#x404;" horiz-adv-x="704" 
d="M380 705c126 0 229 -65 288 -164l-87 -43c-42 67 -112 111 -201 111c-145 0 -242 -116 -242 -260c0 -145 97 -261 242 -261c89 0 159 44 201 112l87 -44c-59 -98 -162 -163 -288 -163c-197 0 -340 159 -340 356s143 356 340 356zM283 302v95h182v-95h-182z" />
    <glyph glyph-name="uni0490" unicode="&#x490;" horiz-adv-x="475" 
d="M344 827h96v-222h-280v-605h-95v700h279v127z" />
    <glyph glyph-name="uni0409" unicode="&#x409;" horiz-adv-x="1033" 
d="M770 434c140 0 228 -92 228 -217s-86 -217 -228 -217h-274v605h-215c0 -258 -21 -486 -125 -573c-38 -33 -80 -44 -141 -35l17 94c33 -5 53 5 63 14c91 75 91 406 91 595h405v-266h179zM770 95c84 0 130 53 130 122s-46 122 -130 122h-179v-244h179z" />
    <glyph glyph-name="uni040A" unicode="&#x40a;" horiz-adv-x="1041" 
d="M777 398c141 0 229 -71 229 -195c0 -125 -86 -203 -229 -203h-271v304h-346v-304h-95v700h95v-304h346v304h96v-302h175zM777 95c85 0 130 39 130 108c0 68 -46 99 -130 99h-175v-207h175z" />
    <glyph glyph-name="uni040B" unicode="&#x40b;" horiz-adv-x="702" 
d="M478 460c114 0 179 -79 179 -218v-243h-96v234c0 94 -45 131 -100 131c-45 0 -97 -22 -130 -48v-316h-96v605h-205v95h507v-95h-206v-200c42 31 101 55 147 55z" />
    <glyph glyph-name="uni0402" unicode="&#x402;" horiz-adv-x="699" 
d="M475 460c114 0 179 -79 179 -218v-84c0 -89 -27 -140 -88 -159c-41 -13 -90 -5 -128 19l34 77c19 -8 42 -11 57 -5c21 8 29 30 29 66v77c0 94 -45 131 -100 131c-44 0 -94 -20 -127 -46v-318h-96v605h-205v95h507v-95h-206v-197c42 29 99 52 144 52z" />
    <glyph glyph-name="uni040F" unicode="&#x40f;" horiz-adv-x="635" 
d="M474 700h96v-700h-205v-127h-96v127h-204v700h95v-605h314v605z" />
    <glyph glyph-name="uni0454" unicode="&#x454;" horiz-adv-x="478" 
d="M266 88c51 0 88 24 110 60l87 -42c-39 -68 -108 -113 -197 -113c-141 0 -236 112 -236 248s95 248 236 248c89 0 158 -45 197 -113l-87 -42c-22 36 -59 60 -110 60c-72 0 -116 -46 -130 -108h192v-90h-192c14 -62 58 -108 130 -108z" />
    <glyph glyph-name="uni0491" unicode="&#x491;" horiz-adv-x="382" 
d="M352 601v-214h-212v-387h-95v482h211v119h96z" />
    <glyph glyph-name="uni0459" unicode="&#x459;" horiz-adv-x="758" 
d="M563 312c104 0 170 -66 170 -156c0 -89 -71 -156 -167 -156h-215v387h-125c-5 -184 -16 -311 -85 -367c-32 -26 -76 -30 -126 -26l20 93c25 -5 39 1 46 7c60 49 50 258 50 388h315v-170h117zM566 95c39 0 69 24 69 61s-27 61 -72 61h-117v-122h120z" />
    <glyph glyph-name="uni045A" unicode="&#x45a;" horiz-adv-x="745" 
d="M549 286c105 0 171 -49 171 -138c0 -90 -72 -148 -168 -148h-209v196h-202v-196h-96v482h96v-196h202v196h96v-196h110zM552 93c40 0 70 18 70 55c0 36 -28 48 -73 48h-110v-103h113z" />
    <glyph glyph-name="uni045B" unicode="&#x45b;" horiz-adv-x="523" 
d="M299 489c114 0 179 -78 179 -217v-272h-96v263c0 94 -45 131 -100 131c-59 0 -107 -35 -107 -125v-269h-95v537h-75v83h75v80h95v-80h106v-83h-106v-101c32 34 74 53 124 53z" />
    <glyph glyph-name="uni0452" unicode="&#x452;" horiz-adv-x="522" 
d="M477 272v-300c0 -89 -27 -140 -88 -159c-41 -14 -90 -5 -128 19l34 77c19 -8 42 -11 57 -5c21 8 29 30 29 66v293c0 94 -45 131 -100 131c-59 0 -107 -35 -107 -125v-269h-95v537h-74v83h74v80h95v-80h107v-83h-107v-101c32 34 74 53 124 53c114 0 179 -78 179 -217z" />
    <glyph glyph-name="uni045F" unicode="&#x45f;" horiz-adv-x="480" 
d="M335 482h95v-482h-145v-115h-95v115h-145v482h96v-387h194v387z" />
    <glyph glyph-name="uni0405" unicode="&#x405;" horiz-adv-x="605" 
d="M35 149l91 38c12 -27 44 -59 77 -75l-42 -88c-60 28 -105 76 -126 125zM316 403c142 -40 249 -84 249 -210c0 -109 -87 -203 -248 -203c-17 0 -33 1 -48 3l45 94c84 -1 150 40 150 103s-63 87 -182 121c-140 40 -232 83 -228 204c3 114 96 192 241 192c33 0 62 -4 89 -12
l-54 -86c-9 1 -22 2 -32 2c-103 0 -142 -50 -142 -99c0 -54 49 -78 160 -109z" />
    <glyph glyph-name="uni0455" unicode="&#x455;" horiz-adv-x="420" 
d="M394 154c8 -94 -67 -163 -177 -163s-179 57 -202 123l90 32c11 -30 43 -60 108 -60c64 0 89 31 85 58c-3 23 -32 37 -107 52c-93 19 -150 48 -162 121c-13 76 38 172 171 172c124 0 170 -86 178 -116l-90 -31c-11 33 -50 54 -88 54c-64 0 -76 -33 -76 -51
c0 -26 20 -48 98 -62c110 -20 166 -53 172 -129z" />
    <glyph glyph-name="uni0406" unicode="&#x406;" horiz-adv-x="225" 
d="M65 489h95v-489h-95v489zM65 700h95v-113h-95v113z" />
    <glyph glyph-name="uni0456" unicode="&#x456;" horiz-adv-x="206" 
d="M53 0v482h95v-482h-95zM101 556c-31 0 -56 25 -56 56c0 30 25 55 56 55c30 0 55 -25 55 -55c0 -31 -25 -56 -55 -56z" />
    <glyph glyph-name="uni0458" unicode="&#x458;" horiz-adv-x="219" 
d="M65 482h96v-542c0 -88 -28 -140 -88 -159c-42 -13 -90 -5 -128 20l34 76c19 -8 41 -11 57 -5c21 9 29 30 29 66v544zM118 556c-30 0 -55 25 -55 56c0 30 25 55 55 55c31 0 56 -25 56 -55c0 -31 -25 -56 -56 -56z" />
    <glyph glyph-name="uni0408" unicode="&#x408;" horiz-adv-x="420" 
d="M260 489h95v-289c0 -136 -62 -207 -177 -207c-72 0 -135 34 -163 71l66 64c19 -19 50 -40 92 -40c54 0 87 36 87 107v294zM260 700h95v-113h-95v113z" />
    <glyph glyph-name="quoteleft" unicode="&#x2018;" horiz-adv-x="210" 
d="M50 538l70 168h50l-29 -168h-91z" />
    <glyph glyph-name="quoteright" unicode="&#x2019;" horiz-adv-x="209" 
d="M79 706h90l-69 -168h-50z" />
    <glyph glyph-name="ellipsis" unicode="&#x2026;" horiz-adv-x="601" 
d="M106 -28c-31 0 -56 25 -56 56c0 30 25 55 56 55c30 0 55 -25 55 -55c0 -31 -25 -56 -55 -56zM296 -28c-31 0 -56 25 -56 56c0 30 25 55 56 55c30 0 55 -25 55 -55c0 -31 -25 -56 -55 -56zM486 -28c-31 0 -56 25 -56 56c0 30 25 55 56 55c30 0 55 -25 55 -55
c0 -31 -25 -56 -55 -56z" />
    <glyph glyph-name="perthousand" unicode="&#x2030;" horiz-adv-x="1053" 
d="M523 700h107l-438 -700h-107zM317 563c0 -79 -64 -144 -143 -144s-144 65 -144 144s65 143 144 143s143 -64 143 -143zM108 563c0 -36 30 -66 66 -66s65 30 65 66s-29 65 -65 65s-66 -29 -66 -65zM539 280c79 0 144 -65 144 -144s-65 -143 -144 -143s-144 64 -144 143
s65 144 144 144zM539 71c36 0 65 29 65 65s-29 66 -65 66s-66 -30 -66 -66s30 -65 66 -65zM879 280c79 0 144 -65 144 -144s-65 -143 -144 -143s-144 64 -144 143s65 144 144 144zM879 71c36 0 65 29 65 65s-29 66 -65 66s-66 -30 -66 -66s30 -65 66 -65z" />
    <glyph glyph-name="ring" unicode="&#x2da;" horiz-adv-x="300" 
d="M150 775c61 0 110 -49 110 -110s-49 -110 -110 -110c-60 0 -110 49 -110 110s50 110 110 110zM150 622c24 0 44 19 44 43s-20 43 -44 43s-43 -19 -43 -43s19 -43 43 -43z" />
    <glyph glyph-name="dotaccent" unicode="&#x2d9;" horiz-adv-x="179" 
d="M89 678c27 0 50 -23 50 -50s-23 -49 -50 -49s-49 22 -49 49s22 50 49 50z" />
    <glyph glyph-name="dieresis" unicode="&#xa8;" horiz-adv-x="340" 
d="M89 678c27 0 49 -23 49 -50s-22 -49 -49 -49s-49 22 -49 49s22 50 49 50zM251 678c27 0 49 -23 49 -50s-22 -49 -49 -49c-28 0 -50 22 -50 49s22 50 50 50z" />
    <glyph glyph-name="breve" unicode="&#x2d8;" horiz-adv-x="328" 
d="M213 700h75c0 -68 -55 -124 -124 -124c-68 0 -124 56 -124 124h75c0 -27 22 -49 49 -49s49 22 49 49z" />
    <glyph glyph-name="circumflex" unicode="&#x2c6;" horiz-adv-x="390" 
d="M239 700l112 -136h-101l-54 70l-55 -70h-100l111 136h87z" />
    <glyph glyph-name="caron" unicode="&#x2c7;" horiz-adv-x="390" 
d="M352 700l-112 -136h-87l-111 136h100l55 -70l54 70h101z" />
    <glyph glyph-name="acute" unicode="&#xb4;" horiz-adv-x="251" 
d="M116 700h95l-101 -136h-70z" />
    <glyph glyph-name="grave" unicode="`" horiz-adv-x="271" 
d="M145 700l76 -136h-70l-101 136h95z" />
    <glyph glyph-name="tilde" unicode="&#x2dc;" horiz-adv-x="458" 
d="M339 702l79 -28c-49 -131 -136 -108 -195 -75c-66 37 -79 23 -108 -22l-75 40c55 103 121 109 203 65c52 -28 77 -35 96 20z" />
    <glyph glyph-name="macron" unicode="&#xaf;" horiz-adv-x="340" 
d="M40 673h260v-84h-260v84z" />
    <glyph glyph-name="cedilla" unicode="&#xb8;" horiz-adv-x="262" 
d="M134 -50c56 5 88 -34 88 -72c0 -28 -17 -61 -45 -74c-38 -18 -92 -13 -137 17l27 46c36 -27 77 -26 91 -7c11 15 8 38 -12 44c-10 2 -27 1 -41 -11l-48 30l40 79h63z" />
    <glyph glyph-name="commaaccent" unicode="&#xf6c3;" horiz-adv-x="199" 
d="M69 -77h90l-57 -131h-62z" />
    <glyph glyph-name="ogonek" unicode="&#x2db;" horiz-adv-x="230" 
d="M106 -116c10 -19 48 -17 69 0v-77c-15 -6 -31 -9 -46 -9c-51 0 -93 33 -88 89c4 55 54 101 76 114h73c-42 -19 -103 -77 -84 -117z" />
    <glyph glyph-name="Aogonek" unicode="&#x104;" horiz-adv-x="637" 
d="M522 -116c10 -20 48 -18 69 0v-78c-16 -6 -31 -9 -47 -9c-51 0 -93 34 -88 90c5 54 54 100 76 113h-20l-193 557l-194 -557h-105l252 700h93l252 -700h-13c-42 -19 -102 -77 -82 -116z" />
    <glyph glyph-name="Ccedilla" unicode="&#xc7;" horiz-adv-x="704" 
d="M381 88c89 0 159 44 201 112l87 -44c-55 -93 -151 -156 -269 -163l-22 -44c55 6 87 -33 87 -71c0 -28 -17 -61 -45 -74c-38 -18 -92 -13 -137 17l27 46c36 -27 76 -25 91 -7c13 14 9 38 -12 43c-10 3 -26 1 -40 -10l-48 30l37 72c-175 21 -298 171 -298 354
c0 198 143 357 341 357c126 0 230 -65 288 -164l-87 -43c-42 67 -112 111 -201 111c-145 0 -242 -116 -242 -261c0 -144 97 -261 242 -261zM322 348c0 34 28 61 61 61s60 -27 60 -61c0 -33 -27 -60 -60 -60s-61 27 -61 60z" />
    <glyph glyph-name="Eogonek" unicode="&#x118;" horiz-adv-x="575" 
d="M448 -116c10 -20 47 -18 68 0v-78c-15 -6 -31 -9 -46 -9c-51 0 -93 34 -88 90c5 54 54 100 76 113h-393v96h465v-96c-42 -19 -102 -77 -82 -116zM524 700v-95h-459v95h459zM493 397v-93h-428v93h428z" />
    <glyph glyph-name="Iogonek" unicode="&#x12e;" horiz-adv-x="225" 
d="M65 700h95v-113h-95v113zM65 0v489h95v-489h-9c-42 -20 -102 -77 -82 -116c10 -20 48 -18 69 0v-78c-16 -6 -31 -9 -47 -9c-51 0 -93 34 -88 90c5 54 54 100 76 113h-14z" />
    <glyph glyph-name="Scedilla" unicode="&#x15e;" horiz-adv-x="605" 
d="M565 193c0 -106 -82 -198 -234 -203l-22 -40c56 6 88 -34 88 -72c0 -28 -17 -61 -45 -74c-38 -18 -93 -13 -137 17l27 46c36 -27 75 -25 91 -7c13 14 8 39 -12 44c-10 3 -27 0 -41 -11l-48 30l86 164c83 1 146 40 146 103s-63 87 -182 121c-140 40 -232 83 -228 204
c4 114 96 192 241 192c33 0 62 -4 89 -12l-54 -86c-9 1 -22 2 -32 2c-103 0 -143 -50 -143 -99c0 -54 50 -78 161 -109c143 -40 249 -84 249 -210zM35 149l90 38c13 -27 42 -58 77 -75l-47 -86c-57 29 -98 73 -120 123z" />
    <glyph glyph-name="Uogonek" unicode="&#x172;" horiz-adv-x="650" 
d="M325 88c96 0 167 53 169 191l94 -41c-11 -105 -60 -175 -132 -215c-41 -36 -91 -106 -74 -139c10 -20 47 -18 68 0v-78c-15 -6 -31 -9 -46 -9c-51 0 -93 34 -88 90c4 42 41 87 68 111c-19 -3 -39 -5 -59 -5c-152 0 -265 100 -265 289v207h95v-204
c0 -142 72 -197 170 -197zM494 700h96v-344l-96 41v303zM155 700v-113h-95v113h95z" />
    <glyph glyph-name="aogonek" unicode="&#x105;" horiz-adv-x="464" 
d="M327 -116c10 -19 48 -17 69 0v-77c-15 -6 -31 -9 -46 -9c-51 0 -93 33 -88 89c4 54 52 99 74 113h-11v57c-18 -21 -59 -57 -134 -64c-113 -10 -174 65 -165 144c11 95 77 123 176 149c62 16 115 20 120 54c7 47 -47 68 -88 65c-48 -2 -88 -25 -102 -76l-86 18
c12 61 70 143 195 143c101 0 178 -49 178 -177v-313h-10c-42 -20 -101 -76 -82 -116zM325 206v21s-43 -12 -107 -28c-86 -22 -91 -63 -88 -82c3 -22 21 -42 74 -38c49 4 121 51 121 127z" />
    <glyph glyph-name="ccedilla" unicode="&#xe7;" horiz-adv-x="483" 
d="M265 88c51 0 88 24 110 60l88 -42c-37 -63 -99 -107 -179 -112l-23 -44c56 5 88 -34 88 -72c0 -28 -18 -61 -45 -74c-39 -18 -93 -13 -138 17l27 46c37 -27 76 -25 92 -7c12 14 8 38 -13 44c-9 2 -26 1 -40 -11l-48 30l38 74c-116 20 -192 123 -192 244
c0 136 95 249 235 249c89 0 159 -46 198 -113l-88 -43c-22 36 -59 60 -110 60c-87 0 -134 -70 -134 -153s47 -153 134 -153z" />
    <glyph glyph-name="eogonek" unicode="&#x119;" horiz-adv-x="508" 
d="M474 193h-337c15 -60 58 -105 128 -105c51 0 88 24 110 60l88 -42c-19 -33 -45 -61 -77 -80c-42 -35 -94 -108 -77 -142c10 -20 47 -18 68 0v-78c-15 -6 -31 -8 -46 -8c-51 0 -93 33 -88 89c3 41 40 85 66 110c-14 -3 -28 -4 -44 -4c-140 0 -235 112 -235 248
s92 249 232 249c141 0 216 -113 216 -249c0 -16 -2 -32 -4 -48zM262 394c-72 0 -114 -48 -127 -111h244c-10 63 -44 111 -117 111z" />
    <glyph glyph-name="iogonek" unicode="&#x12f;" horiz-adv-x="206" 
d="M101 556c-31 0 -56 25 -56 56c0 30 25 55 56 55c30 0 55 -25 55 -55c0 -31 -25 -56 -55 -56zM52 0v482h96v-482h-9c-43 -19 -102 -77 -83 -116c10 -20 48 -18 69 0v-78c-15 -6 -31 -8 -46 -8c-51 0 -93 33 -88 89c4 54 54 100 76 113h-15z" />
    <glyph glyph-name="scedilla" unicode="&#x15f;" horiz-adv-x="420" 
d="M394 154c7 -86 -56 -152 -152 -162l-23 -42c55 5 88 -34 88 -72c0 -28 -18 -61 -46 -74c-38 -18 -92 -13 -137 17l27 46c36 -27 76 -25 91 -7c13 14 9 38 -12 44c-9 2 -26 1 -40 -11l-48 30l37 70c-88 11 -144 63 -164 121l90 32c11 -30 43 -60 108 -60c64 0 89 31 85 58
c-3 23 -32 37 -107 52c-93 19 -150 48 -162 121c-13 76 37 172 171 172c124 0 170 -86 178 -116l-90 -31c-11 33 -50 54 -88 54c-64 0 -76 -33 -76 -51c0 -26 20 -48 98 -62c109 -20 166 -53 172 -129z" />
    <glyph glyph-name="uogonek" unicode="&#x173;" horiz-adv-x="487" 
d="M342 482h95v-272c0 -103 -46 -173 -116 -202c-42 -19 -105 -85 -86 -124c10 -20 48 -18 69 0v-78c-15 -6 -31 -9 -46 -9c-51 0 -93 34 -88 90c4 47 41 87 65 106c-110 3 -190 81 -190 217v272h96v-263c0 -94 45 -131 100 -131c56 0 101 37 101 131v263z" />
    <glyph glyph-name="hungarumlaut" unicode="&#x2dd;" horiz-adv-x="412" 
d="M122 700h95l-101 -136h-70zM271 700h95l-101 -136h-70z" />
    <glyph glyph-name="Ncommaaccent" unicode="&#x145;" horiz-adv-x="660" 
d="M499 700h96v-707h-9l-426 467v-460h-95v706h8l426 -471v465zM289 -77h90l-57 -131h-62z" />
    <glyph glyph-name="Kcommaaccent" unicode="&#x136;" horiz-adv-x="611" 
d="M475 0l-214 305h-100v-305h-96v700h96v-303h84l208 303h122l-237 -337l258 -363h-121zM260 -77h90l-57 -131h-62z" />
    <glyph glyph-name="Lcommaaccent" unicode="&#x13b;" horiz-adv-x="516" 
d="M161 700v-113h-96v113h96zM161 489v-308l-96 -95v403h96zM223 96h263v-96h-360zM245 -77h90l-57 -131h-62z" />
    <glyph glyph-name="Scommaaccent" unicode="&#x218;" horiz-adv-x="605" 
d="M35 149l91 38c12 -27 44 -59 77 -75l-42 -88c-60 28 -105 76 -126 125zM316 403c142 -40 249 -84 249 -210c0 -109 -87 -203 -248 -203c-17 0 -33 1 -48 3l45 94c84 -1 150 40 150 103s-63 87 -182 121c-140 40 -232 83 -228 204c3 114 96 192 241 192c33 0 62 -4 89 -12
l-54 -86c-9 1 -22 2 -32 2c-103 0 -142 -50 -142 -99c0 -54 49 -78 160 -109zM245 -77h90l-57 -131h-62z" />
    <glyph glyph-name="Acircumflex" unicode="&#xc2;" horiz-adv-x="636" 
d="M364 700l252 -700h-105l-193 557l-193 -557h-105l251 700h93zM362 900l112 -136h-101l-54 70l-55 -70h-100l111 136h87z" />
    <glyph glyph-name="Aacute" unicode="&#xc1;" horiz-adv-x="636" 
d="M364 700l252 -700h-105l-193 557l-193 -557h-105l251 700h93zM369 900h95l-101 -136h-70z" />
    <glyph glyph-name="Abreve" unicode="&#x102;" horiz-adv-x="636" 
d="M364 700l252 -700h-105l-193 557l-193 -557h-105l251 700h93zM367 900h75c0 -68 -55 -124 -124 -124c-68 0 -124 56 -124 124h75c0 -27 22 -49 49 -49s49 22 49 49z" />
    <glyph glyph-name="Agrave" unicode="&#xc0;" horiz-adv-x="636" 
d="M364 700l252 -700h-105l-193 557l-193 -557h-105l251 700h93zM268 900l76 -136h-70l-101 136h95z" />
    <glyph glyph-name="Adieresis" unicode="&#xc4;" horiz-adv-x="636" 
d="M364 700l252 -700h-105l-193 557l-193 -557h-105l251 700h93zM237 878c27 0 49 -23 49 -50s-22 -49 -49 -49s-49 22 -49 49s22 50 49 50zM399 878c27 0 49 -23 49 -50s-22 -49 -49 -49c-28 0 -50 22 -50 49s22 50 50 50z" />
    <glyph glyph-name="Amacron" unicode="&#x100;" horiz-adv-x="636" 
d="M364 700l252 -700h-105l-193 557l-193 -557h-105l251 700h93zM188 873h260v-84h-260v84z" />
    <glyph glyph-name="Aring" unicode="&#xc5;" horiz-adv-x="636" 
d="M364 700l252 -700h-105l-193 557l-193 -557h-105l251 700h93zM318 975c61 0 110 -49 110 -110s-49 -110 -110 -110c-60 0 -110 49 -110 110s50 110 110 110zM318 822c24 0 44 19 44 43s-20 43 -44 43s-43 -19 -43 -43s19 -43 43 -43z" />
    <glyph glyph-name="Atilde" unicode="&#xc3;" horiz-adv-x="636" 
d="M364 700l252 -700h-105l-193 557l-193 -557h-105l251 700h93zM427 902l79 -28c-49 -131 -136 -108 -195 -75c-66 37 -79 23 -108 -22l-75 40c55 103 121 109 203 65c52 -28 77 -35 96 20z" />
    <glyph glyph-name="AEacute" unicode="&#x1fc;" horiz-adv-x="989" 
d="M575 96h370v-96h-465v193h-251l-101 -193h-108l367 700h552v-95h-364v-208h333v-93h-333v-208zM277 285h203v320h-36zM582 900h95l-101 -136h-70z" />
    <glyph glyph-name="Cacute" unicode="&#x106;" horiz-adv-x="703" 
d="M380 88c89 0 160 44 201 112l88 -44c-59 -98 -163 -163 -289 -163c-197 0 -340 159 -340 356c0 198 143 357 340 357c126 0 230 -65 289 -164l-88 -43c-41 67 -112 111 -201 111c-145 0 -242 -116 -242 -261c0 -144 97 -261 242 -261zM322 348c0 33 27 61 60 61
c34 0 61 -28 61 -61s-27 -60 -61 -60c-33 0 -60 27 -60 60zM415 900h95l-101 -136h-70z" />
    <glyph glyph-name="Ccaron" unicode="&#x10c;" horiz-adv-x="703" 
d="M380 88c89 0 160 44 201 112l88 -44c-59 -98 -163 -163 -289 -163c-197 0 -340 159 -340 356c0 198 143 357 340 357c126 0 230 -65 289 -164l-88 -43c-41 67 -112 111 -201 111c-145 0 -242 -116 -242 -261c0 -144 97 -261 242 -261zM322 348c0 33 27 61 60 61
c34 0 61 -28 61 -61s-27 -60 -61 -60c-33 0 -60 27 -60 60zM521 900l-112 -136h-87l-111 136h100l55 -70l54 70h101z" />
    <glyph glyph-name="Ccircumflex" unicode="&#x108;" horiz-adv-x="703" 
d="M380 88c89 0 160 44 201 112l88 -44c-59 -98 -163 -163 -289 -163c-197 0 -340 159 -340 356c0 198 143 357 340 357c126 0 230 -65 289 -164l-88 -43c-41 67 -112 111 -201 111c-145 0 -242 -116 -242 -261c0 -144 97 -261 242 -261zM322 348c0 33 27 61 60 61
c34 0 61 -28 61 -61s-27 -60 -61 -60c-33 0 -60 27 -60 60zM408 900l112 -136h-101l-54 70l-55 -70h-100l111 136h87z" />
    <glyph glyph-name="Cdotaccent" unicode="&#x10a;" horiz-adv-x="703" 
d="M380 88c89 0 160 44 201 112l88 -44c-59 -98 -163 -163 -289 -163c-197 0 -340 159 -340 356c0 198 143 357 340 357c126 0 230 -65 289 -164l-88 -43c-41 67 -112 111 -201 111c-145 0 -242 -116 -242 -261c0 -144 97 -261 242 -261zM322 348c0 33 27 61 60 61
c34 0 61 -28 61 -61s-27 -60 -61 -60c-33 0 -60 27 -60 60zM364 878c27 0 50 -23 50 -50s-23 -49 -50 -49s-49 22 -49 49s22 50 49 50z" />
    <glyph glyph-name="Dcaron" unicode="&#x10e;" horiz-adv-x="674" 
d="M272 700c227 0 367 -146 367 -350s-142 -350 -367 -350h-207v338h95v-242h111c164 0 270 98 270 254s-102 255 -269 255h-207v95h207zM469 900l-112 -136h-87l-111 136h100l55 -70l54 70h101z" />
    <glyph glyph-name="Eacute" unicode="&#xc9;" horiz-adv-x="569" 
d="M65 96h465v-96h-465v96zM493 397v-93h-428v93h428zM524 700v-95h-459v95h459zM318 900h95l-101 -136h-70z" />
    <glyph glyph-name="Ebreve" unicode="&#x114;" horiz-adv-x="569" 
d="M65 96h465v-96h-465v96zM493 397v-93h-428v93h428zM524 700v-95h-459v95h459zM346 900h75c0 -68 -55 -124 -124 -124c-68 0 -124 56 -124 124h75c0 -27 22 -49 49 -49s49 22 49 49z" />
    <glyph glyph-name="Ecaron" unicode="&#x11a;" horiz-adv-x="569" 
d="M65 96h465v-96h-465v96zM493 397v-93h-428v93h428zM524 700v-95h-459v95h459zM454 900l-112 -136h-87l-111 136h100l55 -70l54 70h101z" />
    <glyph glyph-name="Ecircumflex" unicode="&#xca;" horiz-adv-x="569" 
d="M65 96h465v-96h-465v96zM493 397v-93h-428v93h428zM524 700v-95h-459v95h459zM341 900l112 -136h-101l-54 70l-55 -70h-100l111 136h87z" />
    <glyph glyph-name="Edieresis" unicode="&#xcb;" horiz-adv-x="569" 
d="M65 96h465v-96h-465v96zM493 397v-93h-428v93h428zM524 700v-95h-459v95h459zM216 878c27 0 49 -23 49 -50s-22 -49 -49 -49s-49 22 -49 49s22 50 49 50zM378 878c27 0 49 -23 49 -50s-22 -49 -49 -49c-28 0 -50 22 -50 49s22 50 50 50z" />
    <glyph glyph-name="Edotaccent" unicode="&#x116;" horiz-adv-x="569" 
d="M65 96h465v-96h-465v96zM493 397v-93h-428v93h428zM524 700v-95h-459v95h459zM297 878c27 0 50 -23 50 -50s-23 -49 -50 -49s-49 22 -49 49s22 50 49 50z" />
    <glyph glyph-name="Egrave" unicode="&#xc8;" horiz-adv-x="569" 
d="M65 96h465v-96h-465v96zM493 397v-93h-428v93h428zM524 700v-95h-459v95h459zM267 900l76 -136h-70l-101 136h95z" />
    <glyph glyph-name="Emacron" unicode="&#x112;" horiz-adv-x="569" 
d="M65 96h465v-96h-465v96zM493 397v-93h-428v93h428zM524 700v-95h-459v95h459zM167 873h260v-84h-260v84z" />
    <glyph glyph-name="Gbreve" unicode="&#x11e;" horiz-adv-x="722" 
d="M572 393h95v-291c-47 -64 -156 -124 -298 -109c-196 20 -329 159 -329 356c0 198 134 344 331 357c110 7 211 -28 276 -80l-49 -72c-41 33 -124 63 -218 56c-136 -9 -242 -116 -242 -261c0 -144 104 -244 240 -261c89 -11 157 15 194 48v257zM424 900h75
c0 -68 -55 -124 -124 -124c-68 0 -124 56 -124 124h75c0 -27 22 -49 49 -49s49 22 49 49z" />
    <glyph glyph-name="Gcircumflex" unicode="&#x11c;" horiz-adv-x="722" 
d="M572 393h95v-291c-47 -64 -156 -124 -298 -109c-196 20 -329 159 -329 356c0 198 134 344 331 357c110 7 211 -28 276 -80l-49 -72c-41 33 -124 63 -218 56c-136 -9 -242 -116 -242 -261c0 -144 104 -244 240 -261c89 -11 157 15 194 48v257zM419 900l112 -136h-101
l-54 70l-55 -70h-100l111 136h87z" />
    <glyph glyph-name="Gcommaaccent" unicode="&#x122;" horiz-adv-x="722" 
d="M572 393h95v-291c-47 -64 -156 -124 -298 -109c-196 20 -329 159 -329 356c0 198 134 344 331 357c110 7 211 -28 276 -80l-49 -72c-41 33 -124 63 -218 56c-136 -9 -242 -116 -242 -261c0 -144 104 -244 240 -261c89 -11 157 15 194 48v257zM324 -77h90l-57 -131h-62z
" />
    <glyph glyph-name="Gdotaccent" unicode="&#x120;" horiz-adv-x="722" 
d="M572 393h95v-291c-47 -64 -156 -124 -298 -109c-196 20 -329 159 -329 356c0 198 134 344 331 357c110 7 211 -28 276 -80l-49 -72c-41 33 -124 63 -218 56c-136 -9 -242 -116 -242 -261c0 -144 104 -244 240 -261c89 -11 157 15 194 48v257zM374 878c27 0 50 -23 50 -50
s-23 -49 -50 -49s-49 22 -49 49s22 50 49 50z" />
    <glyph glyph-name="Hcircumflex" unicode="&#x124;" horiz-adv-x="667" 
d="M65 0v188h95v-188h-95zM506 700h96v-188h-96v188zM160 397h442v-397h-96v304h-441v396h95v-303zM378 900l112 -136h-101l-54 70l-55 -70h-100l111 136h87z" />
    <glyph glyph-name="Iacute" unicode="&#xcd;" horiz-adv-x="225" 
d="M65 489h95v-489h-95v489zM65 700h95v-113h-95v113zM153 900h95l-101 -136h-70z" />
    <glyph glyph-name="Ibreve" unicode="&#x12c;" horiz-adv-x="225" 
d="M65 489h95v-489h-95v489zM65 700h95v-113h-95v113zM162 900h75c0 -68 -55 -124 -124 -124c-68 0 -124 56 -124 124h75c0 -27 22 -49 49 -49s49 22 49 49z" />
    <glyph glyph-name="Icircumflex" unicode="&#xce;" horiz-adv-x="220" 
d="M61 489h95v-489h-95v489zM61 700h95v-113h-95v113zM153 900l112 -136h-101l-54 70l-55 -70h-100l111 136h87z" />
    <glyph glyph-name="Idieresis" unicode="&#xcf;" horiz-adv-x="225" 
d="M66 489h95v-489h-95v489zM66 700h95v-113h-95v113zM33 878c27 0 49 -23 49 -50s-22 -49 -49 -49s-49 22 -49 49s22 50 49 50zM195 878c27 0 49 -23 49 -50s-22 -49 -49 -49c-28 0 -50 22 -50 49s22 50 50 50z" />
    <glyph glyph-name="Idotaccent" unicode="&#x130;" horiz-adv-x="225" 
d="M65 489h95v-489h-95v489zM65 700h95v-113h-95v113zM112 878c27 0 50 -23 50 -50s-23 -49 -50 -49s-49 22 -49 49s22 50 49 50z" />
    <glyph glyph-name="Igrave" unicode="&#xcc;" horiz-adv-x="225" 
d="M65 489h95v-489h-95v489zM65 700h95v-113h-95v113zM72 900l76 -136h-70l-101 136h95z" />
    <glyph glyph-name="Imacron" unicode="&#x12a;" horiz-adv-x="225" 
d="M63 489h95v-489h-95v489zM63 700h95v-113h-95v113zM-19 873h260v-84h-260v84z" />
    <glyph glyph-name="Itilde" unicode="&#x128;" horiz-adv-x="248" 
d="M77 489h95v-489h-95v489zM77 700h95v-113h-95v113zM234 902l79 -28c-49 -131 -136 -108 -195 -75c-66 37 -79 23 -108 -22l-75 40c55 103 121 109 203 65c52 -28 77 -35 96 20z" />
    <glyph glyph-name="Jcircumflex" unicode="&#x134;" horiz-adv-x="420" 
d="M260 489h95v-289c0 -136 -62 -207 -177 -207c-72 0 -135 34 -163 71l66 64c19 -19 50 -40 92 -40c54 0 87 36 87 107v294zM260 700h95v-113h-95v113zM352 900l112 -136h-101l-54 70l-55 -70h-100l111 136h87z" />
    <glyph glyph-name="Lacute" unicode="&#x139;" horiz-adv-x="516" 
d="M161 700v-113h-96v113h96zM161 489v-308l-96 -95v403h96zM223 96h263v-96h-360zM156 900h95l-101 -136h-70z" />
    <glyph glyph-name="Lcaron" unicode="&#x13d;" horiz-adv-x="516" 
d="M161 700v-113h-96v113h96zM161 489v-308l-96 -95v403h96zM223 96h263v-96h-360zM272 700h90l-69 -168h-50z" />
    <glyph glyph-name="Ldot" unicode="&#x13f;" horiz-adv-x="516" 
d="M161 700v-113h-96v113h96zM161 489v-308l-96 -95v403h96zM223 96h263v-96h-360zM328 398c27 0 50 -23 50 -50s-23 -49 -50 -49s-49 22 -49 49s22 50 49 50z" />
    <glyph glyph-name="Nacute" unicode="&#x143;" horiz-adv-x="660" 
d="M499 700h96v-707h-9l-426 467v-460h-95v706h8l426 -471v465zM381 900h95l-101 -136h-70z" />
    <glyph glyph-name="Ncaron" unicode="&#x147;" horiz-adv-x="660" 
d="M499 700h96v-707h-9l-426 467v-460h-95v706h8l426 -471v465zM497 900l-112 -136h-87l-111 136h100l55 -70l54 70h101z" />
    <glyph glyph-name="Ntilde" unicode="&#xd1;" horiz-adv-x="660" 
d="M499 700h96v-707h-9l-426 467v-460h-95v706h8l426 -471v465zM449 902l79 -28c-49 -131 -136 -108 -195 -75c-66 37 -79 23 -108 -22l-75 40c55 103 121 109 203 65c52 -28 77 -35 96 20z" />
    <glyph glyph-name="Oacute" unicode="&#xd3;" 
d="M379 706c198 0 340 -159 340 -357c0 -197 -142 -356 -340 -356c-197 0 -339 160 -339 357s142 356 339 356zM379 88c145 0 242 117 242 261c0 145 -97 262 -242 262c-144 0 -241 -116 -241 -261s97 -262 241 -262zM379 410c34 0 61 -27 61 -61c0 -33 -27 -60 -61 -60
c-33 0 -60 27 -60 60c0 34 27 61 60 61zM420 900h95l-101 -136h-70z" />
    <glyph glyph-name="Obreve" unicode="&#x14e;" 
d="M379 706c198 0 340 -159 340 -357c0 -197 -142 -356 -340 -356c-197 0 -339 160 -339 357s142 356 339 356zM379 88c145 0 242 117 242 261c0 145 -97 262 -242 262c-144 0 -241 -116 -241 -261s97 -262 241 -262zM379 410c34 0 61 -27 61 -61c0 -33 -27 -60 -61 -60
c-33 0 -60 27 -60 60c0 34 27 61 60 61zM429 900h75c0 -68 -55 -124 -124 -124c-68 0 -124 56 -124 124h75c0 -27 22 -49 49 -49s49 22 49 49z" />
    <glyph glyph-name="Ocircumflex" unicode="&#xd4;" 
d="M379 706c198 0 340 -159 340 -357c0 -197 -142 -356 -340 -356c-197 0 -339 160 -339 357s142 356 339 356zM379 88c145 0 242 117 242 261c0 145 -97 262 -242 262c-144 0 -241 -116 -241 -261s97 -262 241 -262zM379 410c34 0 61 -27 61 -61c0 -33 -27 -60 -61 -60
c-33 0 -60 27 -60 60c0 34 27 61 60 61zM424 900l112 -136h-101l-54 70l-55 -70h-100l111 136h87z" />
    <glyph glyph-name="Odieresis" unicode="&#xd6;" 
d="M379 706c198 0 340 -159 340 -357c0 -197 -142 -356 -340 -356c-197 0 -339 160 -339 357s142 356 339 356zM379 88c145 0 242 117 242 261c0 145 -97 262 -242 262c-144 0 -241 -116 -241 -261s97 -262 241 -262zM379 410c34 0 61 -27 61 -61c0 -33 -27 -60 -61 -60
c-33 0 -60 27 -60 60c0 34 27 61 60 61zM299 878c27 0 49 -23 49 -50s-22 -49 -49 -49s-49 22 -49 49s22 50 49 50zM461 878c27 0 49 -23 49 -50s-22 -49 -49 -49c-28 0 -50 22 -50 49s22 50 50 50z" />
    <glyph glyph-name="Ograve" unicode="&#xd2;" 
d="M379 706c198 0 340 -159 340 -357c0 -197 -142 -356 -340 -356c-197 0 -339 160 -339 357s142 356 339 356zM379 88c145 0 242 117 242 261c0 145 -97 262 -242 262c-144 0 -241 -116 -241 -261s97 -262 241 -262zM379 410c34 0 61 -27 61 -61c0 -33 -27 -60 -61 -60
c-33 0 -60 27 -60 60c0 34 27 61 60 61zM339 900l76 -136h-70l-101 136h95z" />
    <glyph glyph-name="Ohungarumlaut" unicode="&#x150;" 
d="M379 706c198 0 340 -159 340 -357c0 -197 -142 -356 -340 -356c-197 0 -339 160 -339 357s142 356 339 356zM379 88c145 0 242 117 242 261c0 145 -97 262 -242 262c-144 0 -241 -116 -241 -261s97 -262 241 -262zM379 410c34 0 61 -27 61 -61c0 -33 -27 -60 -61 -60
c-33 0 -60 27 -60 60c0 34 27 61 60 61zM346 900h95l-101 -136h-70zM495 900h95l-101 -136h-70z" />
    <glyph glyph-name="Omacron" unicode="&#x14c;" 
d="M379 706c198 0 340 -159 340 -357c0 -197 -142 -356 -340 -356c-197 0 -339 160 -339 357s142 356 339 356zM379 88c145 0 242 117 242 261c0 145 -97 262 -242 262c-144 0 -241 -116 -241 -261s97 -262 241 -262zM379 410c34 0 61 -27 61 -61c0 -33 -27 -60 -61 -60
c-33 0 -60 27 -60 60c0 34 27 61 60 61zM249 873h260v-84h-260v84z" />
    <glyph glyph-name="Oslashacute" unicode="&#x1fe;" 
d="M725 672l-84 -93c49 -62 77 -142 77 -230c0 -197 -143 -356 -340 -356c-79 0 -149 25 -204 68l-81 -89l-62 56l83 93c-48 62 -76 142 -76 229c0 197 143 356 340 356c78 0 148 -25 204 -68l81 90zM137 350c0 -58 16 -112 44 -156l336 372c-38 28 -85 44 -139 44
c-144 0 -241 -116 -241 -260zM619 349c0 59 -16 113 -44 156l-337 -372c39 -28 86 -45 140 -45c145 0 241 117 241 261zM421 900h95l-101 -136h-70z" />
    <glyph glyph-name="Otilde" unicode="&#xd5;" 
d="M379 706c198 0 340 -159 340 -357c0 -197 -142 -356 -340 -356c-197 0 -339 160 -339 357s142 356 339 356zM379 88c145 0 242 117 242 261c0 145 -97 262 -242 262c-144 0 -241 -116 -241 -261s97 -262 241 -262zM379 410c34 0 61 -27 61 -61c0 -33 -27 -60 -61 -60
c-33 0 -60 27 -60 60c0 34 27 61 60 61zM489 902l79 -28c-49 -131 -136 -108 -195 -75c-66 37 -79 23 -108 -22l-75 40c55 103 121 109 203 65c52 -28 77 -35 96 20z" />
    <glyph glyph-name="Racute" unicode="&#x154;" horiz-adv-x="606" 
d="M467 0l-141 249h-165v-249h-96v344h262c84 0 131 62 131 130c0 69 -47 131 -131 131h-262v95h262c142 0 229 -101 229 -226c0 -92 -48 -171 -131 -206l151 -268h-109zM321 900h95l-101 -136h-70z" />
    <glyph glyph-name="Rcaron" unicode="&#x158;" horiz-adv-x="606" 
d="M467 0l-141 249h-165v-249h-96v344h262c84 0 131 62 131 130c0 69 -47 131 -131 131h-262v95h262c142 0 229 -101 229 -226c0 -92 -48 -171 -131 -206l151 -268h-109zM448 900l-112 -136h-87l-111 136h100l55 -70l54 70h101z" />
    <glyph glyph-name="Rcommaaccent" unicode="&#x156;" horiz-adv-x="606" 
d="M467 0l-141 249h-165v-249h-96v344h262c84 0 131 62 131 130c0 69 -47 131 -131 131h-262v95h262c142 0 229 -101 229 -226c0 -92 -48 -171 -131 -206l151 -268h-109zM270 -77h90l-57 -131h-62z" />
    <glyph glyph-name="Sacute" unicode="&#x15a;" horiz-adv-x="605" 
d="M35 149l91 38c12 -27 44 -59 77 -75l-42 -88c-60 28 -105 76 -126 125zM316 403c142 -40 249 -84 249 -210c0 -109 -87 -203 -248 -203c-17 0 -33 1 -48 3l45 94c84 -1 150 40 150 103s-63 87 -182 121c-140 40 -232 83 -228 204c3 114 96 192 241 192c33 0 62 -4 89 -12
l-54 -86c-9 1 -22 2 -32 2c-103 0 -142 -50 -142 -99c0 -54 49 -78 160 -109zM331 900h95l-101 -136h-70z" />
    <glyph glyph-name="Scaron" unicode="&#x160;" horiz-adv-x="605" 
d="M35 149l91 38c12 -27 44 -59 77 -75l-42 -88c-60 28 -105 76 -126 125zM316 403c142 -40 249 -84 249 -210c0 -109 -87 -203 -248 -203c-17 0 -33 1 -48 3l45 94c84 -1 150 40 150 103s-63 87 -182 121c-140 40 -232 83 -228 204c3 114 96 192 241 192c33 0 62 -4 89 -12
l-54 -86c-9 1 -22 2 -32 2c-103 0 -142 -50 -142 -99c0 -54 49 -78 160 -109zM467 900l-112 -136h-87l-111 136h100l55 -70l54 70h101z" />
    <glyph glyph-name="Scircumflex" unicode="&#x15c;" horiz-adv-x="605" 
d="M35 149l91 38c12 -27 44 -59 77 -75l-42 -88c-60 28 -105 76 -126 125zM316 403c142 -40 249 -84 249 -210c0 -109 -87 -203 -248 -203c-17 0 -33 1 -48 3l45 94c84 -1 150 40 150 103s-63 87 -182 121c-140 40 -232 83 -228 204c3 114 96 192 241 192c33 0 62 -4 89 -12
l-54 -86c-9 1 -22 2 -32 2c-103 0 -142 -50 -142 -99c0 -54 49 -78 160 -109zM344 900l112 -136h-101l-54 70l-55 -70h-100l111 136h87z" />
    <glyph glyph-name="Tcaron" unicode="&#x164;" horiz-adv-x="567" 
d="M236 0v469h95v-469h-95zM30 700h507v-95h-507v95zM441 900l-112 -136h-87l-111 136h100l55 -70l54 70h101z" />
    <glyph glyph-name="Tcommaaccent" unicode="&#x162;" horiz-adv-x="567" 
d="M236 0v469h95v-469h-95zM30 700h507v-95h-507v95zM233 -77h90l-57 -131h-62z" />
    <glyph glyph-name="Uacute" unicode="&#xda;" horiz-adv-x="650" 
d="M495 700h95v-344l-95 41v303zM325 88c97 0 168 53 170 191l93 -41c-16 -161 -123 -245 -263 -245c-152 0 -265 100 -265 289v207h96v-204c0 -142 71 -197 169 -197zM156 700v-113h-96v113h96zM366 900h95l-101 -136h-70z" />
    <glyph glyph-name="Ubreve" unicode="&#x16c;" horiz-adv-x="650" 
d="M495 700h95v-344l-95 41v303zM325 88c97 0 168 53 170 191l93 -41c-16 -161 -123 -245 -263 -245c-152 0 -265 100 -265 289v207h96v-204c0 -142 71 -197 169 -197zM156 700v-113h-96v113h96zM374 900h75c0 -68 -55 -124 -124 -124c-68 0 -124 56 -124 124h75
c0 -27 22 -49 49 -49s49 22 49 49z" />
    <glyph glyph-name="Ucircumflex" unicode="&#xdb;" horiz-adv-x="650" 
d="M495 700h95v-344l-95 41v303zM325 88c97 0 168 53 170 191l93 -41c-16 -161 -123 -245 -263 -245c-152 0 -265 100 -265 289v207h96v-204c0 -142 71 -197 169 -197zM156 700v-113h-96v113h96zM369 900l112 -136h-101l-54 70l-55 -70h-100l111 136h87z" />
    <glyph glyph-name="Udieresis" unicode="&#xdc;" horiz-adv-x="650" 
d="M495 700h95v-344l-95 41v303zM325 88c97 0 168 53 170 191l93 -41c-16 -161 -123 -245 -263 -245c-152 0 -265 100 -265 289v207h96v-204c0 -142 71 -197 169 -197zM156 700v-113h-96v113h96zM244 878c27 0 49 -23 49 -50s-22 -49 -49 -49s-49 22 -49 49s22 50 49 50z
M406 878c27 0 49 -23 49 -50s-22 -49 -49 -49c-28 0 -50 22 -50 49s22 50 50 50z" />
    <glyph glyph-name="Ugrave" unicode="&#xd9;" horiz-adv-x="650" 
d="M495 700h95v-344l-95 41v303zM325 88c97 0 168 53 170 191l93 -41c-16 -161 -123 -245 -263 -245c-152 0 -265 100 -265 289v207h96v-204c0 -142 71 -197 169 -197zM156 700v-113h-96v113h96zM305 900l76 -136h-70l-101 136h95z" />
    <glyph glyph-name="Uhungarumlaut" unicode="&#x170;" horiz-adv-x="650" 
d="M495 700h95v-344l-95 41v303zM325 88c97 0 168 53 170 191l93 -41c-16 -161 -123 -245 -263 -245c-152 0 -265 100 -265 289v207h96v-204c0 -142 71 -197 169 -197zM156 700v-113h-96v113h96zM281 900h95l-101 -136h-70zM430 900h95l-101 -136h-70z" />
    <glyph glyph-name="Umacron" unicode="&#x16a;" horiz-adv-x="650" 
d="M495 700h95v-344l-95 41v303zM325 88c97 0 168 53 170 191l93 -41c-16 -161 -123 -245 -263 -245c-152 0 -265 100 -265 289v207h96v-204c0 -142 71 -197 169 -197zM156 700v-113h-96v113h96zM195 873h260v-84h-260v84z" />
    <glyph glyph-name="Uring" unicode="&#x16e;" horiz-adv-x="650" 
d="M495 700h95v-344l-95 41v303zM325 88c97 0 168 53 170 191l93 -41c-16 -161 -123 -245 -263 -245c-152 0 -265 100 -265 289v207h96v-204c0 -142 71 -197 169 -197zM156 700v-113h-96v113h96zM325 975c61 0 110 -49 110 -110s-49 -110 -110 -110c-60 0 -110 49 -110 110
s50 110 110 110zM325 822c24 0 44 19 44 43s-20 43 -44 43s-43 -19 -43 -43s19 -43 43 -43z" />
    <glyph glyph-name="Utilde" unicode="&#x168;" horiz-adv-x="650" 
d="M495 700h95v-344l-95 41v303zM325 88c97 0 168 53 170 191l93 -41c-16 -161 -123 -245 -263 -245c-152 0 -265 100 -265 289v207h96v-204c0 -142 71 -197 169 -197zM156 700v-113h-96v113h96zM434 902l79 -28c-49 -131 -136 -108 -195 -75c-66 37 -79 23 -108 -22l-75 40
c55 103 121 109 203 65c52 -28 77 -35 96 20z" />
    <glyph glyph-name="Wacute" unicode="&#x1e82;" horiz-adv-x="1022" 
d="M584 700h101l-122 -291l114 -266l224 557h101l-279 -700h-93l-119 284l-119 -284h-93l-279 700h102l223 -557l114 265l-122 292h102l72 -170zM561 900h95l-101 -136h-70z" />
    <glyph glyph-name="Wcircumflex" unicode="&#x174;" horiz-adv-x="1022" 
d="M584 700h101l-122 -291l114 -266l224 557h101l-279 -700h-93l-119 284l-119 -284h-93l-279 700h102l223 -557l114 265l-122 292h102l72 -170zM555 900l112 -136h-101l-54 70l-55 -70h-100l111 136h87z" />
    <glyph glyph-name="Wdieresis" unicode="&#x1e84;" horiz-adv-x="1022" 
d="M584 700h101l-122 -291l114 -266l224 557h101l-279 -700h-93l-119 284l-119 -284h-93l-279 700h102l223 -557l114 265l-122 292h102l72 -170zM430 878c27 0 49 -23 49 -50s-22 -49 -49 -49s-49 22 -49 49s22 50 49 50zM592 878c27 0 49 -23 49 -50s-22 -49 -49 -49
c-28 0 -50 22 -50 49s22 50 50 50z" />
    <glyph glyph-name="Wgrave" unicode="&#x1e80;" horiz-adv-x="1022" 
d="M584 700h101l-122 -291l114 -266l224 557h101l-279 -700h-93l-119 284l-119 -284h-93l-279 700h102l223 -557l114 265l-122 292h102l72 -170zM470 900l76 -136h-70l-101 136h95z" />
    <glyph glyph-name="Yacute" unicode="&#xdd;" horiz-adv-x="610" 
d="M257 0v145h96v-145h-96zM481 700h109l-236 -440h-98l-236 440h109l176 -332zM336 900h95l-101 -136h-70z" />
    <glyph glyph-name="Ycircumflex" unicode="&#x176;" horiz-adv-x="610" 
d="M257 0v145h96v-145h-96zM481 700h109l-236 -440h-98l-236 440h109l176 -332zM349 900l112 -136h-101l-54 70l-55 -70h-100l111 136h87z" />
    <glyph glyph-name="Ydieresis" unicode="&#x178;" horiz-adv-x="610" 
d="M257 0v145h96v-145h-96zM481 700h109l-236 -440h-98l-236 440h109l176 -332zM224 878c27 0 49 -23 49 -50s-22 -49 -49 -49s-49 22 -49 49s22 50 49 50zM386 878c27 0 49 -23 49 -50s-22 -49 -49 -49c-28 0 -50 22 -50 49s22 50 50 50z" />
    <glyph glyph-name="Ygrave" unicode="&#x1ef2;" horiz-adv-x="610" 
d="M257 0v145h96v-145h-96zM481 700h109l-236 -440h-98l-236 440h109l176 -332zM275 900l76 -136h-70l-101 136h95z" />
    <glyph glyph-name="Zacute" unicode="&#x179;" horiz-adv-x="604" 
d="M304 700l-76 -95h-163v95h239zM153 96h416v-96h-534v96l408 509h117zM343 900h95l-101 -136h-70z" />
    <glyph glyph-name="Zcaron" unicode="&#x17d;" horiz-adv-x="604" 
d="M304 700l-76 -95h-163v95h239zM153 96h416v-96h-534v96l408 509h117zM479 900l-112 -136h-87l-111 136h100l55 -70l54 70h101z" />
    <glyph glyph-name="Zdotaccent" unicode="&#x17b;" horiz-adv-x="604" 
d="M304 700l-76 -95h-163v95h239zM153 96h416v-96h-534v96l408 509h117zM312 878c27 0 50 -23 50 -50s-23 -49 -50 -49s-49 22 -49 49s22 50 49 50z" />
    <glyph glyph-name="aacute" unicode="&#xe1;" horiz-adv-x="464" 
d="M241 490c101 0 178 -49 178 -177v-313h-94v57c-18 -21 -59 -57 -134 -64c-113 -10 -174 65 -165 144c11 95 77 123 176 149c62 16 115 20 120 54c7 47 -47 68 -88 65c-48 -2 -88 -25 -102 -76l-86 18c12 61 70 143 195 143zM325 206v21s-43 -12 -107 -28
c-86 -22 -91 -63 -88 -82c3 -22 21 -42 74 -38c49 4 121 51 121 127zM281 700h95l-101 -136h-70z" />
    <glyph glyph-name="abreve" unicode="&#x103;" horiz-adv-x="464" 
d="M241 490c101 0 178 -49 178 -177v-313h-94v57c-18 -21 -59 -57 -134 -64c-113 -10 -174 65 -165 144c11 95 77 123 176 149c62 16 115 20 120 54c7 47 -47 68 -88 65c-48 -2 -88 -25 -102 -76l-86 18c12 61 70 143 195 143zM325 206v21s-43 -12 -107 -28
c-86 -22 -91 -63 -88 -82c3 -22 21 -42 74 -38c49 4 121 51 121 127zM299 700h75c0 -68 -55 -124 -124 -124c-68 0 -124 56 -124 124h75c0 -27 22 -49 49 -49s49 22 49 49z" />
    <glyph glyph-name="acircumflex" unicode="&#xe2;" horiz-adv-x="464" 
d="M241 490c101 0 178 -49 178 -177v-313h-94v57c-18 -21 -59 -57 -134 -64c-113 -10 -174 65 -165 144c11 95 77 123 176 149c62 16 115 20 120 54c7 47 -47 68 -88 65c-48 -2 -88 -25 -102 -76l-86 18c12 61 70 143 195 143zM325 206v21s-43 -12 -107 -28
c-86 -22 -91 -63 -88 -82c3 -22 21 -42 74 -38c49 4 121 51 121 127zM284 700l112 -136h-101l-54 70l-55 -70h-100l111 136h87z" />
    <glyph glyph-name="adieresis" unicode="&#xe4;" horiz-adv-x="464" 
d="M241 490c101 0 178 -49 178 -177v-313h-94v57c-18 -21 -59 -57 -134 -64c-113 -10 -174 65 -165 144c11 95 77 123 176 149c62 16 115 20 120 54c7 47 -47 68 -88 65c-48 -2 -88 -25 -102 -76l-86 18c12 61 70 143 195 143zM325 206v21s-43 -12 -107 -28
c-86 -22 -91 -63 -88 -82c3 -22 21 -42 74 -38c49 4 121 51 121 127zM169 678c27 0 49 -23 49 -50s-22 -49 -49 -49s-49 22 -49 49s22 50 49 50zM331 678c27 0 49 -23 49 -50s-22 -49 -49 -49c-28 0 -50 22 -50 49s22 50 50 50z" />
    <glyph glyph-name="agrave" unicode="&#xe0;" horiz-adv-x="464" 
d="M241 490c101 0 178 -49 178 -177v-313h-94v57c-18 -21 -59 -57 -134 -64c-113 -10 -174 65 -165 144c11 95 77 123 176 149c62 16 115 20 120 54c7 47 -47 68 -88 65c-48 -2 -88 -25 -102 -76l-86 18c12 61 70 143 195 143zM325 206v21s-43 -12 -107 -28
c-86 -22 -91 -63 -88 -82c3 -22 21 -42 74 -38c49 4 121 51 121 127zM210 700l76 -136h-70l-101 136h95z" />
    <glyph glyph-name="amacron" unicode="&#x101;" horiz-adv-x="464" 
d="M241 490c101 0 178 -49 178 -177v-313h-94v57c-18 -21 -59 -57 -134 -64c-113 -10 -174 65 -165 144c11 95 77 123 176 149c62 16 115 20 120 54c7 47 -47 68 -88 65c-48 -2 -88 -25 -102 -76l-86 18c12 61 70 143 195 143zM325 206v21s-43 -12 -107 -28
c-86 -22 -91 -63 -88 -82c3 -22 21 -42 74 -38c49 4 121 51 121 127zM110 673h260v-84h-260v84z" />
    <glyph glyph-name="aring" unicode="&#xe5;" horiz-adv-x="464" 
d="M241 490c101 0 178 -49 178 -177v-313h-94v57c-18 -21 -59 -57 -134 -64c-113 -10 -174 65 -165 144c11 95 77 123 176 149c62 16 115 20 120 54c7 47 -47 68 -88 65c-48 -2 -88 -25 -102 -76l-86 18c12 61 70 143 195 143zM325 206v21s-43 -12 -107 -28
c-86 -22 -91 -63 -88 -82c3 -22 21 -42 74 -38c49 4 121 51 121 127zM250 775c61 0 110 -49 110 -110s-49 -110 -110 -110c-60 0 -110 49 -110 110s50 110 110 110zM250 622c24 0 44 19 44 43s-20 43 -44 43s-43 -19 -43 -43s19 -43 43 -43z" />
    <glyph glyph-name="atilde" unicode="&#xe3;" horiz-adv-x="464" 
d="M241 490c101 0 178 -49 178 -177v-313h-94v57c-18 -21 -59 -57 -134 -64c-113 -10 -174 65 -165 144c11 95 77 123 176 149c62 16 115 20 120 54c7 47 -47 68 -88 65c-48 -2 -88 -25 -102 -76l-86 18c12 61 70 143 195 143zM325 206v21s-43 -12 -107 -28
c-86 -22 -91 -63 -88 -82c3 -22 21 -42 74 -38c49 4 121 51 121 127zM339 702l79 -28c-49 -131 -136 -108 -195 -75c-66 37 -79 23 -108 -22l-75 40c55 103 121 109 203 65c52 -28 77 -35 96 20z" />
    <glyph glyph-name="aeacute" unicode="&#x1fd;" horiz-adv-x="842" 
d="M808 193h-336c14 -60 58 -105 128 -105c51 0 88 24 110 60l87 -42c-39 -68 -108 -113 -197 -113c-88 0 -173 50 -202 123c-32 -75 -110 -120 -200 -123c-111 -4 -174 65 -165 144c11 95 77 123 176 149c62 16 115 20 120 54c7 47 -47 68 -88 65c-48 -2 -88 -25 -102 -76
l-86 18c12 61 70 143 195 143c75 0 137 -28 164 -95c40 57 105 94 185 94c140 0 215 -112 215 -248c0 -16 -1 -32 -4 -48zM597 394c-72 0 -114 -48 -127 -111h244c-10 63 -45 111 -117 111zM332 206v21s-43 -12 -107 -28c-86 -22 -91 -63 -88 -82c3 -22 21 -42 74 -38
c49 4 121 51 121 127zM450 700h95l-101 -136h-70z" />
    <glyph glyph-name="cacute" unicode="&#x107;" horiz-adv-x="483" 
d="M265 88c51 0 88 24 110 60l88 -42c-39 -68 -109 -113 -198 -113c-140 0 -235 112 -235 248s95 248 235 248c89 0 159 -45 198 -113l-88 -42c-22 36 -59 60 -110 60c-87 0 -134 -70 -134 -153s47 -153 134 -153zM297 700h95l-101 -136h-70z" />
    <glyph glyph-name="ccaron" unicode="&#x10d;" horiz-adv-x="483" 
d="M265 88c51 0 88 24 110 60l88 -42c-39 -68 -109 -113 -198 -113c-140 0 -235 112 -235 248s95 248 235 248c89 0 159 -45 198 -113l-88 -42c-22 36 -59 60 -110 60c-87 0 -134 -70 -134 -153s47 -153 134 -153zM414 700l-112 -136h-87l-111 136h100l55 -70l54 70h101z
" />
    <glyph glyph-name="ccircumflex" unicode="&#x109;" horiz-adv-x="483" 
d="M265 88c51 0 88 24 110 60l88 -42c-39 -68 -109 -113 -198 -113c-140 0 -235 112 -235 248s95 248 235 248c89 0 159 -45 198 -113l-88 -42c-22 36 -59 60 -110 60c-87 0 -134 -70 -134 -153s47 -153 134 -153zM301 700l112 -136h-101l-54 70l-55 -70h-100l111 136h87z
" />
    <glyph glyph-name="cdotaccent" unicode="&#x10b;" horiz-adv-x="483" 
d="M265 88c51 0 88 24 110 60l88 -42c-39 -68 -109 -113 -198 -113c-140 0 -235 112 -235 248s95 248 235 248c89 0 159 -45 198 -113l-88 -42c-22 36 -59 60 -110 60c-87 0 -134 -70 -134 -153s47 -153 134 -153zM256 678c27 0 50 -23 50 -50s-23 -49 -50 -49
s-49 22 -49 49s22 50 49 50z" />
    <glyph glyph-name="dcaron" unicode="&#x10f;" horiz-adv-x="609" 
d="M396 700h96v-700h-96v52c-35 -37 -85 -59 -147 -59c-140 0 -224 112 -224 248s84 248 224 248c62 0 112 -22 147 -59v270zM261 88c86 0 131 70 131 153s-44 153 -131 153c-88 0 -132 -70 -132 -153s45 -153 132 -153zM584 700h90l-69 -168h-50z" />
    <glyph glyph-name="eacute" unicode="&#xe9;" horiz-adv-x="507" 
d="M473 193h-336c14 -60 58 -105 128 -105c51 0 88 24 110 60l87 -42c-39 -68 -108 -113 -197 -113c-140 0 -235 112 -235 248s92 248 232 248s215 -112 215 -248c0 -16 -1 -32 -4 -48zM262 394c-72 0 -114 -48 -127 -111h244c-10 63 -45 111 -117 111zM304 700h95
l-101 -136h-70z" />
    <glyph glyph-name="ebreve" unicode="&#x115;" horiz-adv-x="507" 
d="M473 193h-336c14 -60 58 -105 128 -105c51 0 88 24 110 60l87 -42c-39 -68 -108 -113 -197 -113c-140 0 -235 112 -235 248s92 248 232 248s215 -112 215 -248c0 -16 -1 -32 -4 -48zM262 394c-72 0 -114 -48 -127 -111h244c-10 63 -45 111 -117 111zM303 700h75
c0 -68 -55 -124 -124 -124c-68 0 -124 56 -124 124h75c0 -27 22 -49 49 -49s49 22 49 49z" />
    <glyph glyph-name="ecaron" unicode="&#x11b;" horiz-adv-x="507" 
d="M473 193h-336c14 -60 58 -105 128 -105c51 0 88 24 110 60l87 -42c-39 -68 -108 -113 -197 -113c-140 0 -235 112 -235 248s92 248 232 248s215 -112 215 -248c0 -16 -1 -32 -4 -48zM262 394c-72 0 -114 -48 -127 -111h244c-10 63 -45 111 -117 111zM411 700l-112 -136
h-87l-111 136h100l55 -70l54 70h101z" />
    <glyph glyph-name="ecircumflex" unicode="&#xea;" horiz-adv-x="507" 
d="M473 193h-336c14 -60 58 -105 128 -105c51 0 88 24 110 60l87 -42c-39 -68 -108 -113 -197 -113c-140 0 -235 112 -235 248s92 248 232 248s215 -112 215 -248c0 -16 -1 -32 -4 -48zM262 394c-72 0 -114 -48 -127 -111h244c-10 63 -45 111 -117 111zM308 700l112 -136
h-101l-54 70l-55 -70h-100l111 136h87z" />
    <glyph glyph-name="edieresis" unicode="&#xeb;" horiz-adv-x="507" 
d="M473 193h-336c14 -60 58 -105 128 -105c51 0 88 24 110 60l87 -42c-39 -68 -108 -113 -197 -113c-140 0 -235 112 -235 248s92 248 232 248s215 -112 215 -248c0 -16 -1 -32 -4 -48zM262 394c-72 0 -114 -48 -127 -111h244c-10 63 -45 111 -117 111zM183 678
c27 0 49 -23 49 -50s-22 -49 -49 -49s-49 22 -49 49s22 50 49 50zM345 678c27 0 49 -23 49 -50s-22 -49 -49 -49c-28 0 -50 22 -50 49s22 50 50 50z" />
    <glyph glyph-name="edotaccent" unicode="&#x117;" horiz-adv-x="507" 
d="M473 193h-336c14 -60 58 -105 128 -105c51 0 88 24 110 60l87 -42c-39 -68 -108 -113 -197 -113c-140 0 -235 112 -235 248s92 248 232 248s215 -112 215 -248c0 -16 -1 -32 -4 -48zM262 394c-72 0 -114 -48 -127 -111h244c-10 63 -45 111 -117 111zM263 678
c27 0 50 -23 50 -50s-23 -49 -50 -49s-49 22 -49 49s22 50 49 50z" />
    <glyph glyph-name="egrave" unicode="&#xe8;" horiz-adv-x="507" 
d="M473 193h-336c14 -60 58 -105 128 -105c51 0 88 24 110 60l87 -42c-39 -68 -108 -113 -197 -113c-140 0 -235 112 -235 248s92 248 232 248s215 -112 215 -248c0 -16 -1 -32 -4 -48zM262 394c-72 0 -114 -48 -127 -111h244c-10 63 -45 111 -117 111zM223 700l76 -136h-70
l-101 136h95z" />
    <glyph glyph-name="emacron" unicode="&#x113;" horiz-adv-x="507" 
d="M473 193h-336c14 -60 58 -105 128 -105c51 0 88 24 110 60l87 -42c-39 -68 -108 -113 -197 -113c-140 0 -235 112 -235 248s92 248 232 248s215 -112 215 -248c0 -16 -1 -32 -4 -48zM262 394c-72 0 -114 -48 -127 -111h244c-10 63 -45 111 -117 111zM134 673h260v-84
h-260v84z" />
    <glyph glyph-name="gbreve" unicode="&#x11f;" horiz-adv-x="491" 
d="M481 442c-44 1 -72 -17 -89 -36c15 -24 23 -53 23 -85c0 -101 -80 -168 -188 -168c-10 0 -19 0 -28 1c-17 -10 -31 -28 -20 -40c10 -12 47 -14 76 -14c157 0 221 -37 224 -122c3 -104 -98 -176 -233 -173c-116 3 -199 43 -246 91l53 64c41 -39 108 -64 188 -67
c81 -3 140 29 142 71c1 41 -46 45 -137 49c-58 3 -112 12 -140 36c-31 26 -39 79 18 128c-52 28 -85 79 -85 144c0 101 80 168 188 168c50 0 94 -15 127 -40c30 43 74 71 127 71v-78zM227 237c53 0 95 31 95 84s-42 84 -95 84s-96 -31 -96 -84s43 -84 96 -84zM288 700h75
c0 -68 -55 -124 -124 -124c-68 0 -124 56 -124 124h75c0 -27 22 -49 49 -49s49 22 49 49z" />
    <glyph glyph-name="gcircumflex" unicode="&#x11d;" horiz-adv-x="491" 
d="M481 442c-44 1 -72 -17 -89 -36c15 -24 23 -53 23 -85c0 -101 -80 -168 -188 -168c-10 0 -19 0 -28 1c-17 -10 -31 -28 -20 -40c10 -12 47 -14 76 -14c157 0 221 -37 224 -122c3 -104 -98 -176 -233 -173c-116 3 -199 43 -246 91l53 64c41 -39 108 -64 188 -67
c81 -3 140 29 142 71c1 41 -46 45 -137 49c-58 3 -112 12 -140 36c-31 26 -39 79 18 128c-52 28 -85 79 -85 144c0 101 80 168 188 168c50 0 94 -15 127 -40c30 43 74 71 127 71v-78zM227 237c53 0 95 31 95 84s-42 84 -95 84s-96 -31 -96 -84s43 -84 96 -84zM282 700
l112 -136h-101l-54 70l-55 -70h-100l111 136h87z" />
    <glyph glyph-name="gcommaaccent" unicode="&#x123;" horiz-adv-x="491" 
d="M481 442c-44 1 -72 -17 -89 -36c15 -24 23 -53 23 -85c0 -101 -80 -168 -188 -168c-10 0 -19 0 -28 1c-17 -10 -31 -28 -20 -40c10 -12 47 -14 76 -14c157 0 221 -37 224 -122c3 -104 -98 -176 -233 -173c-116 3 -199 43 -246 91l53 64c41 -39 108 -64 188 -67
c81 -3 140 29 142 71c1 41 -46 45 -137 49c-58 3 -112 12 -140 36c-31 26 -39 79 18 128c-52 28 -85 79 -85 144c0 101 80 168 188 168c50 0 94 -15 127 -40c30 43 74 71 127 71v-78zM227 237c53 0 95 31 95 84s-42 84 -95 84s-96 -31 -96 -84s43 -84 96 -84zM199 582
l70 168h50l-29 -168h-91z" />
    <glyph glyph-name="gdotaccent" unicode="&#x121;" horiz-adv-x="491" 
d="M481 442c-44 1 -72 -17 -89 -36c15 -24 23 -53 23 -85c0 -101 -80 -168 -188 -168c-10 0 -19 0 -28 1c-17 -10 -31 -28 -20 -40c10 -12 47 -14 76 -14c157 0 221 -37 224 -122c3 -104 -98 -176 -233 -173c-116 3 -199 43 -246 91l53 64c41 -39 108 -64 188 -67
c81 -3 140 29 142 71c1 41 -46 45 -137 49c-58 3 -112 12 -140 36c-31 26 -39 79 18 128c-52 28 -85 79 -85 144c0 101 80 168 188 168c50 0 94 -15 127 -40c30 43 74 71 127 71v-78zM227 237c53 0 95 31 95 84s-42 84 -95 84s-96 -31 -96 -84s43 -84 96 -84zM232 678
c27 0 50 -23 50 -50s-23 -49 -50 -49s-49 22 -49 49s22 50 49 50z" />
    <glyph glyph-name="hcircumflex" unicode="&#x125;" horiz-adv-x="488" 
d="M394 771h-84l-62 80l-62 -80h-83l111 137h68zM264 489c114 0 179 -78 179 -217v-272h-95v263c0 94 -45 131 -101 131c-59 0 -106 -35 -106 -125v-269h-96v700h96v-264c31 33 73 53 123 53z" />
    <glyph glyph-name="iacute" unicode="&#xed;" horiz-adv-x="206" 
d="M50 0v482h95v-482h-95zM138 700h95l-101 -136h-70z" />
    <glyph glyph-name="ibreve" unicode="&#x12d;" horiz-adv-x="233" 
d="M71 0v482h95v-482h-95zM168 700h75c0 -68 -55 -124 -124 -124c-68 0 -124 56 -124 124h75c0 -27 22 -49 49 -49s49 22 49 49z" />
    <glyph glyph-name="icircumflex" unicode="&#xee;" horiz-adv-x="260" 
d="M92 0v482h95v-482h-95zM184 700l112 -136h-101l-54 70l-55 -70h-100l111 136h87z" />
    <glyph glyph-name="idieresis" unicode="&#xef;" horiz-adv-x="240" 
d="M77 0v482h95v-482h-95zM44 678c27 0 49 -23 49 -50s-22 -49 -49 -49s-49 22 -49 49s22 50 49 50zM206 678c27 0 49 -23 49 -50s-22 -49 -49 -49c-28 0 -50 22 -50 49s22 50 50 50z" />
    <glyph glyph-name="igrave" unicode="&#xec;" horiz-adv-x="206" 
d="M61 0v482h95v-482h-95zM68 700l76 -136h-70l-101 136h95z" />
    <glyph glyph-name="imacron" unicode="&#x12b;" horiz-adv-x="240" 
d="M87 0v482h95v-482h-95zM5 673h260v-84h-260v84z" />
    <glyph glyph-name="itilde" unicode="&#x129;" horiz-adv-x="263" 
d="M101 0v482h95v-482h-95zM259 702l79 -28c-49 -131 -136 -108 -195 -75c-66 37 -79 23 -108 -22l-75 40c55 103 121 109 203 65c52 -28 77 -35 96 20z" />
    <glyph glyph-name="dotlessi" unicode="&#x131;" horiz-adv-x="206" 
d="M55 0v482h95v-482h-95z" />
    <glyph glyph-name="jcircumflex" unicode="&#x135;" horiz-adv-x="234" 
d="M75 482h96v-542c0 -88 -28 -140 -88 -159c-42 -13 -90 -5 -128 20l34 76c19 -8 41 -11 57 -5c21 9 29 30 29 66v544zM167 700l112 -136h-101l-54 70l-55 -70h-100l111 136h87z" />
    <glyph glyph-name="kcommaaccent" unicode="&#x137;" horiz-adv-x="469" 
d="M341 0l-131 196h-69v-196h-96v700h96v-414h58l134 196h113l-162 -231l170 -251h-113zM189 -77h90l-57 -131h-62z" />
    <glyph glyph-name="lacute" unicode="&#x13a;" horiz-adv-x="280" 
d="M226 100l49 -67c-37 -36 -94 -49 -144 -35c-61 17 -86 69 -86 157v595h96v-594c0 -36 8 -57 29 -66c17 -7 39 -5 56 10zM139 954h95l-101 -136h-70z" />
    <glyph glyph-name="lcaron" unicode="&#x13e;" horiz-adv-x="293" 
d="M226 100l49 -67c-37 -36 -94 -49 -144 -35c-61 17 -86 69 -86 157v595h96v-594c0 -36 8 -57 29 -66c17 -7 39 -5 56 10zM239 700h90l-69 -168h-50z" />
    <glyph glyph-name="lcommaaccent" unicode="&#x13c;" horiz-adv-x="280" 
d="M226 100l49 -67c-37 -36 -94 -49 -144 -35c-61 17 -86 69 -86 157v595h96v-594c0 -36 8 -57 29 -66c17 -7 39 -5 56 10zM108 -77h90l-57 -131h-62z" />
    <glyph glyph-name="ldot" unicode="&#x140;" horiz-adv-x="314" 
d="M226 100l49 -67c-37 -36 -94 -49 -144 -35c-61 17 -86 69 -86 157v595h96v-594c0 -36 8 -57 29 -66c17 -7 39 -5 56 10zM258 284c27 0 50 -23 50 -50s-23 -49 -50 -49s-49 22 -49 49s22 50 49 50z" />
    <glyph glyph-name="nacute" unicode="&#x144;" horiz-adv-x="497" 
d="M269 489c113 0 178 -78 178 -217v-272h-95v263c0 94 -45 131 -101 131c-59 0 -106 -35 -106 -125v-269h-95v482h95v-46c32 33 74 53 124 53zM299 700h95l-101 -136h-70z" />
    <glyph glyph-name="napostrophe" unicode="&#x149;" horiz-adv-x="580" 
d="M352 489c113 0 178 -78 178 -217v-272h-95v263c0 94 -45 131 -101 131c-59 0 -106 -35 -106 -125v-269h-95v482h95v-46c32 33 74 53 124 53zM34 580h90l-57 -131h-62z" />
    <glyph glyph-name="ncaron" unicode="&#x148;" horiz-adv-x="497" 
d="M269 489c113 0 178 -78 178 -217v-272h-95v263c0 94 -45 131 -101 131c-59 0 -106 -35 -106 -125v-269h-95v482h95v-46c32 33 74 53 124 53zM406 700l-112 -136h-87l-111 136h100l55 -70l54 70h101z" />
    <glyph glyph-name="ncommaaccent" unicode="&#x146;" horiz-adv-x="497" 
d="M269 489c113 0 178 -78 178 -217v-272h-95v263c0 94 -45 131 -101 131c-59 0 -106 -35 -106 -125v-269h-95v482h95v-46c32 33 74 53 124 53zM218 -77h90l-57 -131h-62z" />
    <glyph glyph-name="ntilde" unicode="&#xf1;" horiz-adv-x="497" 
d="M269 489c113 0 178 -78 178 -217v-272h-95v263c0 94 -45 131 -101 131c-59 0 -106 -35 -106 -125v-269h-95v482h95v-46c32 33 74 53 124 53zM359 702l79 -28c-49 -131 -136 -108 -195 -75c-66 37 -79 23 -108 -22l-75 40c55 103 121 109 203 65c52 -28 77 -35 96 20z" />
    <glyph glyph-name="oacute" unicode="&#xf3;" horiz-adv-x="530" 
d="M265 489c140 0 235 -112 235 -248s-95 -248 -235 -248c-139 0 -235 112 -235 248s95 248 235 248zM265 88c87 0 134 70 134 153s-46 153 -134 153c-87 0 -134 -70 -134 -153s47 -153 134 -153zM306 700h95l-101 -136h-70z" />
    <glyph glyph-name="obreve" unicode="&#x14f;" horiz-adv-x="530" 
d="M265 489c140 0 235 -112 235 -248s-95 -248 -235 -248c-139 0 -235 112 -235 248s95 248 235 248zM265 88c87 0 134 70 134 153s-46 153 -134 153c-87 0 -134 -70 -134 -153s47 -153 134 -153zM314 700h75c0 -68 -55 -124 -124 -124c-68 0 -124 56 -124 124h75
c0 -27 22 -49 49 -49s49 22 49 49z" />
    <glyph glyph-name="ocircumflex" unicode="&#xf4;" horiz-adv-x="530" 
d="M265 489c140 0 235 -112 235 -248s-95 -248 -235 -248c-139 0 -235 112 -235 248s95 248 235 248zM265 88c87 0 134 70 134 153s-46 153 -134 153c-87 0 -134 -70 -134 -153s47 -153 134 -153zM309 700l112 -136h-101l-54 70l-55 -70h-100l111 136h87z" />
    <glyph glyph-name="odieresis" unicode="&#xf6;" horiz-adv-x="530" 
d="M265 489c140 0 235 -112 235 -248s-95 -248 -235 -248c-139 0 -235 112 -235 248s95 248 235 248zM265 88c87 0 134 70 134 153s-46 153 -134 153c-87 0 -134 -70 -134 -153s47 -153 134 -153zM184 678c27 0 49 -23 49 -50s-22 -49 -49 -49s-49 22 -49 49s22 50 49 50z
M346 678c27 0 49 -23 49 -50s-22 -49 -49 -49c-28 0 -50 22 -50 49s22 50 50 50z" />
    <glyph glyph-name="ograve" unicode="&#xf2;" horiz-adv-x="530" 
d="M265 489c140 0 235 -112 235 -248s-95 -248 -235 -248c-139 0 -235 112 -235 248s95 248 235 248zM265 88c87 0 134 70 134 153s-46 153 -134 153c-87 0 -134 -70 -134 -153s47 -153 134 -153zM225 700l76 -136h-70l-101 136h95z" />
    <glyph glyph-name="ohungarumlaut" unicode="&#x151;" horiz-adv-x="530" 
d="M265 489c140 0 235 -112 235 -248s-95 -248 -235 -248c-139 0 -235 112 -235 248s95 248 235 248zM265 88c87 0 134 70 134 153s-46 153 -134 153c-87 0 -134 -70 -134 -153s47 -153 134 -153zM231 700h95l-101 -136h-70zM380 700h95l-101 -136h-70z" />
    <glyph glyph-name="omacron" unicode="&#x14d;" horiz-adv-x="530" 
d="M265 489c140 0 235 -112 235 -248s-95 -248 -235 -248c-139 0 -235 112 -235 248s95 248 235 248zM265 88c87 0 134 70 134 153s-46 153 -134 153c-87 0 -134 -70 -134 -153s47 -153 134 -153zM135 673h260v-84h-260v84z" />
    <glyph glyph-name="oslashacute" unicode="&#x1ff;" horiz-adv-x="540" 
d="M519 454l-58 -64c28 -42 44 -93 44 -149c0 -136 -96 -248 -235 -248c-51 0 -96 14 -132 40l-55 -61l-62 56l58 64c-29 42 -45 94 -45 149c0 136 95 248 236 248c50 0 95 -14 132 -39l54 60zM135 241c0 -26 5 -50 14 -71l187 207c-18 11 -41 17 -66 17
c-88 0 -135 -70 -135 -153zM404 241c0 26 -5 50 -13 71l-188 -207c19 -11 41 -17 67 -17c86 0 134 70 134 153zM306 700h95l-101 -136h-70z" />
    <glyph glyph-name="otilde" unicode="&#xf5;" horiz-adv-x="530" 
d="M265 489c140 0 235 -112 235 -248s-95 -248 -235 -248c-139 0 -235 112 -235 248s95 248 235 248zM265 88c87 0 134 70 134 153s-46 153 -134 153c-87 0 -134 -70 -134 -153s47 -153 134 -153zM375 702l79 -28c-49 -131 -136 -108 -195 -75c-66 37 -79 23 -108 -22
l-75 40c55 103 121 109 203 65c52 -28 77 -35 96 20z" />
    <glyph glyph-name="racute" unicode="&#x155;" horiz-adv-x="307" 
d="M264 490c13 0 26 -2 38 -4l-18 -99c-12 5 -24 7 -38 7c-58 0 -106 -35 -106 -125v-269h-95v482h95v-45c32 33 74 53 124 53zM224 700h95l-101 -136h-70z" />
    <glyph glyph-name="rcaron" unicode="&#x159;" horiz-adv-x="307" 
d="M265 490c13 0 26 -2 38 -4l-18 -99c-12 5 -24 7 -38 7c-58 0 -106 -35 -106 -125v-269h-95v482h95v-45c32 33 74 53 124 53zM332 700l-112 -136h-87l-111 136h100l55 -70l54 70h101z" />
    <glyph glyph-name="rcommaaccent" unicode="&#x157;" horiz-adv-x="307" 
d="M264 490c13 0 26 -2 38 -4l-18 -99c-12 5 -24 7 -38 7c-58 0 -106 -35 -106 -125v-269h-95v482h95v-45c32 33 74 53 124 53zM46 -77h90l-57 -131h-62z" />
    <glyph glyph-name="sacute" unicode="&#x15b;" horiz-adv-x="420" 
d="M394 154c8 -94 -67 -163 -177 -163s-179 57 -202 123l90 32c11 -30 43 -60 108 -60c64 0 89 31 85 58c-3 23 -32 37 -107 52c-93 19 -150 48 -162 121c-13 76 38 172 171 172c124 0 170 -86 178 -116l-90 -31c-11 33 -50 54 -88 54c-64 0 -76 -33 -76 -51
c0 -26 20 -48 98 -62c110 -20 166 -53 172 -129zM236 700h95l-101 -136h-70z" />
    <glyph glyph-name="scaron" unicode="&#x161;" horiz-adv-x="420" 
d="M394 154c8 -94 -67 -163 -177 -163s-179 57 -202 123l90 32c11 -30 43 -60 108 -60c64 0 89 31 85 58c-3 23 -32 37 -107 52c-93 19 -150 48 -162 121c-13 76 38 172 171 172c124 0 170 -86 178 -116l-90 -31c-11 33 -50 54 -88 54c-64 0 -76 -33 -76 -51
c0 -26 20 -48 98 -62c110 -20 166 -53 172 -129zM362 700l-112 -136h-87l-111 136h100l55 -70l54 70h101z" />
    <glyph glyph-name="scircumflex" unicode="&#x15d;" horiz-adv-x="420" 
d="M394 154c8 -94 -67 -163 -177 -163s-179 57 -202 123l90 32c11 -30 43 -60 108 -60c64 0 89 31 85 58c-3 23 -32 37 -107 52c-93 19 -150 48 -162 121c-13 76 38 172 171 172c124 0 170 -86 178 -116l-90 -31c-11 33 -50 54 -88 54c-64 0 -76 -33 -76 -51
c0 -26 20 -48 98 -62c110 -20 166 -53 172 -129zM249 700l112 -136h-101l-54 70l-55 -70h-100l111 136h87z" />
    <glyph glyph-name="scommaaccent" unicode="&#x219;" horiz-adv-x="420" 
d="M394 154c8 -94 -67 -163 -177 -163s-179 57 -202 123l90 32c11 -30 43 -60 108 -60c64 0 89 31 85 58c-3 23 -32 37 -107 52c-93 19 -150 48 -162 121c-13 76 38 172 171 172c124 0 170 -86 178 -116l-90 -31c-11 33 -50 54 -88 54c-64 0 -76 -33 -76 -51
c0 -26 20 -48 98 -62c110 -20 166 -53 172 -129zM154 -77h90l-57 -131h-62z" />
    <glyph glyph-name="tcaron" unicode="&#x165;" horiz-adv-x="365" 
d="M271 107l52 -73c-37 -36 -107 -50 -156 -35c-60 19 -87 68 -87 156v241h-65v86h65v101l95 26v-127h99v-86h-99v-237c0 -43 9 -61 30 -69c20 -8 50 1 66 17zM345 696h90l-69 -168h-50z" />
    <glyph glyph-name="tcommaaccent" unicode="&#x163;" horiz-adv-x="341" 
d="M271 107l52 -73c-37 -36 -107 -50 -156 -35c-60 19 -87 68 -87 156v241h-65v86h65v101l95 26v-127h99v-86h-99v-237c0 -43 9 -61 30 -69c20 -8 50 1 66 17zM137 -77h90l-57 -131h-62z" />
    <glyph glyph-name="uacute" unicode="&#xfa;" horiz-adv-x="493" 
d="M344 482h96v-272c0 -139 -82 -217 -196 -217s-196 78 -196 217v272h95v-263c0 -94 45 -131 101 -131c55 0 100 37 100 131v263zM295 700h95l-101 -136h-70z" />
    <glyph glyph-name="ubreve" unicode="&#x16d;" horiz-adv-x="493" 
d="M344 482h96v-272c0 -139 -82 -217 -196 -217s-196 78 -196 217v272h95v-263c0 -94 45 -131 101 -131c55 0 100 37 100 131v263zM293 700h75c0 -68 -55 -124 -124 -124c-68 0 -124 56 -124 124h75c0 -27 22 -49 49 -49s49 22 49 49z" />
    <glyph glyph-name="ucircumflex" unicode="&#xfb;" horiz-adv-x="493" 
d="M344 482h96v-272c0 -139 -82 -217 -196 -217s-196 78 -196 217v272h95v-263c0 -94 45 -131 101 -131c55 0 100 37 100 131v263zM288 700l112 -136h-101l-54 70l-55 -70h-100l111 136h87z" />
    <glyph glyph-name="udieresis" unicode="&#xfc;" horiz-adv-x="493" 
d="M344 482h96v-272c0 -139 -82 -217 -196 -217s-196 78 -196 217v272h95v-263c0 -94 45 -131 101 -131c55 0 100 37 100 131v263zM163 678c27 0 49 -23 49 -50s-22 -49 -49 -49s-49 22 -49 49s22 50 49 50zM325 678c27 0 49 -23 49 -50s-22 -49 -49 -49
c-28 0 -50 22 -50 49s22 50 50 50z" />
    <glyph glyph-name="uhungarumlaut" unicode="&#x171;" horiz-adv-x="493" 
d="M344 482h96v-272c0 -139 -82 -217 -196 -217s-196 78 -196 217v272h95v-263c0 -94 45 -131 101 -131c55 0 100 37 100 131v263zM199 700h95l-101 -136h-70zM348 700h95l-101 -136h-70z" />
    <glyph glyph-name="ugrave" unicode="&#xf9;" horiz-adv-x="493" 
d="M344 482h96v-272c0 -139 -82 -217 -196 -217s-196 78 -196 217v272h95v-263c0 -94 45 -131 101 -131c55 0 100 37 100 131v263zM224 700l76 -136h-70l-101 136h95z" />
    <glyph glyph-name="umacron" unicode="&#x16b;" horiz-adv-x="493" 
d="M344 482h96v-272c0 -139 -82 -217 -196 -217s-196 78 -196 217v272h95v-263c0 -94 45 -131 101 -131c55 0 100 37 100 131v263zM114 673h260v-84h-260v84z" />
    <glyph glyph-name="uring" unicode="&#x16f;" horiz-adv-x="493" 
d="M344 482h96v-272c0 -139 -82 -217 -196 -217s-196 78 -196 217v272h95v-263c0 -94 45 -131 101 -131c55 0 100 37 100 131v263zM244 775c61 0 110 -49 110 -110s-49 -110 -110 -110c-60 0 -110 49 -110 110s50 110 110 110zM244 622c24 0 44 19 44 43s-20 43 -44 43
s-43 -19 -43 -43s19 -43 43 -43z" />
    <glyph glyph-name="utilde" unicode="&#x169;" horiz-adv-x="493" 
d="M344 482h96v-272c0 -139 -82 -217 -196 -217s-196 78 -196 217v272h95v-263c0 -94 45 -131 101 -131c55 0 100 37 100 131v263zM354 702l79 -28c-49 -131 -136 -108 -195 -75c-66 37 -79 23 -108 -22l-75 40c55 103 121 109 203 65c52 -28 77 -35 96 20z" />
    <glyph glyph-name="wacute" unicode="&#x1e83;" horiz-adv-x="721" 
d="M611 482h100l-155 -482h-84l-111 327l-112 -327h-83l-156 482h100l102 -314l107 314h83l108 -314zM411 700h95l-101 -136h-70z" />
    <glyph glyph-name="wcircumflex" unicode="&#x175;" horiz-adv-x="721" 
d="M611 482h100l-155 -482h-84l-111 327l-112 -327h-83l-156 482h100l102 -314l107 314h83l108 -314zM405 700l112 -136h-101l-54 70l-55 -70h-100l111 136h87z" />
    <glyph glyph-name="wdieresis" unicode="&#x1e85;" horiz-adv-x="721" 
d="M611 482h100l-155 -482h-84l-111 327l-112 -327h-83l-156 482h100l102 -314l107 314h83l108 -314zM280 678c27 0 49 -23 49 -50s-22 -49 -49 -49s-49 22 -49 49s22 50 49 50zM442 678c27 0 49 -23 49 -50s-22 -49 -49 -49c-28 0 -50 22 -50 49s22 50 50 50z" />
    <glyph glyph-name="wgrave" unicode="&#x1e81;" horiz-adv-x="721" 
d="M611 482h100l-155 -482h-84l-111 327l-112 -327h-83l-156 482h100l102 -314l107 314h83l108 -314zM320 700l76 -136h-70l-101 136h95z" />
    <glyph glyph-name="yacute" unicode="&#xfd;" horiz-adv-x="467" 
d="M452 482l-166 -464c-54 -143 -104 -245 -243 -216l16 95c55 -11 79 3 124 118l-168 467h102l117 -333l116 333h102zM284 700h95l-101 -136h-70z" />
    <glyph glyph-name="ycircumflex" unicode="&#x177;" horiz-adv-x="467" 
d="M452 482l-166 -464c-54 -143 -104 -245 -243 -216l16 95c55 -11 79 3 124 118l-168 467h102l117 -333l116 333h102zM298 700l112 -136h-101l-54 70l-55 -70h-100l111 136h87z" />
    <glyph glyph-name="ydieresis" unicode="&#xff;" horiz-adv-x="467" 
d="M452 482l-166 -464c-54 -143 -104 -245 -243 -216l16 95c55 -11 79 3 124 118l-168 467h102l117 -333l116 333h102zM173 678c27 0 49 -23 49 -50s-22 -49 -49 -49s-49 22 -49 49s22 50 49 50zM335 678c27 0 49 -23 49 -50s-22 -49 -49 -49c-28 0 -50 22 -50 49
s22 50 50 50z" />
    <glyph glyph-name="ygrave" unicode="&#x1ef3;" horiz-adv-x="467" 
d="M452 482l-166 -464c-54 -143 -104 -245 -243 -216l16 95c55 -11 79 3 124 118l-168 467h102l117 -333l116 333h102zM223 700l76 -136h-70l-101 136h95z" />
    <glyph glyph-name="zacute" unicode="&#x17a;" horiz-adv-x="432" 
d="M156 96h246v-96h-372v96l238 291h-224v95h349v-95zM257 700h95l-101 -136h-70z" />
    <glyph glyph-name="zcaron" unicode="&#x17e;" horiz-adv-x="432" 
d="M156 96h246v-96h-372v96l238 291h-224v95h349v-95zM383 700l-112 -136h-87l-111 136h100l55 -70l54 70h101z" />
    <glyph glyph-name="zdotaccent" unicode="&#x17c;" horiz-adv-x="432" 
d="M156 96h246v-96h-372v96l238 291h-224v95h349v-95zM226 678c27 0 50 -23 50 -50s-23 -49 -50 -49s-49 22 -49 49s22 50 49 50z" />
    <glyph glyph-name="uni0403" unicode="&#x403;" horiz-adv-x="473" 
d="M65 0v113h96v-113h-96zM127 700h316v-95h-220zM65 614l96 -94v-309h-96v403zM297 900h95l-101 -136h-70z" />
    <glyph glyph-name="uni0453" unicode="&#x453;" horiz-adv-x="382" 
d="M352 482v-96h-211v-386h-96v482h307zM239 700h95l-101 -136h-70z" />
    <glyph glyph-name="uni040C" unicode="&#x40c;" horiz-adv-x="611" 
d="M475 0l-214 305h-100v-305h-96v700h96v-303h84l208 303h122l-237 -337l258 -363h-121zM344 900h95l-101 -136h-70z" />
    <glyph glyph-name="uni045C" unicode="&#x45c;" horiz-adv-x="469" 
d="M341 0l-131 196h-70v-196h-95v482h95v-196h59l133 196h113l-160 -231l169 -251h-113zM282 700h95l-101 -136h-70z" />
    <glyph glyph-name="uni040E" unicode="&#x40e;" horiz-adv-x="575" 
d="M456 700h104l-292 -700h-104l91 212l-235 488h107l178 -373zM354 900h75c0 -68 -55 -124 -124 -124c-68 0 -124 56 -124 124h75c0 -27 22 -49 49 -49s49 22 49 49z" />
    <glyph glyph-name="uni045E" unicode="&#x45e;" horiz-adv-x="467" 
d="M452 482l-166 -464c-54 -143 -104 -245 -243 -216l16 95c55 -11 79 3 124 118l-168 467h102l117 -333l116 333h102zM285 700h75c0 -68 -55 -124 -124 -124c-68 0 -124 56 -124 124h75c0 -27 22 -49 49 -49s49 22 49 49z" />
    <glyph glyph-name="uni0407" unicode="&#x407;" horiz-adv-x="260" 
d="M82 489h95v-489h-95v489zM82 700h95v-113h-95v113zM49 878c27 0 49 -23 49 -50s-22 -49 -49 -49s-49 22 -49 49s22 50 49 50zM211 878c27 0 49 -23 49 -50s-22 -49 -49 -49c-28 0 -50 22 -50 49s22 50 50 50z" />
    <glyph glyph-name="uni0457" unicode="&#x457;" horiz-adv-x="250" 
d="M87 0v482h95v-482h-95zM54 678c27 0 49 -23 49 -50s-22 -49 -49 -49s-49 22 -49 49s22 50 49 50zM216 678c27 0 49 -23 49 -50s-22 -49 -49 -49c-28 0 -50 22 -50 49s22 50 50 50z" />
    <glyph glyph-name="uni021A" unicode="&#x21a;" horiz-adv-x="567" 
d="M236 0v469h95v-469h-95zM30 700h507v-95h-507v95zM233 -77h90l-57 -131h-62z" />
    <glyph glyph-name="uni021B" unicode="&#x21b;" horiz-adv-x="341" 
d="M271 107l52 -73c-37 -36 -107 -50 -156 -35c-60 19 -87 68 -87 156v241h-65v86h65v101l95 26v-127h99v-86h-99v-237c0 -43 9 -61 30 -69c20 -8 50 1 66 17zM137 -77h90l-57 -131h-62z" />
    <glyph glyph-name="minus" unicode="&#x2212;" horiz-adv-x="508" 
d="M60 348h388v-84h-388v84z" />
    <glyph glyph-name="quotesinglbase" unicode="&#x201a;" horiz-adv-x="209" 
d="M79 10h90l-69 -168h-50z" />
    <glyph glyph-name="quotedblbase" unicode="&#x201e;" horiz-adv-x="343" 
d="M50 -158l29 168h90l-69 -168h-50zM213 10h90l-69 -168h-50z" />
    <glyph glyph-name="H" unicode="H" horiz-adv-x="667" 
d="M65 0v188h95v-188h-95zM506 700h96v-188h-96v188zM160 397h442v-397h-96v304h-441v396h95v-303z" />
    </font>
</defs>
</svg>
