<?xml version="1.0" standalone="no"?>
<!DOCTYPE svg PUBLIC "-//W3C//DTD SVG 1.1//EN" "http://www.w3.org/Graphics/SVG/1.1/DTD/svg11.dtd" >
<svg xmlns="http://www.w3.org/2000/svg" xmlns:xlink="http://www.w3.org/1999/xlink" version="1.1">
<metadata>
Created by FontForge 20170910 at Tue Mar 13 17:31:39 2018
 By Jimmy Wärting
Copyright \(c\) 2018 by MadeType. All rights reserved.
</metadata>
<defs>
<font id="MADEEvolveSans" horiz-adv-x="575" >
  <font-face 
    font-family="MADE Evolve Sans"
    font-weight="400"
    font-stretch="normal"
    units-per-em="1000"
    panose-1="2 0 5 3 0 0 0 2 0 4"
    ascent="800"
    descent="-200"
    x-height="482"
    cap-height="700"
    bbox="-65 -226 1066 976"
    underline-thickness="50"
    underline-position="-100"
    unicode-range="U+0020-F6C3"
  />
<missing-glyph horiz-adv-x="280" 
 />
    <glyph glyph-name=".notdef" horiz-adv-x="280" 
 />
    <glyph glyph-name="A" unicode="A" horiz-adv-x="655" 
d="M545 0l-76 203h-283l-76 -203h-80l264 700h66l265 -700h-80zM213 275h229l-115 310z" />
    <glyph glyph-name="B" unicode="B" horiz-adv-x="593" 
d="M434 379c72 -32 114 -97 114 -173c0 -112 -69 -206 -222 -206h-261v700h244c140 0 199 -82 199 -183c0 -58 -27 -107 -74 -138zM304 628l-166 -1v-221h159c99 0 133 50 133 111s-27 111 -126 111zM324 72c99 0 146 61 146 134c0 72 -46 134 -150 134h-182v-268h186z" />
    <glyph glyph-name="C" unicode="C" horiz-adv-x="709" 
d="M390 63c96 0 177 48 225 121l64 -32c-60 -96 -165 -160 -289 -160c-197 0 -345 160 -345 357s148 357 345 357c124 0 229 -63 289 -160l-64 -31c-48 72 -129 120 -225 120c-158 0 -271 -128 -271 -286s113 -286 271 -286z" />
    <glyph glyph-name="D" unicode="D" horiz-adv-x="673" 
d="M280 700c218 0 353 -158 353 -351s-138 -349 -353 -349h-215v700h215zM274 72c179 0 282 124 282 277c0 154 -107 279 -281 279h-138v-556h137z" />
    <glyph glyph-name="E" unicode="E" 
d="M132 72h393v-72h-465v700h459v-72h-387v-242h356v-72h-356v-242z" />
    <glyph glyph-name="F" unicode="F" horiz-adv-x="534" 
d="M519 628h-387v-242h320v-72h-320v-314h-72v700h459v-72z" />
    <glyph glyph-name="G" unicode="G" horiz-adv-x="715" 
d="M670 359v-207c-60 -96 -165 -160 -289 -160c-197 0 -346 160 -346 357s149 357 346 357c124 0 228 -63 289 -160l-64 -31c-49 72 -129 120 -225 120c-158 0 -272 -128 -272 -286s114 -286 272 -286c88 0 170 44 217 105v119h-219v72h291z" />
    <glyph glyph-name="I" unicode="I" horiz-adv-x="202" 
d="M65 700h72v-700h-72v700z" />
    <glyph glyph-name="J" unicode="J" horiz-adv-x="407" 
d="M347 700v-513c0 -123 -56 -195 -166 -195c-82 0 -143 49 -160 76l53 42c18 -21 54 -46 104 -46c59 0 96 37 96 121v515h73z" />
    <glyph glyph-name="K" unicode="K" horiz-adv-x="594" 
d="M496 0l-252 352l-106 -118v-234h-73v700h73v-358l324 358h96l-264 -293l290 -407h-88z" />
    <glyph glyph-name="L" unicode="L" horiz-adv-x="500" 
d="M132 72h348v-72h-420v700h72v-628z" />
    <glyph glyph-name="M" unicode="M" horiz-adv-x="817" 
d="M685 700h67v-700h-73v561l-247 -386h-49l-245 386v-561h-73v700h67l276 -436z" />
    <glyph glyph-name="N" unicode="N" horiz-adv-x="662" 
d="M525 700h72v-700h-66l-394 568v-568h-72v700h66l394 -566v566z" />
    <glyph glyph-name="O" unicode="O" horiz-adv-x="769" 
d="M385 706c197 0 339 -160 339 -357s-142 -357 -339 -357s-340 160 -340 357s143 357 340 357zM385 63c157 0 265 128 265 286s-108 286 -265 286c-158 0 -266 -128 -266 -286s108 -286 266 -286z" />
    <glyph glyph-name="P" unicode="P" horiz-adv-x="587" 
d="M328 700c131 0 219 -99 219 -217s-92 -217 -219 -217h-190v-266h-73v700h263zM328 338c88 0 144 67 144 145s-55 145 -144 145h-190v-290h190z" />
    <glyph glyph-name="Q" unicode="Q" horiz-adv-x="758" 
d="M718 349c0 -91 -31 -175 -84 -239l79 -78l-52 -51l-79 79c-55 -42 -125 -67 -203 -67c-197 0 -339 159 -339 356s142 357 339 357s339 -160 339 -357zM379 64c59 0 110 17 152 48l-77 77l51 51l78 -78c39 50 61 116 61 187c0 158 -107 286 -265 286s-265 -128 -265 -286
c0 -157 107 -285 265 -285z" />
    <glyph glyph-name="R" unicode="R" horiz-adv-x="592" 
d="M564 0h-83l-150 266h-4h-190v-266h-72v700h262c131 0 220 -99 220 -217c0 -92 -56 -172 -141 -203zM137 628v-290h190c89 0 145 67 145 145s-56 145 -145 145h-190z" />
    <glyph glyph-name="S" unicode="S" horiz-adv-x="596" 
d="M309 388c129 -21 257 -55 257 -193c0 -135 -127 -203 -255 -203c-158 0 -252 75 -281 154l69 24c28 -67 104 -106 210 -106c74 0 184 33 184 131c0 76 -59 97 -196 122s-248 63 -249 192c-1 103 77 198 249 198c123 0 214 -65 240 -150l-69 -24c-18 75 -94 102 -171 102
c-109 0 -177 -43 -177 -126c0 -70 57 -98 189 -121z" />
    <glyph glyph-name="T" unicode="T" horiz-adv-x="547" 
d="M527 700v-72h-217v-628h-72v628h-218v72h507z" />
    <glyph glyph-name="U" unicode="U" horiz-adv-x="640" 
d="M508 700h72v-419c0 -199 -113 -289 -257 -289s-263 86 -263 286v422h72v-425c0 -140 87 -211 191 -211s185 74 185 211v425z" />
    <glyph glyph-name="V" unicode="V" horiz-adv-x="601" 
d="M521 700h80l-267 -700h-66l-268 700h81l220 -585z" />
    <glyph glyph-name="W" unicode="W" horiz-adv-x="979" 
d="M891 700h78l-226 -700h-73l-179 582l-179 -582h-73l-229 700h81l186 -581l179 581h70l179 -581z" />
    <glyph glyph-name="X" unicode="X" horiz-adv-x="624" 
d="M614 0h-89l-213 297l-213 -297h-89l257 359l-243 341h89l199 -278l199 278h89l-244 -341z" />
    <glyph glyph-name="Y" unicode="Y" horiz-adv-x="559" 
d="M559 700l-243 -434v-266h-73v265l-243 435h83l196 -351l197 351h83z" />
    <glyph glyph-name="Z" unicode="Z" horiz-adv-x="585" 
d="M118 73h447v-73h-545v73l439 555h-409v72h501v-72z" />
    <glyph glyph-name="a" unicode="a" horiz-adv-x="470" 
d="M425 0h-72v58c-43 -37 -99 -65 -168 -65c-89 0 -155 44 -155 125c0 95 74 138 222 162c75 12 104 26 103 58c-1 33 -18 86 -110 86c-85 0 -109 -42 -121 -83l-64 15c13 65 69 133 187 133c112 0 177 -64 177 -166c0 -98 1 -323 1 -323zM191 61c94 0 165 59 164 146v22
c-26 -5 -57 -9 -93 -15c-104 -17 -156 -38 -156 -91s61 -62 85 -62z" />
    <glyph glyph-name="b" unicode="b" horiz-adv-x="547" 
d="M286 489c138 0 226 -111 226 -249c0 -137 -88 -247 -226 -247c-69 0 -122 27 -159 72v-65h-72v700h72v-284c37 45 90 73 159 73zM286 63c99 0 153 78 153 177s-54 179 -153 179s-156 -80 -156 -179s57 -177 156 -177z" />
    <glyph glyph-name="c" unicode="c" horiz-adv-x="485" 
d="M262 63c59 0 106 27 135 72l63 -31c-40 -68 -111 -111 -198 -111c-138 0 -232 110 -232 247c0 138 94 249 231 249c88 0 159 -45 199 -113l-63 -30c-29 44 -76 73 -136 73c-98 0 -158 -80 -158 -179s60 -177 159 -177z" />
    <glyph glyph-name="d" unicode="d" horiz-adv-x="542" 
d="M415 700h72v-700h-72v65c-36 -45 -90 -72 -159 -72c-138 0 -226 110 -226 247c0 138 88 249 226 249c69 0 123 -28 159 -73v284zM256 63c99 0 156 78 156 177s-57 179 -156 179s-153 -80 -153 -179s54 -177 153 -177z" />
    <glyph glyph-name="e" unicode="e" horiz-adv-x="512" 
d="M259 489c138 0 218 -111 218 -249c0 -8 -1 -17 -1 -25h-371c10 -87 70 -152 160 -152c60 0 104 27 133 72l63 -31c-40 -68 -108 -111 -196 -111c-137 0 -235 110 -235 247c0 138 92 249 229 249zM259 419c-82 0 -136 -56 -151 -132h295c-14 76 -61 132 -144 132z" />
    <glyph glyph-name="f" unicode="f" horiz-adv-x="299" 
d="M188 624c-18 -15 -20 -38 -20 -78v-64h93v-72h-93v-410h-72v410h-71v72h71v66c0 109 39 150 101 158c32 3 84 -8 117 -37l-40 -55c-31 24 -71 23 -86 10z" />
    <glyph glyph-name="g" unicode="g" horiz-adv-x="542" 
d="M414 482h73v-462c0 -154 -84 -246 -229 -246c-84 0 -162 42 -201 106l60 36c27 -44 83 -72 141 -72c98 0 156 61 156 182v39c-36 -45 -90 -72 -158 -72c-138 0 -226 110 -226 247c0 138 88 249 226 249c68 0 122 -27 158 -72v65zM256 63c98 0 155 78 155 177
s-57 179 -155 179c-99 0 -153 -80 -153 -179s54 -177 153 -177z" />
    <glyph glyph-name="h" unicode="h" horiz-adv-x="500" 
d="M267 489c96 0 183 -46 183 -223v-266h-72v266c0 105 -44 151 -122 151c-74 0 -128 -50 -128 -157v-260h-73v700h73v-274c33 39 80 63 139 63z" />
    <glyph glyph-name="i" unicode="i" horiz-adv-x="191" 
d="M59 0v482h73v-482h-73zM95 574c-22 0 -40 18 -40 40c0 23 18 41 40 41c23 0 41 -18 41 -41c0 -22 -18 -40 -41 -40z" />
    <glyph glyph-name="j" unicode="j" horiz-adv-x="204" 
d="M108 574c-22 0 -40 18 -40 40c0 23 18 41 40 41c23 0 41 -18 41 -41c0 -22 -18 -40 -41 -40zM72 -65v547h73v-549c0 -112 -39 -150 -102 -158c-31 -3 -73 10 -108 38l41 55c30 -26 61 -24 76 -11c18 15 20 38 20 78z" />
    <glyph glyph-name="k" unicode="k" horiz-adv-x="473" 
d="M369 0l-170 234l-72 -78v-156h-72v700h72v-438l203 220h98l-179 -194l209 -288h-89z" />
    <glyph glyph-name="l" unicode="l" horiz-adv-x="182" 
d="M55 750h72v-750h-72v750z" />
    <glyph glyph-name="space" unicode=" " horiz-adv-x="280" 
 />
    <glyph glyph-name="m" unicode="m" horiz-adv-x="787" 
d="M558 489c96 0 174 -46 174 -223v-266h-72v266c0 105 -35 151 -113 151c-74 0 -117 -51 -117 -157v-260h-72v266c0 105 -36 151 -114 151c-74 0 -116 -51 -116 -157v-260h-73v482h73v-49c30 35 73 56 128 56c63 0 118 -20 149 -84c33 51 85 84 153 84z" />
    <glyph glyph-name="n" unicode="n" horiz-adv-x="505" 
d="M267 489c95 0 183 -46 183 -223v-266h-72v266c0 105 -45 151 -123 151c-74 0 -128 -51 -128 -157v-260h-72v482h72v-56c34 39 81 63 140 63z" />
    <glyph glyph-name="o" unicode="o" horiz-adv-x="537" 
d="M267 489c138 0 235 -111 235 -249s-97 -248 -235 -248c-137 0 -232 110 -232 248s95 249 232 249zM267 63c99 0 162 78 162 177s-63 179 -162 179s-159 -80 -159 -179s60 -177 159 -177z" />
    <glyph glyph-name="p" unicode="p" horiz-adv-x="547" 
d="M286 489c138 0 226 -111 226 -249s-88 -248 -226 -248c-68 0 -122 28 -159 73v-283h-72v700h72v-66c37 45 91 73 159 73zM286 63c99 0 153 78 153 177s-54 179 -153 179c-98 0 -155 -80 -155 -179s57 -177 155 -177z" />
    <glyph glyph-name="q" unicode="q" horiz-adv-x="545" 
d="M418 482h72v-700h-72v283c-36 -45 -90 -73 -159 -73c-138 0 -229 110 -229 248s91 249 229 249c69 0 123 -28 159 -73v66zM259 63c99 0 156 78 156 177s-57 179 -156 179s-153 -80 -153 -179s54 -177 153 -177z" />
    <glyph glyph-name="r" unicode="r" horiz-adv-x="308" 
d="M262 489c12 0 24 -1 36 -2l-14 -73c-10 2 -21 3 -33 3c-74 0 -128 -51 -128 -157v-260h-73v482h73v-56c33 39 81 63 139 63z" />
    <glyph glyph-name="s" unicode="s" horiz-adv-x="426" 
d="M222 278c81 -17 169 -49 169 -141c0 -101 -89 -145 -176 -145c-93 0 -164 46 -190 113l66 27c15 -43 60 -68 124 -68c40 0 103 14 103 73c0 38 -25 53 -110 71c-72 14 -164 33 -178 123c-12 86 60 158 167 158c84 0 148 -41 170 -104l-67 -26c-12 35 -48 56 -102 58
c-70 2 -103 -35 -96 -74c6 -38 50 -49 120 -65z" />
    <glyph glyph-name="t" unicode="t" horiz-adv-x="319" 
d="M267 85l37 -55c-34 -28 -82 -41 -113 -37c-63 7 -102 46 -102 157v259h-74v73h74v106l73 20v-126h102v-73h-102v-257c0 -40 2 -63 19 -78c16 -13 56 -14 86 11z" />
    <glyph glyph-name="u" unicode="u" horiz-adv-x="500" 
d="M373 482h72v-482h-72v56c-33 -39 -78 -64 -137 -64c-95 0 -186 47 -186 224v266h73v-266c0 -105 44 -151 122 -151c74 0 128 50 128 157v260z" />
    <glyph glyph-name="v" unicode="v" horiz-adv-x="448" 
d="M360 482h78l-176 -482h-77l-175 482h77l137 -381z" />
    <glyph glyph-name="w" unicode="w" horiz-adv-x="710" 
d="M630 482h75l-156 -482h-73l-121 365l-121 -365h-73l-156 482h76l118 -365l121 365h70l121 -365z" />
    <glyph glyph-name="x" unicode="x" horiz-adv-x="455" 
d="M450 0h-89l-134 186l-133 -186h-89l178 248l-168 234h89l123 -172l123 172h90l-168 -234z" />
    <glyph glyph-name="y" unicode="y" horiz-adv-x="443" 
d="M361 482h77l-169 -467c-30 -78 -53 -132 -81 -171c-38 -51 -92 -60 -150 -45l13 71c68 -13 87 6 135 130l-176 482h78l136 -381z" />
    <glyph glyph-name="z" unicode="z" horiz-adv-x="439" 
d="M124 72h290v-72h-384v72l276 337h-262v73h356v-73z" />
    <glyph glyph-name="uni0410" unicode="&#x410;" horiz-adv-x="655" 
d="M545 0l-76 203h-283l-76 -203h-80l264 700h66l265 -700h-80zM213 275h229l-115 310z" />
    <glyph glyph-name="uni0412" unicode="&#x412;" horiz-adv-x="593" 
d="M434 379c72 -32 114 -97 114 -173c0 -112 -69 -206 -222 -206h-261v700h244c140 0 199 -82 199 -183c0 -58 -27 -107 -74 -138zM304 628l-166 -1v-221h159c99 0 133 50 133 111s-27 111 -126 111zM324 72c99 0 146 61 146 134c0 72 -46 134 -150 134h-182v-268h186z" />
    <glyph glyph-name="uni0421" unicode="&#x421;" horiz-adv-x="709" 
d="M390 63c96 0 177 48 225 121l64 -32c-60 -96 -165 -160 -289 -160c-197 0 -345 160 -345 357s148 357 345 357c124 0 229 -63 289 -160l-64 -31c-48 72 -129 120 -225 120c-158 0 -271 -128 -271 -286s113 -286 271 -286z" />
    <glyph glyph-name="uni0415" unicode="&#x415;" 
d="M132 72h393v-72h-465v700h459v-72h-387v-242h356v-72h-356v-242z" />
    <glyph glyph-name="uni041D" unicode="&#x41d;" horiz-adv-x="660" 
d="M523 700h72v-700h-72v314h-386v-314h-72v700h72v-314h386v314z" />
    <glyph glyph-name="uni041A" unicode="&#x41a;" horiz-adv-x="594" 
d="M496 0l-252 352l-106 -118v-234h-73v700h73v-358l324 358h96l-264 -293l290 -407h-88z" />
    <glyph glyph-name="uni041C" unicode="&#x41c;" horiz-adv-x="817" 
d="M685 700h67v-700h-73v561l-247 -386h-49l-245 386v-561h-73v700h67l276 -436z" />
    <glyph glyph-name="uni041E" unicode="&#x41e;" horiz-adv-x="769" 
d="M385 706c197 0 339 -160 339 -357s-142 -357 -339 -357s-340 160 -340 357s143 357 340 357zM385 63c157 0 265 128 265 286s-108 286 -265 286c-158 0 -266 -128 -266 -286s108 -286 266 -286z" />
    <glyph glyph-name="uni0420" unicode="&#x420;" horiz-adv-x="587" 
d="M328 700c131 0 219 -99 219 -217s-92 -217 -219 -217h-190v-266h-73v700h263zM328 338c88 0 144 67 144 145s-55 145 -144 145h-190v-290h190z" />
    <glyph glyph-name="uni0422" unicode="&#x422;" horiz-adv-x="547" 
d="M527 700v-72h-217v-628h-72v628h-218v72h507z" />
    <glyph glyph-name="uni0425" unicode="&#x425;" horiz-adv-x="624" 
d="M614 0h-89l-213 297l-213 -297h-89l257 359l-243 341h89l199 -278l199 278h89l-244 -341z" />
    <glyph glyph-name="uni0430" unicode="&#x430;" horiz-adv-x="470" 
d="M425 0h-72v58c-43 -37 -99 -65 -168 -65c-89 0 -155 44 -155 125c0 95 74 138 222 162c75 12 104 26 103 58c-1 33 -18 86 -110 86c-85 0 -109 -42 -121 -83l-64 15c13 65 69 133 187 133c112 0 177 -64 177 -166c0 -98 1 -323 1 -323zM191 61c94 0 165 59 164 146v22
c-26 -5 -57 -9 -93 -15c-104 -17 -156 -38 -156 -91s61 -62 85 -62z" />
    <glyph glyph-name="uni0441" unicode="&#x441;" horiz-adv-x="485" 
d="M262 63c59 0 106 27 135 72l63 -31c-40 -68 -111 -111 -198 -111c-138 0 -232 110 -232 247c0 138 94 249 231 249c88 0 159 -45 199 -113l-63 -30c-29 44 -76 73 -136 73c-98 0 -158 -80 -158 -179s60 -177 159 -177z" />
    <glyph glyph-name="uni0435" unicode="&#x435;" horiz-adv-x="512" 
d="M259 489c138 0 218 -111 218 -249c0 -8 -1 -17 -1 -25h-371c10 -87 70 -152 160 -152c60 0 104 27 133 72l63 -31c-40 -68 -108 -111 -196 -111c-137 0 -235 110 -235 247c0 138 92 249 229 249zM259 419c-82 0 -136 -56 -151 -132h295c-14 76 -61 132 -144 132z" />
    <glyph glyph-name="uni043E" unicode="&#x43e;" horiz-adv-x="537" 
d="M267 489c138 0 235 -111 235 -249s-97 -248 -235 -248c-137 0 -232 110 -232 248s95 249 232 249zM267 63c99 0 162 78 162 177s-63 179 -162 179s-159 -80 -159 -179s60 -177 159 -177z" />
    <glyph glyph-name="uni0440" unicode="&#x440;" horiz-adv-x="547" 
d="M286 489c138 0 226 -111 226 -249s-88 -248 -226 -248c-68 0 -122 28 -159 73v-283h-72v700h72v-66c37 45 91 73 159 73zM286 63c99 0 153 78 153 177s-54 179 -153 179c-98 0 -155 -80 -155 -179s57 -177 155 -177z" />
    <glyph glyph-name="uni0445" unicode="&#x445;" horiz-adv-x="455" 
d="M450 0h-89l-134 186l-133 -186h-89l178 248l-168 234h89l123 -172l123 172h90l-168 -234z" />
    <glyph glyph-name="uni0443" unicode="&#x443;" horiz-adv-x="448" 
d="M366 482h77l-169 -467c-30 -78 -53 -132 -81 -171c-38 -51 -92 -60 -150 -45l13 71c68 -13 87 6 135 130l-176 482h78l136 -381z" />
    <glyph glyph-name="uni0411" unicode="&#x411;" horiz-adv-x="598" 
d="M137 409h186c154 0 228 -89 228 -201s-74 -208 -220 -208h-266v700h411v-73h-339v-218zM329 72c99 0 146 61 146 134c0 72 -46 133 -150 133h-188v-267h192z" />
    <glyph glyph-name="uni0413" unicode="&#x413;" horiz-adv-x="462" 
d="M442 700v-73h-304v-627h-73v700h377z" />
    <glyph glyph-name="uni0414" unicode="&#x414;" horiz-adv-x="716" 
d="M605 72h71v-199h-72v127h-501v-127h-73v199h67c98 132 105 442 105 613v15h403v-628zM274 627c-3 -208 -22 -427 -94 -555h352v555h-258z" />
    <glyph glyph-name="uni0401" unicode="&#x401;" 
d="M185 811c-22 0 -40 18 -40 40s18 40 40 40c23 0 41 -18 41 -40s-18 -40 -41 -40zM383 811c-22 0 -40 18 -40 40s18 40 40 40s40 -18 40 -40s-18 -40 -40 -40zM132 72h393v-72h-465v700h459v-72h-387v-242h356v-72h-356v-242z" />
    <glyph glyph-name="uni0416" unicode="&#x416;" horiz-adv-x="964" 
d="M866 0l-251 352l-97 -118v-234h-72v234l-97 118l-251 -352h-88l289 407l-264 293h97l314 -358v358h72v-358l314 358h97l-265 -293l290 -407h-88z" />
    <glyph glyph-name="uni0417" unicode="&#x417;" horiz-adv-x="581" 
d="M395 368c35 -9 141 -44 141 -164c0 -113 -85 -212 -248 -212c-124 0 -222 59 -258 124l64 34c27 -45 93 -90 191 -90c106 0 178 57 178 143c0 83 -64 124 -184 124h-95v70h92c100 0 149 58 149 133c0 70 -70 107 -141 107c-89 0 -146 -35 -177 -97l-66 15
c34 93 133 151 243 151c125 0 214 -75 214 -172c0 -80 -45 -140 -103 -166z" />
    <glyph glyph-name="uni0418" unicode="&#x418;" horiz-adv-x="662" 
d="M531 700h66v-700h-72v568l-394 -568h-66v700h72v-566z" />
    <glyph glyph-name="uni0419" unicode="&#x419;" horiz-adv-x="662" 
d="M336 762c-73 0 -131 58 -131 131h61c0 -40 30 -70 70 -70c41 0 71 30 71 70h61c0 -73 -58 -131 -132 -131zM531 700h66v-700h-72v568l-394 -568h-66v700h72v-566z" />
    <glyph glyph-name="uni041B" unicode="&#x41b;" horiz-adv-x="632" 
d="M169 700h403v-700h-72v627h-259c-1 -110 -4 -228 -16 -329c-17 -144 -50 -231 -104 -274c-37 -29 -89 -32 -121 -24l16 70c23 -5 44 -2 60 11c37 29 63 105 77 226c15 119 16 265 16 393z" />
    <glyph glyph-name="uni041F" unicode="&#x41f;" horiz-adv-x="661" 
d="M65 700h531v-700h-73v627h-385v-627h-73v700z" />
    <glyph glyph-name="uni0423" unicode="&#x423;" horiz-adv-x="557" 
d="M468 700h79l-223 -513c-16 -37 -40 -92 -78 -133c-65 -72 -145 -62 -176 -51l21 69c74 -22 116 30 160 129l-251 499h81l208 -413z" />
    <glyph glyph-name="uni0424" unicode="&#x424;" horiz-adv-x="826" 
d="M781 349c0 -185 -151 -283 -332 -295v-84h-72v84c-182 12 -332 110 -332 295s150 283 332 295v84h72v-84c181 -12 332 -110 332 -295zM119 349c0 -145 116 -214 258 -224v448c-142 -10 -258 -78 -258 -224zM449 125c142 10 258 79 258 224c0 146 -116 214 -258 224v-448z
" />
    <glyph glyph-name="uni0426" unicode="&#x426;" horiz-adv-x="691" 
d="M564 72h87v-199h-73v127h-513v700h72v-628h355v628h72v-628z" />
    <glyph glyph-name="uni0427" unicode="&#x427;" horiz-adv-x="608" 
d="M471 696h72v-700h-72v303c-54 -37 -130 -57 -196 -57c-146 0 -230 82 -230 260v198h72v-198c0 -123 51 -188 158 -188c93 0 157 31 196 67v315z" />
    <glyph glyph-name="uni0428" unicode="&#x428;" horiz-adv-x="960" 
d="M895 700v-700h-830v700h72v-628h307v628h72v-628h307v628h72z" />
    <glyph glyph-name="uni0429" unicode="&#x429;" horiz-adv-x="1022" 
d="M896 72h86v-199h-72v127h-845v700h73v-628h307v628h72v-628h307v628h72v-628z" />
    <glyph glyph-name="uni042A" unicode="&#x42a;" horiz-adv-x="659" 
d="M399 434c127 0 220 -99 220 -217s-88 -217 -220 -217h-262v628h-127v72h199v-266h190zM399 72c89 0 145 67 145 145s-56 145 -145 145h-190v-290h190z" />
    <glyph glyph-name="uni042B" unicode="&#x42b;" horiz-adv-x="782" 
d="M327 434c128 0 220 -99 220 -217s-88 -217 -220 -217h-262v700h72v-266h190zM327 72c90 0 145 67 145 145s-56 145 -145 145h-190v-290h190zM645 700h72v-700h-72v700z" />
    <glyph glyph-name="uni042C" unicode="&#x42c;" horiz-adv-x="587" 
d="M327 434c127 0 220 -99 220 -217s-89 -217 -220 -217h-262v700h72v-266h190zM327 72c89 0 145 67 145 145s-56 145 -145 145h-190v-290h190z" />
    <glyph glyph-name="uni042D" unicode="&#x42d;" horiz-adv-x="710" 
d="M320 706c197 0 345 -160 345 -357s-148 -356 -345 -356c-125 0 -229 63 -290 159l64 32c49 -73 130 -120 226 -120c145 0 253 109 269 250h-350v72h350c-16 141 -124 249 -269 249c-96 0 -177 -47 -226 -120l-64 31c61 97 165 160 290 160z" />
    <glyph glyph-name="uni042E" unicode="&#x42e;" horiz-adv-x="1011" 
d="M626 706c197 0 340 -160 340 -357s-143 -356 -340 -356c-185 0 -322 140 -338 321h-151v-314h-72v700h72v-314h151c17 180 154 320 338 320zM626 64c158 0 266 127 266 285s-108 286 -266 286s-265 -128 -265 -286s107 -285 265 -285z" />
    <glyph glyph-name="uni042F" unicode="&#x42f;" horiz-adv-x="590" 
d="M268 700h262v-700h-72v266h-190h-5l-150 -266h-83l158 280c-84 31 -140 111 -140 203c0 118 88 217 220 217zM268 338h190v290h-190c-90 0 -145 -67 -145 -145s56 -145 145 -145z" />
    <glyph glyph-name="uni0431" unicode="&#x431;" horiz-adv-x="522" 
d="M267 482c137 0 220 -103 220 -240c0 -138 -85 -249 -223 -249c-130 0 -216 99 -225 227c-11 124 -6 368 186 470c40 20 75 32 105 41c39 13 67 22 90 45l52 -51c-39 -35 -76 -49 -120 -62c-29 -10 -59 -20 -93 -37c-103 -55 -142 -137 -156 -223c41 46 98 79 164 79z
M264 63c99 0 150 80 150 179s-48 170 -147 170s-156 -71 -156 -170s54 -179 153 -179z" />
    <glyph glyph-name="uni0432" unicode="&#x432;" horiz-adv-x="474" 
d="M360 249c45 -17 79 -53 79 -111c0 -83 -62 -138 -153 -138h-231v482h202c103 0 153 -62 153 -139c0 -37 -22 -70 -50 -94zM257 410h-130v-133h130c45 0 78 21 78 66c0 46 -24 67 -78 67zM286 72c45 0 77 21 77 66c0 46 -27 67 -77 67h-159v-133h159z" />
    <glyph glyph-name="uni0433" unicode="&#x433;" horiz-adv-x="387" 
d="M362 482v-72h-235v-410h-72v482h307z" />
    <glyph glyph-name="uni0434" unicode="&#x434;" horiz-adv-x="554" 
d="M448 72h71v-191h-73v119h-359v-119h-72v191h50c48 64 76 213 76 400v10h307v-410zM212 410c-3 -107 -17 -244 -63 -338h226v338h-163z" />
    <glyph glyph-name="uni0436" unicode="&#x436;" horiz-adv-x="726" 
d="M622 0l-170 234l-60 -75v-159h-73v159l-60 75l-170 -234h-89l209 288l-179 194h98l191 -217v217h73v-217l191 217h99l-180 -194l209 -288h-89z" />
    <glyph glyph-name="uni0451" unicode="&#x451;" horiz-adv-x="512" 
d="M163 558c-22 0 -40 18 -40 40c0 23 18 41 40 41c23 0 41 -18 41 -41c0 -22 -18 -40 -41 -40zM346 558c-22 0 -40 18 -40 40c0 23 18 41 40 41s40 -18 40 -41c0 -22 -18 -40 -40 -40zM259 489c138 0 218 -111 218 -249c0 -8 -1 -17 -1 -25h-371c10 -87 70 -152 160 -152
c60 0 104 27 133 72l63 -31c-40 -68 -108 -111 -196 -111c-137 0 -235 110 -235 247c0 138 92 249 229 249zM259 419c-82 0 -136 -56 -151 -132h295c-14 76 -61 132 -144 132z" />
    <glyph glyph-name="uni0437" unicode="&#x437;" horiz-adv-x="421" 
d="M287 247c57 -8 104 -51 104 -114c0 -87 -76 -140 -184 -140c-87 0 -152 34 -192 89l56 35c26 -37 78 -59 131 -59c61 0 114 28 114 80c0 46 -45 70 -107 70h-61v66h47c66 0 99 34 99 78c0 42 -34 69 -88 69c-48 0 -94 -20 -123 -51l-46 46c35 37 94 73 171 73
c96 0 158 -59 158 -128c0 -50 -29 -98 -79 -114z" />
    <glyph glyph-name="uni0438" unicode="&#x438;" horiz-adv-x="504" 
d="M382 482h67v-482h-72v358l-255 -358h-67v482h73v-358z" />
    <glyph glyph-name="uni0439" unicode="&#x439;" horiz-adv-x="504" 
d="M258 540c-74 0 -131 58 -131 131h60c0 -40 30 -70 71 -70c40 0 70 30 70 70h61c0 -73 -58 -131 -131 -131zM382 482h67v-482h-72v358l-255 -358h-67v482h73v-358z" />
    <glyph glyph-name="uni043A" unicode="&#x43a;" horiz-adv-x="474" 
d="M370 0l-170 234l-72 -78v-156h-73v482h73v-220l203 220h98l-179 -194l209 -288h-89z" />
    <glyph glyph-name="uni043B" unicode="&#x43b;" horiz-adv-x="474" 
d="M118 482h301v-482h-73v410h-156c-2 -206 -18 -336 -83 -389c-31 -26 -66 -28 -102 -23l14 71c24 -4 35 2 42 8c50 41 57 215 57 381v24z" />
    <glyph glyph-name="uni043C" unicode="&#x43c;" horiz-adv-x="623" 
d="M502 482h66v-482h-72v354l-159 -232h-51l-158 232v-354h-73v482h67l190 -279z" />
    <glyph glyph-name="uni043D" unicode="&#x43d;" horiz-adv-x="504" 
d="M377 482h72v-482h-72v205h-249v-205h-73v482h73v-205h249v205z" />
    <glyph glyph-name="uni043F" unicode="&#x43f;" horiz-adv-x="504" 
d="M55 482h394v-482h-73v410h-249v-410h-72v482z" />
    <glyph glyph-name="uni0442" unicode="&#x442;" horiz-adv-x="443" 
d="M413 482v-72h-156v-410h-72v410h-155v72h383z" />
    <glyph glyph-name="uni0444" unicode="&#x444;" horiz-adv-x="639" 
d="M609 242c0 -129 -84 -234 -252 -248v-212h-72v212c-170 12 -255 119 -255 248s85 234 255 246v212h72v-212c168 -14 252 -118 252 -246zM103 242c0 -91 60 -166 182 -178v354c-130 -11 -182 -85 -182 -176zM357 65c120 12 179 87 179 177s-51 164 -179 175v-352z" />
    <glyph glyph-name="uni0446" unicode="&#x446;" horiz-adv-x="546" 
d="M440 72h71v-191h-73v119h-383v482h72v-410h240v410h73v-410z" />
    <glyph glyph-name="uni0447" unicode="&#x447;" horiz-adv-x="477" 
d="M349 482h73v-482h-73v189c-38 -20 -92 -39 -130 -39c-130 0 -174 76 -174 186v146h72v-146c0 -72 25 -119 99 -119c53 0 99 18 133 39v226z" />
    <glyph glyph-name="uni0448" unicode="&#x448;" horiz-adv-x="724" 
d="M669 482v-482h-614v482h72v-410h199v410h72v-410h198v410h73z" />
    <glyph glyph-name="uni0449" unicode="&#x449;" horiz-adv-x="775" 
d="M669 72h71v-191h-72v119h-613v482h73v-410h198v410h72v-410h199v410h72v-410z" />
    <glyph glyph-name="uni044A" unicode="&#x44a;" horiz-adv-x="533" 
d="M328 312c99 0 170 -58 170 -156s-77 -156 -170 -156h-195v409h-118v73h191v-170h122zM328 72c55 0 95 27 95 84s-39 84 -95 84h-122v-168h122z" />
    <glyph glyph-name="uni044B" unicode="&#x44b;" horiz-adv-x="613" 
d="M485 482h73v-482h-73v482zM239 312c100 0 171 -58 171 -156s-78 -156 -171 -156h-194v482h72v-170h122zM239 72c56 0 96 27 96 84s-39 84 -96 84h-122v-168h122z" />
    <glyph glyph-name="uni044C" unicode="&#x44c;" horiz-adv-x="445" 
d="M240 312c99 0 170 -58 170 -156s-77 -156 -170 -156h-195v482h73v-170h122zM240 72c55 0 95 27 95 84s-39 84 -95 84h-122v-168h122z" />
    <glyph glyph-name="uni044D" unicode="&#x44d;" horiz-adv-x="486" 
d="M219 489c137 0 232 -110 232 -247c0 -138 -95 -250 -232 -250c-88 0 -159 45 -199 113l63 31c29 -44 76 -74 136 -74c86 0 143 61 156 143h-219v72h219c-13 82 -70 142 -156 142c-60 0 -107 -27 -136 -72l-63 31c40 68 111 111 199 111z" />
    <glyph glyph-name="uni044E" unicode="&#x44e;" horiz-adv-x="724" 
d="M454 489c137 0 235 -111 235 -248c0 -138 -98 -249 -235 -249c-126 0 -215 92 -230 213h-96v-205h-73v482h73v-205h96c15 120 104 212 230 212zM454 62c99 0 162 80 162 179s-63 178 -162 178s-159 -79 -159 -178s60 -179 159 -179z" />
    <glyph glyph-name="uni044F" unicode="&#x44f;" horiz-adv-x="451" 
d="M202 482h194v-482h-72v169h-122c-3 0 -6 0 -8 1l-96 -170h-83l105 185c-55 24 -89 73 -89 141c0 98 78 156 171 156zM202 242h122v167h-122c-56 0 -96 -27 -96 -83c0 -57 39 -84 96 -84z" />
    <glyph glyph-name="one" unicode="1" horiz-adv-x="338" 
d="M176 700h72v-700h-72v541c-30 -31 -96 -66 -136 -70v55c59 16 126 105 136 174z" />
    <glyph glyph-name="two" unicode="2" horiz-adv-x="489" 
d="M439 72v-72h-389c0 119 71 210 153 296c76 79 116 129 132 193c23 92 -24 147 -96 147c-65 0 -104 -44 -122 -117l-64 15c12 75 69 172 186 172c121 0 199 -79 175 -216c-17 -93 -75 -160 -160 -245c-55 -56 -93 -106 -115 -173h300z" />
    <glyph glyph-name="three" unicode="3" horiz-adv-x="510" 
d="M344 382c77 -24 126 -99 126 -180c0 -114 -81 -209 -219 -209c-83 0 -165 42 -201 107l68 34c23 -42 72 -73 133 -73c90 0 144 60 144 139c0 83 -52 144 -148 144h-56v67h59c73 0 119 60 119 122c0 70 -47 104 -116 104c-66 0 -105 -31 -124 -93l-66 13
c22 93 97 149 190 149c122 0 187 -77 187 -169c0 -67 -43 -130 -96 -155z" />
    <glyph glyph-name="four" unicode="4" horiz-adv-x="571" 
d="M521 248v-73h-94v-175h-72v175h-305v73l305 452h72v-452h94zM137 248h218v323z" />
    <glyph glyph-name="five" unicode="5" horiz-adv-x="506" 
d="M244 458c130 10 212 -97 212 -231c0 -122 -73 -234 -221 -234c-92 0 -162 54 -197 108l61 38c22 -39 78 -79 136 -79c82 0 144 59 146 166c1 105 -55 162 -137 162c-57 0 -95 -39 -110 -67l-67 11l59 368h307v-73h-250l-33 -206c26 20 58 34 94 37z" />
    <glyph glyph-name="six" unicode="6" horiz-adv-x="539" 
d="M259 430c111 15 230 -48 230 -207c0 -128 -83 -230 -213 -230c-118 0 -250 109 -222 386c25 243 136 329 243 327c94 -2 145 -66 158 -80l-51 -49c-12 16 -44 59 -104 59c-119 0 -167 -147 -177 -289c23 32 67 73 136 83zM257 63c93 -18 160 68 160 158
c0 97 -65 140 -141 140c-62 0 -124 -48 -150 -105c5 -92 40 -176 131 -193z" />
    <glyph glyph-name="seven" unicode="7" horiz-adv-x="484" 
d="M40 700h404v-73l-280 -627h-79l280 627h-325v73z" />
    <glyph glyph-name="eight" unicode="8" horiz-adv-x="539" 
d="M363 381c77 -28 136 -95 136 -186s-63 -202 -229 -202c-167 0 -230 111 -230 202s59 158 137 186c-62 29 -95 87 -95 148c0 76 47 177 188 177c140 0 187 -101 187 -177c0 -61 -33 -119 -94 -148zM150 530c0 -59 39 -116 120 -116s120 57 120 116c0 71 -52 110 -120 110
s-120 -39 -120 -110zM270 61c86 1 156 51 156 136c0 86 -65 144 -156 144s-157 -58 -157 -144c0 -85 70 -135 157 -136z" />
    <glyph glyph-name="nine" unicode="9" horiz-adv-x="539" 
d="M266 706c118 0 247 -109 219 -387c-25 -242 -136 -328 -243 -326c-94 1 -145 65 -158 79l50 44c13 -15 45 -54 105 -54c118 0 167 147 177 290c-23 -33 -67 -74 -136 -83c-111 -16 -230 48 -230 207c0 127 86 230 216 230zM263 338c62 0 124 47 150 105
c-5 91 -40 175 -131 193c-93 18 -160 -69 -160 -158c0 -98 65 -140 141 -140z" />
    <glyph glyph-name="zero" unicode="0" horiz-adv-x="531" 
d="M266 704c193 0 215 -256 215 -355c0 -98 -29 -357 -215 -357s-216 259 -216 357c0 99 22 355 216 355zM266 64c91 0 140 115 140 285c0 171 -45 283 -140 283c-96 0 -141 -112 -141 -283c0 -170 50 -285 141 -285z" />
    <glyph glyph-name="period" unicode="." horiz-adv-x="191" 
d="M100 68c23 0 41 -18 41 -40c0 -23 -18 -41 -41 -41c-22 0 -40 18 -40 41c0 22 18 40 40 40z" />
    <glyph glyph-name="comma" unicode="," horiz-adv-x="166" 
d="M60 52h76l-69 -168h-47z" />
    <glyph glyph-name="exclam" unicode="!" horiz-adv-x="220" 
d="M137 173h-55l-8 527h72zM110 68c22 0 40 -18 40 -40c0 -23 -18 -41 -40 -41s-40 18 -40 41c0 22 18 40 40 40z" />
    <glyph glyph-name="question" unicode="?" horiz-adv-x="445" 
d="M192 68c22 0 40 -18 40 -40c0 -23 -18 -41 -40 -41s-40 18 -40 41c0 22 18 40 40 40zM223 706c96 0 190 -58 181 -191c-6 -74 -53 -138 -99 -192c-41 -49 -80 -95 -81 -150h-70c2 74 46 130 91 184c42 49 85 105 89 162c7 87 -41 117 -111 117c-63 0 -108 -57 -121 -117
l-62 15c15 89 81 172 183 172z" />
    <glyph glyph-name="colon" unicode=":" horiz-adv-x="210" 
d="M90 410c-22 0 -40 18 -40 40s18 40 40 40s40 -18 40 -40s-18 -40 -40 -40zM90 68c22 0 40 -18 40 -40c0 -23 -18 -41 -40 -41s-40 18 -40 41c0 22 18 40 40 40z" />
    <glyph glyph-name="semicolon" unicode=";" horiz-adv-x="210" 
d="M14 -116l41 168h75l-69 -168h-47zM90 410c-22 0 -40 18 -40 40s18 40 40 40s40 -18 40 -40s-18 -40 -40 -40z" />
    <glyph glyph-name="numbersign" unicode="#" horiz-adv-x="746" 
d="M701 418h-139l-32 -149h140l-15 -72h-140l-42 -197h-73l42 197h-193l-42 -197h-73l41 197h-145l15 72h146l31 149h-146l15 72h146l44 210h74l-44 -210h192l44 210h74l-44 -210h139zM457 269l31 149h-192l-32 -149h193z" />
    <glyph glyph-name="dollar" unicode="$" horiz-adv-x="605" 
d="M570 195c0 -126 -112 -193 -231 -202v-94h-73v96c-129 13 -205 80 -231 151l69 23c23 -56 81 -92 162 -101v255c-122 25 -213 67 -213 186c-1 96 62 185 213 196v96h73v-98c101 -12 180 -71 202 -147l-68 -23c-15 61 -73 89 -134 98v-248c118 -22 231 -61 231 -188z
M125 509c0 -58 39 -91 141 -113v236c-91 -7 -141 -48 -141 -123zM339 66c72 7 159 41 159 129c0 67 -51 92 -159 114v-243z" />
    <glyph glyph-name="cent" unicode="&#xa2;" horiz-adv-x="501" 
d="M292 64c50 5 90 33 115 72l64 -30c-38 -63 -101 -106 -179 -113v-94h-73v99c-108 25 -179 125 -179 244s71 218 179 243v98h73v-93c78 -6 141 -49 179 -112l-64 -31c-25 40 -65 67 -115 73v-356zM113 242c0 -80 39 -148 106 -171v341c-67 -23 -106 -91 -106 -170z" />
    <glyph glyph-name="Euro" unicode="&#x20ac;" horiz-adv-x="803" 
d="M474 64c96 0 176 47 225 120l64 -32c-61 -96 -165 -159 -289 -159c-164 0 -293 109 -333 259h-101l40 72h49c0 8 -1 17 -1 25c0 9 1 17 1 25h-89l40 73h61c40 149 169 259 333 259c124 0 228 -64 289 -160l-64 -31c-49 72 -129 120 -225 120c-124 0 -220 -79 -256 -188
h394l-40 -73h-369c0 -8 -1 -16 -1 -25c0 -8 1 -17 1 -25h341l-40 -72h-286c36 -110 132 -188 256 -188z" />
    <glyph glyph-name="yen" unicode="&#xa5;" horiz-adv-x="599" 
d="M579 700l-224 -400h150v-72h-169v-51h169v-72h-169v-105h-72v105h-170v72h170v51h-170v72h150l-224 400h83l196 -351l197 351h83z" />
    <glyph glyph-name="sterling" unicode="&#xa3;" horiz-adv-x="535" 
d="M193 72h322v-72h-495v72h100v199h-77v72h77v116c0 168 84 247 195 247c74 0 139 -42 177 -127l-61 -28c-22 41 -57 83 -113 83c-54 0 -125 -24 -125 -175v-116h198v-72h-198v-199z" />
    <glyph glyph-name="currency" unicode="&#xa4;" horiz-adv-x="650" 
d="M538 357c0 -45 -14 -87 -39 -122l91 -89l-51 -51l-90 89c-35 -25 -78 -40 -124 -40s-89 15 -124 40l-90 -89l-51 51l90 89c-24 35 -38 77 -38 122s14 87 38 122l-90 89l51 51l90 -89c35 25 78 40 124 40s89 -15 124 -40l90 89l51 -51l-91 -89c25 -35 39 -77 39 -122z
M190 357c0 -78 57 -141 135 -141c77 0 135 63 135 141s-58 141 -135 141c-78 0 -135 -63 -135 -141z" />
    <glyph glyph-name="percent" unicode="%" horiz-adv-x="734" 
d="M544 700h86l-438 -700h-85zM333 554c0 -86 -68 -151 -151 -151c-84 0 -152 65 -152 151c0 87 68 152 152 152c83 0 151 -65 151 -152zM97 554c0 -50 38 -85 85 -85c46 0 84 35 84 85s-38 85 -84 85c-47 0 -85 -35 -85 -85zM553 295c83 0 151 -64 151 -151
s-68 -151 -151 -151c-84 0 -152 64 -152 151s68 151 152 151zM553 59c46 0 84 35 84 85s-38 85 -84 85c-47 0 -85 -35 -85 -85s38 -85 85 -85z" />
    <glyph glyph-name="asciicircum" unicode="^" horiz-adv-x="470" 
d="M425 422h-81l-109 202l-109 -202h-81l149 278h82z" />
    <glyph glyph-name="ampersand" unicode="&#x26;" horiz-adv-x="680" 
d="M512 160c49 -50 128 -131 158 -160h-100c-14 13 -46 45 -104 104c-53 -65 -120 -110 -201 -117c-75 -6 -154 14 -195 76c-35 53 -40 119 -10 193c26 66 79 113 134 154c-29 38 -49 72 -59 97c-41 107 29 210 138 210c95 0 156 -83 132 -177c-15 -58 -59 -104 -109 -143
c48 -58 107 -123 164 -183c19 28 26 41 40 66h83c-19 -33 -48 -85 -71 -120zM273 645c-63 0 -88 -65 -70 -113c7 -20 24 -47 48 -79c41 32 74 64 84 100c14 51 -14 92 -62 92zM260 59c66 5 115 47 155 97c-60 63 -123 132 -177 197c-48 -36 -90 -77 -108 -126
c-18 -50 -14 -90 9 -123c17 -26 59 -50 121 -45z" />
    <glyph glyph-name="asterisk" unicode="*" horiz-adv-x="355" 
d="M325 594l-100 -43l100 -43l-36 -63l-88 65l13 -108h-73l13 108l-88 -65l-36 63l100 43l-100 43l36 63l88 -65l-13 108h73l-13 -108l88 65z" />
    <glyph glyph-name="parenleft" unicode="(" horiz-adv-x="300" 
d="M290 711c-189 -226 -198 -619 -19 -842l-56 -45c-99 123 -150 291 -144 474c6 175 66 343 163 459z" />
    <glyph glyph-name="parenright" unicode=")" horiz-adv-x="299" 
d="M85 757c99 -122 150 -291 143 -474c-6 -175 -65 -343 -163 -459l-55 46c189 226 198 619 18 842z" />
    <glyph glyph-name="hyphen" unicode="-" horiz-adv-x="470" 
d="M70 342h330v-72h-330v72z" />
    <glyph glyph-name="endash" unicode="&#x2013;" horiz-adv-x="528" 
d="M70 342h388v-72h-388v72z" />
    <glyph glyph-name="emdash" unicode="&#x2014;" horiz-adv-x="615" 
d="M70 342h475v-72h-475v72z" />
    <glyph glyph-name="underscore" unicode="_" horiz-adv-x="573" 
d="M20 -28h533v-72h-533v72z" />
    <glyph glyph-name="slash" unicode="/" horiz-adv-x="386" 
d="M300 751h76l-300 -905h-76z" />
    <glyph glyph-name="backslash" unicode="\" horiz-adv-x="386" 
d="M86 751l300 -905h-76l-300 905h76z" />
    <glyph glyph-name="guillemotleft" unicode="&#xab;" horiz-adv-x="507" 
d="M270 425l-112 -157l112 -158h-89l-111 158l111 157h89zM437 425l-112 -157l112 -158h-89l-111 158l111 157h89z" />
    <glyph glyph-name="guillemotright" unicode="&#xbb;" horiz-adv-x="507" 
d="M158 425l112 -157l-112 -158h-88l111 158l-111 157h88zM325 425l112 -157l-112 -158h-88l111 158l-111 157h88z" />
    <glyph glyph-name="bracketleft" unicode="[" horiz-adv-x="314" 
d="M274 678h-132v-760h132v-72h-204v905h204v-73z" />
    <glyph glyph-name="bracketright" unicode="]" horiz-adv-x="315" 
d="M172 678h-132v73h205v-905h-205v72h132v760z" />
    <glyph glyph-name="bar" unicode="|" horiz-adv-x="253" 
d="M90 751h73v-905h-73v905z" />
    <glyph glyph-name="brokenbar" unicode="&#xa6;" horiz-adv-x="253" 
d="M90 751h73v-331h-73v331zM90 -154v330h73v-330h-73z" />
    <glyph glyph-name="plus" unicode="+" horiz-adv-x="528" 
d="M458 342v-72h-158v-158h-72v158h-158v72h158v158h72v-158h158z" />
    <glyph glyph-name="equal" unicode="=" horiz-adv-x="528" 
d="M70 420h388v-73h-388v73zM70 184v72h388v-72h-388z" />
    <glyph glyph-name="less" unicode="&#x3c;" horiz-adv-x="483" 
d="M413 507v-80l-260 -126l260 -127v-80l-343 166v81z" />
    <glyph glyph-name="greater" unicode="&#x3e;" horiz-adv-x="483" 
d="M70 507l343 -166v-81l-343 -166v80l261 127l-261 126v80z" />
    <glyph glyph-name="divide" unicode="&#xf7;" horiz-adv-x="528" 
d="M70 342h388v-72h-388v72zM264 436c-22 0 -40 18 -40 40s18 40 40 40s40 -18 40 -40s-18 -40 -40 -40zM264 177c22 0 40 -18 40 -41c0 -22 -18 -40 -40 -40s-40 18 -40 40c0 23 18 41 40 41z" />
    <glyph glyph-name="multiply" unicode="&#xd7;" horiz-adv-x="494" 
d="M424 432l-126 -126l126 -126l-52 -51l-125 126l-125 -126l-52 51l126 126l-126 126l52 51l125 -126l125 126z" />
    <glyph glyph-name="asciitilde" unicode="~" horiz-adv-x="553" 
d="M435 349l68 -22c-20 -42 -61 -88 -132 -85c-31 1 -77 17 -108 33c-25 13 -50 27 -75 27c-30 0 -51 -18 -67 -42l-71 22c23 42 58 89 136 89c44 0 81 -16 111 -32c25 -13 49 -23 74 -25c33 -3 51 11 64 35z" />
    <glyph glyph-name="approxequal" unicode="&#x2248;" horiz-adv-x="595" 
d="M456 267l69 -22c-20 -43 -62 -88 -133 -86c-30 2 -76 18 -107 34c-26 13 -51 27 -75 27c-31 -1 -52 -18 -68 -43l-71 23c23 42 58 89 137 89c43 0 80 -16 110 -32c25 -13 49 -23 74 -25c33 -3 51 11 64 35zM209 381c-30 -1 -52 -18 -68 -42l-71 22c23 42 58 89 137 89
c43 0 80 -16 110 -32c25 -13 50 -23 74 -25c34 -3 51 11 64 35l69 -22c-20 -42 -62 -88 -133 -85c-30 1 -76 17 -107 33c-26 13 -50 27 -75 27z" />
    <glyph glyph-name="lessequal" unicode="&#x2264;" horiz-adv-x="482" 
d="M412 551v-81l-260 -126l260 -126v-81l-342 167v81zM70 19v72l342 1v-72z" />
    <glyph glyph-name="greaterequal" unicode="&#x2265;" horiz-adv-x="483" 
d="M70 19v72l343 1v-72zM70 551l343 -166v-81l-343 -167v81l261 126l-261 126v81z" />
    <glyph glyph-name="degree" unicode="&#xb0;" horiz-adv-x="403" 
d="M201 714c83 0 152 -65 152 -151c0 -87 -69 -152 -152 -152s-151 65 -151 152c0 86 68 151 151 151zM201 478c47 0 85 35 85 85s-38 85 -85 85s-85 -35 -85 -85s38 -85 85 -85z" />
    <glyph glyph-name="notequal" unicode="&#x2260;" horiz-adv-x="528" 
d="M458 347h-128l-50 -91h178v-72h-218l-59 -108h-82l59 108h-88v72h128l49 91h-177v73h217l60 109l82 -1l-59 -108h88v-73z" />
    <glyph glyph-name="dagger" unicode="&#x2020;" horiz-adv-x="439" 
d="M399 528v-73h-144v-455h-72v455h-143v73h143v172h72v-172h144z" />
    <glyph glyph-name="daggerdbl" unicode="&#x2021;" horiz-adv-x="439" 
d="M399 455h-143v-210h143v-73h-143v-172h-72v172h-144v73h144v210h-144v73h144v172h72v-172h143v-73z" />
    <glyph glyph-name="braceleft" unicode="{" horiz-adv-x="348" 
d="M308 687c-64 0 -109 -3 -109 -133c0 -84 7 -208 -61 -255c68 -47 61 -172 61 -256c0 -130 45 -133 109 -133v-73c-122 0 -178 46 -178 206c0 110 12 234 -60 234v43c72 0 60 124 60 234c0 160 56 206 178 206v-73z" />
    <glyph glyph-name="braceright" unicode="}" horiz-adv-x="349" 
d="M40 687v73c123 0 179 -46 179 -206c0 -110 -12 -234 60 -234v-43c-72 0 -60 -124 -60 -234c0 -160 -56 -206 -179 -206v73c64 0 110 3 110 133c0 84 -8 209 61 256c-69 47 -61 171 -61 255c0 130 -46 133 -110 133z" />
    <glyph glyph-name="section" unicode="&#xa7;" horiz-adv-x="571" 
d="M508 298c14 -92 -35 -159 -92 -194c29 -30 48 -69 48 -124c0 -105 -85 -166 -178 -166c-70 0 -115 32 -139 59c-20 24 -35 53 -41 84l69 20c9 -47 46 -91 111 -91c59 0 103 42 105 97c3 73 -52 100 -143 139c-80 34 -170 73 -185 172c-14 92 35 159 92 194
c-28 30 -47 69 -47 124c0 105 84 167 178 167c69 0 115 -33 139 -60c20 -23 34 -53 41 -84l-70 -20c-9 47 -45 91 -110 91c-60 0 -103 -42 -106 -97c-3 -73 53 -100 144 -139c79 -34 169 -73 184 -172zM135 305c8 -55 59 -81 142 -116c24 -11 50 -22 74 -36
c45 15 97 62 86 134c-8 55 -59 81 -142 116c-24 11 -50 22 -74 36c-46 -14 -97 -62 -86 -134z" />
    <glyph glyph-name="paragraph" unicode="&#xb6;" horiz-adv-x="562" 
d="M512 700v-72h-54v-782h-72v782h-99v-782h-72v519c-101 0 -165 76 -165 167s74 168 165 168h297z" />
    <glyph glyph-name="copyright" unicode="&#xa9;" horiz-adv-x="806" 
d="M403 712c200 0 363 -163 363 -363s-163 -363 -363 -363s-363 163 -363 363s163 363 363 363zM403 50c165 0 296 134 296 299s-131 299 -296 299s-296 -134 -296 -299s131 -299 296 -299zM407 490c-78 0 -125 -63 -125 -142c0 -78 47 -141 126 -141c47 0 84 22 107 58
l50 -25c-32 -54 -88 -88 -157 -88c-110 0 -185 87 -185 196c0 110 75 198 184 198c70 0 126 -36 158 -90l-50 -24c-23 35 -60 58 -108 58z" />
    <glyph glyph-name="registered" unicode="&#xae;" horiz-adv-x="806" 
d="M403 712c200 0 363 -163 363 -363s-163 -363 -363 -363s-363 163 -363 363s163 363 363 363zM403 50c165 0 296 134 296 299s-131 299 -296 299s-297 -134 -297 -299s132 -299 297 -299zM554 421c0 -52 -26 -90 -68 -108l81 -143h-64l-73 131h-7h-93v-131h-56v371h149
c72 0 131 -45 131 -120zM330 485v-129h93c44 0 73 21 73 65c0 43 -30 64 -73 64h-93z" />
    <glyph glyph-name="exclamdown" unicode="&#xa1;" horiz-adv-x="210" 
d="M83 316h55l8 -526h-72zM110 422c-22 0 -40 18 -40 40s18 40 40 40s40 -18 40 -40s-18 -40 -40 -40z" />
    <glyph glyph-name="questiondown" unicode="&#xbf;" horiz-adv-x="425" 
d="M252 422c-22 0 -40 18 -40 40s18 40 40 40c23 0 41 -18 41 -40s-18 -40 -41 -40zM343 -30l62 -15c-15 -88 -81 -171 -183 -171c-96 0 -191 58 -181 191c5 74 53 138 98 191c42 50 81 96 82 150h69c-1 -73 -45 -129 -91 -183c-41 -50 -85 -105 -89 -163
c-6 -86 42 -117 112 -117c63 0 108 57 121 117z" />
    <glyph glyph-name="quotedblright" unicode="&#x201d;" horiz-adv-x="306" 
d="M40 538l40 168h76l-69 -168h-47zM200 706h76l-70 -168h-47z" />
    <glyph glyph-name="quotedblleft" unicode="&#x201c;" horiz-adv-x="305" 
d="M229 706h46l-40 -168h-76zM40 538l69 168h47l-41 -168h-75z" />
    <glyph glyph-name="plusminus" unicode="&#xb1;" horiz-adv-x="528" 
d="M300 418h158v-73h-158v-157h-72v157h-158v73h158v158h72v-158zM70 57v72h388v-72h-388z" />
    <glyph glyph-name="quotedbl" unicode="&#x22;" horiz-adv-x="275" 
d="M58 538l-18 168h78l-18 -168h-42zM175 538l-18 168h78l-18 -168h-42z" />
    <glyph glyph-name="at" unicode="@" horiz-adv-x="936" 
d="M879 265c8 -94 -10 -186 -55 -235c-38 -42 -116 -63 -168 -13c-17 16 -29 39 -36 65c-37 -48 -94 -78 -163 -78c-126 0 -217 100 -217 226s91 225 217 225c60 0 110 -22 147 -59v52h64v-225c0 -54 2 -134 33 -161c21 -18 52 -19 79 11c32 35 43 110 36 186
c-18 195 -150 310 -348 310c-144 0 -313 -71 -349 -287c-21 -133 22 -243 115 -316c101 -80 247 -95 385 -37l24 -59c-120 -59 -326 -53 -449 46c-110 89 -163 220 -137 377c34 209 198 340 411 340c236 0 394 -166 411 -368zM457 68c91 0 145 71 145 162s-54 162 -145 162
s-151 -71 -151 -162s60 -162 151 -162z" />
    <glyph glyph-name="germandbls" unicode="&#xdf;" horiz-adv-x="492" 
d="M316 382c87 -22 141 -98 141 -180c0 -114 -81 -209 -233 -209v66c96 0 159 54 159 141c0 89 -61 145 -159 145v66c73 0 118 56 118 122s-36 106 -102 106c-68 0 -115 -53 -115 -174v-465h-70v477c0 165 91 229 185 229c113 0 173 -80 173 -169c0 -67 -40 -129 -97 -155z
" />
    <glyph glyph-name="Germandbl" unicode="&#x1e9e;" horiz-adv-x="561" 
d="M328 441c128 -25 193 -114 193 -215c0 -162 -129 -234 -266 -233v72c93 0 194 46 194 161c0 95 -78 155 -194 155v66l120 181h-104c-100 0 -133 -40 -133 -156v-472h-73v472c0 161 65 228 206 228h180v-72z" />
    <glyph glyph-name="oe" unicode="&#x153;" horiz-adv-x="913" 
d="M660 491c138 0 218 -112 218 -249c0 -9 -1 -17 -1 -25h-371c10 -87 70 -154 160 -154c60 0 104 29 133 73l63 -30c-40 -68 -108 -113 -196 -113s-160 46 -200 115c-40 -69 -111 -115 -199 -115c-138 0 -232 111 -232 249c0 137 94 249 232 249c87 0 158 -45 199 -114
c38 69 107 114 194 114zM660 421c-82 0 -136 -56 -151 -132h295c-14 76 -61 132 -144 132zM267 63c98 0 161 80 161 179s-63 179 -161 179c-99 0 -159 -80 -159 -179s60 -179 159 -179z" />
    <glyph glyph-name="ae" unicode="&#xe6;" horiz-adv-x="834" 
d="M582 489c138 0 217 -111 217 -249c0 -8 0 -17 -1 -25h-370c9 -87 70 -152 160 -152c59 0 104 27 132 72l64 -31c-41 -68 -109 -111 -196 -111c-89 0 -162 46 -201 116c-10 -18 -23 -36 -39 -52c-41 -39 -99 -64 -167 -64c-89 0 -156 44 -156 124c0 96 74 139 222 163
c76 12 105 26 104 58c-1 33 -18 86 -111 86c-85 0 -109 -43 -120 -83l-65 15c14 65 69 133 188 133c79 0 134 -32 160 -89c40 55 103 89 179 89zM582 419c-82 0 -136 -56 -151 -132h294c-13 76 -60 132 -143 132zM351 207v21c-26 -5 -58 -8 -93 -14
c-105 -17 -156 -38 -156 -91c0 -54 61 -62 85 -62c94 0 165 58 164 146z" />
    <glyph glyph-name="AE" unicode="&#xc6;" horiz-adv-x="994" 
d="M551 72h393v-72h-465v203h-295l-106 -203h-78l367 700h571v-72h-387v-242h356v-72h-356v-242zM222 275h257v353h-73z" />
    <glyph glyph-name="OE" unicode="&#x152;" horiz-adv-x="1060" 
d="M617 72h392v-72h-465v29c-46 -23 -98 -36 -154 -36c-197 0 -345 159 -345 356s148 357 345 357c56 0 108 -13 154 -36v30h459v-72h-386v-242h355v-72h-355v-242zM544 111v476c-43 31 -96 48 -154 48c-158 0 -271 -128 -271 -286c0 -157 113 -285 271 -285
c58 0 111 17 154 47z" />
    <glyph glyph-name="Dcroat" unicode="&#x110;" horiz-adv-x="708" 
d="M315 700c219 0 353 -158 353 -351s-137 -349 -352 -349h-216v314h-90v72h90v314h215zM309 72c179 0 285 124 285 277c0 154 -109 279 -284 279h-137v-242h167v-72h-167v-242h136z" />
    <glyph glyph-name="dcroat" unicode="&#x111;" horiz-adv-x="542" 
d="M574 626v-72h-87v-554h-72v65c-36 -45 -90 -72 -159 -72c-138 0 -226 110 -226 247c0 138 88 249 226 249c69 0 123 -28 159 -73v138h-117v72h117v74h72v-74h87zM256 63c99 0 156 78 156 177s-57 179 -156 179s-153 -80 -153 -179s54 -177 153 -177z" />
    <glyph glyph-name="eth" unicode="&#xf0;" horiz-adv-x="548" 
d="M476 508c53 -131 47 -276 -6 -385c-38 -78 -105 -130 -206 -130c-137 0 -234 110 -234 247c0 138 94 249 231 249c76 0 137 -33 178 -84c-12 85 -66 173 -146 231l-89 -91l-49 49l77 78c-37 17 -77 28 -119 32l9 66c55 -8 108 -25 157 -50l91 93l49 -49l-80 -81
c59 -44 106 -102 137 -175zM264 63c99 0 159 78 159 177c0 110 -63 179 -162 179c-98 0 -158 -80 -158 -179s62 -177 161 -177z" />
    <glyph glyph-name="Oslash" unicode="&#xd8;" horiz-adv-x="776" 
d="M731 676l-84 -93c51 -62 80 -144 80 -234c0 -197 -142 -356 -339 -356c-81 0 -152 27 -209 72l-80 -89l-54 48l83 92c-50 63 -79 144 -79 233c0 197 142 357 339 357c81 0 152 -27 208 -72l81 90zM123 349c0 -67 19 -129 54 -178l371 410c-43 34 -98 54 -160 54
c-158 0 -265 -128 -265 -286zM653 349c0 68 -20 131 -55 180l-371 -411c44 -34 98 -54 161 -54c158 0 265 128 265 285z" />
    <glyph glyph-name="oslash" unicode="&#xf8;" horiz-adv-x="537" 
d="M512 458l-58 -65c29 -42 47 -95 47 -153c0 -137 -98 -247 -235 -247c-52 0 -98 16 -135 43l-55 -60l-53 48l57 64c-29 42 -46 94 -46 152c0 138 94 249 232 249c53 0 99 -16 137 -44l55 61zM107 240c0 -36 8 -69 23 -97l225 249c-24 17 -54 27 -89 27
c-99 0 -159 -80 -159 -179zM428 240c0 36 -9 70 -24 98l-226 -250c24 -16 54 -25 88 -25c99 0 162 78 162 177z" />
    <glyph glyph-name="Thorn" unicode="&#xde;" horiz-adv-x="587" 
d="M328 564c131 0 219 -96 219 -214s-92 -214 -219 -214h-190v-136h-73v700h73v-136h190zM328 208c88 0 144 64 144 142s-55 142 -144 142h-190v-284h190z" />
    <glyph glyph-name="thorn" unicode="&#xfe;" horiz-adv-x="547" 
d="M286 489c138 0 226 -111 226 -249c0 -137 -88 -247 -226 -247c-69 0 -123 27 -159 72v-283h-72v918h72v-284c36 45 90 73 159 73zM286 63c99 0 153 78 153 177s-54 179 -153 179s-156 -80 -156 -179s57 -177 156 -177z" />
    <glyph glyph-name="Lslash" unicode="&#x141;" horiz-adv-x="565" 
d="M206 72h349v-72h-421v237l-124 -84v87l124 85v375h72v-326l216 148v-88l-216 -147v-215z" />
    <glyph glyph-name="lslash" unicode="&#x142;" horiz-adv-x="299" 
d="M284 515v-88l-98 -67v-360h-73v310l-98 -67v88l98 67v352h73v-303z" />
    <glyph glyph-name="Hbar" unicode="&#x126;" horiz-adv-x="686" 
d="M676 574v-72h-68v-502h-72v314h-386v-314h-72v502h-68v72h68v126h72v-126h386v126h72v-126h68zM536 386v116h-386v-116h386z" />
    <glyph glyph-name="hbar" unicode="&#x127;" horiz-adv-x="550" 
d="M312 489c96 0 183 -46 183 -223v-266h-72v266c0 105 -44 151 -122 151c-74 0 -128 -51 -128 -157v-260h-73v554h-85v72h85v74h73v-74h117v-72h-117v-128c33 39 81 63 139 63z" />
    <glyph glyph-name="Eng" unicode="&#x14a;" horiz-adv-x="662" 
d="M525 700h72v-741c0 -111 -43 -152 -101 -157c-32 -3 -73 9 -108 37l41 55c29 -25 61 -24 76 -11c17 16 20 38 20 78v47l-388 563v-571h-72v700h66l394 -569v569z" />
    <glyph glyph-name="eng" unicode="&#x14b;" horiz-adv-x="505" 
d="M267 489c96 0 183 -46 183 -223v-307c0 -111 -43 -152 -101 -157c-31 -3 -73 9 -108 37l41 55c29 -25 61 -24 76 -11c18 16 20 38 20 78v305c0 105 -44 151 -122 151c-74 0 -128 -51 -128 -157v-260h-73v482h73v-56c33 39 81 63 139 63z" />
    <glyph glyph-name="Tbar" unicode="&#x166;" horiz-adv-x="546" 
d="M526 628h-217v-207h159v-72h-159v-349h-72v349h-160v72h160v207h-217v72h506v-72z" />
    <glyph glyph-name="tbar" unicode="&#x167;" horiz-adv-x="319" 
d="M267 85l37 -55c-37 -30 -82 -40 -113 -37c-63 8 -102 46 -102 158v89h-46v72h46v97h-74v73h74v106l73 20v-126h102v-73h-102v-97h73v-72h-73v-87c0 -40 2 -64 19 -79c15 -13 57 -14 86 11z" />
    <glyph glyph-name="Eth" unicode="&#xd0;" horiz-adv-x="708" 
d="M315 700c219 0 353 -158 353 -351s-137 -349 -352 -349h-216v314h-90v72h90v314h215zM309 72c179 0 285 124 285 277c0 154 -109 279 -284 279h-137v-242h167v-72h-167v-242h136z" />
    <glyph glyph-name="ruble" unicode="&#x20bd;" horiz-adv-x="640" 
d="M380 266h-190v-63h242v-73h-242v-130h-73v130h-87v73h87v63h-87v72h87v362h263c131 0 220 -99 220 -217s-93 -217 -220 -217zM190 627v-289h190c88 0 144 67 144 145s-55 144 -144 144h-190z" />
    <glyph glyph-name="uni2116" unicode="&#x2116;" horiz-adv-x="1026" 
d="M695 274v72h283v-72h-283zM525 133v567h72v-700h-66l-394 569v-569h-72v700h66zM835 403c-84 0 -152 65 -152 151c0 87 68 152 152 152c83 0 151 -65 151 -152c0 -86 -68 -151 -151 -151zM835 639c-47 0 -85 -35 -85 -85s38 -85 85 -85c46 0 84 35 84 85s-38 85 -84 85z
" />
    <glyph glyph-name="uni0404" unicode="&#x404;" horiz-adv-x="709" 
d="M390 64c96 0 177 47 225 120l64 -32c-60 -96 -165 -159 -289 -159c-197 0 -345 159 -345 356s148 357 345 357c124 0 229 -64 289 -160l-64 -31c-48 72 -129 120 -225 120c-145 0 -253 -109 -269 -249h349v-72h-349c15 -141 123 -250 269 -250z" />
    <glyph glyph-name="uni0490" unicode="&#x490;" horiz-adv-x="461" 
d="M369 827h72v-200h-304v-627h-72v700h304v127z" />
    <glyph glyph-name="uni0409" unicode="&#x409;" horiz-adv-x="1021" 
d="M761 434c127 0 220 -99 220 -217s-88 -217 -220 -217h-262v627h-259c-1 -110 -4 -228 -16 -329c-17 -144 -50 -231 -104 -273c-37 -30 -89 -32 -120 -25l15 70c24 -5 45 -2 60 11c37 29 63 105 77 226c15 119 16 265 16 393h403v-266h190zM761 72c89 0 145 67 145 145
s-56 144 -145 144h-190v-289h190z" />
    <glyph glyph-name="uni040A" unicode="&#x40a;" horiz-adv-x="1040" 
d="M780 386c127 0 220 -74 220 -192c0 -119 -88 -194 -220 -194h-256v314h-386v-314h-73v700h73v-314h386v314h72v-314h184zM780 72c89 0 145 43 145 122c0 78 -56 120 -145 120h-184v-242h184z" />
    <glyph glyph-name="uni040B" unicode="&#x40b;" horiz-adv-x="708" 
d="M466 457c138 9 192 -89 192 -227v-230h-72v230c0 127 -49 155 -120 152c-64 -3 -117 -38 -147 -67v-315h-72v627h-217v73h507v-73h-218v-224c34 25 93 51 147 54z" />
    <glyph glyph-name="uni0402" unicode="&#x402;" horiz-adv-x="705" 
d="M655 230v-80c0 -111 -39 -150 -102 -157c-31 -4 -73 9 -107 37l40 55c30 -25 62 -24 77 -11c17 16 19 38 19 78v78c0 127 -48 155 -119 152c-64 -3 -115 -37 -144 -66v-316h-72v627h-217v73h506v-73h-217v-223c33 24 90 50 144 53c138 9 192 -89 192 -227z" />
    <glyph glyph-name="uni040F" unicode="&#x40f;" horiz-adv-x="639" 
d="M497 700h72v-700h-213v-127h-72v127h-214v700h73v-628h354v628z" />
    <glyph glyph-name="uni0454" unicode="&#x454;" horiz-adv-x="480" 
d="M257 63c59 0 107 29 135 73l63 -30c-40 -68 -111 -113 -198 -113c-138 0 -232 111 -232 249c0 137 94 247 232 247c87 0 158 -43 198 -111l-63 -31c-28 45 -76 72 -135 72c-87 0 -144 -60 -156 -142h219v-72h-219c13 -81 70 -142 156 -142z" />
    <glyph glyph-name="uni0491" unicode="&#x491;" horiz-adv-x="387" 
d="M290 600h72v-191h-234v-409h-73v482h235v118z" />
    <glyph glyph-name="uni0459" unicode="&#x459;" horiz-adv-x="744" 
d="M538 312c99 0 171 -58 171 -156s-78 -156 -171 -156h-191v409h-157c-2 -205 -18 -335 -82 -388c-31 -26 -66 -28 -103 -23l14 71c24 -4 36 2 43 8c49 41 56 215 56 381v24h301v-170h119zM538 72c56 0 96 27 96 84s-39 84 -96 84h-119v-168h119z" />
    <glyph glyph-name="uni045A" unicode="&#x45a;" horiz-adv-x="770" 
d="M564 277c100 0 171 -40 171 -138s-78 -139 -171 -139h-188v205h-249v-205h-72v482h72v-205h249v205h72v-205h116zM564 72c56 0 96 10 96 67c0 56 -39 66 -96 66h-116v-133h116z" />
    <glyph glyph-name="uni045B" unicode="&#x45b;" horiz-adv-x="532" 
d="M299 489c95 0 183 -46 183 -223v-266h-73v266c0 105 -44 151 -122 151c-74 0 -128 -51 -128 -157v-260h-72v554h-72v72h72v74h72v-74h94v-72h-94v-128c34 39 81 63 140 63z" />
    <glyph glyph-name="uni0452" unicode="&#x452;" horiz-adv-x="526" 
d="M293 489c96 0 183 -46 183 -223v-308c0 -111 -39 -150 -101 -157c-32 -3 -73 10 -108 38l41 54c29 -25 61 -23 76 -10c17 15 20 38 20 78v305c0 105 -44 151 -122 151c-74 0 -128 -51 -128 -157v-260h-73v554h-71v72h71v74h73v-74h94v-72h-94v-128c33 39 81 63 139 63z
" />
    <glyph glyph-name="uni045F" unicode="&#x45f;" horiz-adv-x="501" 
d="M374 482h72v-482h-159v-119h-73v119h-159v482h73v-410h246v410z" />
    <glyph glyph-name="uni0406" unicode="&#x406;" horiz-adv-x="202" 
d="M65 700h72v-700h-72v700z" />
    <glyph glyph-name="uni0456" unicode="&#x456;" horiz-adv-x="191" 
d="M59 0v482h73v-482h-73zM95 574c-22 0 -40 18 -40 40c0 23 18 41 40 41c23 0 41 -18 41 -41c0 -22 -18 -40 -41 -40z" />
    <glyph glyph-name="uni0408" unicode="&#x408;" horiz-adv-x="409" 
d="M347 700v-513c0 -123 -56 -195 -166 -195c-82 0 -143 49 -160 76l53 42c18 -21 54 -46 104 -46c59 0 96 37 96 121v515h73z" />
    <glyph glyph-name="uni0458" unicode="&#x458;" horiz-adv-x="204" 
d="M108 574c-22 0 -40 18 -40 40c0 23 18 41 40 41c23 0 41 -18 41 -41c0 -22 -18 -40 -41 -40zM72 -65v547h73v-549c0 -112 -39 -150 -102 -158c-31 -3 -73 10 -108 38l41 55c30 -26 61 -24 76 -11c18 15 20 38 20 78z" />
    <glyph glyph-name="uni0405" unicode="&#x405;" horiz-adv-x="596" 
d="M309 388c129 -21 257 -55 257 -193c0 -135 -129 -203 -257 -203c-158 0 -250 75 -279 154l69 24c28 -67 104 -106 210 -106c74 0 184 33 184 131c0 76 -59 97 -196 122s-248 63 -249 192c-1 103 77 198 249 198c123 0 214 -65 240 -150l-69 -24c-18 75 -94 102 -171 102
c-109 0 -177 -43 -177 -126c0 -70 57 -98 189 -121z" />
    <glyph glyph-name="uni0455" unicode="&#x455;" horiz-adv-x="426" 
d="M222 278c81 -17 169 -49 169 -141c0 -101 -89 -145 -176 -145c-93 0 -164 46 -190 113l66 27c15 -43 60 -68 124 -68c40 0 103 14 103 73c0 38 -25 53 -110 71c-72 14 -164 33 -178 123c-12 86 60 158 167 158c84 0 148 -41 170 -104l-67 -26c-12 35 -48 56 -102 58
c-70 2 -103 -35 -96 -74c6 -38 50 -49 120 -65z" />
    <glyph glyph-name="perthousand" unicode="&#x2030;" horiz-adv-x="1096" 
d="M544 700h86l-438 -700h-85zM333 554c0 -86 -68 -151 -151 -151c-84 0 -152 65 -152 151c0 87 68 152 152 152c83 0 151 -65 151 -152zM97 554c0 -50 38 -85 85 -85c46 0 84 35 84 85s-38 85 -84 85c-47 0 -85 -35 -85 -85zM553 295c83 0 151 -64 151 -151
s-68 -151 -151 -151c-84 0 -152 64 -152 151s68 151 152 151zM553 59c46 0 84 35 84 85s-38 85 -84 85c-47 0 -85 -35 -85 -85s38 -85 85 -85zM915 295c83 0 151 -64 151 -151s-68 -151 -151 -151c-84 0 -152 64 -152 151s68 151 152 151zM915 59c46 0 84 35 84 85
s-38 85 -84 85c-47 0 -85 -35 -85 -85s38 -85 85 -85z" />
    <glyph glyph-name="quoteright" unicode="&#x2019;" horiz-adv-x="186" 
d="M40 538l40 168h76l-69 -168h-47z" />
    <glyph glyph-name="quoteleft" unicode="&#x2018;" horiz-adv-x="186" 
d="M40 538l69 168h47l-41 -168h-75z" />
    <glyph glyph-name="quotesingle" unicode="'" horiz-adv-x="158" 
d="M58 538l-18 168h78l-18 -168h-42z" />
    <glyph glyph-name="ellipsis" unicode="&#x2026;" horiz-adv-x="531" 
d="M100 68c23 0 41 -18 41 -40c0 -23 -18 -41 -41 -41c-22 0 -40 18 -40 41c0 22 18 40 40 40zM270 68c23 0 41 -18 41 -40c0 -23 -18 -41 -41 -41c-22 0 -40 18 -40 41c0 22 18 40 40 40zM440 68c23 0 41 -18 41 -40c0 -23 -18 -41 -41 -41c-22 0 -40 18 -40 41
c0 22 18 40 40 40z" />
    <glyph glyph-name="ring" unicode="&#x2da;" horiz-adv-x="321" 
d="M161 776c61 0 110 -50 110 -111s-49 -111 -110 -111c-62 0 -111 50 -111 111s49 111 111 111zM161 613c28 0 52 23 52 52s-24 52 -52 52c-29 0 -53 -23 -53 -52s24 -52 53 -52z" />
    <glyph glyph-name="dotaccent" unicode="&#x2d9;" horiz-adv-x="180" 
d="M90 679c22 0 40 -18 40 -41c0 -22 -18 -40 -40 -40s-40 18 -40 40c0 23 18 41 40 41z" />
    <glyph glyph-name="breve" unicode="&#x2d8;" horiz-adv-x="342" 
d="M229 700h63c0 -73 -48 -131 -121 -131c-74 0 -121 58 -121 131h63c0 -40 21 -70 58 -70c35 0 58 30 58 70z" />
    <glyph glyph-name="dieresis" unicode="&#xa8;" horiz-adv-x="333" 
d="M91 679c22 0 40 -18 40 -41c0 -22 -18 -40 -40 -40s-41 18 -41 40c0 23 19 41 41 41zM242 679c23 0 41 -18 41 -41c0 -22 -18 -40 -41 -40c-22 0 -40 18 -40 40c0 23 18 41 40 41z" />
    <glyph glyph-name="circumflex" unicode="&#x2c6;" horiz-adv-x="381" 
d="M331 563h-84l-57 80l-57 -80h-83l106 137h68z" />
    <glyph glyph-name="caron" unicode="&#x2c7;" horiz-adv-x="382" 
d="M332 700l-107 -137h-68l-107 137h84l57 -81l57 81h84z" />
    <glyph glyph-name="acute" unicode="&#xb4;" horiz-adv-x="254" 
d="M128 700h76l-99 -137h-55z" />
    <glyph glyph-name="grave" unicode="`" horiz-adv-x="254" 
d="M126 700l78 -137h-55l-99 137h76z" />
    <glyph glyph-name="tilde" unicode="&#x2dc;" horiz-adv-x="423" 
d="M307 670l66 -20c-33 -108 -103 -98 -175 -57c-38 22 -65 23 -89 -19l-59 31c38 78 101 95 173 55c38 -21 71 -38 84 10z" />
    <glyph glyph-name="macron" unicode="&#xaf;" horiz-adv-x="350" 
d="M50 677h250v-72h-250v72z" />
    <glyph glyph-name="cedilla" unicode="&#xb8;" horiz-adv-x="268" 
d="M129 -56c62 7 89 -29 89 -68c0 -28 -15 -55 -39 -69c-37 -21 -84 -17 -129 11l22 40c30 -22 79 -28 95 2c9 17 4 36 -14 43c-12 4 -32 6 -49 -10l-42 30l39 76h55z" />
    <glyph glyph-name="commaaccent" unicode="&#xf6c3;" horiz-adv-x="205" 
d="M82 -51h73l-55 -132h-50z" />
    <glyph glyph-name="ogonek" unicode="&#x2db;" horiz-adv-x="238" 
d="M108 -116c11 -28 52 -24 78 -9v-69c-16 -6 -31 -9 -47 -9c-51 0 -93 34 -88 90c5 54 54 100 76 113h61c-43 -19 -95 -75 -80 -116z" />
    <glyph glyph-name="Aogonek" unicode="&#x104;" horiz-adv-x="655" 
d="M537 -116c10 -28 52 -24 77 -9v-69c-15 -6 -31 -9 -46 -9c-51 0 -93 34 -88 90c4 54 54 100 76 113h-11l-76 203h-283l-76 -203h-80l265 700h66l264 -700h-9c-42 -19 -95 -75 -79 -116zM213 275h230l-115 310z" />
    <glyph glyph-name="Ccedilla" unicode="&#xc7;" horiz-adv-x="705" 
d="M385 64c97 0 177 47 226 120l64 -32c-59 -94 -161 -157 -282 -159l-25 -49c62 7 90 -29 90 -68c0 -28 -15 -55 -40 -69c-37 -21 -84 -17 -128 11l21 40c31 -22 79 -28 95 2c9 17 4 36 -14 43c-12 4 -32 6 -48 -10l-43 30l38 73c-174 23 -299 172 -299 354
c0 197 148 357 345 357c125 0 229 -64 290 -160l-64 -32c-49 73 -129 120 -226 120c-157 0 -271 -127 -271 -285s114 -286 271 -286z" />
    <glyph glyph-name="Eogonek" unicode="&#x118;" 
d="M132 72h393v-72c-42 -19 -95 -75 -79 -116c10 -28 52 -24 77 -9v-69c-15 -6 -31 -9 -46 -9c-51 0 -93 34 -88 90c4 54 54 100 76 113h-405v700h460v-72h-388v-242h356v-72h-356v-242z" />
    <glyph glyph-name="Iogonek" unicode="&#x12e;" horiz-adv-x="202" 
d="M132 0c-43 -19 -95 -75 -80 -116c11 -28 52 -24 78 -9v-69c-16 -6 -31 -9 -47 -9c-51 0 -93 34 -88 90c5 54 54 100 76 113h-7v700h73v-700h-5z" />
    <glyph glyph-name="Scedilla" unicode="&#x15e;" horiz-adv-x="595" 
d="M565 195c0 -131 -121 -200 -247 -203l-24 -48c62 7 89 -29 89 -68c0 -28 -15 -55 -39 -69c-37 -21 -84 -17 -129 11l22 40c30 -22 79 -28 95 2c9 17 4 36 -14 43c-12 4 -32 6 -48 -10l-43 30l37 71c-131 12 -208 81 -234 152l69 24c28 -67 103 -106 209 -106
c75 0 185 33 185 131c0 76 -60 97 -196 122c-137 25 -249 63 -250 192c0 103 77 199 250 199c123 0 214 -66 239 -151l-68 -23c-18 74 -94 101 -171 101c-109 0 -177 -42 -177 -126c0 -70 56 -98 189 -120c128 -22 256 -56 256 -194z" />
    <glyph glyph-name="Uogonek" unicode="&#x172;" horiz-adv-x="641" 
d="M509 700h72v-431c0 -103 -42 -183 -107 -230c-47 -44 -107 -117 -93 -155c11 -28 52 -24 78 -9v-69c-16 -6 -31 -9 -47 -9c-51 0 -93 34 -88 90c4 40 32 81 68 113c-22 -6 -45 -8 -69 -8c-144 0 -263 93 -263 275v433h72v-433c0 -133 87 -203 191 -203s186 73 186 203
v433z" />
    <glyph glyph-name="aogonek" unicode="&#x105;" horiz-adv-x="471" 
d="M342 -116c11 -28 52 -24 77 -9v-69c-15 -6 -31 -9 -46 -9c-51 0 -93 34 -88 90c5 54 54 100 76 113h-8v58c-43 -37 -99 -65 -167 -65c-89 0 -156 44 -156 124c0 96 74 139 222 163c76 12 105 26 104 58c-1 33 -18 86 -111 86c-85 0 -109 -42 -120 -83l-65 15
c14 65 69 134 188 134c112 0 177 -65 177 -167c0 -98 1 -323 1 -323h-5c-42 -19 -95 -75 -79 -116zM356 207v22c-26 -5 -58 -9 -93 -15c-105 -17 -156 -38 -156 -91s61 -62 85 -62c94 0 165 59 164 146z" />
    <glyph glyph-name="ccedilla" unicode="&#xe7;" horiz-adv-x="485" 
d="M262 63c59 0 107 27 135 72l63 -31c-38 -64 -103 -107 -185 -111l-24 -49c61 7 89 -29 89 -68c0 -28 -15 -55 -39 -69c-37 -21 -85 -17 -129 11l22 40c30 -22 79 -28 95 2c9 17 4 36 -14 43c-13 4 -32 6 -49 -10l-42 30l37 73c-115 19 -191 121 -191 244
c0 138 94 250 232 250c87 0 158 -45 198 -113l-63 -31c-28 45 -76 74 -135 74c-99 0 -159 -81 -159 -180s60 -177 159 -177z" />
    <glyph glyph-name="eogonek" unicode="&#x119;" horiz-adv-x="512" 
d="M259 490c138 0 218 -112 218 -250c0 -8 -1 -17 -2 -25h-370c9 -87 69 -152 160 -152c59 0 104 27 132 72l64 -31c-16 -26 -36 -49 -60 -67c-47 -45 -105 -115 -91 -153c11 -28 52 -24 78 -9v-69c-16 -6 -32 -9 -47 -9c-51 0 -93 34 -88 90c3 39 31 80 66 112
c-17 -4 -35 -6 -54 -6c-138 0 -235 110 -235 247c0 138 91 250 229 250zM259 420c-83 0 -136 -56 -151 -132h294c-13 76 -60 132 -143 132z" />
    <glyph glyph-name="iogonek" unicode="&#x12f;" horiz-adv-x="196" 
d="M134 0c-43 -19 -95 -75 -80 -116c11 -28 52 -24 78 -9v-69c-16 -6 -32 -9 -47 -9c-51 0 -93 34 -88 90c5 54 54 100 76 113h-8v482h72v-482h-3zM141 627c0 -22 -18 -40 -40 -40s-40 18 -40 40s18 40 40 40s40 -18 40 -40z" />
    <glyph glyph-name="scedilla" unicode="&#x15f;" horiz-adv-x="428" 
d="M393 140c0 -93 -77 -141 -158 -147l-24 -49c61 7 89 -29 89 -68c0 -28 -15 -55 -39 -69c-37 -21 -85 -17 -129 11l21 40c31 -22 79 -28 95 2c9 17 5 36 -14 43c-12 4 -31 6 -48 -10l-42 30l36 71c-75 10 -132 53 -155 111l66 27c15 -42 60 -68 124 -68
c40 0 106 17 106 76c0 38 -28 50 -113 68c-73 15 -164 33 -178 124c-12 86 60 158 167 158c84 0 148 -42 170 -105l-67 -25c-12 35 -48 55 -102 57c-70 3 -103 -34 -96 -73c6 -39 50 -50 120 -65c81 -18 171 -47 171 -139z" />
    <glyph glyph-name="uogonek" unicode="&#x173;" horiz-adv-x="500" 
d="M441 0c-43 -19 -95 -75 -80 -116c11 -28 52 -24 78 -9v-69c-16 -6 -31 -9 -47 -9c-51 0 -93 34 -88 90c5 54 54 100 76 113h-7v56c-34 -39 -78 -63 -137 -63c-96 0 -186 46 -186 223v266h72v-266c0 -105 44 -151 122 -151c74 0 129 51 129 157v260h72v-482h-4z" />
    <glyph glyph-name="Aacute" unicode="&#xc1;" horiz-adv-x="655" 
d="M545 0l-76 203h-283l-76 -203h-80l264 700h66l265 -700h-80zM213 275h229l-115 310zM389 900h76l-99 -137h-55z" />
    <glyph glyph-name="Abreve" unicode="&#x102;" horiz-adv-x="655" 
d="M545 0l-76 203h-283l-76 -203h-80l264 700h66l265 -700h-80zM213 275h229l-115 310zM386 900h63c0 -73 -48 -131 -121 -131c-74 0 -121 58 -121 131h63c0 -40 21 -70 58 -70c35 0 58 30 58 70z" />
    <glyph glyph-name="Acircumflex" unicode="&#xc2;" horiz-adv-x="655" 
d="M545 0l-76 203h-283l-76 -203h-80l264 700h66l265 -700h-80zM213 275h229l-115 310zM468 763h-84l-57 80l-57 -80h-83l106 137h68z" />
    <glyph glyph-name="Agrave" unicode="&#xc0;" horiz-adv-x="655" 
d="M545 0l-76 203h-283l-76 -203h-80l264 700h66l265 -700h-80zM213 275h229l-115 310zM275 900l78 -137h-55l-99 137h76z" />
    <glyph glyph-name="Adieresis" unicode="&#xc4;" horiz-adv-x="655" 
d="M545 0l-76 203h-283l-76 -203h-80l264 700h66l265 -700h-80zM213 275h229l-115 310zM252 879c22 0 40 -18 40 -41c0 -22 -18 -40 -40 -40s-41 18 -41 40c0 23 19 41 41 41zM403 879c23 0 41 -18 41 -41c0 -22 -18 -40 -41 -40c-22 0 -40 18 -40 40c0 23 18 41 40 41z" />
    <glyph glyph-name="Aring" unicode="&#xc5;" horiz-adv-x="655" 
d="M545 0l-76 203h-283l-76 -203h-80l264 700h66l265 -700h-80zM213 275h229l-115 310zM328 976c61 0 110 -50 110 -111s-49 -111 -110 -111c-62 0 -111 50 -111 111s49 111 111 111zM328 813c28 0 52 23 52 52s-24 52 -52 52c-29 0 -53 -23 -53 -52s24 -52 53 -52z" />
    <glyph glyph-name="Amacron" unicode="&#x100;" horiz-adv-x="655" 
d="M545 0l-76 203h-283l-76 -203h-80l264 700h66l265 -700h-80zM213 275h229l-115 310zM203 877h250v-72h-250v72z" />
    <glyph glyph-name="Atilde" unicode="&#xc3;" horiz-adv-x="655" 
d="M545 0l-76 203h-283l-76 -203h-80l264 700h66l265 -700h-80zM213 275h229l-115 310zM422 870l66 -20c-33 -108 -103 -98 -175 -57c-38 22 -65 23 -89 -19l-59 31c38 78 101 95 173 55c38 -21 71 -38 84 10z" />
    <glyph glyph-name="AEacute" unicode="&#x1fc;" horiz-adv-x="994" 
d="M551 72h393v-72h-465v203h-295l-106 -203h-78l367 700h571v-72h-387v-242h356v-72h-356v-242zM222 275h257v353h-73zM571 900h76l-99 -137h-55z" />
    <glyph glyph-name="Cacute" unicode="&#x106;" horiz-adv-x="709" 
d="M390 63c96 0 177 48 225 121l64 -32c-60 -96 -165 -160 -289 -160c-197 0 -345 160 -345 357s148 357 345 357c124 0 229 -63 289 -160l-64 -31c-48 72 -129 120 -225 120c-158 0 -271 -128 -271 -286s113 -286 271 -286zM433 900h76l-99 -137h-55z" />
    <glyph glyph-name="Ccaron" unicode="&#x10c;" horiz-adv-x="709" 
d="M390 63c96 0 177 48 225 121l64 -32c-60 -96 -165 -160 -289 -160c-197 0 -345 160 -345 357s148 357 345 357c124 0 229 -63 289 -160l-64 -31c-48 72 -129 120 -225 120c-158 0 -271 -128 -271 -286s113 -286 271 -286zM533 900l-107 -137h-68l-107 137h84l57 -81
l57 81h84z" />
    <glyph glyph-name="Ccircumflex" unicode="&#x108;" horiz-adv-x="709" 
d="M390 63c96 0 177 48 225 121l64 -32c-60 -96 -165 -160 -289 -160c-197 0 -345 160 -345 357s148 357 345 357c124 0 229 -63 289 -160l-64 -31c-48 72 -129 120 -225 120c-158 0 -271 -128 -271 -286s113 -286 271 -286zM533 763h-84l-57 80l-57 -80h-83l106 137h68z
" />
    <glyph glyph-name="Cdotaccent" unicode="&#x10a;" horiz-adv-x="709" 
d="M390 63c96 0 177 48 225 121l64 -32c-60 -96 -165 -160 -289 -160c-197 0 -345 160 -345 357s148 357 345 357c124 0 229 -63 289 -160l-64 -31c-48 72 -129 120 -225 120c-158 0 -271 -128 -271 -286s113 -286 271 -286zM392 879c22 0 40 -18 40 -41
c0 -22 -18 -40 -40 -40s-40 18 -40 40c0 23 18 41 40 41z" />
    <glyph glyph-name="Dcaron" unicode="&#x10e;" horiz-adv-x="673" 
d="M280 700c218 0 353 -158 353 -351s-138 -349 -353 -349h-215v700h215zM274 72c179 0 282 124 282 277c0 154 -107 279 -281 279h-138v-556h137zM440 900l-107 -137h-68l-107 137h84l57 -81l57 81h84z" />
    <glyph glyph-name="Eacute" unicode="&#xc9;" 
d="M132 72h393v-72h-465v700h459v-72h-387v-242h356v-72h-356v-242zM334 900h76l-99 -137h-55z" />
    <glyph glyph-name="Ebreve" unicode="&#x114;" 
d="M132 72h393v-72h-465v700h459v-72h-387v-242h356v-72h-356v-242zM361 900h63c0 -73 -48 -131 -121 -131c-74 0 -121 58 -121 131h63c0 -40 21 -70 58 -70c35 0 58 30 58 70z" />
    <glyph glyph-name="Ecaron" unicode="&#x11a;" 
d="M132 72h393v-72h-465v700h459v-72h-387v-242h356v-72h-356v-242zM444 900l-107 -137h-68l-107 137h84l57 -81l57 81h84z" />
    <glyph glyph-name="Ecircumflex" unicode="&#xca;" 
d="M132 72h393v-72h-465v700h459v-72h-387v-242h356v-72h-356v-242zM443 763h-84l-57 80l-57 -80h-83l106 137h68z" />
    <glyph glyph-name="Edieresis" unicode="&#xcb;" 
d="M132 72h393v-72h-465v700h459v-72h-387v-242h356v-72h-356v-242zM222 879c22 0 40 -18 40 -41c0 -22 -18 -40 -40 -40s-41 18 -41 40c0 23 19 41 41 41zM373 879c23 0 41 -18 41 -41c0 -22 -18 -40 -41 -40c-22 0 -40 18 -40 40c0 23 18 41 40 41z" />
    <glyph glyph-name="Edotaccent" unicode="&#x116;" 
d="M132 72h393v-72h-465v700h459v-72h-387v-242h356v-72h-356v-242zM303 879c22 0 40 -18 40 -41c0 -22 -18 -40 -40 -40s-40 18 -40 40c0 23 18 41 40 41z" />
    <glyph glyph-name="Egrave" unicode="&#xc8;" 
d="M132 72h393v-72h-465v700h459v-72h-387v-242h356v-72h-356v-242zM272 900l78 -137h-55l-99 137h76z" />
    <glyph glyph-name="Emacron" unicode="&#x112;" 
d="M132 72h393v-72h-465v700h459v-72h-387v-242h356v-72h-356v-242zM178 877h250v-72h-250v72z" />
    <glyph glyph-name="Gbreve" unicode="&#x11e;" horiz-adv-x="715" 
d="M670 359v-207c-60 -96 -165 -160 -289 -160c-197 0 -346 160 -346 357s149 357 346 357c124 0 228 -63 289 -160l-64 -31c-49 72 -129 120 -225 120c-158 0 -272 -128 -272 -286s114 -286 272 -286c88 0 170 44 217 105v119h-219v72h291zM431 900h63
c0 -73 -48 -131 -121 -131c-74 0 -121 58 -121 131h63c0 -40 21 -70 58 -70c35 0 58 30 58 70z" />
    <glyph glyph-name="Gcircumflex" unicode="&#x11c;" horiz-adv-x="715" 
d="M670 359v-207c-60 -96 -165 -160 -289 -160c-197 0 -346 160 -346 357s149 357 346 357c124 0 228 -63 289 -160l-64 -31c-49 72 -129 120 -225 120c-158 0 -272 -128 -272 -286s114 -286 272 -286c88 0 170 44 217 105v119h-219v72h291zM513 763h-84l-57 80l-57 -80h-83
l106 137h68z" />
    <glyph glyph-name="Gcommaaccent" unicode="&#x122;" horiz-adv-x="715" 
d="M670 359v-207c-60 -96 -165 -160 -289 -160c-197 0 -346 160 -346 357s149 357 346 357c124 0 228 -63 289 -160l-64 -31c-49 72 -129 120 -225 120c-158 0 -272 -128 -272 -286s114 -286 272 -286c88 0 170 44 217 105v119h-219v72h291zM332 -51h73l-55 -132h-50z" />
    <glyph glyph-name="Gdotaccent" unicode="&#x120;" horiz-adv-x="715" 
d="M670 359v-207c-60 -96 -165 -160 -289 -160c-197 0 -346 160 -346 357s149 357 346 357c124 0 228 -63 289 -160l-64 -31c-49 72 -129 120 -225 120c-158 0 -272 -128 -272 -286s114 -286 272 -286c88 0 170 44 217 105v119h-219v72h291zM373 879c22 0 40 -18 40 -41
c0 -22 -18 -40 -40 -40s-40 18 -40 40c0 23 18 41 40 41z" />
    <glyph glyph-name="Hcircumflex" unicode="&#x124;" horiz-adv-x="660" 
d="M523 700h72v-700h-72v314h-386v-314h-72v700h72v-314h386v314zM471 763h-84l-57 80l-57 -80h-83l106 137h68z" />
    <glyph glyph-name="Iacute" unicode="&#xcd;" horiz-adv-x="202" 
d="M65 700h72v-700h-72v700zM152 900h76l-99 -137h-55z" />
    <glyph glyph-name="Ibreve" unicode="&#x12c;" horiz-adv-x="218" 
d="M75 700h72v-700h-72v700zM169 900h63c0 -73 -48 -131 -121 -131c-74 0 -121 58 -121 131h63c0 -40 21 -70 58 -70c35 0 58 30 58 70z" />
    <glyph glyph-name="Icircumflex" unicode="&#xce;" horiz-adv-x="203" 
d="M66 700h72v-700h-72v700zM243 763h-84l-57 80l-57 -80h-83l106 137h68z" />
    <glyph glyph-name="Idieresis" unicode="&#xcf;" horiz-adv-x="218" 
d="M75 700h72v-700h-72v700zM36 879c22 0 40 -18 40 -41c0 -22 -18 -40 -40 -40s-41 18 -41 40c0 23 19 41 41 41zM187 879c23 0 41 -18 41 -41c0 -22 -18 -40 -41 -40c-22 0 -40 18 -40 40c0 23 18 41 40 41z" />
    <glyph glyph-name="Idotaccent" unicode="&#x130;" horiz-adv-x="202" 
d="M65 700h72v-700h-72v700zM101 879c22 0 40 -18 40 -41c0 -22 -18 -40 -40 -40s-40 18 -40 40c0 23 18 41 40 41z" />
    <glyph glyph-name="Igrave" unicode="&#xcc;" horiz-adv-x="202" 
d="M65 700h72v-700h-72v700zM50 900l78 -137h-55l-99 137h76z" />
    <glyph glyph-name="Imacron" unicode="&#x12a;" horiz-adv-x="202" 
d="M69 700h72v-700h-72v700zM-20 877h250v-72h-250v72z" />
    <glyph glyph-name="Itilde" unicode="&#x128;" horiz-adv-x="203" 
d="M65 700h72v-700h-72v700zM197 870l66 -20c-33 -108 -103 -98 -175 -57c-38 22 -65 23 -89 -19l-59 31c38 78 101 95 173 55c38 -21 71 -38 84 10z" />
    <glyph glyph-name="Jcircumflex" unicode="&#x134;" horiz-adv-x="407" 
d="M347 700v-513c0 -123 -56 -195 -166 -195c-82 0 -143 49 -160 76l53 42c18 -21 54 -46 104 -46c59 0 96 37 96 121v515h73zM451 763h-84l-57 80l-57 -80h-83l106 137h68z" />
    <glyph glyph-name="Kcommaaccent" unicode="&#x136;" horiz-adv-x="594" 
d="M496 0l-252 352l-106 -118v-234h-73v700h73v-358l324 358h96l-264 -293l290 -407h-88zM273 -76h73l-55 -132h-50z" />
    <glyph glyph-name="Lacute" unicode="&#x139;" horiz-adv-x="490" 
d="M132 72h348v-72h-420v700h72v-628zM151 900h76l-99 -137h-55z" />
    <glyph glyph-name="Lcaron" unicode="&#x13d;" horiz-adv-x="490" 
d="M132 72h348v-72h-420v700h72v-628zM207 532l40 168h76l-69 -168h-47z" />
    <glyph glyph-name="Lcommaaccent" unicode="&#x13b;" horiz-adv-x="490" 
d="M132 72h348v-72h-420v700h72v-628zM249 -76h73l-55 -132h-50z" />
    <glyph glyph-name="Ldot" unicode="&#x13f;" horiz-adv-x="490" 
d="M308 389c22 0 40 -18 40 -41c0 -22 -18 -40 -40 -40s-40 18 -40 40c0 23 18 41 40 41zM132 72h348v-72h-420v700h72v-628z" />
    <glyph glyph-name="Nacute" unicode="&#x143;" horiz-adv-x="662" 
d="M525 700h72v-700h-66l-394 568v-568h-72v700h66l394 -566v566zM392 900h76l-99 -137h-55z" />
    <glyph glyph-name="Ncaron" unicode="&#x147;" horiz-adv-x="662" 
d="M525 700h72v-700h-66l-394 568v-568h-72v700h66l394 -566v566zM482 900l-107 -137h-68l-107 137h84l57 -81l57 81h84z" />
    <glyph glyph-name="Ncommaaccent" unicode="&#x145;" horiz-adv-x="662" 
d="M525 700h72v-700h-66l-394 568v-568h-72v700h66l394 -566v566zM300 -76h73l-55 -132h-50z" />
    <glyph glyph-name="Ntilde" unicode="&#xd1;" horiz-adv-x="662" 
d="M525 700h72v-700h-66l-394 568v-568h-72v700h66l394 -566v566zM437 870l66 -20c-33 -108 -103 -98 -175 -57c-38 22 -65 23 -89 -19l-59 31c38 78 101 95 173 55c38 -21 71 -38 84 10z" />
    <glyph glyph-name="Oacute" unicode="&#xd3;" horiz-adv-x="769" 
d="M385 706c197 0 339 -160 339 -357s-142 -357 -339 -357s-340 160 -340 357s143 357 340 357zM385 63c157 0 265 128 265 286s-108 286 -265 286c-158 0 -266 -128 -266 -286s108 -286 266 -286zM445 900h76l-99 -137h-55z" />
    <glyph glyph-name="Obreve" unicode="&#x14e;" horiz-adv-x="769" 
d="M385 706c197 0 339 -160 339 -357s-142 -357 -339 -357s-340 160 -340 357s143 357 340 357zM385 63c157 0 265 128 265 286s-108 286 -265 286c-158 0 -266 -128 -266 -286s108 -286 266 -286zM442 900h63c0 -73 -48 -131 -121 -131c-74 0 -121 58 -121 131h63
c0 -40 21 -70 58 -70c35 0 58 30 58 70z" />
    <glyph glyph-name="Ocircumflex" unicode="&#xd4;" horiz-adv-x="769" 
d="M385 706c197 0 339 -160 339 -357s-142 -357 -339 -357s-340 160 -340 357s143 357 340 357zM385 63c157 0 265 128 265 286s-108 286 -265 286c-158 0 -266 -128 -266 -286s108 -286 266 -286zM525 763h-84l-57 80l-57 -80h-83l106 137h68z" />
    <glyph glyph-name="Odieresis" unicode="&#xd6;" horiz-adv-x="769" 
d="M385 706c197 0 339 -160 339 -357s-142 -357 -339 -357s-340 160 -340 357s143 357 340 357zM385 63c157 0 265 128 265 286s-108 286 -265 286c-158 0 -266 -128 -266 -286s108 -286 266 -286zM309 879c22 0 40 -18 40 -41c0 -22 -18 -40 -40 -40s-41 18 -41 40
c0 23 19 41 41 41zM460 879c23 0 41 -18 41 -41c0 -22 -18 -40 -41 -40c-22 0 -40 18 -40 40c0 23 18 41 40 41z" />
    <glyph glyph-name="Ograve" unicode="&#xd2;" horiz-adv-x="769" 
d="M385 706c197 0 339 -160 339 -357s-142 -357 -339 -357s-340 160 -340 357s143 357 340 357zM385 63c157 0 265 128 265 286s-108 286 -265 286c-158 0 -266 -128 -266 -286s108 -286 266 -286zM344 900l78 -137h-55l-99 137h76z" />
    <glyph glyph-name="hungarumlaut" unicode="&#x2dd;" horiz-adv-x="398" 
d="M128 700h76l-99 -137h-55zM272 700h76l-99 -137h-55z" />
    <glyph glyph-name="Ohungarumlaut" unicode="&#x150;" horiz-adv-x="769" 
d="M385 706c197 0 339 -160 339 -357s-142 -357 -339 -357s-340 160 -340 357s143 357 340 357zM385 63c157 0 265 128 265 286s-108 286 -265 286c-158 0 -266 -128 -266 -286s108 -286 266 -286zM362 900h76l-99 -137h-55zM506 900h76l-99 -137h-55z" />
    <glyph glyph-name="Omacron" unicode="&#x14c;" horiz-adv-x="769" 
d="M385 706c197 0 339 -160 339 -357s-142 -357 -339 -357s-340 160 -340 357s143 357 340 357zM385 63c157 0 265 128 265 286s-108 286 -265 286c-158 0 -266 -128 -266 -286s108 -286 266 -286zM259 877h250v-72h-250v72z" />
    <glyph glyph-name="Oslashacute" unicode="&#x1fe;" horiz-adv-x="768" 
d="M727 676l-84 -93c51 -62 80 -144 80 -234c0 -197 -142 -356 -339 -356c-81 0 -152 27 -209 72l-80 -89l-54 48l83 92c-50 63 -79 144 -79 233c0 197 142 357 339 357c81 0 152 -27 208 -72l81 90zM119 349c0 -67 19 -129 54 -178l371 410c-43 34 -98 54 -160 54
c-158 0 -265 -128 -265 -286zM649 349c0 68 -20 131 -55 180l-371 -411c44 -34 98 -54 161 -54c158 0 265 128 265 285zM436 900h76l-99 -137h-55z" />
    <glyph glyph-name="Otilde" unicode="&#xd5;" horiz-adv-x="769" 
d="M385 706c197 0 339 -160 339 -357s-142 -357 -339 -357s-340 160 -340 357s143 357 340 357zM385 63c157 0 265 128 265 286s-108 286 -265 286c-158 0 -266 -128 -266 -286s108 -286 266 -286zM480 870l66 -20c-33 -108 -103 -98 -175 -57c-38 22 -65 23 -89 -19l-59 31
c38 78 101 95 173 55c38 -21 71 -38 84 10z" />
    <glyph glyph-name="Racute" unicode="&#x154;" horiz-adv-x="592" 
d="M564 0h-83l-150 266h-4h-190v-266h-72v700h262c131 0 220 -99 220 -217c0 -92 -56 -172 -141 -203zM137 628v-290h190c89 0 145 67 145 145s-56 145 -145 145h-190zM316 900h76l-99 -137h-55z" />
    <glyph glyph-name="Rcaron" unicode="&#x158;" horiz-adv-x="592" 
d="M564 0h-83l-150 266h-4h-190v-266h-72v700h262c131 0 220 -99 220 -217c0 -92 -56 -172 -141 -203zM137 628v-290h190c89 0 145 67 145 145s-56 145 -145 145h-190zM416 900l-107 -137h-68l-107 137h84l57 -81l57 81h84z" />
    <glyph glyph-name="Rcommaaccent" unicode="&#x156;" horiz-adv-x="592" 
d="M564 0h-83l-150 266h-4h-190v-266h-72v700h262c131 0 220 -99 220 -217c0 -92 -56 -172 -141 -203zM137 628v-290h190c89 0 145 67 145 145s-56 145 -145 145h-190zM264 -51h73l-55 -132h-50z" />
    <glyph glyph-name="Sacute" unicode="&#x15a;" horiz-adv-x="596" 
d="M309 388c129 -21 257 -55 257 -193c0 -135 -127 -203 -255 -203c-158 0 -252 75 -281 154l69 24c28 -67 104 -106 210 -106c74 0 184 33 184 131c0 76 -59 97 -196 122s-248 63 -249 192c-1 103 77 198 249 198c123 0 214 -65 240 -150l-69 -24c-18 75 -94 102 -171 102
c-109 0 -177 -43 -177 -126c0 -70 57 -98 189 -121zM339 900h76l-99 -137h-55z" />
    <glyph glyph-name="Scaron" unicode="&#x160;" horiz-adv-x="596" 
d="M309 388c129 -21 257 -55 257 -193c0 -135 -127 -203 -255 -203c-158 0 -252 75 -281 154l69 24c28 -67 104 -106 210 -106c74 0 184 33 184 131c0 76 -59 97 -196 122s-248 63 -249 192c-1 103 77 198 249 198c123 0 214 -65 240 -150l-69 -24c-18 75 -94 102 -171 102
c-109 0 -177 -43 -177 -126c0 -70 57 -98 189 -121zM439 900l-107 -137h-68l-107 137h84l57 -81l57 81h84z" />
    <glyph glyph-name="Scircumflex" unicode="&#x15c;" horiz-adv-x="596" 
d="M309 388c129 -21 257 -55 257 -193c0 -135 -127 -203 -255 -203c-158 0 -252 75 -281 154l69 24c28 -67 104 -106 210 -106c74 0 184 33 184 131c0 76 -59 97 -196 122s-248 63 -249 192c-1 103 77 198 249 198c123 0 214 -65 240 -150l-69 -24c-18 75 -94 102 -171 102
c-109 0 -177 -43 -177 -126c0 -70 57 -98 189 -121zM439 763h-84l-57 80l-57 -80h-83l106 137h68z" />
    <glyph glyph-name="Scommaaccent" unicode="&#x218;" horiz-adv-x="596" 
d="M309 388c129 -21 257 -55 257 -193c0 -135 -127 -203 -255 -203c-158 0 -252 75 -281 154l69 24c28 -67 104 -106 210 -106c74 0 184 33 184 131c0 76 -59 97 -196 122s-248 63 -249 192c-1 103 77 198 249 198c123 0 214 -65 240 -150l-69 -24c-18 75 -94 102 -171 102
c-109 0 -177 -43 -177 -126c0 -70 57 -98 189 -121zM249 -51h73l-55 -132h-50z" />
    <glyph glyph-name="Tcaron" unicode="&#x164;" horiz-adv-x="547" 
d="M527 700v-72h-217v-628h-72v628h-218v72h507zM415 900l-107 -137h-68l-107 137h84l57 -81l57 81h84z" />
    <glyph glyph-name="Tcommaaccent" unicode="&#x162;" horiz-adv-x="547" 
d="M527 700v-72h-217v-628h-72v628h-218v72h507zM236 -76h73l-55 -132h-50z" />
    <glyph glyph-name="Uacute" unicode="&#xda;" horiz-adv-x="640" 
d="M508 700h72v-419c0 -199 -113 -289 -257 -289s-263 86 -263 286v422h72v-425c0 -140 87 -211 191 -211s185 74 185 211v425zM366 900h76l-99 -137h-55z" />
    <glyph glyph-name="Ubreve" unicode="&#x16c;" horiz-adv-x="640" 
d="M508 700h72v-419c0 -199 -113 -289 -257 -289s-263 86 -263 286v422h72v-425c0 -140 87 -211 191 -211s185 74 185 211v425zM378 900h63c0 -73 -48 -131 -121 -131c-74 0 -121 58 -121 131h63c0 -40 21 -70 58 -70c35 0 58 30 58 70z" />
    <glyph glyph-name="Ucircumflex" unicode="&#xdb;" horiz-adv-x="640" 
d="M508 700h72v-419c0 -199 -113 -289 -257 -289s-263 86 -263 286v422h72v-425c0 -140 87 -211 191 -211s185 74 185 211v425zM461 763h-84l-57 80l-57 -80h-83l106 137h68z" />
    <glyph glyph-name="Udieresis" unicode="&#xdc;" horiz-adv-x="640" 
d="M508 700h72v-419c0 -199 -113 -289 -257 -289s-263 86 -263 286v422h72v-425c0 -140 87 -211 191 -211s185 74 185 211v425zM245 879c22 0 40 -18 40 -41c0 -22 -18 -40 -40 -40s-41 18 -41 40c0 23 19 41 41 41zM396 879c23 0 41 -18 41 -41c0 -22 -18 -40 -41 -40
c-22 0 -40 18 -40 40c0 23 18 41 40 41z" />
    <glyph glyph-name="Ugrave" unicode="&#xd9;" horiz-adv-x="640" 
d="M508 700h72v-419c0 -199 -113 -289 -257 -289s-263 86 -263 286v422h72v-425c0 -140 87 -211 191 -211s185 74 185 211v425zM279 900l78 -137h-55l-99 137h76z" />
    <glyph glyph-name="Uhungarumlaut" unicode="&#x170;" horiz-adv-x="640" 
d="M508 700h72v-419c0 -199 -113 -289 -257 -289s-263 86 -263 286v422h72v-425c0 -140 87 -211 191 -211s185 74 185 211v425zM299 900h76l-99 -137h-55zM443 900h76l-99 -137h-55z" />
    <glyph glyph-name="Umacron" unicode="&#x16a;" horiz-adv-x="640" 
d="M508 700h72v-419c0 -199 -113 -289 -257 -289s-263 86 -263 286v422h72v-425c0 -140 87 -211 191 -211s185 74 185 211v425zM195 877h250v-72h-250v72z" />
    <glyph glyph-name="Uring" unicode="&#x16e;" horiz-adv-x="640" 
d="M508 700h72v-419c0 -199 -113 -289 -257 -289s-263 86 -263 286v422h72v-425c0 -140 87 -211 191 -211s185 74 185 211v425zM321 976c61 0 110 -50 110 -111s-49 -111 -110 -111c-62 0 -111 50 -111 111s49 111 111 111zM321 813c28 0 52 23 52 52s-24 52 -52 52
c-29 0 -53 -23 -53 -52s24 -52 53 -52z" />
    <glyph glyph-name="Utilde" unicode="&#x168;" horiz-adv-x="640" 
d="M508 700h72v-419c0 -199 -113 -289 -257 -289s-263 86 -263 286v422h72v-425c0 -140 87 -211 191 -211s185 74 185 211v425zM416 870l66 -20c-33 -108 -103 -98 -175 -57c-38 22 -65 23 -89 -19l-59 31c38 78 101 95 173 55c38 -21 71 -38 84 10z" />
    <glyph glyph-name="Wacute" unicode="&#x1e82;" horiz-adv-x="999" 
d="M901 700h78l-226 -700h-73l-179 582l-179 -582h-73l-229 700h81l186 -581l179 581h70l179 -581zM560 900h76l-99 -137h-55z" />
    <glyph glyph-name="Wcircumflex" unicode="&#x174;" horiz-adv-x="999" 
d="M901 700h78l-226 -700h-73l-179 582l-179 -582h-73l-229 700h81l186 -581l179 581h70l179 -581zM640 763h-84l-57 80l-57 -80h-83l106 137h68z" />
    <glyph glyph-name="Wdieresis" unicode="&#x1e84;" horiz-adv-x="999" 
d="M901 700h78l-226 -700h-73l-179 582l-179 -582h-73l-229 700h81l186 -581l179 581h70l179 -581zM424 879c22 0 40 -18 40 -41c0 -22 -18 -40 -40 -40s-41 18 -41 40c0 23 19 41 41 41zM575 879c23 0 41 -18 41 -41c0 -22 -18 -40 -41 -40c-22 0 -40 18 -40 40
c0 23 18 41 40 41z" />
    <glyph glyph-name="Wgrave" unicode="&#x1e80;" horiz-adv-x="999" 
d="M901 700h78l-226 -700h-73l-179 582l-179 -582h-73l-229 700h81l186 -581l179 581h70l179 -581zM448 900l78 -137h-55l-99 137h76z" />
    <glyph glyph-name="Yacute" unicode="&#xdd;" horiz-adv-x="559" 
d="M559 700l-243 -434v-266h-73v265l-243 435h83l196 -351l197 351h83zM341 900h76l-99 -137h-55z" />
    <glyph glyph-name="Ycircumflex" unicode="&#x176;" horiz-adv-x="559" 
d="M559 700l-243 -434v-266h-73v265l-243 435h83l196 -351l197 351h83zM420 763h-84l-57 80l-57 -80h-83l106 137h68z" />
    <glyph glyph-name="Ydieresis" unicode="&#x178;" horiz-adv-x="559" 
d="M559 700l-243 -434v-266h-73v265l-243 435h83l196 -351l197 351h83zM204 879c22 0 40 -18 40 -41c0 -22 -18 -40 -40 -40s-41 18 -41 40c0 23 19 41 41 41zM355 879c23 0 41 -18 41 -41c0 -22 -18 -40 -41 -40c-22 0 -40 18 -40 40c0 23 18 41 40 41z" />
    <glyph glyph-name="Ygrave" unicode="&#x1ef2;" horiz-adv-x="559" 
d="M559 700l-243 -434v-266h-73v265l-243 435h83l196 -351l197 351h83zM229 900l78 -137h-55l-99 137h76z" />
    <glyph glyph-name="Zacute" unicode="&#x179;" 
d="M113 73h447v-73h-545v73l439 555h-409v72h501v-72zM339 900h76l-99 -137h-55z" />
    <glyph glyph-name="Zcaron" unicode="&#x17d;" 
d="M113 73h447v-73h-545v73l439 555h-409v72h501v-72zM449 900l-107 -137h-68l-107 137h84l57 -81l57 81h84z" />
    <glyph glyph-name="Zdotaccent" unicode="&#x17b;" 
d="M113 73h447v-73h-545v73l439 555h-409v72h501v-72zM303 879c22 0 40 -18 40 -41c0 -22 -18 -40 -40 -40s-40 18 -40 40c0 23 18 41 40 41z" />
    <glyph glyph-name="aacute" unicode="&#xe1;" horiz-adv-x="470" 
d="M425 0h-72v58c-43 -37 -99 -65 -168 -65c-89 0 -155 44 -155 125c0 95 74 138 222 162c75 12 104 26 103 58c-1 33 -18 86 -110 86c-85 0 -109 -42 -121 -83l-64 15c13 65 69 133 187 133c112 0 177 -64 177 -166c0 -98 1 -323 1 -323zM191 61c94 0 165 59 164 146v22
c-26 -5 -57 -9 -93 -15c-104 -17 -156 -38 -156 -91s61 -62 85 -62zM289 700h76l-99 -137h-55z" />
    <glyph glyph-name="abreve" unicode="&#x103;" horiz-adv-x="470" 
d="M425 0h-72v58c-43 -37 -99 -65 -168 -65c-89 0 -155 44 -155 125c0 95 74 138 222 162c75 12 104 26 103 58c-1 33 -18 86 -110 86c-85 0 -109 -42 -121 -83l-64 15c13 65 69 133 187 133c112 0 177 -64 177 -166c0 -98 1 -323 1 -323zM191 61c94 0 165 59 164 146v22
c-26 -5 -57 -9 -93 -15c-104 -17 -156 -38 -156 -91s61 -62 85 -62zM310 700h63c0 -73 -48 -131 -121 -131c-74 0 -121 58 -121 131h63c0 -40 21 -70 58 -70c35 0 58 30 58 70z" />
    <glyph glyph-name="acircumflex" unicode="&#xe2;" horiz-adv-x="470" 
d="M425 0h-72v58c-43 -37 -99 -65 -168 -65c-89 0 -155 44 -155 125c0 95 74 138 222 162c75 12 104 26 103 58c-1 33 -18 86 -110 86c-85 0 -109 -42 -121 -83l-64 15c13 65 69 133 187 133c112 0 177 -64 177 -166c0 -98 1 -323 1 -323zM191 61c94 0 165 59 164 146v22
c-26 -5 -57 -9 -93 -15c-104 -17 -156 -38 -156 -91s61 -62 85 -62zM388 563h-84l-57 80l-57 -80h-83l106 137h68z" />
    <glyph glyph-name="adieresis" unicode="&#xe4;" horiz-adv-x="470" 
d="M425 0h-72v58c-43 -37 -99 -65 -168 -65c-89 0 -155 44 -155 125c0 95 74 138 222 162c75 12 104 26 103 58c-1 33 -18 86 -110 86c-85 0 -109 -42 -121 -83l-64 15c13 65 69 133 187 133c112 0 177 -64 177 -166c0 -98 1 -323 1 -323zM191 61c94 0 165 59 164 146v22
c-26 -5 -57 -9 -93 -15c-104 -17 -156 -38 -156 -91s61 -62 85 -62zM172 679c22 0 40 -18 40 -41c0 -22 -18 -40 -40 -40s-41 18 -41 40c0 23 19 41 41 41zM323 679c23 0 41 -18 41 -41c0 -22 -18 -40 -41 -40c-22 0 -40 18 -40 40c0 23 18 41 40 41z" />
    <glyph glyph-name="agrave" unicode="&#xe0;" horiz-adv-x="470" 
d="M425 0h-72v58c-43 -37 -99 -65 -168 -65c-89 0 -155 44 -155 125c0 95 74 138 222 162c75 12 104 26 103 58c-1 33 -18 86 -110 86c-85 0 -109 -42 -121 -83l-64 15c13 65 69 133 187 133c112 0 177 -64 177 -166c0 -98 1 -323 1 -323zM191 61c94 0 165 59 164 146v22
c-26 -5 -57 -9 -93 -15c-104 -17 -156 -38 -156 -91s61 -62 85 -62zM217 700l78 -137h-55l-99 137h76z" />
    <glyph glyph-name="amacron" unicode="&#x101;" horiz-adv-x="470" 
d="M425 0h-72v58c-43 -37 -99 -65 -168 -65c-89 0 -155 44 -155 125c0 95 74 138 222 162c75 12 104 26 103 58c-1 33 -18 86 -110 86c-85 0 -109 -42 -121 -83l-64 15c13 65 69 133 187 133c112 0 177 -64 177 -166c0 -98 1 -323 1 -323zM191 61c94 0 165 59 164 146v22
c-26 -5 -57 -9 -93 -15c-104 -17 -156 -38 -156 -91s61 -62 85 -62zM118 677h250v-72h-250v72z" />
    <glyph glyph-name="aring" unicode="&#xe5;" horiz-adv-x="470" 
d="M425 0h-72v58c-43 -37 -99 -65 -168 -65c-89 0 -155 44 -155 125c0 95 74 138 222 162c75 12 104 26 103 58c-1 33 -18 86 -110 86c-85 0 -109 -42 -121 -83l-64 15c13 65 69 133 187 133c112 0 177 -64 177 -166c0 -98 1 -323 1 -323zM191 61c94 0 165 59 164 146v22
c-26 -5 -57 -9 -93 -15c-104 -17 -156 -38 -156 -91s61 -62 85 -62zM238 776c61 0 110 -50 110 -111s-49 -111 -110 -111c-62 0 -111 50 -111 111s49 111 111 111zM238 613c28 0 52 23 52 52s-24 52 -52 52c-29 0 -53 -23 -53 -52s24 -52 53 -52z" />
    <glyph glyph-name="atilde" unicode="&#xe3;" horiz-adv-x="470" 
d="M425 0h-72v58c-43 -37 -99 -65 -168 -65c-89 0 -155 44 -155 125c0 95 74 138 222 162c75 12 104 26 103 58c-1 33 -18 86 -110 86c-85 0 -109 -42 -121 -83l-64 15c13 65 69 133 187 133c112 0 177 -64 177 -166c0 -98 1 -323 1 -323zM191 61c94 0 165 59 164 146v22
c-26 -5 -57 -9 -93 -15c-104 -17 -156 -38 -156 -91s61 -62 85 -62zM335 670l66 -20c-33 -108 -103 -98 -175 -57c-38 22 -65 23 -89 -19l-59 31c38 78 101 95 173 55c38 -21 71 -38 84 10z" />
    <glyph glyph-name="aeacute" unicode="&#x1fd;" horiz-adv-x="839" 
d="M587 489c138 0 217 -111 217 -249c0 -8 0 -17 -1 -25h-370c9 -87 70 -152 160 -152c59 0 104 27 132 72l64 -31c-41 -68 -109 -111 -196 -111c-89 0 -162 46 -201 116c-10 -18 -23 -36 -39 -52c-41 -39 -99 -64 -167 -64c-89 0 -156 44 -156 124c0 96 74 139 222 163
c76 12 105 26 104 58c-1 33 -18 86 -111 86c-85 0 -109 -43 -120 -83l-65 15c14 65 69 133 188 133c79 0 134 -32 160 -89c40 55 103 89 179 89zM587 419c-82 0 -136 -56 -151 -132h294c-13 76 -60 132 -143 132zM356 207v21c-26 -5 -58 -8 -93 -14
c-105 -17 -156 -38 -156 -91c0 -54 61 -62 85 -62c94 0 165 58 164 146zM476 700h76l-99 -137h-55z" />
    <glyph glyph-name="cacute" unicode="&#x107;" horiz-adv-x="485" 
d="M262 63c59 0 106 27 135 72l63 -31c-40 -68 -111 -111 -198 -111c-138 0 -232 110 -232 247c0 138 94 249 231 249c88 0 159 -45 199 -113l-63 -30c-29 44 -76 73 -136 73c-98 0 -158 -80 -158 -179s60 -177 159 -177zM306 700h76l-99 -137h-55z" />
    <glyph glyph-name="ccaron" unicode="&#x10d;" horiz-adv-x="485" 
d="M262 63c59 0 106 27 135 72l63 -31c-40 -68 -111 -111 -198 -111c-138 0 -232 110 -232 247c0 138 94 249 231 249c88 0 159 -45 199 -113l-63 -30c-29 44 -76 73 -136 73c-98 0 -158 -80 -158 -179s60 -177 159 -177zM396 700l-107 -137h-68l-107 137h84l57 -81l57 81
h84z" />
    <glyph glyph-name="ccircumflex" unicode="&#x109;" horiz-adv-x="485" 
d="M262 63c59 0 106 27 135 72l63 -31c-40 -68 -111 -111 -198 -111c-138 0 -232 110 -232 247c0 138 94 249 231 249c88 0 159 -45 199 -113l-63 -30c-29 44 -76 73 -136 73c-98 0 -158 -80 -158 -179s60 -177 159 -177zM396 563h-84l-57 80l-57 -80h-83l106 137h68z" />
    <glyph glyph-name="cdotaccent" unicode="&#x10b;" horiz-adv-x="485" 
d="M262 63c59 0 106 27 135 72l63 -31c-40 -68 -111 -111 -198 -111c-138 0 -232 110 -232 247c0 138 94 249 231 249c88 0 159 -45 199 -113l-63 -30c-29 44 -76 73 -136 73c-98 0 -158 -80 -158 -179s60 -177 159 -177zM255 679c22 0 40 -18 40 -41c0 -22 -18 -40 -40 -40
s-40 18 -40 40c0 23 18 41 40 41z" />
    <glyph glyph-name="dcaron" unicode="&#x10f;" horiz-adv-x="613" 
d="M415 700h72v-700h-72v65c-36 -45 -90 -72 -159 -72c-138 0 -226 110 -226 247c0 138 88 249 226 249c69 0 123 -28 159 -73v284zM256 63c99 0 156 78 156 177s-57 179 -156 179s-153 -80 -153 -179s54 -177 153 -177zM557 532l40 168h76l-69 -168h-47z" />
    <glyph glyph-name="eacute" unicode="&#xe9;" horiz-adv-x="512" 
d="M259 489c138 0 218 -111 218 -249c0 -8 -1 -17 -1 -25h-371c10 -87 70 -152 160 -152c60 0 104 27 133 72l63 -31c-40 -68 -108 -111 -196 -111c-137 0 -235 110 -235 247c0 138 92 249 229 249zM259 419c-82 0 -136 -56 -151 -132h295c-14 76 -61 132 -144 132zM315 700
h76l-99 -137h-55z" />
    <glyph glyph-name="ebreve" unicode="&#x115;" horiz-adv-x="512" 
d="M259 489c138 0 218 -111 218 -249c0 -8 -1 -17 -1 -25h-371c10 -87 70 -152 160 -152c60 0 104 27 133 72l63 -31c-40 -68 -108 -111 -196 -111c-137 0 -235 110 -235 247c0 138 92 249 229 249zM259 419c-82 0 -136 -56 -151 -132h295c-14 76 -61 132 -144 132zM322 700
h63c0 -73 -48 -131 -121 -131c-74 0 -121 58 -121 131h63c0 -40 21 -70 58 -70c35 0 58 30 58 70z" />
    <glyph glyph-name="ecaron" unicode="&#x11b;" horiz-adv-x="512" 
d="M259 489c138 0 218 -111 218 -249c0 -8 -1 -17 -1 -25h-371c10 -87 70 -152 160 -152c60 0 104 27 133 72l63 -31c-40 -68 -108 -111 -196 -111c-137 0 -235 110 -235 247c0 138 92 249 229 249zM259 419c-82 0 -136 -56 -151 -132h295c-14 76 -61 132 -144 132zM405 700
l-107 -137h-68l-107 137h84l57 -81l57 81h84z" />
    <glyph glyph-name="ecircumflex" unicode="&#xea;" horiz-adv-x="512" 
d="M259 489c138 0 218 -111 218 -249c0 -8 -1 -17 -1 -25h-371c10 -87 70 -152 160 -152c60 0 104 27 133 72l63 -31c-40 -68 -108 -111 -196 -111c-137 0 -235 110 -235 247c0 138 92 249 229 249zM259 419c-82 0 -136 -56 -151 -132h295c-14 76 -61 132 -144 132zM404 563
h-84l-57 80l-57 -80h-83l106 137h68z" />
    <glyph glyph-name="edieresis" unicode="&#xeb;" horiz-adv-x="512" 
d="M259 489c138 0 218 -111 218 -249c0 -8 -1 -17 -1 -25h-371c10 -87 70 -152 160 -152c60 0 104 27 133 72l63 -31c-40 -68 -108 -111 -196 -111c-137 0 -235 110 -235 247c0 138 92 249 229 249zM259 419c-82 0 -136 -56 -151 -132h295c-14 76 -61 132 -144 132zM188 679
c22 0 40 -18 40 -41c0 -22 -18 -40 -40 -40s-41 18 -41 40c0 23 19 41 41 41zM339 679c23 0 41 -18 41 -41c0 -22 -18 -40 -41 -40c-22 0 -40 18 -40 40c0 23 18 41 40 41z" />
    <glyph glyph-name="edotaccent" unicode="&#x117;" horiz-adv-x="512" 
d="M259 489c138 0 218 -111 218 -249c0 -8 -1 -17 -1 -25h-371c10 -87 70 -152 160 -152c60 0 104 27 133 72l63 -31c-40 -68 -108 -111 -196 -111c-137 0 -235 110 -235 247c0 138 92 249 229 249zM259 419c-82 0 -136 -56 -151 -132h295c-14 76 -61 132 -144 132zM264 679
c22 0 40 -18 40 -41c0 -22 -18 -40 -40 -40s-40 18 -40 40c0 23 18 41 40 41z" />
    <glyph glyph-name="egrave" unicode="&#xe8;" horiz-adv-x="512" 
d="M259 489c138 0 218 -111 218 -249c0 -8 -1 -17 -1 -25h-371c10 -87 70 -152 160 -152c60 0 104 27 133 72l63 -31c-40 -68 -108 -111 -196 -111c-137 0 -235 110 -235 247c0 138 92 249 229 249zM259 419c-82 0 -136 -56 -151 -132h295c-14 76 -61 132 -144 132zM223 700
l78 -137h-55l-99 137h76z" />
    <glyph glyph-name="emacron" unicode="&#x113;" horiz-adv-x="512" 
d="M259 489c138 0 218 -111 218 -249c0 -8 -1 -17 -1 -25h-371c10 -87 70 -152 160 -152c60 0 104 27 133 72l63 -31c-40 -68 -108 -111 -196 -111c-137 0 -235 110 -235 247c0 138 92 249 229 249zM259 419c-82 0 -136 -56 -151 -132h295c-14 76 -61 132 -144 132zM139 677
h250v-72h-250v72z" />
    <glyph glyph-name="gbreve" unicode="&#x11f;" horiz-adv-x="542" 
d="M414 482h73v-462c0 -154 -84 -246 -229 -246c-84 0 -162 42 -201 106l60 36c27 -44 83 -72 141 -72c98 0 156 61 156 182v39c-36 -45 -90 -72 -158 -72c-138 0 -226 110 -226 247c0 138 88 249 226 249c68 0 122 -27 158 -72v65zM256 63c98 0 155 78 155 177
s-57 179 -155 179c-99 0 -153 -80 -153 -179s54 -177 153 -177zM327 700h63c0 -73 -48 -131 -121 -131c-74 0 -121 58 -121 131h63c0 -40 21 -70 58 -70c35 0 58 30 58 70z" />
    <glyph glyph-name="gcircumflex" unicode="&#x11d;" horiz-adv-x="542" 
d="M414 482h73v-462c0 -154 -84 -246 -229 -246c-84 0 -162 42 -201 106l60 36c27 -44 83 -72 141 -72c98 0 156 61 156 182v39c-36 -45 -90 -72 -158 -72c-138 0 -226 110 -226 247c0 138 88 249 226 249c68 0 122 -27 158 -72v65zM256 63c98 0 155 78 155 177
s-57 179 -155 179c-99 0 -153 -80 -153 -179s54 -177 153 -177zM399 563h-84l-57 80l-57 -80h-83l106 137h68z" />
    <glyph glyph-name="gcommaaccent" unicode="&#x123;" horiz-adv-x="542" 
d="M414 482h73v-462c0 -154 -84 -246 -229 -246c-84 0 -162 42 -201 106l60 36c27 -44 83 -72 141 -72c98 0 156 61 156 182v39c-36 -45 -90 -72 -158 -72c-138 0 -226 110 -226 247c0 138 88 249 226 249c68 0 122 -27 158 -72v65zM256 63c98 0 155 78 155 177
s-57 179 -155 179c-99 0 -153 -80 -153 -179s54 -177 153 -177zM233 582l69 168h47l-41 -168h-75z" />
    <glyph glyph-name="gdotaccent" unicode="&#x121;" horiz-adv-x="542" 
d="M414 482h73v-462c0 -154 -84 -246 -229 -246c-84 0 -162 42 -201 106l60 36c27 -44 83 -72 141 -72c98 0 156 61 156 182v39c-36 -45 -90 -72 -158 -72c-138 0 -226 110 -226 247c0 138 88 249 226 249c68 0 122 -27 158 -72v65zM256 63c98 0 155 78 155 177
s-57 179 -155 179c-99 0 -153 -80 -153 -179s54 -177 153 -177zM259 679c22 0 40 -18 40 -41c0 -22 -18 -40 -40 -40s-40 18 -40 40c0 23 18 41 40 41z" />
    <glyph glyph-name="hcircumflex" unicode="&#x125;" horiz-adv-x="500" 
d="M267 489c96 0 183 -46 183 -223v-266h-72v266c0 105 -44 151 -122 151c-74 0 -128 -50 -128 -157v-260h-73v700h73v-274c33 39 80 63 139 63zM399 764h-84l-57 80l-57 -80h-83l106 137h68z" />
    <glyph glyph-name="iacute" unicode="&#xed;" horiz-adv-x="191" 
d="M60 0v482h73v-482h-73zM148 700h76l-99 -137h-55z" />
    <glyph glyph-name="ibreve" unicode="&#x12d;" horiz-adv-x="192" 
d="M64 0v482h73v-482h-73zM159 700h63c0 -73 -48 -131 -121 -131c-74 0 -121 58 -121 131h63c0 -40 21 -70 58 -70c35 0 58 30 58 70z" />
    <glyph glyph-name="icircumflex" unicode="&#xee;" horiz-adv-x="211" 
d="M79 0v482h73v-482h-73zM256 563h-84l-57 80l-57 -80h-83l106 137h68z" />
    <glyph glyph-name="idieresis" unicode="&#xef;" horiz-adv-x="191" 
d="M60 0v482h73v-482h-73zM21 679c22 0 40 -18 40 -41c0 -22 -18 -40 -40 -40s-41 18 -41 40c0 23 19 41 41 41zM172 679c23 0 41 -18 41 -41c0 -22 -18 -40 -41 -40c-22 0 -40 18 -40 40c0 23 18 41 40 41z" />
    <glyph glyph-name="igrave" unicode="&#xec;" horiz-adv-x="198" 
d="M70 0v482h73v-482h-73zM56 700l78 -137h-55l-99 137h76z" />
    <glyph glyph-name="imacron" unicode="&#x12b;" horiz-adv-x="200" 
d="M68 0v482h73v-482h-73zM-20 677h250v-72h-250v72z" />
    <glyph glyph-name="itilde" unicode="&#x129;" horiz-adv-x="228" 
d="M95 0v482h73v-482h-73zM227 670l66 -20c-33 -108 -103 -98 -175 -57c-38 22 -65 23 -89 -19l-59 31c38 78 101 95 173 55c38 -21 71 -38 84 10z" />
    <glyph glyph-name="jcircumflex" unicode="&#x135;" horiz-adv-x="207" 
d="M82 -65v547h73v-549c0 -112 -39 -150 -102 -158c-31 -3 -73 10 -108 38l41 55c30 -26 61 -24 76 -11c18 15 20 38 20 78zM257 563h-84l-57 80l-57 -80h-83l106 137h68z" />
    <glyph glyph-name="dotlessi" unicode="&#x131;" horiz-adv-x="183" 
d="M55 0v482h73v-482h-73z" />
    <glyph glyph-name="kcommaaccent" unicode="&#x137;" horiz-adv-x="473" 
d="M369 0l-170 234l-72 -78v-156h-72v700h72v-438l203 220h98l-179 -194l209 -288h-89zM206 -51h73l-55 -132h-50z" />
    <glyph glyph-name="lacute" unicode="&#x13a;" horiz-adv-x="182" 
d="M55 750h72v-750h-72v750zM145 961h76l-99 -137h-55z" />
    <glyph glyph-name="lcaron" unicode="&#x13e;" horiz-adv-x="256" 
d="M55 750h72v-750h-72v750zM205 532l40 168h76l-69 -168h-47z" />
    <glyph glyph-name="lcommaaccent" unicode="&#x13c;" horiz-adv-x="192" 
d="M61 750h72v-750h-72v750zM58 -51h73l-55 -132h-50z" />
    <glyph glyph-name="ldot" unicode="&#x140;" horiz-adv-x="324" 
d="M55 750h72v-750h-72v750zM249 274c22 0 40 -18 40 -41c0 -22 -18 -40 -40 -40s-40 18 -40 40c0 23 18 41 40 41z" />
    <glyph glyph-name="nacute" unicode="&#x144;" horiz-adv-x="505" 
d="M267 489c95 0 183 -46 183 -223v-266h-72v266c0 105 -45 151 -123 151c-74 0 -128 -51 -128 -157v-260h-72v482h72v-56c34 39 81 63 140 63zM314 700h76l-99 -137h-55z" />
    <glyph glyph-name="napostrophe" unicode="&#x149;" horiz-adv-x="587" 
d="M349 489c95 0 183 -46 183 -223v-266h-72v266c0 105 -45 151 -123 151c-74 0 -128 -51 -128 -157v-260h-72v482h72v-56c34 39 81 63 140 63zM47 580h73l-55 -132h-50z" />
    <glyph glyph-name="ncaron" unicode="&#x148;" horiz-adv-x="505" 
d="M267 489c95 0 183 -46 183 -223v-266h-72v266c0 105 -45 151 -123 151c-74 0 -128 -51 -128 -157v-260h-72v482h72v-56c34 39 81 63 140 63zM394 700l-107 -137h-68l-107 137h84l57 -81l57 81h84z" />
    <glyph glyph-name="ncommaaccent" unicode="&#x146;" horiz-adv-x="505" 
d="M267 489c95 0 183 -46 183 -223v-266h-72v266c0 105 -45 151 -123 151c-74 0 -128 -51 -128 -157v-260h-72v482h72v-56c34 39 81 63 140 63zM227 -51h73l-55 -132h-50z" />
    <glyph glyph-name="ntilde" unicode="&#xf1;" horiz-adv-x="505" 
d="M267 489c95 0 183 -46 183 -223v-266h-72v266c0 105 -45 151 -123 151c-74 0 -128 -51 -128 -157v-260h-72v482h72v-56c34 39 81 63 140 63zM348 670l66 -20c-33 -108 -103 -98 -175 -57c-38 22 -65 23 -89 -19l-59 31c38 78 101 95 173 55c38 -21 71 -38 84 10z" />
    <glyph glyph-name="oacute" unicode="&#xf3;" horiz-adv-x="537" 
d="M267 489c138 0 235 -111 235 -249s-97 -248 -235 -248c-137 0 -232 110 -232 248s95 249 232 249zM267 63c99 0 162 78 162 177s-63 179 -162 179s-159 -80 -159 -179s60 -177 159 -177zM330 700h76l-99 -137h-55z" />
    <glyph glyph-name="obreve" unicode="&#x14f;" horiz-adv-x="537" 
d="M267 489c138 0 235 -111 235 -249s-97 -248 -235 -248c-137 0 -232 110 -232 248s95 249 232 249zM267 63c99 0 162 78 162 177s-63 179 -162 179s-159 -80 -159 -179s60 -177 159 -177zM327 700h63c0 -73 -48 -131 -121 -131c-74 0 -121 58 -121 131h63
c0 -40 21 -70 58 -70c35 0 58 30 58 70z" />
    <glyph glyph-name="ocircumflex" unicode="&#xf4;" horiz-adv-x="537" 
d="M267 489c138 0 235 -111 235 -249s-97 -248 -235 -248c-137 0 -232 110 -232 248s95 249 232 249zM267 63c99 0 162 78 162 177s-63 179 -162 179s-159 -80 -159 -179s60 -177 159 -177zM409 563h-84l-57 80l-57 -80h-83l106 137h68z" />
    <glyph glyph-name="odieresis" unicode="&#xf6;" horiz-adv-x="537" 
d="M267 489c138 0 235 -111 235 -249s-97 -248 -235 -248c-137 0 -232 110 -232 248s95 249 232 249zM267 63c99 0 162 78 162 177s-63 179 -162 179s-159 -80 -159 -179s60 -177 159 -177zM193 679c22 0 40 -18 40 -41c0 -22 -18 -40 -40 -40s-41 18 -41 40
c0 23 19 41 41 41zM344 679c23 0 41 -18 41 -41c0 -22 -18 -40 -41 -40c-22 0 -40 18 -40 40c0 23 18 41 40 41z" />
    <glyph glyph-name="ograve" unicode="&#xf2;" horiz-adv-x="537" 
d="M267 489c138 0 235 -111 235 -249s-97 -248 -235 -248c-137 0 -232 110 -232 248s95 249 232 249zM267 63c99 0 162 78 162 177s-63 179 -162 179s-159 -80 -159 -179s60 -177 159 -177zM218 700l78 -137h-55l-99 137h76z" />
    <glyph glyph-name="ohungarumlaut" unicode="&#x151;" horiz-adv-x="537" 
d="M267 489c138 0 235 -111 235 -249s-97 -248 -235 -248c-137 0 -232 110 -232 248s95 249 232 249zM267 63c99 0 162 78 162 177s-63 179 -162 179s-159 -80 -159 -179s60 -177 159 -177zM248 700h76l-99 -137h-55zM392 700h76l-99 -137h-55z" />
    <glyph glyph-name="omacron" unicode="&#x14d;" horiz-adv-x="537" 
d="M267 489c138 0 235 -111 235 -249s-97 -248 -235 -248c-137 0 -232 110 -232 248s95 249 232 249zM267 63c99 0 162 78 162 177s-63 179 -162 179s-159 -80 -159 -179s60 -177 159 -177zM144 677h250v-72h-250v72z" />
    <glyph glyph-name="oslashacute" unicode="&#x1ff;" horiz-adv-x="537" 
d="M512 458l-58 -65c29 -42 47 -95 47 -153c0 -137 -98 -247 -235 -247c-52 0 -98 16 -135 43l-55 -60l-53 48l57 64c-29 42 -46 94 -46 152c0 138 94 249 232 249c53 0 99 -16 137 -44l55 61zM107 240c0 -36 8 -69 23 -97l225 249c-24 17 -54 27 -89 27
c-99 0 -159 -80 -159 -179zM428 240c0 36 -9 70 -24 98l-226 -250c24 -16 54 -25 88 -25c99 0 162 78 162 177zM312 700h76l-99 -137h-55z" />
    <glyph glyph-name="otilde" unicode="&#xf5;" horiz-adv-x="537" 
d="M267 489c138 0 235 -111 235 -249s-97 -248 -235 -248c-137 0 -232 110 -232 248s95 249 232 249zM267 63c99 0 162 78 162 177s-63 179 -162 179s-159 -80 -159 -179s60 -177 159 -177zM364 670l66 -20c-33 -108 -103 -98 -175 -57c-38 22 -65 23 -89 -19l-59 31
c38 78 101 95 173 55c38 -21 71 -38 84 10z" />
    <glyph glyph-name="racute" unicode="&#x155;" horiz-adv-x="308" 
d="M262 489c12 0 24 -1 36 -2l-14 -73c-10 2 -21 3 -33 3c-74 0 -128 -51 -128 -157v-260h-73v482h73v-56c33 39 81 63 139 63zM226 700h76l-99 -137h-55z" />
    <glyph glyph-name="rcaron" unicode="&#x159;" horiz-adv-x="308" 
d="M263 489c12 0 24 -1 36 -2l-14 -73c-10 2 -21 3 -33 3c-74 0 -128 -51 -128 -157v-260h-73v482h73v-56c33 39 81 63 139 63zM317 700l-107 -137h-68l-107 137h84l57 -81l57 81h84z" />
    <glyph glyph-name="rcommaaccent" unicode="&#x157;" horiz-adv-x="308" 
d="M262 489c12 0 24 -1 36 -2l-14 -73c-10 2 -21 3 -33 3c-74 0 -128 -51 -128 -157v-260h-73v482h73v-56c33 39 81 63 139 63zM48 -76h73l-55 -132h-50z" />
    <glyph glyph-name="sacute" unicode="&#x15b;" horiz-adv-x="426" 
d="M222 278c81 -17 169 -49 169 -141c0 -101 -89 -145 -176 -145c-93 0 -164 46 -190 113l66 27c15 -43 60 -68 124 -68c40 0 103 14 103 73c0 38 -25 53 -110 71c-72 14 -164 33 -178 123c-12 86 60 158 167 158c84 0 148 -41 170 -104l-67 -26c-12 35 -48 56 -102 58
c-70 2 -103 -35 -96 -74c6 -38 50 -49 120 -65zM259 700h76l-99 -137h-55z" />
    <glyph glyph-name="scaron" unicode="&#x161;" horiz-adv-x="426" 
d="M222 278c81 -17 169 -49 169 -141c0 -101 -89 -145 -176 -145c-93 0 -164 46 -190 113l66 27c15 -43 60 -68 124 -68c40 0 103 14 103 73c0 38 -25 53 -110 71c-72 14 -164 33 -178 123c-12 86 60 158 167 158c84 0 148 -41 170 -104l-67 -26c-12 35 -48 56 -102 58
c-70 2 -103 -35 -96 -74c6 -38 50 -49 120 -65zM349 700l-107 -137h-68l-107 137h84l57 -81l57 81h84z" />
    <glyph glyph-name="scircumflex" unicode="&#x15d;" horiz-adv-x="426" 
d="M222 278c81 -17 169 -49 169 -141c0 -101 -89 -145 -176 -145c-93 0 -164 46 -190 113l66 27c15 -43 60 -68 124 -68c40 0 103 14 103 73c0 38 -25 53 -110 71c-72 14 -164 33 -178 123c-12 86 60 158 167 158c84 0 148 -41 170 -104l-67 -26c-12 35 -48 56 -102 58
c-70 2 -103 -35 -96 -74c6 -38 50 -49 120 -65zM349 563h-84l-57 80l-57 -80h-83l106 137h68z" />
    <glyph glyph-name="scommaaccent" unicode="&#x219;" horiz-adv-x="426" 
d="M222 278c81 -17 169 -49 169 -141c0 -101 -89 -145 -176 -145c-93 0 -164 46 -190 113l66 27c15 -43 60 -68 124 -68c40 0 103 14 103 73c0 38 -25 53 -110 71c-72 14 -164 33 -178 123c-12 86 60 158 167 158c84 0 148 -41 170 -104l-67 -26c-12 35 -48 56 -102 58
c-70 2 -103 -35 -96 -74c6 -38 50 -49 120 -65zM157 -76h73l-55 -132h-50z" />
    <glyph glyph-name="tcaron" unicode="&#x165;" horiz-adv-x="353" 
d="M267 85l37 -55c-34 -28 -82 -41 -113 -37c-63 7 -102 46 -102 157v259h-74v73h74v106l73 20v-126h102v-73h-102v-257c0 -40 2 -63 19 -78c16 -13 56 -14 86 11zM302 528l40 168h76l-69 -168h-47z" />
    <glyph glyph-name="tcommaaccent" unicode="&#x163;" horiz-adv-x="319" 
d="M267 85l37 -55c-34 -28 -82 -41 -113 -37c-63 7 -102 46 -102 157v259h-74v73h74v106l73 20v-126h102v-73h-102v-257c0 -40 2 -63 19 -78c16 -13 56 -14 86 11zM159 -76h73l-55 -132h-50z" />
    <glyph glyph-name="uacute" unicode="&#xfa;" horiz-adv-x="500" 
d="M373 482h72v-482h-72v56c-33 -39 -78 -64 -137 -64c-95 0 -186 47 -186 224v266h73v-266c0 -105 44 -151 122 -151c74 0 128 50 128 157v260zM299 700h76l-99 -137h-55z" />
    <glyph glyph-name="ubreve" unicode="&#x16d;" horiz-adv-x="500" 
d="M373 482h72v-482h-72v56c-33 -39 -78 -64 -137 -64c-95 0 -186 47 -186 224v266h73v-266c0 -105 44 -151 122 -151c74 0 128 50 128 157v260zM316 700h63c0 -73 -48 -131 -121 -131c-74 0 -121 58 -121 131h63c0 -40 21 -70 58 -70c35 0 58 30 58 70z" />
    <glyph glyph-name="ucircumflex" unicode="&#xfb;" horiz-adv-x="500" 
d="M373 482h72v-482h-72v56c-33 -39 -78 -64 -137 -64c-95 0 -186 47 -186 224v266h73v-266c0 -105 44 -151 122 -151c74 0 128 50 128 157v260zM398 563h-84l-57 80l-57 -80h-83l106 137h68z" />
    <glyph glyph-name="udieresis" unicode="&#xfc;" horiz-adv-x="500" 
d="M373 482h72v-482h-72v56c-33 -39 -78 -64 -137 -64c-95 0 -186 47 -186 224v266h73v-266c0 -105 44 -151 122 -151c74 0 128 50 128 157v260zM182 679c22 0 40 -18 40 -41c0 -22 -18 -40 -40 -40s-41 18 -41 40c0 23 19 41 41 41zM333 679c23 0 41 -18 41 -41
c0 -22 -18 -40 -41 -40c-22 0 -40 18 -40 40c0 23 18 41 40 41z" />
    <glyph glyph-name="uhungarumlaut" unicode="&#x171;" horiz-adv-x="500" 
d="M373 482h72v-482h-72v56c-33 -39 -78 -64 -137 -64c-95 0 -186 47 -186 224v266h73v-266c0 -105 44 -151 122 -151c74 0 128 50 128 157v260zM224 700h76l-99 -137h-55zM368 700h76l-99 -137h-55z" />
    <glyph glyph-name="ugrave" unicode="&#xf9;" horiz-adv-x="500" 
d="M373 482h72v-482h-72v56c-33 -39 -78 -64 -137 -64c-95 0 -186 47 -186 224v266h73v-266c0 -105 44 -151 122 -151c74 0 128 50 128 157v260zM217 700l78 -137h-55l-99 137h76z" />
    <glyph glyph-name="umacron" unicode="&#x16b;" horiz-adv-x="500" 
d="M373 482h72v-482h-72v56c-33 -39 -78 -64 -137 -64c-95 0 -186 47 -186 224v266h73v-266c0 -105 44 -151 122 -151c74 0 128 50 128 157v260zM133 677h250v-72h-250v72z" />
    <glyph glyph-name="uring" unicode="&#x16f;" horiz-adv-x="500" 
d="M373 482h72v-482h-72v56c-33 -39 -78 -64 -137 -64c-95 0 -186 47 -186 224v266h73v-266c0 -105 44 -151 122 -151c74 0 128 50 128 157v260zM256 776c61 0 110 -50 110 -111s-49 -111 -110 -111c-62 0 -111 50 -111 111s49 111 111 111zM256 613c28 0 52 23 52 52
s-24 52 -52 52c-29 0 -53 -23 -53 -52s24 -52 53 -52z" />
    <glyph glyph-name="utilde" unicode="&#x169;" horiz-adv-x="500" 
d="M373 482h72v-482h-72v56c-33 -39 -78 -64 -137 -64c-95 0 -186 47 -186 224v266h73v-266c0 -105 44 -151 122 -151c74 0 128 50 128 157v260zM346 670l66 -20c-33 -108 -103 -98 -175 -57c-38 22 -65 23 -89 -19l-59 31c38 78 101 95 173 55c38 -21 71 -38 84 10z" />
    <glyph glyph-name="wacute" unicode="&#x1e83;" horiz-adv-x="710" 
d="M630 482h75l-156 -482h-73l-121 365l-121 -365h-73l-156 482h76l118 -365l121 365h70l121 -365zM416 700h76l-99 -137h-55z" />
    <glyph glyph-name="wcircumflex" unicode="&#x175;" horiz-adv-x="710" 
d="M630 482h75l-156 -482h-73l-121 365l-121 -365h-73l-156 482h76l118 -365l121 365h70l121 -365zM496 563h-84l-57 80l-57 -80h-83l106 137h68z" />
    <glyph glyph-name="wdieresis" unicode="&#x1e85;" horiz-adv-x="710" 
d="M630 482h75l-156 -482h-73l-121 365l-121 -365h-73l-156 482h76l118 -365l121 365h70l121 -365zM280 679c22 0 40 -18 40 -41c0 -22 -18 -40 -40 -40s-41 18 -41 40c0 23 19 41 41 41zM431 679c23 0 41 -18 41 -41c0 -22 -18 -40 -41 -40c-22 0 -40 18 -40 40
c0 23 18 41 40 41z" />
    <glyph glyph-name="wgrave" unicode="&#x1e81;" horiz-adv-x="710" 
d="M630 482h75l-156 -482h-73l-121 365l-121 -365h-73l-156 482h76l118 -365l121 365h70l121 -365zM304 700l78 -137h-55l-99 137h76z" />
    <glyph glyph-name="yacute" unicode="&#xfd;" horiz-adv-x="443" 
d="M361 482h77l-169 -467c-30 -78 -53 -132 -81 -171c-38 -51 -92 -60 -150 -45l13 71c68 -13 87 6 135 130l-176 482h78l136 -381zM275 700h76l-99 -137h-55z" />
    <glyph glyph-name="ycircumflex" unicode="&#x177;" horiz-adv-x="443" 
d="M361 482h77l-169 -467c-30 -78 -53 -132 -81 -171c-38 -51 -92 -60 -150 -45l13 71c68 -13 87 6 135 130l-176 482h78l136 -381zM365 563h-84l-57 80l-57 -80h-83l106 137h68z" />
    <glyph glyph-name="ydieresis" unicode="&#xff;" horiz-adv-x="443" 
d="M361 482h77l-169 -467c-30 -78 -53 -132 -81 -171c-38 -51 -92 -60 -150 -45l13 71c68 -13 87 6 135 130l-176 482h78l136 -381zM149 679c22 0 40 -18 40 -41c0 -22 -18 -40 -40 -40s-41 18 -41 40c0 23 19 41 41 41zM300 679c23 0 41 -18 41 -41c0 -22 -18 -40 -41 -40
c-22 0 -40 18 -40 40c0 23 18 41 40 41z" />
    <glyph glyph-name="ygrave" unicode="&#x1ef3;" horiz-adv-x="443" 
d="M361 482h77l-169 -467c-30 -78 -53 -132 -81 -171c-38 -51 -92 -60 -150 -45l13 71c68 -13 87 6 135 130l-176 482h78l136 -381zM183 700l78 -137h-55l-99 137h76z" />
    <glyph glyph-name="zacute" unicode="&#x17a;" horiz-adv-x="439" 
d="M124 72h290v-72h-384v72l276 337h-262v73h356v-73zM266 700h76l-99 -137h-55z" />
    <glyph glyph-name="zcaron" unicode="&#x17e;" horiz-adv-x="439" 
d="M124 72h290v-72h-384v72l276 337h-262v73h356v-73zM363 700l-107 -137h-68l-107 137h84l57 -81l57 81h84z" />
    <glyph glyph-name="zdotaccent" unicode="&#x17c;" horiz-adv-x="439" 
d="M124 72h290v-72h-384v72l276 337h-262v73h356v-73zM228 679c22 0 40 -18 40 -41c0 -22 -18 -40 -40 -40s-40 18 -40 40c0 23 18 41 40 41z" />
    <glyph glyph-name="uni021A" unicode="&#x21a;" horiz-adv-x="547" 
d="M527 700v-72h-217v-628h-72v628h-218v72h507zM236 -76h73l-55 -132h-50z" />
    <glyph glyph-name="uni021B" unicode="&#x21b;" horiz-adv-x="319" 
d="M267 85l37 -55c-34 -28 -82 -41 -113 -37c-63 7 -102 46 -102 157v259h-74v73h74v106l73 20v-126h102v-73h-102v-257c0 -40 2 -63 19 -78c16 -13 56 -14 86 11zM159 -76h73l-55 -132h-50z" />
    <glyph glyph-name="uni0403" unicode="&#x403;" horiz-adv-x="462" 
d="M442 700v-73h-304v-627h-73v700h377zM299 900h76l-99 -137h-55z" />
    <glyph glyph-name="uni0453" unicode="&#x453;" horiz-adv-x="387" 
d="M362 482v-72h-235v-410h-72v482h307zM264 700h76l-99 -137h-55z" />
    <glyph glyph-name="uni040E" unicode="&#x40e;" horiz-adv-x="557" 
d="M468 700h79l-223 -513c-16 -37 -40 -92 -78 -133c-65 -72 -145 -62 -176 -51l21 69c74 -22 116 30 160 129l-251 499h81l208 -413zM346 900h63c0 -73 -48 -131 -121 -131c-74 0 -121 58 -121 131h63c0 -40 21 -70 58 -70c35 0 58 30 58 70z" />
    <glyph glyph-name="uni045E" unicode="&#x45e;" horiz-adv-x="443" 
d="M361 482h77l-169 -467c-30 -78 -53 -132 -81 -171c-38 -51 -92 -60 -150 -45l13 71c68 -13 87 6 135 130l-176 482h78l136 -381zM282 700h63c0 -73 -48 -131 -121 -131c-74 0 -121 58 -121 131h63c0 -40 21 -70 58 -70c35 0 58 30 58 70z" />
    <glyph glyph-name="uni0407" unicode="&#x407;" horiz-adv-x="218" 
d="M75 700h72v-700h-72v700zM36 879c22 0 40 -18 40 -41c0 -22 -18 -40 -40 -40s-41 18 -41 40c0 23 19 41 41 41zM187 879c23 0 41 -18 41 -41c0 -22 -18 -40 -41 -40c-22 0 -40 18 -40 40c0 23 18 41 40 41z" />
    <glyph glyph-name="uni0457" unicode="&#x457;" horiz-adv-x="196" 
d="M65 0v482h73v-482h-73zM26 679c22 0 40 -18 40 -41c0 -22 -18 -40 -40 -40s-41 18 -41 40c0 23 19 41 41 41zM177 679c23 0 41 -18 41 -41c0 -22 -18 -40 -41 -40c-22 0 -40 18 -40 40c0 23 18 41 40 41z" />
    <glyph glyph-name="uni040C" unicode="&#x40c;" horiz-adv-x="594" 
d="M496 0l-252 352l-106 -118v-234h-73v700h73v-358l324 358h96l-264 -293l290 -407h-88zM344 900h76l-99 -137h-55z" />
    <glyph glyph-name="uni045C" unicode="&#x45c;" horiz-adv-x="474" 
d="M370 0l-170 234l-72 -78v-156h-73v482h73v-220l203 220h98l-179 -194l209 -288h-89zM284 700h76l-99 -137h-55z" />
    <glyph glyph-name="minus" unicode="&#x2212;" horiz-adv-x="528" 
d="M70 342h388v-72h-388v72z" />
    <glyph glyph-name="guilsinglleft" unicode="&#x2039;" horiz-adv-x="340" 
d="M270 425l-112 -157l112 -158h-89l-111 158l111 157h89z" />
    <glyph glyph-name="guilsinglright" unicode="&#x203a;" horiz-adv-x="340" 
d="M158 425l112 -157l-112 -158h-88l111 158l-111 157h88z" />
    <glyph glyph-name="quotesinglbase" unicode="&#x201a;" horiz-adv-x="176" 
d="M30 -158l40 168h76l-69 -168h-47z" />
    <glyph glyph-name="quotedblbase" unicode="&#x201e;" horiz-adv-x="296" 
d="M30 -158l40 168h76l-69 -168h-47zM190 10h76l-70 -168h-47z" />
    <glyph glyph-name="H" unicode="H" horiz-adv-x="660" 
d="M523 700h72v-700h-72v314h-386v-314h-72v700h72v-314h386v314z" />
    </font>
</defs>
</svg>
