<svg id="Layer_1" data-name="Layer 1" xmlns="http://www.w3.org/2000/svg" xmlns:xlink="http://www.w3.org/1999/xlink" viewBox="0 0 1903.21 1830.87"><defs><style>.cls-1{fill:none;}.cls-2{fill:url(#linear-gradient);}.cls-3{fill:url(#linear-gradient-2);}.cls-4{fill:url(#linear-gradient-3);}.cls-5{fill:url(#linear-gradient-4);}.cls-6{fill:url(#linear-gradient-5);}.cls-7{fill:url(#linear-gradient-6);}.cls-8{fill:url(#linear-gradient-7);}.cls-9{fill:url(#linear-gradient-8);}.cls-10{fill:url(#linear-gradient-9);}.cls-11{fill:url(#linear-gradient-10);}.cls-12{fill:url(#linear-gradient-11);}.cls-13{fill:#ccc;}.cls-14{fill:url(#linear-gradient-12);}.cls-15{fill:url(#linear-gradient-13);}.cls-16{fill:url(#linear-gradient-14);}.cls-17{fill:url(#linear-gradient-15);}.cls-18{fill:url(#linear-gradient-16);}.cls-19{fill:url(#linear-gradient-17);}.cls-20{fill:#135092;}.cls-21{fill:url(#linear-gradient-18);}.cls-22{fill:url(#linear-gradient-19);}.cls-23{fill:url(#linear-gradient-20);}.cls-24{clip-path:url(#clip-path);}.cls-25{fill:#ee0979;}.cls-26{fill:#ee0a78;}.cls-27{fill:#ee0b77;}.cls-28{fill:#ee0b76;}.cls-29{fill:#ef0c75;}.cls-30{fill:#ef0d74;}.cls-31{fill:#ef0e73;}.cls-32{fill:#ef0f72;}.cls-33{fill:#ef0f71;}.cls-34{fill:#ef1070;}.cls-35{fill:#ef116f;}.cls-36{fill:#f0126e;}.cls-37{fill:#f0136d;}.cls-38{fill:#f0146c;}.cls-39{fill:#f0146b;}.cls-40{fill:#f0156a;}.cls-41{fill:#f01669;}.cls-42{fill:#f01768;}.cls-43{fill:#f11867;}.cls-44{fill:#f11866;}.cls-45{fill:#f11965;}.cls-46{fill:#f11a64;}.cls-47{fill:#f11b63;}.cls-48{fill:#f11c62;}.cls-49{fill:#f11c61;}.cls-50{fill:#f21d60;}.cls-51{fill:#f21e5f;}.cls-52{fill:#f21f5e;}.cls-53{fill:#f2205d;}.cls-54{fill:#f2205c;}.cls-55{fill:#f2215b;}.cls-56{fill:#f2225a;}.cls-57{fill:#f32359;}.cls-58{fill:#f32458;}.cls-59{fill:#f32457;}.cls-60{fill:#f32556;}.cls-61{fill:#f32655;}.cls-62{fill:#f32754;}.cls-63{fill:#f32853;}.cls-64{fill:#f42952;}.cls-65{fill:#f42951;}.cls-66{fill:#f42a50;}.cls-67{fill:#f42b4f;}.cls-68{fill:#f42c4e;}.cls-69{fill:#f42d4d;}.cls-70{fill:#f42d4c;}.cls-71{fill:#f52e4b;}.cls-72{fill:#f52f4a;}.cls-73{fill:#f53049;}.cls-74{fill:#f53148;}.cls-75{fill:#f53147;}.cls-76{fill:#f53246;}.cls-77{fill:#f53345;}.cls-78{fill:#f63444;}.cls-79{fill:#f63543;}.cls-80{fill:#f63542;}.cls-81{fill:#f63641;}.cls-82{fill:#f63740;}.cls-83{fill:#f6383f;}.cls-84{fill:#f6393e;}.cls-85{fill:#f73a3d;}.cls-86{fill:#f73a3b;}.cls-87{fill:#f73b3a;}.cls-88{fill:#f73c39;}.cls-89{fill:#f73d38;}.cls-90{fill:#f73e37;}.cls-91{fill:#f73e36;}.cls-92{fill:#f73f35;}.cls-93{fill:#f84034;}.cls-94{fill:#f84133;}.cls-95{fill:#f84232;}.cls-96{fill:#f84231;}.cls-97{fill:#f84330;}.cls-98{fill:#f8442f;}.cls-99{fill:#f8452e;}.cls-100{fill:#f9462d;}.cls-101{fill:#f9462c;}.cls-102{fill:#f9472b;}.cls-103{fill:#f9482a;}.cls-104{fill:#f94929;}.cls-105{fill:#f94a28;}.cls-106{fill:#f94a27;}.cls-107{fill:#fa4b26;}.cls-108{fill:#fa4c25;}.cls-109{fill:#fa4d24;}.cls-110{fill:#fa4e23;}.cls-111{fill:#fa4f22;}.cls-112{fill:#fa4f21;}.cls-113{fill:#fa5020;}.cls-114{fill:#fb511f;}.cls-115{fill:#fb521e;}.cls-116{fill:#fb531d;}.cls-117{fill:#fb531c;}.cls-118{fill:#fb541b;}.cls-119{fill:#fb551a;}.cls-120{fill:#fb5619;}.cls-121{fill:#fc5718;}.cls-122{fill:#fc5717;}.cls-123{fill:#fc5816;}.cls-124{fill:#fc5915;}.cls-125{fill:#fc5a14;}.cls-126{fill:#fc5b13;}.cls-127{fill:#fc5b12;}.cls-128{fill:#fd5c11;}.cls-129{fill:#fd5d10;}.cls-130{fill:#fd5e0f;}.cls-131{fill:#fd5f0e;}.cls-132{fill:#fd5f0d;}.cls-133{fill:#fd600c;}.cls-134{fill:#fd610b;}.cls-135{fill:#fe620a;}.cls-136{fill:#fe6309;}.cls-137{fill:#fe6408;}.cls-138{fill:#fe6407;}.cls-139{fill:#fe6506;}.cls-140{fill:#fe6605;}.cls-141{fill:#fe6704;}.cls-142{fill:#ff6803;}.cls-143{fill:#ff6802;}.cls-144{fill:#ff6901;}.cls-145{fill:#ff6a00;}.cls-146{fill:url(#linear-gradient-21);}</style><linearGradient id="linear-gradient" x1="7685.9" y1="7260.04" x2="6433.26" y2="7260.04" gradientUnits="userSpaceOnUse"><stop offset="0" stop-color="#00c6ff"/><stop offset="1" stop-color="#0072ff"/></linearGradient><linearGradient id="linear-gradient-2" x1="6912.14" y1="7211.68" x2="7952.56" y2="7211.68" gradientUnits="userSpaceOnUse"><stop offset="0" stop-color="#005c97"/><stop offset="1" stop-color="#363795"/></linearGradient><linearGradient id="linear-gradient-3" x1="7659.96" y1="6860.15" x2="7907.65" y2="6860.15" gradientUnits="userSpaceOnUse"><stop offset="0" stop-color="#74ebd5"/><stop offset="1" stop-color="#acb6e5"/></linearGradient><linearGradient id="linear-gradient-4" x1="7652.69" y1="6859.65" x2="7913.55" y2="6859.65" xlink:href="#linear-gradient-3"/><linearGradient id="linear-gradient-5" x1="7358" y1="6927.71" x2="7516.58" y2="6927.71" xlink:href="#linear-gradient-3"/><linearGradient id="linear-gradient-6" x1="7629.29" y1="6789.42" x2="7721.29" y2="6789.42" xlink:href="#linear-gradient-3"/><linearGradient id="linear-gradient-7" x1="7138.41" y1="6675.52" x2="7718.93" y2="6675.52" gradientUnits="userSpaceOnUse"><stop offset="0.47" stop-color="#00c9ff"/><stop offset="1" stop-color="#92fe9d"/></linearGradient><linearGradient id="linear-gradient-8" x1="7494.82" y1="6532.28" x2="7718.93" y2="6532.28" gradientUnits="userSpaceOnUse"><stop offset="0" stop-color="#d9ebd5"/><stop offset="1" stop-color="#acb6e5"/></linearGradient><linearGradient id="linear-gradient-9" x1="7491.73" y1="6531.91" x2="7725.2" y2="6531.91" xlink:href="#linear-gradient-8"/><linearGradient id="linear-gradient-10" x1="7025.38" y1="7302.51" x2="7256.56" y2="7302.51" xlink:href="#linear-gradient-3"/><linearGradient id="linear-gradient-11" x1="7013.37" y1="7304.47" x2="7270.69" y2="7304.47" xlink:href="#linear-gradient-3"/><linearGradient id="linear-gradient-12" x1="1023.29" y1="1057.55" x2="1327.6" y2="1057.55" xlink:href="#linear-gradient-3"/><linearGradient id="linear-gradient-13" x1="7155.12" y1="7523.08" x2="7478.31" y2="7523.08" xlink:href="#linear-gradient-3"/><linearGradient id="linear-gradient-14" x1="7137.12" y1="7524.71" x2="7494.44" y2="7524.71" xlink:href="#linear-gradient-3"/><linearGradient id="linear-gradient-15" x1="7638.72" y1="7586.23" x2="7954.83" y2="7586.23" xlink:href="#linear-gradient-3"/><linearGradient id="linear-gradient-16" x1="7626.93" y1="7589.92" x2="7968.77" y2="7589.92" xlink:href="#linear-gradient-3"/><linearGradient id="linear-gradient-17" x1="6966.4" y1="7829.56" x2="7383.95" y2="7829.56" xlink:href="#linear-gradient-7"/><linearGradient id="linear-gradient-18" x1="7683.55" y1="7920.94" x2="8148.27" y2="7920.94" xlink:href="#linear-gradient-7"/><linearGradient id="linear-gradient-19" x1="1485.82" y1="1639.11" x2="1605.19" y2="1639.11" xlink:href="#linear-gradient-3"/><linearGradient id="linear-gradient-20" x1="851.08" y1="1013.91" x2="936" y2="1013.91" xlink:href="#linear-gradient-2"/><clipPath id="clip-path" transform="translate(-6245.07 -6280.34)"><path class="cls-1" d="M7315.54,7048.91s309-172.21,688.83-132.11c0,0,18.88,457.66-89.64,589.76,0,0-30.67,35.39-146.26,87.29,0,0-110.87-2.36-169.85-23.59C7596.26,7572.62,7421.69,7416.92,7315.54,7048.91Z"/></clipPath><linearGradient id="linear-gradient-21" x1="992.77" y1="1598.04" x2="1112.14" y2="1598.04" xlink:href="#linear-gradient-3"/></defs><title>gael</title><g id="_Group_" data-name="&lt;Group&gt;"><path class="cls-2" d="M7240.05,6897.93s-89.64,42.46-235.9,14.16c0,0-360.94-99.08-570.89,391.6,0,0,247.7-80.21,346.78-35.39,0,0-125,101.44-160.42,228.83,0,0,169.85-75.49,360.93-49.54,0,0-127.38,101.43-143.9,174.56,0,0,198.16-84.92,502.48-23.59,0,0,202.87,7.08,346.77-73.13" transform="translate(-6245.07 -6280.34)"/></g><g id="_Group_2" data-name="&lt;Group&gt;"><path class="cls-3" d="M7015.94,7074.86s68.41,16.51,96.72,11.79,51.9-14.15,143.9-148.61l342.06-290.16,37.75,23.59,37.74,54.25s28.31-14.15,108.52,80.21c80.2,92,82.56,670,82.56,670s82.57,273.65,87.29,283.09c4.71,11.79-184,16.51-184,16.51s-75.49-70.77-68.41-160.41c4.72-87.29-92-202.88-92-202.88s-195.8,113.23-217,146.26-4.72,30.67-4.72,30.67-16.51,103.8-18.87,122.67c0,18.87-186.37-47.18-186.37-47.18s4.72-120.31,16.52-148.62,94.36-132.11,136.82-155.7,70.77-266.57,70.77-266.57-89.64,118-118,129.75-80.21,40.1-80.21,40.1l-169.85,37.75s-84.92-21.23-87.28-28.31c0-7.08-35.39-80.21-37.75-127.39C6914.5,7093.73,7015.94,7074.86,7015.94,7074.86Z" transform="translate(-6245.07 -6280.34)"/></g><g id="_Group_3" data-name="&lt;Group&gt;"><path class="cls-4" d="M7660,6933.32s68.41-127.39,134.46-158.06c0,0,113.23,92,113.23,136.83S7674.11,6947.47,7660,6933.32Z" transform="translate(-6245.07 -6280.34)"/><path class="cls-5" d="M7769.77,6950.94c-4.35,0-8.24,0-11.57-.09-24-.35-47.39-1.75-65.93-3.93-30.66-3.61-34.74-7.69-36.48-9.43l-3.1-3.1,2.07-3.86c2.83-5.27,70.11-129.48,137.18-160.62l3.34-1.55,2.86,2.33c.28.23,28.88,23.53,57.09,52,38.7,39.1,58.32,69.17,58.32,89.37,0,9.87-7.39,17.93-22,24C7860.45,6949,7802.45,6950.94,7769.77,6950.94Zm-101.66-20.17c12.15,3.64,47.26,8,95.62,8.35,58.74.48,106.16-5.35,127-15.59,5.05-2.48,11.07-6.49,11.07-11.44,0-33.42-75.43-102.82-108.15-129.87-31.91,16.43-64.42,56.08-86.39,87C7688.38,6895.72,7674,6920.29,7668.11,6930.77Z" transform="translate(-6245.07 -6280.34)"/></g><g id="_Group_4" data-name="&lt;Group&gt;"><path class="cls-6" d="M7358,6956.91s42.46,84.92,70.77,84.92,94.36-9.43,87.28-172.21C7509,6704.49,7358,6956.91,7358,6956.91Z" transform="translate(-6245.07 -6280.34)"/></g><g id="_Group_5" data-name="&lt;Group&gt;"><path class="cls-7" d="M7629.29,6846s11.79-82.56,61.33-113.23c0,0,21.23,11.8,30.67,28.31C7721.29,6761.11,7650.52,6813,7629.29,6846Z" transform="translate(-6245.07 -6280.34)"/></g><g id="_Group_6" data-name="&lt;Group&gt;"><path class="cls-8" d="M7280.15,6971.06,7190.51,6839s7.08-54.26,0-75.49c0,0-51.9-11.8-51.9-18.87,0,0-14.15-243,198.16-339.7,0,0,158-80.21,283.08,47.18l23.59-2.36,75.49,125-11.79,28.3s-51.9,73.13-94.37,96.72c0,0,16.52,35.39,16.52,40.11C7626.93,6742.24,7499.54,6956.91,7280.15,6971.06Z" transform="translate(-6245.07 -6280.34)"/></g><g id="_Group_7" data-name="&lt;Group&gt;"><path d="M7282.51,6810.65s-18.87-63.7-18.87-84.93c0,0,134.46-51.9,191.08-94.36C7452.36,6633.72,7409.9,6758.75,7282.51,6810.65Z" transform="translate(-6245.07 -6280.34)"/></g><g id="_Group_8" data-name="&lt;Group&gt;"><path class="cls-9" d="M7619.85,6454.44s28.31,63.69-125,158.05c0,0,134.47-51.9,212.32-7.08,0,0,7.07-7.07,11.79-28.31l-75.49-125Z" transform="translate(-6245.07 -6280.34)"/><path class="cls-10" d="M7497,6618l-5.22-10.52c43-26.47,98.33-67.33,117.7-111.75,10.75-24.65,5.09-38.75,5-38.89l-3.31-7.45,35.41-3.54,78.64,130.24-.51,2.3c-4.95,22.27-12.54,30.35-13.38,31.2l-3.2,3.2-3.92-2.26C7629.71,6567.64,7498.26,6617.48,7497,6618Zm129.84-36.78c31,0,57.26,5.51,78.56,16.51,2-3.45,4.88-9.67,7.29-19.62l-72.32-119.79-13.08,1.31c2.83,18.28-.72,67.89-94.63,134.95,11.18-2.91,24.15-5.85,38.19-8.24A334.91,334.91,0,0,1,7626.79,6581.21Z" transform="translate(-6245.07 -6280.34)"/></g><g id="_Group_9" data-name="&lt;Group&gt;"><path d="M7240.05,6862.55s7.08,2.36,11.79,7.07a55.72,55.72,0,0,1,18.88,21.24c4.71,9.43,9.43,18.87,9.43,25.94a24.92,24.92,0,0,1,0,14.16s-7.08-2.36-11.79-7.08a55.68,55.68,0,0,1-18.88-21.23c-4.71-9.44-9.43-18.87-9.43-25.95A24.88,24.88,0,0,1,7240.05,6862.55Z" transform="translate(-6245.07 -6280.34)"/></g><g id="_Group_10" data-name="&lt;Group&gt;"><path d="M7268.36,6862.55s7.07,2.36,11.79,7.07a55.62,55.62,0,0,1,18.87,21.24c4.72,9.43,9.44,18.87,9.44,25.94a24.92,24.92,0,0,1,0,14.16s-7.08-2.36-11.8-7.08a55.75,55.75,0,0,1-18.87-21.23c-4.72-9.44-9.43-18.87-9.43-25.95Z" transform="translate(-6245.07 -6280.34)"/></g><g id="_Group_11" data-name="&lt;Group&gt;"><path d="M7294.31,6848.39s7.07,2.36,11.79,7.08A55.58,55.58,0,0,1,7325,6876.7c4.72,9.44,9.44,18.87,9.44,25.95a24.88,24.88,0,0,1,0,14.15s-7.08-2.35-11.8-7.07a55.82,55.82,0,0,1-18.87-21.23c-4.72-9.44-9.43-18.88-9.43-25.95Z" transform="translate(-6245.07 -6280.34)"/></g><g id="_Group_12" data-name="&lt;Group&gt;"><path class="cls-11" d="M7025.38,7284.81v40.11s47.18,0,33,59l35.39,23.59s42.46-42.46,96.72-9.43l49.54-42.47s-21.23-56.61,16.51-77.84l-14.15-44.82s-56.62,9.43-68.41-21.24l-44.83-14.15" transform="translate(-6245.07 -6280.34)"/><path class="cls-12" d="M7095.29,7422.66,7045,7389.14l1.92-8c2.67-11.12,4.36-26.3-2.73-35.47-6.45-8.34-18-8.92-18.88-9l-11.95.22.21-12v-40.11h23.59v30.06c7.78,2,17.88,6.46,25.44,16.05,9.26,11.74,12.25,27.71,8.93,47.56L7093,7392.8a100.65,100.65,0,0,1,24.66-13.47c16.86-6.29,42.41-10.22,71.38,4.42l37.44-32.09a121.23,121.23,0,0,1-4.14-26.62c-.79-22.71,6.2-40.5,20.33-52.07l-8.62-27.28a139,139,0,0,1-22.55-.15c-27.08-2.55-39.89-13.6-45.93-24.14l-40-12.62,7.11-22.5,50.23,15.87,2,5.3c6.77,17.6,43.24,15.83,55.48,13.83l10.08-1.65,3.1,9.73,17,54-8.35,4.7c-11.66,6.56-17,18.4-16.4,36.19a99.44,99.44,0,0,0,5.15,27.23l2.9,7.73-62.3,53.4-7.31-4.45c-19.26-11.72-38.93-14-58.46-6.69a74.4,74.4,0,0,0-23.79,14.39Z" transform="translate(-6245.07 -6280.34)"/></g><g id="_Group_13" data-name="&lt;Group&gt;"><polyline class="cls-13" points="652.92 844.06 32.5 188.25 13.62 16.04 157.52 56.15 733.13 754.42"/><polygon class="cls-13" points="644.35 852.17 21.2 193.48 0 0 164.27 45.78 166.63 48.64 742.23 746.91 724.03 761.92 150.78 66.51 27.25 32.08 43.79 183.02 661.49 835.96 644.35 852.17"/></g><g id="_Group_14" data-name="&lt;Group&gt;"><path class="cls-13" d="M6817.78,7183.38s155.7-127.39,217-233.55c0,0,33,14.16,33,21.23s-44.82,165.13-235.9,247.7C6831.94,7221.12,6827.22,7232.91,6817.78,7183.38Z" transform="translate(-6245.07 -6280.34)"/><path class="cls-13" d="M6830,7233.48c-10.05,0-14.13-11-15.51-14.69-2.65-7.1-5.34-18-8.25-33.21l-1.31-6.89,5.43-4.44c1.54-1.26,154.75-127.27,214.29-230.32l5.24-9.06,9.62,4.12c.36.15,8.83,3.79,17.44,8.41,14,7.52,22.73,14.1,22.73,23.66,0,5.12-4.48,19.36-10.91,34.65a377.49,377.49,0,0,1-37.48,67.6,428.09,428.09,0,0,1-74.17,81.88c-34,29.07-73.11,53.46-116.22,72.54a13.06,13.06,0,0,1-9.53,5.68A12.83,12.83,0,0,1,6830,7233.48Zm.76-45.51c1.55,7.53,2.88,12.89,3.95,16.69a450.1,450.1,0,0,0,105-65.65,406.42,406.42,0,0,0,69.81-75.75c29.33-41.45,42.28-77.23,45.7-89.41a122.4,122.4,0,0,0-15.69-8.88C6981,7059.46,6858.48,7164.72,6830.71,7188Zm225.39-218Z" transform="translate(-6245.07 -6280.34)"/></g><g id="_Group_15" data-name="&lt;Group&gt;"><polyline class="cls-14" points="1129.44 919.55 1023.29 1091.76 1252.11 1195.56 1327.6 1127.14"/></g><g id="_Group_16" data-name="&lt;Group&gt;"><path class="cls-15" d="M7155.12,7525.43l51.9-99.07s188.72,33,271.29,106.15l-68.41,87.29s-66-49.54-94.36-49.54-80.21,23.59-125-30.67C7190.51,7542,7169.28,7527.79,7155.12,7525.43Z" transform="translate(-6245.07 -6280.34)"/><path class="cls-16" d="M7412.06,7636.16l-9.24-6.93c-24.33-18.24-69.55-47.18-87.28-47.18-5,0-11.35.93-18.68,2-29.46,4.34-73.64,10.85-112.74-33.79-2.31-.91-4.84-2.2-7.76-3.68-6.62-3.36-16.63-8.44-23.18-9.53l-16.06-2.68,63.45-121.14,8.48,1.49a998.35,998.35,0,0,1,106.07,26c77.95,23.58,135.49,51.5,171,83l8.31,7.37Zm-96.52-77.7c14.16,0,35.09,8.68,64,26.53,11.19,6.91,21.22,13.76,28.08,18.6l54.35-69.35c-72.47-56.88-212.82-87.56-248.55-94.66l-41.32,78.88c2.26.95,4.48,2,6.62,3v-14.65l20.89,25.29c31.29,37.87,66,32.76,93.82,28.65C7301.33,7559.56,7308.8,7558.46,7315.54,7558.46Z" transform="translate(-6245.07 -6280.34)"/></g><g id="_Group_17" data-name="&lt;Group&gt;"><path class="cls-17" d="M7638.72,7591.49v89.64s134.47-11.8,160.42-7.08c23.59,4.72,73.13,37.75,155.69-42.46l-59-143.9" transform="translate(-6245.07 -6280.34)"/><path class="cls-18" d="M7850.52,7696.62c-18.17,0-32.69-4.62-43.56-8.09-4-1.26-7.4-2.35-10-2.89-18.11-3.21-103.86,2.56-157.18,7.24l-12.82,1.12V7591.49h23.59v76.8c35.62-2.94,128-10,150.73-5.84l.2,0a121.48,121.48,0,0,1,12.66,3.56c12.9,4.11,29,9.22,50,5.82,24-3.89,49.78-18.44,76.71-43.28l-55.92-136.43,21.83-8.94,62,151.28-5.72,5.55C7916.55,7685.22,7879,7696.62,7850.52,7696.62Z" transform="translate(-6245.07 -6280.34)"/></g><g id="_Group_18" data-name="&lt;Group&gt;"><path class="cls-19" d="M7384,7692.93s-158.06-77.85-240.62-70.78L7112.66,7825l-2.36,63.7s-120.31,16.51-143.9,80.2v68.41s344.42,2.36,410.47-18.87c0,0,4.72-63.69-28.31-117.95C7350.92,7900.52,7381.59,7709.44,7384,7692.93Z" transform="translate(-6245.07 -6280.34)"/></g><g id="_Group_19" data-name="&lt;Group&gt;"><path class="cls-20" d="M7112.66,7822.67l80.21,4.72s68.41-120.31,193.44-28.31l-30.67,44.82L7261.28,7910s-33,30.66-37.75,37.74c0,0-42.46-33-42.46-54.26l-82.56-4.72Z" transform="translate(-6245.07 -6280.34)"/></g><g id="_Group_20" data-name="&lt;Group&gt;"><path class="cls-21" d="M7683.55,7742.46s257.13,4.72,292.51-11.79L8018.53,7884s125,49.54,129.74,160.41c0,0-129.74,63.69-167.49,66.05s-84.92,2.36-155.69-54.25c-70.77-54.26-96.72-51.9-108.52-59,0,0-16.51-35.39,30.67-80.21L7752,7910Z" transform="translate(-6245.07 -6280.34)"/></g><g id="_Group_21" data-name="&lt;Group&gt;"><path class="cls-20" d="M7714.21,7874.57s75.49-89.64,158.06,0c0,0,108.51,18.87,146.26-49.54l14.15,59s-40.1,66.05-160.41,54.25c0,0-11.8,61.34-63.7,68.42v-42.47l-42.46-44.82Z" transform="translate(-6245.07 -6280.34)"/></g><g id="_Group_22" data-name="&lt;Group&gt;"><circle class="cls-22" cx="1545.5" cy="1639.11" r="59.68"/></g><g id="_Group_23" data-name="&lt;Group&gt;"><circle class="cls-23" cx="893.54" cy="1013.91" r="42.46"/></g><g id="_Group_24" data-name="&lt;Group&gt;"><g class="cls-24"><polygon class="cls-25" points="1070.47 768.57 1216.48 1313.51 1070.47 1313.51 1070.47 768.57"/><polygon class="cls-25" points="1070.47 748.77 1221.79 1313.51 1216.48 1313.51 1070.47 768.57 1070.47 748.77"/><polygon class="cls-26" points="1070.47 728.97 1227.1 1313.51 1221.79 1313.51 1070.47 748.77 1070.47 728.97"/><polygon class="cls-27" points="1070.47 709.16 1232.4 1313.51 1227.1 1313.51 1070.47 728.97 1070.47 709.16"/><polygon class="cls-28" points="1070.47 689.36 1237.71 1313.51 1232.4 1313.51 1070.47 709.16 1070.47 689.36"/><polygon class="cls-29" points="1070.47 677.1 1072.35 676.59 1243.01 1313.51 1237.71 1313.51 1070.47 689.36 1070.47 677.1"/><polygon class="cls-30" points="1072.35 676.59 1077.3 675.27 1248.32 1313.51 1243.01 1313.51 1072.35 676.59"/><polygon class="cls-31" points="1077.3 675.27 1082.26 673.94 1253.63 1313.51 1248.32 1313.51 1077.3 675.27"/><polygon class="cls-32" points="1082.26 673.94 1087.2 672.61 1258.93 1313.51 1253.63 1313.51 1082.26 673.94"/><polygon class="cls-33" points="1087.2 672.61 1092.16 671.29 1264.24 1313.51 1258.93 1313.51 1087.2 672.61"/><polygon class="cls-34" points="1092.16 671.29 1097.11 669.96 1269.55 1313.51 1264.24 1313.51 1092.16 671.29"/><polygon class="cls-35" points="1097.11 669.96 1102.06 668.63 1274.85 1313.51 1269.55 1313.51 1097.11 669.96"/><polygon class="cls-36" points="1102.06 668.63 1107.01 667.31 1280.16 1313.51 1274.85 1313.51 1102.06 668.63"/><polygon class="cls-37" points="1107.01 667.31 1111.96 665.98 1285.46 1313.51 1280.16 1313.51 1107.01 667.31"/><polygon class="cls-38" points="1111.96 665.98 1116.91 664.65 1290.77 1313.51 1285.46 1313.51 1111.96 665.98"/><polygon class="cls-39" points="1116.91 664.65 1121.86 663.33 1296.08 1313.51 1290.77 1313.51 1116.91 664.65"/><polygon class="cls-40" points="1121.86 663.33 1126.81 662 1301.38 1313.51 1296.08 1313.51 1121.86 663.33"/><polygon class="cls-41" points="1126.81 662 1131.76 660.67 1306.69 1313.51 1301.38 1313.51 1126.81 662"/><polygon class="cls-42" points="1131.76 660.67 1136.71 659.35 1311.99 1313.51 1306.69 1313.51 1131.76 660.67"/><polygon class="cls-43" points="1136.71 659.35 1141.66 658.02 1317.3 1313.51 1311.99 1313.51 1136.71 659.35"/><polygon class="cls-44" points="1141.66 658.02 1146.61 656.7 1322.61 1313.51 1317.3 1313.51 1141.66 658.02"/><polygon class="cls-45" points="1146.61 656.7 1151.56 655.37 1327.91 1313.51 1322.61 1313.51 1146.61 656.7"/><polygon class="cls-46" points="1151.56 655.37 1156.52 654.04 1333.22 1313.51 1327.91 1313.51 1151.56 655.37"/><polygon class="cls-47" points="1156.52 654.04 1161.46 652.72 1338.52 1313.51 1333.22 1313.51 1156.52 654.04"/><polygon class="cls-48" points="1161.46 652.72 1166.42 651.39 1343.83 1313.51 1338.52 1313.51 1161.46 652.72"/><polygon class="cls-49" points="1166.42 651.39 1171.37 650.06 1349.14 1313.51 1343.83 1313.51 1166.42 651.39"/><polygon class="cls-50" points="1171.37 650.06 1176.32 648.74 1354.44 1313.51 1349.14 1313.51 1171.37 650.06"/><polygon class="cls-51" points="1176.32 648.74 1181.27 647.41 1359.75 1313.51 1354.44 1313.51 1176.32 648.74"/><polygon class="cls-52" points="1181.27 647.41 1186.22 646.08 1365.06 1313.51 1359.75 1313.51 1181.27 647.41"/><polygon class="cls-53" points="1186.22 646.08 1191.17 644.76 1370.36 1313.51 1365.06 1313.51 1186.22 646.08"/><polygon class="cls-54" points="1191.17 644.76 1196.12 643.43 1375.67 1313.51 1370.36 1313.51 1191.17 644.76"/><polygon class="cls-55" points="1196.12 643.43 1201.07 642.1 1380.97 1313.51 1375.67 1313.51 1196.12 643.43"/><polygon class="cls-56" points="1201.07 642.1 1206.02 640.78 1386.28 1313.51 1380.97 1313.51 1201.07 642.1"/><polygon class="cls-57" points="1206.02 640.78 1210.97 639.45 1391.59 1313.51 1386.28 1313.51 1206.02 640.78"/><polygon class="cls-58" points="1210.97 639.45 1215.92 638.12 1396.89 1313.51 1391.59 1313.51 1210.97 639.45"/><polygon class="cls-59" points="1215.92 638.12 1220.87 636.8 1402.2 1313.51 1396.89 1313.51 1215.92 638.12"/><polygon class="cls-60" points="1220.87 636.8 1225.82 635.47 1407.5 1313.51 1402.2 1313.51 1220.87 636.8"/><polygon class="cls-61" points="1225.82 635.47 1230.77 634.14 1412.81 1313.51 1407.5 1313.51 1225.82 635.47"/><polygon class="cls-62" points="1230.77 634.14 1235.72 632.82 1418.12 1313.51 1412.81 1313.51 1230.77 634.14"/><polygon class="cls-63" points="1235.72 632.82 1240.68 631.49 1423.42 1313.51 1418.12 1313.51 1235.72 632.82"/><polygon class="cls-64" points="1240.68 631.49 1245.63 630.16 1428.73 1313.51 1423.42 1313.51 1240.68 631.49"/><polygon class="cls-65" points="1245.63 630.16 1250.58 628.84 1434.03 1313.51 1428.73 1313.51 1245.63 630.16"/><polygon class="cls-66" points="1250.58 628.84 1255.53 627.51 1439.34 1313.51 1434.03 1313.51 1250.58 628.84"/><polygon class="cls-67" points="1255.53 627.51 1260.48 626.18 1444.65 1313.51 1439.34 1313.51 1255.53 627.51"/><polygon class="cls-68" points="1260.48 626.18 1265.43 624.86 1449.95 1313.51 1444.65 1313.51 1260.48 626.18"/><polygon class="cls-69" points="1265.43 624.86 1270.38 623.53 1455.26 1313.51 1449.95 1313.51 1265.43 624.86"/><polygon class="cls-70" points="1270.38 623.53 1275.33 622.21 1460.56 1313.51 1455.26 1313.51 1270.38 623.53"/><polygon class="cls-71" points="1275.33 622.21 1280.28 620.88 1465.87 1313.51 1460.56 1313.51 1275.33 622.21"/><polygon class="cls-72" points="1280.28 620.88 1285.23 619.55 1471.18 1313.51 1465.87 1313.51 1280.28 620.88"/><polygon class="cls-73" points="1285.23 619.55 1290.18 618.23 1476.48 1313.51 1471.18 1313.51 1285.23 619.55"/><polygon class="cls-74" points="1290.18 618.23 1295.13 616.9 1481.79 1313.51 1476.48 1313.51 1290.18 618.23"/><polygon class="cls-75" points="1295.13 616.9 1300.08 615.57 1487.1 1313.51 1481.79 1313.51 1295.13 616.9"/><polygon class="cls-76" points="1300.08 615.57 1305.03 614.25 1492.4 1313.51 1487.1 1313.51 1300.08 615.57"/><polygon class="cls-77" points="1305.03 614.25 1309.98 612.92 1497.71 1313.51 1492.4 1313.51 1305.03 614.25"/><polygon class="cls-78" points="1309.98 612.92 1314.94 611.59 1503.01 1313.51 1497.71 1313.51 1309.98 612.92"/><polygon class="cls-79" points="1314.94 611.59 1319.89 610.27 1508.32 1313.51 1503.01 1313.51 1314.94 611.59"/><polygon class="cls-80" points="1319.89 610.27 1324.84 608.94 1513.63 1313.51 1508.32 1313.51 1319.89 610.27"/><polygon class="cls-81" points="1324.84 608.94 1329.79 607.61 1518.93 1313.51 1513.63 1313.51 1324.84 608.94"/><polygon class="cls-82" points="1329.79 607.61 1334.74 606.29 1524.24 1313.51 1518.93 1313.51 1329.79 607.61"/><polygon class="cls-83" points="1334.74 606.29 1339.69 604.96 1529.54 1313.51 1524.24 1313.51 1334.74 606.29"/><polygon class="cls-84" points="1339.69 604.96 1344.64 603.63 1534.6 1312.58 1531.13 1313.51 1529.54 1313.51 1339.69 604.96"/><rect class="cls-85" x="7684.6" y="6870.8" width="5.13" height="733.95" transform="translate(-7856.41 -4044.13) rotate(-15)"/><rect class="cls-86" x="7689.55" y="6869.48" width="5.13" height="733.95" transform="translate(-7855.9 -4042.9) rotate(-15)"/><rect class="cls-87" x="7694.5" y="6868.15" width="5.13" height="733.95" transform="translate(-7855.39 -4041.66) rotate(-15)"/><rect class="cls-88" x="7699.45" y="6866.82" width="5.13" height="733.95" transform="translate(-7854.87 -4040.42) rotate(-15)"/><rect class="cls-89" x="7704.4" y="6865.5" width="5.13" height="733.95" transform="translate(-7854.36 -4039.19) rotate(-15)"/><polygon class="cls-90" points="1369.39 597 1371.77 596.36 1374.53 596.36 1564.31 1304.62 1559.35 1305.94 1369.39 597"/><polygon class="cls-91" points="1379.83 596.36 1569.26 1303.29 1564.31 1304.62 1374.53 596.36 1379.83 596.36"/><polygon class="cls-92" points="1385.14 596.36 1574.21 1301.97 1569.26 1303.29 1379.83 596.36 1385.14 596.36"/><polygon class="cls-93" points="1390.45 596.36 1579.16 1300.64 1574.21 1301.97 1385.14 596.36 1390.45 596.36"/><polygon class="cls-94" points="1395.75 596.36 1584.11 1299.31 1579.16 1300.64 1390.45 596.36 1395.75 596.36"/><polygon class="cls-95" points="1401.06 596.36 1589.06 1297.99 1584.11 1299.31 1395.75 596.36 1401.06 596.36"/><polygon class="cls-96" points="1406.37 596.36 1594.01 1296.66 1589.06 1297.99 1401.06 596.36 1406.37 596.36"/><polygon class="cls-97" points="1411.67 596.36 1598.96 1295.33 1594.01 1296.66 1406.37 596.36 1411.67 596.36"/><polygon class="cls-98" points="1416.98 596.36 1603.91 1294.01 1598.96 1295.33 1411.67 596.36 1416.98 596.36"/><polygon class="cls-99" points="1422.28 596.36 1608.86 1292.68 1603.91 1294.01 1416.98 596.36 1422.28 596.36"/><polygon class="cls-100" points="1427.59 596.36 1613.81 1291.35 1608.86 1292.68 1422.28 596.36 1427.59 596.36"/><polygon class="cls-101" points="1432.89 596.36 1618.76 1290.03 1613.81 1291.35 1427.59 596.36 1432.89 596.36"/><polygon class="cls-102" points="1438.2 596.36 1623.71 1288.7 1618.76 1290.03 1432.89 596.36 1438.2 596.36"/><polygon class="cls-103" points="1443.51 596.36 1628.66 1287.37 1623.71 1288.7 1438.2 596.36 1443.51 596.36"/><polygon class="cls-104" points="1448.81 596.36 1633.61 1286.05 1628.66 1287.37 1443.51 596.36 1448.81 596.36"/><polygon class="cls-105" points="1454.12 596.36 1638.56 1284.72 1633.61 1286.05 1448.81 596.36 1454.12 596.36"/><polygon class="cls-106" points="1459.43 596.36 1643.52 1283.39 1638.56 1284.72 1454.12 596.36 1459.43 596.36"/><polygon class="cls-107" points="1464.73 596.36 1648.47 1282.07 1643.52 1283.39 1459.43 596.36 1464.73 596.36"/><polygon class="cls-108" points="1470.04 596.36 1653.42 1280.74 1648.47 1282.07 1464.73 596.36 1470.04 596.36"/><polygon class="cls-109" points="1475.34 596.36 1658.37 1279.41 1653.42 1280.74 1470.04 596.36 1475.34 596.36"/><polygon class="cls-110" points="1480.65 596.36 1663.32 1278.09 1658.37 1279.41 1475.34 596.36 1480.65 596.36"/><polygon class="cls-111" points="1485.96 596.36 1668.27 1276.76 1663.32 1278.09 1480.65 596.36 1485.96 596.36"/><polygon class="cls-112" points="1491.26 596.36 1673.22 1275.43 1668.27 1276.76 1485.96 596.36 1491.26 596.36"/><polygon class="cls-113" points="1496.57 596.36 1678.17 1274.11 1673.22 1275.43 1491.26 596.36 1496.57 596.36"/><polygon class="cls-114" points="1501.87 596.36 1683.12 1272.78 1678.17 1274.11 1496.57 596.36 1501.87 596.36"/><polygon class="cls-115" points="1507.18 596.36 1688.07 1271.46 1683.12 1272.78 1501.87 596.36 1507.18 596.36"/><polygon class="cls-116" points="1512.49 596.36 1693.02 1270.13 1688.07 1271.46 1507.18 596.36 1512.49 596.36"/><polygon class="cls-117" points="1517.79 596.36 1697.97 1268.8 1693.02 1270.13 1512.49 596.36 1517.79 596.36"/><polygon class="cls-118" points="1523.1 596.36 1702.92 1267.48 1697.97 1268.8 1517.79 596.36 1523.1 596.36"/><polygon class="cls-119" points="1528.4 596.36 1707.87 1266.15 1702.92 1267.48 1523.1 596.36 1528.4 596.36"/><polygon class="cls-120" points="1533.71 596.36 1712.82 1264.82 1707.87 1266.15 1528.4 596.36 1533.71 596.36"/><polygon class="cls-121" points="1539.02 596.36 1717.78 1263.5 1712.82 1264.82 1533.71 596.36 1539.02 596.36"/><polygon class="cls-122" points="1544.32 596.36 1722.73 1262.17 1717.78 1263.5 1539.02 596.36 1544.32 596.36"/><polygon class="cls-123" points="1549.63 596.36 1727.68 1260.84 1722.73 1262.17 1544.32 596.36 1549.63 596.36"/><polygon class="cls-124" points="1554.93 596.36 1732.63 1259.52 1727.68 1260.84 1549.63 596.36 1554.93 596.36"/><polygon class="cls-125" points="1560.24 596.36 1737.58 1258.19 1732.63 1259.52 1554.93 596.36 1560.24 596.36"/><polygon class="cls-126" points="1565.55 596.36 1742.53 1256.86 1737.58 1258.19 1560.24 596.36 1565.55 596.36"/><polygon class="cls-127" points="1570.85 596.36 1747.48 1255.54 1742.53 1256.86 1565.55 596.36 1570.85 596.36"/><polygon class="cls-128" points="1576.16 596.36 1752.43 1254.21 1747.48 1255.54 1570.85 596.36 1576.16 596.36"/><polygon class="cls-129" points="1581.47 596.36 1757.38 1252.88 1752.43 1254.21 1576.16 596.36 1581.47 596.36"/><polygon class="cls-130" points="1586.77 596.36 1762.33 1251.56 1757.38 1252.88 1581.47 596.36 1586.77 596.36"/><polygon class="cls-131" points="1592.08 596.36 1767.28 1250.23 1762.33 1251.56 1586.77 596.36 1592.08 596.36"/><polygon class="cls-132" points="1597.38 596.36 1772.23 1248.9 1767.28 1250.23 1592.08 596.36 1597.38 596.36"/><polygon class="cls-133" points="1602.69 596.36 1777.18 1247.58 1772.23 1248.9 1597.38 596.36 1602.69 596.36"/><polygon class="cls-134" points="1608 596.36 1778.18 1231.49 1778.18 1247.31 1777.18 1247.58 1602.69 596.36 1608 596.36"/><polygon class="cls-135" points="1613.3 596.36 1778.18 1211.68 1778.18 1231.49 1608 596.36 1613.3 596.36"/><polygon class="cls-136" points="1618.61 596.36 1778.18 1191.88 1778.18 1211.68 1613.3 596.36 1618.61 596.36"/><polygon class="cls-137" points="1623.91 596.36 1778.18 1172.08 1778.18 1191.88 1618.61 596.36 1623.91 596.36"/><polygon class="cls-138" points="1629.22 596.36 1778.18 1152.28 1778.18 1172.08 1623.91 596.36 1629.22 596.36"/><polygon class="cls-139" points="1634.53 596.36 1778.18 1132.47 1778.18 1152.28 1629.22 596.36 1634.53 596.36"/><polygon class="cls-140" points="1639.83 596.36 1778.18 1112.67 1778.18 1132.47 1634.53 596.36 1639.83 596.36"/><polygon class="cls-141" points="1645.14 596.36 1778.18 1092.87 1778.18 1112.67 1639.83 596.36 1645.14 596.36"/><polygon class="cls-142" points="1650.44 596.36 1778.18 1073.07 1778.18 1092.87 1645.14 596.36 1650.44 596.36"/><polygon class="cls-143" points="1655.75 596.36 1778.18 1053.26 1778.18 1073.07 1650.44 596.36 1655.75 596.36"/><polygon class="cls-144" points="1661.06 596.36 1778.18 1033.46 1778.18 1053.26 1655.75 596.36 1661.06 596.36"/><polygon class="cls-145" points="1666.36 596.36 1778.18 1013.66 1778.18 1033.46 1661.06 596.36 1666.36 596.36"/><polygon class="cls-145" points="1778.18 1013.66 1666.36 596.36 1778.18 596.36 1778.18 1013.66"/></g></g><g id="_Group_25" data-name="&lt;Group&gt;"><circle class="cls-146" cx="1052.45" cy="1598.04" r="59.68"/></g></svg>